<?xml version="1.0" encoding="UTF-8" standalone="no"?>
<!DOCTYPE svg PUBLIC "-//W3C//DTD SVG 1.1//EN" "http://www.w3.org/Graphics/SVG/1.1/DTD/svg11.dtd">
<svg width="100%" height="100%" viewBox="0 0 1193 379" version="1.1" xmlns="http://www.w3.org/2000/svg" xmlns:xlink="http://www.w3.org/1999/xlink" xml:space="preserve" xmlns:serif="http://www.serif.com/" style="fill-rule:evenodd;clip-rule:evenodd;stroke-linejoin:round;stroke-miterlimit:2;">
    <g transform="matrix(1,0,0,1,-7267,-788)">
        <g id="Blue-Yonder" transform="matrix(3.32156,0,0,1.02858,6598.56,268.532)">
            <rect x="201.35" y="505.237" width="358.921" height="367.424" style="fill:none;"/>
            <clipPath id="_clip1">
                <rect x="201.35" y="505.237" width="358.921" height="367.424"/>
            </clipPath>
            <g clip-path="url(#_clip1)">
                <g transform="matrix(1.73723,0,0,5.60996,-125.848,-3654.14)">
                    <g>
                        <g transform="matrix(1,0,0,1,-19.9296,0)">
                            <g transform="matrix(1.34416,0,0,1.34416,-99.4019,-269.04)">
                                <circle cx="267.875" cy="759.644" r="7.555" style="fill:rgb(0,183,241);"/>
                            </g>
                            <g transform="matrix(1.34416,0,0,1.34416,-99.5981,-225.674)">
                                <circle cx="267.875" cy="759.644" r="7.555" style="fill:rgb(0,183,241);"/>
                            </g>
                        </g>
                        <g transform="matrix(1,0,0,1,-19.9296,0)">
                            <g transform="matrix(-1.34416,0,0,1.34416,642.149,-248.032)">
                                <path d="M267.875,752.756C269.61,752.756 273.083,754.271 275.77,755.613C279.54,757.496 282.43,758.188 282.408,759.644C282.382,761.285 279.231,762.081 275.77,763.894C272.858,765.42 269.78,766.628 267.875,766.628C263.705,766.628 260.796,763.814 260.796,759.644C260.796,755.475 263.705,752.756 267.875,752.756Z" style="fill:rgb(0,183,241);"/>
                            </g>
                            <g transform="matrix(1.34416,0,0,1.34416,-121.154,-248.032)">
                                <path d="M267.875,752.756C269.61,752.756 273.083,754.271 275.77,755.613C279.54,757.496 282.43,758.188 282.408,759.644C282.382,761.285 279.231,762.081 275.77,763.894C272.858,765.42 269.78,766.628 267.875,766.628C263.705,766.628 260.796,763.814 260.796,759.644C260.796,755.475 263.705,752.756 267.875,752.756Z" style="fill:rgb(0,183,241);"/>
                            </g>
                        </g>
                    </g>
                </g>
                <g transform="matrix(4.32283,0,0,13.9595,-12065.9,-27674.1)">
                    <path d="M2675,2049.04L2713.82,2049.04C2715.9,2046.41 2732.84,2024.82 2745.78,2011.61C2765.58,1991.4 2786.96,1973.38 2811.35,1973.38C2843.3,1973.38 2865.72,2001.48 2865.72,2028.96C2865.72,2053.38 2845.8,2083.58 2812.61,2083.48C2793.58,2083.43 2730.84,2083.48 2730.84,2083.48L2720.96,2096.59L2744.94,2096.59C2768.5,2096.59 2784.93,2117.15 2784.93,2138.18C2784.93,2159.22 2766.82,2178.9 2745.78,2178.9L2675,2178.9L2675,2161.75L2744.07,2161.75C2759.4,2161.75 2767.53,2148.45 2767.53,2137.89C2767.53,2127.32 2759.52,2114.02 2744.07,2114.02L2686.95,2114.02C2698.71,2097.74 2710.46,2081.45 2722.05,2066.3L2811.25,2066.3C2832.49,2066.3 2848.35,2049.72 2848.35,2028.56C2848.35,2007.39 2831.47,1990.81 2811.25,1990.81C2785.22,1990.81 2754.28,2024.15 2722.05,2066.3L2675,2066.3L2675,2049.04ZM2675,2130.55L2675,2114.02L2686.95,2114.02C2682.97,2119.55 2678.98,2125.07 2675,2130.55Z" style="fill:url(#_Linear2);"/>
                </g>
            </g>
        </g>
    </g>
    <defs>
        <linearGradient id="_Linear2" x1="0" y1="0" x2="1" y2="0" gradientUnits="userSpaceOnUse" gradientTransform="matrix(-289.5,206.289,-248.904,-349.305,2857.5,1991)"><stop offset="0" style="stop-color:rgb(249,207,0);stop-opacity:1"/><stop offset="1" style="stop-color:rgb(241,159,77);stop-opacity:1"/></linearGradient>
    </defs>
</svg>
