<?xml version="1.0" encoding="UTF-8" standalone="no"?>
<!DOCTYPE svg PUBLIC "-//W3C//DTD SVG 1.1//EN" "http://www.w3.org/Graphics/SVG/1.1/DTD/svg11.dtd">
<svg width="100%" height="100%" viewBox="0 0 1164 1012" version="1.1" xmlns="http://www.w3.org/2000/svg" xmlns:xlink="http://www.w3.org/1999/xlink" xml:space="preserve" xmlns:serif="http://www.serif.com/" style="fill-rule:evenodd;clip-rule:evenodd;stroke-linecap:round;stroke-miterlimit:1.5;">
    <g transform="matrix(1,0,0,1,-7293,-1349)">
        <g id="Complexity" transform="matrix(1,0,0,1,7294.2,1604.84)">
            <rect x="-0.636" y="-255.093" width="1162.62" height="1010.58" style="fill:none;"/>
            <g transform="matrix(1,0,0,1,-248.385,-193.343)">
                <g transform="matrix(-0.98004,-1.2002e-16,1.22465e-16,-1,1630.96,875.381)">
                    <g transform="matrix(-1.02037,1.22465e-16,-1.24959e-16,-1,1411.95,937.875)">
                        <path d="M228.539,763.782L281.271,869.246L334.003,763.782C307.637,790.148 254.905,790.148 228.539,763.782Z" style="fill:url(#_Linear1);"/>
                        <path d="M155.055,524.466L49.591,471.734L155.055,419.002L102.323,471.734L155.055,524.466Z" style="fill:url(#_Linear2);"/>
                        <path d="M281.271,784.875L281.271,736.518L855.54,736.518L855.54,471.734L102.323,471.734" style="fill:none;stroke:url(#_Linear3);stroke-width:46.87px;"/>
                    </g>
                </g>
                <g transform="matrix(-1,-1.22465e-16,1.22465e-16,-1,1653.41,875.381)">
                    <g transform="matrix(-1,1.22465e-16,-1.22465e-16,-1,1406.22,937.875)">
                        <path d="M910.41,593.127L963.142,698.591L1015.87,593.127C989.508,619.493 936.776,619.493 910.41,593.127Z" style="fill:url(#_Linear4);"/>
                        <path d="M307.102,375.724L201.638,322.992L307.102,270.26L254.37,322.992L307.102,375.724Z" style="fill:url(#_Linear5);"/>
                        <path d="M963.142,614.22L963.142,472.395L606.417,472.395L606.417,322.992L254.37,322.992" style="fill:none;stroke:url(#_Linear6);stroke-width:46.87px;"/>
                    </g>
                </g>
                <g transform="matrix(-1,-1.22465e-16,1.22465e-16,-1,1653.41,875.381)">
                    <g transform="matrix(-1,1.22465e-16,-1.22465e-16,-1,1406.22,937.875)">
                        <path d="M737.451,536.926L631.987,589.658L737.451,642.39C711.085,616.024 711.085,563.292 737.451,536.926Z" style="fill:url(#_Linear7);"/>
                        <path d="M908.071,684.295L1013.53,737.027L908.071,789.759L960.803,737.027L908.071,684.295Z" style="fill:url(#_Linear8);"/>
                        <path d="M716.358,589.658L856.709,589.658L856.709,737.027L960.803,737.027" style="fill:none;stroke:url(#_Linear9);stroke-width:46.87px;"/>
                    </g>
                </g>
                <g transform="matrix(-1,-1.22465e-16,1.22465e-16,-1,1653.41,875.381)">
                    <g transform="matrix(-1,1.22465e-16,-1.22465e-16,-1,1406.22,937.875)">
                        <path d="M850.821,201.455L956.285,148.723L850.821,95.991C877.187,122.357 877.187,175.089 850.821,201.455Z" style="fill:url(#_Linear10);"/>
                        <path d="M319.968,690.344L214.504,637.612L319.968,584.88L267.236,637.612L319.968,690.344Z" style="fill:url(#_Linear11);"/>
                        <path d="M871.914,148.723L606.417,148.723L606.417,637.612L267.236,637.612" style="fill:none;stroke:url(#_Linear12);stroke-width:46.87px;"/>
                    </g>
                </g>
                <g transform="matrix(-1,-1.22465e-16,1.22465e-16,-1,1653.41,875.381)">
                    <g transform="matrix(-1,1.22465e-16,-1.22465e-16,-1,1406.22,937.875)">
                        <path d="M945.558,376.893L1051.02,324.161L945.558,271.429C971.924,297.795 971.924,350.527 945.558,376.893Z" style="fill:url(#_Linear13);"/>
                        <path d="M909.441,795.658L856.709,901.122L803.977,795.658L856.709,848.39L909.441,795.658Z" style="fill:url(#_Linear14);"/>
                        <path d="M966.651,324.161L738.581,324.161L738.581,472.056L856.709,472.056L856.709,848.39" style="fill:none;stroke:url(#_Linear15);stroke-width:46.87px;"/>
                    </g>
                </g>
                <g transform="matrix(-1,-1.22465e-16,1.22465e-16,-1,1653.41,875.381)">
                    <g transform="matrix(-1,1.22465e-16,-1.22465e-16,-1,1406.22,937.875)">
                        <path d="M546.868,162.798L494.136,57.334L441.404,162.798C467.77,136.432 520.502,136.432 546.868,162.798Z" style="fill:url(#_Linear16);"/>
                        <path d="M687.018,279.718L739.75,174.254L792.482,279.718L739.75,226.986L687.018,279.718Z" style="fill:url(#_Linear17);"/>
                        <path d="M494.136,141.705L494.136,323.161L739.75,323.161L739.75,226.986" style="fill:none;stroke:url(#_Linear18);stroke-width:46.87px;"/>
                    </g>
                </g>
                <g transform="matrix(-1,-1.22465e-16,1.22465e-16,-1,1653.41,875.381)">
                    <g transform="matrix(-1,1.22465e-16,-1.22465e-16,-1,1406.22,937.875)">
                        <path d="M408.656,832.893L461.388,938.357L514.12,832.893C487.754,859.259 435.022,859.259 408.656,832.893Z" style="fill:url(#_Linear19);"/>
                        <path d="M309.24,276.309L361.972,170.845L414.704,276.309L361.972,223.577L309.24,276.309Z" style="fill:url(#_Linear20);"/>
                        <path d="M461.388,853.986L461.388,471.36L361.972,471.36L361.972,223.577" style="fill:none;stroke:url(#_Linear21);stroke-width:46.87px;"/>
                    </g>
                </g>
            </g>
        </g>
    </g>
    <defs>
        <linearGradient id="_Linear1" x1="0" y1="0" x2="1" y2="0" gradientUnits="userSpaceOnUse" gradientTransform="matrix(-698.064,-8.54881e-14,8.72292e-14,-712.281,952.971,497.846)"><stop offset="0" style="stop-color:rgb(249,207,0);stop-opacity:1"/><stop offset="1" style="stop-color:rgb(241,159,77);stop-opacity:1"/></linearGradient>
        <linearGradient id="_Linear2" x1="0" y1="0" x2="1" y2="0" gradientUnits="userSpaceOnUse" gradientTransform="matrix(-698.064,-8.54881e-14,8.72292e-14,-712.281,952.971,497.846)"><stop offset="0" style="stop-color:rgb(249,207,0);stop-opacity:1"/><stop offset="1" style="stop-color:rgb(241,159,77);stop-opacity:1"/></linearGradient>
        <linearGradient id="_Linear3" x1="0" y1="0" x2="1" y2="0" gradientUnits="userSpaceOnUse" gradientTransform="matrix(-698.064,-8.54881e-14,8.72292e-14,-712.281,952.971,497.846)"><stop offset="0" style="stop-color:rgb(249,207,0);stop-opacity:1"/><stop offset="1" style="stop-color:rgb(241,159,77);stop-opacity:1"/></linearGradient>
        <linearGradient id="_Linear4" x1="0" y1="0" x2="1" y2="0" gradientUnits="userSpaceOnUse" gradientTransform="matrix(-712.281,-8.72292e-14,8.72292e-14,-712.281,966.651,497.846)"><stop offset="0" style="stop-color:rgb(249,207,0);stop-opacity:1"/><stop offset="1" style="stop-color:rgb(241,159,77);stop-opacity:1"/></linearGradient>
        <linearGradient id="_Linear5" x1="0" y1="0" x2="1" y2="0" gradientUnits="userSpaceOnUse" gradientTransform="matrix(-712.281,-8.72292e-14,8.72292e-14,-712.281,966.651,497.846)"><stop offset="0" style="stop-color:rgb(249,207,0);stop-opacity:1"/><stop offset="1" style="stop-color:rgb(241,159,77);stop-opacity:1"/></linearGradient>
        <linearGradient id="_Linear6" x1="0" y1="0" x2="1" y2="0" gradientUnits="userSpaceOnUse" gradientTransform="matrix(-712.281,-8.72292e-14,8.72292e-14,-712.281,966.651,497.846)"><stop offset="0" style="stop-color:rgb(249,207,0);stop-opacity:1"/><stop offset="1" style="stop-color:rgb(241,159,77);stop-opacity:1"/></linearGradient>
        <linearGradient id="_Linear7" x1="0" y1="0" x2="1" y2="0" gradientUnits="userSpaceOnUse" gradientTransform="matrix(-712.281,-8.72292e-14,8.72292e-14,-712.281,966.651,497.846)"><stop offset="0" style="stop-color:rgb(249,207,0);stop-opacity:1"/><stop offset="1" style="stop-color:rgb(241,159,77);stop-opacity:1"/></linearGradient>
        <linearGradient id="_Linear8" x1="0" y1="0" x2="1" y2="0" gradientUnits="userSpaceOnUse" gradientTransform="matrix(-712.281,-8.72292e-14,8.72292e-14,-712.281,966.651,497.846)"><stop offset="0" style="stop-color:rgb(249,207,0);stop-opacity:1"/><stop offset="1" style="stop-color:rgb(241,159,77);stop-opacity:1"/></linearGradient>
        <linearGradient id="_Linear9" x1="0" y1="0" x2="1" y2="0" gradientUnits="userSpaceOnUse" gradientTransform="matrix(-712.281,-8.72292e-14,8.72292e-14,-712.281,966.651,497.846)"><stop offset="0" style="stop-color:rgb(249,207,0);stop-opacity:1"/><stop offset="1" style="stop-color:rgb(241,159,77);stop-opacity:1"/></linearGradient>
        <linearGradient id="_Linear10" x1="0" y1="0" x2="1" y2="0" gradientUnits="userSpaceOnUse" gradientTransform="matrix(-712.281,-8.72292e-14,8.72292e-14,-712.281,966.651,497.846)"><stop offset="0" style="stop-color:rgb(249,207,0);stop-opacity:1"/><stop offset="1" style="stop-color:rgb(241,159,77);stop-opacity:1"/></linearGradient>
        <linearGradient id="_Linear11" x1="0" y1="0" x2="1" y2="0" gradientUnits="userSpaceOnUse" gradientTransform="matrix(-712.281,-8.72292e-14,8.72292e-14,-712.281,966.651,497.846)"><stop offset="0" style="stop-color:rgb(249,207,0);stop-opacity:1"/><stop offset="1" style="stop-color:rgb(241,159,77);stop-opacity:1"/></linearGradient>
        <linearGradient id="_Linear12" x1="0" y1="0" x2="1" y2="0" gradientUnits="userSpaceOnUse" gradientTransform="matrix(-712.281,-8.72292e-14,8.72292e-14,-712.281,966.651,497.846)"><stop offset="0" style="stop-color:rgb(249,207,0);stop-opacity:1"/><stop offset="1" style="stop-color:rgb(241,159,77);stop-opacity:1"/></linearGradient>
        <linearGradient id="_Linear13" x1="0" y1="0" x2="1" y2="0" gradientUnits="userSpaceOnUse" gradientTransform="matrix(-712.281,-8.72292e-14,8.72292e-14,-712.281,966.651,497.846)"><stop offset="0" style="stop-color:rgb(249,207,0);stop-opacity:1"/><stop offset="1" style="stop-color:rgb(241,159,77);stop-opacity:1"/></linearGradient>
        <linearGradient id="_Linear14" x1="0" y1="0" x2="1" y2="0" gradientUnits="userSpaceOnUse" gradientTransform="matrix(-712.281,-8.72292e-14,8.72292e-14,-712.281,966.651,497.846)"><stop offset="0" style="stop-color:rgb(249,207,0);stop-opacity:1"/><stop offset="1" style="stop-color:rgb(241,159,77);stop-opacity:1"/></linearGradient>
        <linearGradient id="_Linear15" x1="0" y1="0" x2="1" y2="0" gradientUnits="userSpaceOnUse" gradientTransform="matrix(-712.281,-8.72292e-14,8.72292e-14,-712.281,966.651,497.846)"><stop offset="0" style="stop-color:rgb(249,207,0);stop-opacity:1"/><stop offset="1" style="stop-color:rgb(241,159,77);stop-opacity:1"/></linearGradient>
        <linearGradient id="_Linear16" x1="0" y1="0" x2="1" y2="0" gradientUnits="userSpaceOnUse" gradientTransform="matrix(-712.281,-8.72292e-14,8.72292e-14,-712.281,966.651,497.846)"><stop offset="0" style="stop-color:rgb(249,207,0);stop-opacity:1"/><stop offset="1" style="stop-color:rgb(241,159,77);stop-opacity:1"/></linearGradient>
        <linearGradient id="_Linear17" x1="0" y1="0" x2="1" y2="0" gradientUnits="userSpaceOnUse" gradientTransform="matrix(-712.281,-8.72292e-14,8.72292e-14,-712.281,966.651,497.846)"><stop offset="0" style="stop-color:rgb(249,207,0);stop-opacity:1"/><stop offset="1" style="stop-color:rgb(241,159,77);stop-opacity:1"/></linearGradient>
        <linearGradient id="_Linear18" x1="0" y1="0" x2="1" y2="0" gradientUnits="userSpaceOnUse" gradientTransform="matrix(-712.281,-8.72292e-14,8.72292e-14,-712.281,966.651,497.846)"><stop offset="0" style="stop-color:rgb(249,207,0);stop-opacity:1"/><stop offset="1" style="stop-color:rgb(241,159,77);stop-opacity:1"/></linearGradient>
        <linearGradient id="_Linear19" x1="0" y1="0" x2="1" y2="0" gradientUnits="userSpaceOnUse" gradientTransform="matrix(-712.281,-8.72292e-14,8.72292e-14,-712.281,966.651,497.846)"><stop offset="0" style="stop-color:rgb(249,207,0);stop-opacity:1"/><stop offset="1" style="stop-color:rgb(241,159,77);stop-opacity:1"/></linearGradient>
        <linearGradient id="_Linear20" x1="0" y1="0" x2="1" y2="0" gradientUnits="userSpaceOnUse" gradientTransform="matrix(-712.281,-8.72292e-14,8.72292e-14,-712.281,966.651,497.846)"><stop offset="0" style="stop-color:rgb(249,207,0);stop-opacity:1"/><stop offset="1" style="stop-color:rgb(241,159,77);stop-opacity:1"/></linearGradient>
        <linearGradient id="_Linear21" x1="0" y1="0" x2="1" y2="0" gradientUnits="userSpaceOnUse" gradientTransform="matrix(-712.281,-8.72292e-14,8.72292e-14,-712.281,966.651,497.846)"><stop offset="0" style="stop-color:rgb(249,207,0);stop-opacity:1"/><stop offset="1" style="stop-color:rgb(241,159,77);stop-opacity:1"/></linearGradient>
    </defs>
</svg>
