<?xml version="1.0" encoding="UTF-8" standalone="no"?><!DOCTYPE svg PUBLIC "-//W3C//DTD SVG 1.1//EN" "http://www.w3.org/Graphics/SVG/1.1/DTD/svg11.dtd"><svg width="100%" height="100%" viewBox="0 0 332 196" version="1.1" xmlns="http://www.w3.org/2000/svg" xmlns:xlink="http://www.w3.org/1999/xlink" xml:space="preserve" xmlns:serif="http://www.serif.com/" style="fill-rule:evenodd;clip-rule:evenodd;stroke-linejoin:round;stroke-miterlimit:2;"><rect id="Invalid" x="0" y="0" width="331.664" height="195.789" style="fill:#404040;"/><path d="M195.48,97.895l111.52,83.335l-39.447,0c-12.767,0 -25.096,-3.95 -34.677,-11.111c-23.607,-17.642 -67.025,-50.089 -67.025,-50.089c0,0 -43.449,32.456 -67.066,50.096c-9.58,7.156 -21.905,11.104 -34.667,11.104l-39.454,0l111.559,-83.335l-111.559,-83.336l39.454,0c12.762,0 25.087,3.948 34.667,11.104c23.617,17.64 67.066,50.096 67.066,50.096c0,0 43.418,-32.447 67.025,-50.089c9.581,-7.16 21.91,-11.111 34.677,-11.111l39.447,0l-111.52,83.336Z" style="fill:#8a0000;fill-rule:nonzero;stroke:#fff;stroke-width:7px;"/></svg>