<?xml version="1.0" encoding="UTF-8" standalone="no"?>
<!DOCTYPE svg PUBLIC "-//W3C//DTD SVG 1.1//EN" "http://www.w3.org/Graphics/SVG/1.1/DTD/svg11.dtd">
<svg width="100%" height="100%" viewBox="0 0 63 64" version="1.1" xmlns="http://www.w3.org/2000/svg" xmlns:xlink="http://www.w3.org/1999/xlink" xml:space="preserve" xmlns:serif="http://www.serif.com/" style="fill-rule:evenodd;clip-rule:evenodd;stroke-linejoin:round;stroke-miterlimit:2;">
    <g transform="matrix(1,0,0,1,-229.397,-741.886)">
        <g>
            <g>
                <g>
                    <g transform="matrix(1.34416,0,0,1.34416,-99.4019,-269.04)">
                        <circle cx="267.875" cy="759.644" r="7.555" style="fill:rgb(0,183,241);"/>
                    </g>
                    <g transform="matrix(1.34416,0,0,1.34416,-99.5981,-225.674)">
                        <circle cx="267.875" cy="759.644" r="7.555" style="fill:rgb(0,183,241);"/>
                    </g>
                </g>
                <g>
                    <g transform="matrix(-1.34416,0,0,1.34416,642.149,-248.032)">
                        <path d="M267.875,752.756C269.61,752.756 273.083,754.271 275.77,755.613C279.54,757.496 282.43,758.188 282.408,759.644C282.382,761.285 279.231,762.081 275.77,763.894C272.858,765.42 269.78,766.628 267.875,766.628C263.705,766.628 260.796,763.814 260.796,759.644C260.796,755.475 263.705,752.756 267.875,752.756Z" style="fill:rgb(0,183,241);"/>
                    </g>
                    <g transform="matrix(1.34416,0,0,1.34416,-121.154,-248.032)">
                        <path d="M267.875,752.756C269.61,752.756 273.083,754.271 275.77,755.613C279.54,757.496 282.43,758.188 282.408,759.644C282.382,761.285 279.231,762.081 275.77,763.894C272.858,765.42 269.78,766.628 267.875,766.628C263.705,766.628 260.796,763.814 260.796,759.644C260.796,755.475 263.705,752.756 267.875,752.756Z" style="fill:rgb(0,183,241);"/>
                    </g>
                </g>
            </g>
        </g>
    </g>
</svg>
