<?xml version="1.0" encoding="UTF-8" standalone="no"?>
<!DOCTYPE svg PUBLIC "-//W3C//DTD SVG 1.1//EN" "http://www.w3.org/Graphics/SVG/1.1/DTD/svg11.dtd">
<svg width="100%" height="100%" viewBox="0 0 1193 368" version="1.1" xmlns="http://www.w3.org/2000/svg" xmlns:xlink="http://www.w3.org/1999/xlink" xml:space="preserve" xmlns:serif="http://www.serif.com/" style="fill-rule:evenodd;clip-rule:evenodd;stroke-linejoin:round;stroke-miterlimit:2;">
    <g transform="matrix(1,0,0,1,0,-347.13)">
        <g id="Blue-Yonder" transform="matrix(3.32156,0,0,1,-668.796,-158.107)">
            <rect x="201.35" y="505.237" width="358.921" height="367.424" style="fill:none;"/>
            <clipPath id="_clip1">
                <rect x="201.35" y="505.237" width="358.921" height="367.424"/>
            </clipPath>
            <g clip-path="url(#_clip1)">
                <g transform="matrix(1.73723,0,0,5.77032,-125.848,-3777.03)">
                    <g>
                        <g transform="matrix(1,0,0,1,-19.9296,0)">
                            <g transform="matrix(1.34416,0,0,1.34416,-99.4019,-269.04)">
                                <circle cx="267.875" cy="759.644" r="7.555" style="fill:rgb(0,183,241);"/>
                            </g>
                            <g transform="matrix(1.34416,0,0,1.34416,-99.5981,-225.674)">
                                <circle cx="267.875" cy="759.644" r="7.555" style="fill:rgb(0,183,241);"/>
                            </g>
                        </g>
                        <g transform="matrix(1,0,0,1,-19.9296,0)">
                            <g transform="matrix(-1.34416,0,0,1.34416,642.149,-248.032)">
                                <path d="M267.875,752.756C269.61,752.756 273.083,754.271 275.77,755.613C279.54,757.496 282.43,758.188 282.408,759.644C282.382,761.285 279.231,762.081 275.77,763.894C272.858,765.42 269.78,766.628 267.875,766.628C263.705,766.628 260.796,763.814 260.796,759.644C260.796,755.475 263.705,752.756 267.875,752.756Z" style="fill:rgb(0,183,241);"/>
                            </g>
                            <g transform="matrix(1.34416,0,0,1.34416,-121.154,-248.032)">
                                <path d="M267.875,752.756C269.61,752.756 273.083,754.271 275.77,755.613C279.54,757.496 282.43,758.188 282.408,759.644C282.382,761.285 279.231,762.081 275.77,763.894C272.858,765.42 269.78,766.628 267.875,766.628C263.705,766.628 260.796,763.814 260.796,759.644C260.796,755.475 263.705,752.756 267.875,752.756Z" style="fill:rgb(0,183,241);"/>
                            </g>
                        </g>
                    </g>
                </g>
            </g>
        </g>
        <g transform="matrix(0.971662,0,0,1.06564,-188.68,-14.088)">
            <path d="M1729.82,225.92C1729.82,139.309 1652.7,68.992 1557.71,68.992L1556.4,68.992C1461.41,68.992 1384.3,139.309 1384.3,225.92C1384.3,312.53 1461.41,382.847 1556.4,382.847L1557.71,382.847C1652.7,382.847 1729.82,312.53 1729.82,225.92Z" style="fill:rgb(44,18,255);fill-opacity:0.65;"/>
            <path d="M1558.27,67.17L1558.84,67.173L1559.4,67.177L1559.96,67.182L1560.52,67.19L1561.08,67.199L1561.64,67.209L1562.2,67.221L1562.76,67.235L1563.32,67.25L1563.88,67.267L1564.44,67.286L1564.99,67.306L1565.55,67.328L1566.11,67.351L1566.66,67.376L1567.22,67.403L1567.77,67.431L1568.33,67.46L1568.88,67.492L1569.44,67.525L1569.99,67.559L1570.54,67.595L1571.1,67.633L1571.65,67.672L1572.2,67.713L1572.75,67.755L1573.3,67.799L1573.85,67.844L1574.4,67.891L1574.95,67.94L1575.5,67.99L1576.05,68.041L1576.6,68.094L1577.14,68.149L1577.69,68.205L1578.24,68.263L1578.78,68.323L1579.33,68.383L1579.87,68.446L1580.41,68.51L1580.96,68.575L1581.5,68.642L1582.04,68.711L1582.59,68.781L1583.13,68.852L1583.67,68.925L1584.21,69L1584.75,69.076L1585.29,69.154L1585.83,69.233L1586.37,69.313L1586.9,69.395L1587.44,69.479L1587.98,69.564L1588.51,69.651L1589.05,69.739L1589.58,69.828L1590.12,69.92L1590.65,70.012L1591.18,70.106L1591.72,70.202L1592.25,70.299L1592.78,70.397L1593.31,70.497L1593.84,70.598L1594.37,70.701L1594.9,70.806L1595.43,70.912L1595.95,71.019L1596.48,71.127L1597.01,71.238L1597.54,71.349L1598.06,71.462L1598.59,71.577L1599.11,71.693L1599.63,71.81L1600.16,71.929L1600.68,72.049L1601.2,72.171L1601.72,72.294L1602.24,72.419L1602.76,72.545L1603.28,72.672L1603.8,72.801L1604.32,72.931L1604.83,73.063L1605.35,73.196L1605.87,73.331L1606.38,73.467L1606.9,73.604L1607.41,73.743L1607.92,73.883L1608.44,74.025L1608.95,74.168L1609.46,74.312L1609.97,74.458L1610.48,74.605L1610.99,74.753L1611.5,74.903L1612.01,75.055L1612.51,75.207L1613.02,75.361L1613.53,75.517L1614.03,75.674L1614.54,75.832L1615.04,75.991L1615.54,76.152L1616.05,76.315L1616.55,76.478L1617.05,76.643L1617.55,76.81L1618.05,76.977L1618.55,77.146L1619.05,77.317L1619.54,77.489L1620.04,77.662L1620.54,77.836L1621.03,78.012L1621.53,78.189L1622.02,78.367L1622.51,78.547L1623,78.728L1623.5,78.911L1623.99,79.095L1624.48,79.28L1624.97,79.466L1625.45,79.654L1625.94,79.843L1626.43,80.033L1626.91,80.225L1627.4,80.418L1627.89,80.612L1628.37,80.808L1628.85,81.005L1629.34,81.203L1629.82,81.402L1630.3,81.603L1630.78,81.805L1631.26,82.009L1631.74,82.213L1632.21,82.419L1632.69,82.626L1633.17,82.835L1633.64,83.045L1634.12,83.256L1634.59,83.468L1635.06,83.682L1635.53,83.897L1636.01,84.113L1636.48,84.33L1636.95,84.549L1637.41,84.768L1637.88,84.99L1638.35,85.212L1638.82,85.436L1639.28,85.661L1639.75,85.887L1640.21,86.114L1640.67,86.343L1641.13,86.573L1641.6,86.804L1642.06,87.036L1642.52,87.269L1642.98,87.504L1643.43,87.74L1643.89,87.977L1644.35,88.216L1644.8,88.456L1645.26,88.696L1645.71,88.939L1646.16,89.182L1646.61,89.426L1647.06,89.672L1647.52,89.919L1647.96,90.167L1648.41,90.416L1648.86,90.667L1649.31,90.919L1649.75,91.171L1650.2,91.426L1650.64,91.681L1651.08,91.937L1651.53,92.195L1651.97,92.454L1652.41,92.714L1652.85,92.975L1653.28,93.237L1653.72,93.501L1654.16,93.765L1654.59,94.031L1655.03,94.298L1655.46,94.566L1655.89,94.835L1656.33,95.106L1656.76,95.377L1657.19,95.65L1657.62,95.924L1658.04,96.199L1658.47,96.475L1658.9,96.753L1659.32,97.031L1659.75,97.311L1660.17,97.591L1660.59,97.873L1661.01,98.156L1661.43,98.44L1661.85,98.726L1662.27,99.012L1662.69,99.299L1663.11,99.588L1663.52,99.878L1663.94,100.168L1664.35,100.46L1664.76,100.753L1665.17,101.047L1665.59,101.343L1666,101.639L1666.4,101.936L1666.81,102.235L1667.22,102.535L1667.62,102.835L1668.03,103.137L1668.43,103.44L1668.83,103.744L1669.24,104.049L1669.64,104.355L1670.04,104.662L1670.43,104.97L1670.83,105.28L1671.23,105.59L1671.62,105.901L1672.02,106.214L1672.41,106.527L1672.8,106.842L1673.19,107.157L1673.59,107.474L1673.98,107.792L1674.36,108.111L1674.75,108.431L1675.14,108.751L1675.52,109.073L1675.9,109.396L1676.29,109.72L1676.67,110.045L1677.05,110.371L1677.43,110.699L1677.81,111.027L1678.18,111.356L1678.56,111.686L1678.94,112.017L1679.31,112.349L1679.68,112.682L1680.06,113.017L1680.43,113.352L1680.8,113.688L1681.17,114.025L1681.53,114.363L1681.9,114.703L1682.27,115.043L1682.63,115.384L1682.99,115.726L1683.36,116.07L1683.72,116.414L1684.08,116.759L1684.43,117.105L1684.79,117.452L1685.15,117.8L1685.5,118.149L1685.86,118.499L1686.21,118.85L1686.56,119.202L1686.91,119.555L1687.26,119.909L1687.61,120.264L1687.96,120.62L1688.31,120.976L1688.65,121.334L1688.99,121.693L1689.34,122.052L1689.68,122.413L1690.02,122.774L1690.36,123.137L1690.7,123.5L1691.03,123.864L1691.37,124.23L1691.7,124.596L1692.04,124.963L1692.37,125.331L1692.7,125.7L1693.03,126.07L1693.36,126.441L1693.68,126.812L1694.01,127.185L1694.34,127.558L1694.66,127.933L1694.98,128.308L1695.3,128.684L1695.62,129.062L1695.94,129.439L1696.26,129.818L1696.58,130.198L1696.89,130.579L1697.21,130.961L1697.52,131.343L1697.83,131.726L1698.14,132.111L1698.45,132.496L1698.76,132.882L1699.07,133.269L1699.37,133.656L1699.67,134.045L1699.98,134.434L1700.28,134.825L1700.58,135.216L1700.88,135.608L1701.18,136.001L1701.47,136.395L1701.77,136.789L1702.06,137.185L1702.36,137.581L1702.65,137.978L1702.94,138.376L1703.23,138.775L1703.51,139.175L1703.8,139.575L1704.09,139.977L1704.37,140.379L1704.65,140.782L1704.93,141.186L1705.21,141.59L1705.49,141.996L1705.77,142.402L1706.05,142.809L1706.32,143.217L1706.59,143.626L1706.87,144.035L1707.14,144.446L1707.4,144.857L1707.67,145.269L1707.94,145.682L1708.21,146.095L1708.47,146.51L1708.73,146.925L1708.99,147.341L1709.26,147.757L1709.51,148.175L1709.77,148.593L1710.03,149.012L1710.28,149.432L1710.54,149.853L1710.79,150.274L1711.04,150.696L1711.29,151.119L1711.54,151.543L1711.78,151.967L1712.03,152.392L1712.27,152.818L1712.51,153.245L1712.76,153.672L1713,154.1L1713.23,154.53L1713.47,154.959L1713.71,155.39L1713.94,155.821L1714.17,156.253L1714.4,156.685L1714.63,157.119L1714.86,157.553L1715.09,157.988L1715.32,158.423L1715.54,158.859L1715.76,159.297L1715.99,159.734L1716.2,160.173L1716.42,160.612L1716.64,161.052L1716.86,161.492L1717.07,161.934L1717.29,162.375L1717.5,162.818L1717.71,163.262L1717.92,163.706L1718.12,164.15L1718.33,164.596L1718.53,165.042L1718.74,165.489L1718.94,165.936L1719.14,166.384L1719.34,166.833L1719.53,167.283L1719.73,167.733L1719.92,168.184L1720.12,168.635L1720.31,169.088L1720.5,169.541L1720.69,169.994L1720.87,170.448L1721.06,170.903L1721.24,171.359L1721.42,171.815L1721.61,172.272L1721.79,172.729L1721.96,173.187L1722.14,173.646L1722.32,174.106L1722.49,174.565L1722.66,175.026L1722.83,175.487L1723,175.949L1723.17,176.412L1723.33,176.875L1723.5,177.339L1723.66,177.803L1723.82,178.268L1723.98,178.734L1724.14,179.2L1724.3,179.667L1724.45,180.134L1724.61,180.603L1724.76,181.071L1724.91,181.541L1725.06,182.01L1725.2,182.481L1725.35,182.952L1725.5,183.424L1725.64,183.896L1725.78,184.369L1725.92,184.842L1726.06,185.316L1726.19,185.791L1726.33,186.266L1726.46,186.742L1726.6,187.218L1726.73,187.694L1726.85,188.172L1726.98,188.65L1727.11,189.129L1727.23,189.608L1727.35,190.087L1727.47,190.567L1727.59,191.048L1727.71,191.529L1727.83,192.011L1727.94,192.494L1728.05,192.977L1728.16,193.46L1728.28,193.944L1728.38,194.429L1728.49,194.914L1728.59,195.399L1728.7,195.885L1728.8,196.372L1728.9,196.859L1729,197.347L1729.09,197.835L1729.19,198.324L1729.28,198.813L1729.37,199.303L1729.46,199.793L1729.55,200.284L1729.64,200.775L1729.72,201.267L1729.81,201.759L1729.89,202.251L1729.97,202.745L1730.05,203.239L1730.13,203.733L1730.2,204.227L1730.27,204.722L1730.35,205.218L1730.41,205.714L1730.48,206.211L1730.55,206.708L1730.62,207.205L1730.68,207.703L1730.74,208.202L1730.8,208.701L1730.86,209.2L1730.91,209.7L1730.97,210.2L1731.02,210.701L1731.08,211.202L1731.13,211.704L1731.17,212.206L1731.22,212.708L1731.26,213.211L1731.31,213.715L1731.35,214.218L1731.39,214.722L1731.42,215.227L1731.46,215.732L1731.5,216.238L1731.53,216.744L1731.56,217.25L1731.59,217.757L1731.62,218.264L1731.64,218.772L1731.66,219.28L1731.69,219.788L1731.71,220.297L1731.73,220.806L1731.74,221.316L1731.76,221.826L1731.77,222.336L1731.78,222.847L1731.79,223.358L1731.8,223.87L1731.81,224.382L1731.81,224.894L1731.81,225.407L1731.82,225.92L1731.81,226.433L1731.81,226.945L1731.81,227.458L1731.8,227.97L1731.79,228.481L1731.78,228.992L1731.77,229.503L1731.76,230.014L1731.74,230.524L1731.73,231.033L1731.71,231.542L1731.69,232.051L1731.66,232.56L1731.64,233.068L1731.62,233.575L1731.59,234.082L1731.56,234.589L1731.53,235.095L1731.5,235.601L1731.46,236.107L1731.42,236.612L1731.39,237.117L1731.35,237.621L1731.31,238.125L1731.26,238.628L1731.22,239.131L1731.17,239.634L1731.13,240.136L1731.08,240.637L1731.02,241.138L1730.97,241.639L1730.91,242.139L1730.86,242.639L1730.8,243.138L1730.74,243.637L1730.68,244.136L1730.62,244.634L1730.55,245.131L1730.48,245.628L1730.41,246.125L1730.35,246.621L1730.27,247.117L1730.2,247.612L1730.13,248.107L1730.05,248.601L1729.97,249.094L1729.89,249.588L1729.81,250.08L1729.72,250.572L1729.64,251.064L1729.55,251.555L1729.46,252.046L1729.37,252.536L1729.28,253.026L1729.19,253.515L1729.09,254.004L1729,254.492L1728.9,254.98L1728.8,255.467L1728.7,255.954L1728.59,256.44L1728.49,256.925L1728.38,257.411L1728.28,257.895L1728.16,258.379L1728.05,258.862L1727.94,259.345L1727.83,259.828L1727.71,260.31L1727.59,260.791L1727.47,261.272L1727.35,261.752L1727.23,262.232L1727.11,262.711L1726.98,263.189L1726.85,263.667L1726.73,264.145L1726.6,264.622L1726.46,265.098L1726.33,265.573L1726.19,266.049L1726.06,266.523L1725.92,266.997L1725.78,267.471L1725.64,267.943L1725.5,268.416L1725.35,268.887L1725.2,269.358L1725.06,269.829L1724.91,270.299L1724.76,270.768L1724.61,271.237L1724.45,271.705L1724.3,272.172L1724.14,272.639L1723.98,273.105L1723.82,273.571L1723.66,274.036L1723.5,274.5L1723.33,274.964L1723.17,275.427L1723,275.89L1722.83,276.352L1722.66,276.813L1722.49,277.274L1722.32,277.734L1722.14,278.193L1721.96,278.652L1721.79,279.11L1721.61,279.567L1721.42,280.024L1721.24,280.48L1721.06,280.936L1720.87,281.391L1720.69,281.845L1720.5,282.299L1720.31,282.751L1720.12,283.204L1719.92,283.655L1719.73,284.106L1719.53,284.556L1719.34,285.006L1719.14,285.455L1718.94,285.903L1718.74,286.35L1718.53,286.797L1718.33,287.243L1718.12,287.689L1717.92,288.133L1717.71,288.578L1717.5,289.021L1717.29,289.464L1717.07,289.906L1716.86,290.347L1716.64,290.788L1716.42,291.227L1716.2,291.667L1715.99,292.105L1715.76,292.543L1715.54,292.98L1715.32,293.416L1715.09,293.851L1714.86,294.286L1714.63,294.72L1714.4,295.154L1714.17,295.586L1713.94,296.018L1713.71,296.45L1713.47,296.88L1713.23,297.31L1713,297.739L1712.76,298.167L1712.51,298.594L1712.27,299.021L1712.03,299.447L1711.78,299.872L1711.54,300.296L1711.29,300.72L1711.04,301.143L1710.79,301.565L1710.54,301.987L1710.28,302.407L1710.03,302.827L1709.77,303.246L1709.51,303.664L1709.26,304.082L1708.99,304.499L1708.73,304.915L1708.47,305.33L1708.21,305.744L1707.94,306.158L1707.67,306.57L1707.4,306.982L1707.14,307.393L1706.87,307.804L1706.59,308.213L1706.32,308.622L1706.05,309.03L1705.77,309.437L1705.49,309.843L1705.21,310.249L1704.93,310.653L1704.65,311.057L1704.37,311.46L1704.09,311.862L1703.8,312.264L1703.51,312.664L1703.23,313.064L1702.94,313.463L1702.65,313.861L1702.36,314.258L1702.06,314.654L1701.77,315.05L1701.47,315.444L1701.18,315.838L1700.88,316.231L1700.58,316.623L1700.28,317.014L1699.98,317.405L1699.67,317.794L1699.37,318.183L1699.07,318.571L1698.76,318.957L1698.45,319.343L1698.14,319.729L1697.83,320.113L1697.52,320.496L1697.21,320.879L1696.89,321.26L1696.58,321.641L1696.26,322.021L1695.94,322.4L1695.62,322.778L1695.3,323.155L1694.98,323.531L1694.66,323.906L1694.34,324.281L1694.01,324.654L1693.68,325.027L1693.36,325.399L1693.03,325.769L1692.7,326.139L1692.37,326.508L1692.04,326.876L1691.7,327.243L1691.37,327.609L1691.03,327.975L1690.7,328.339L1690.36,328.702L1690.02,329.065L1689.68,329.426L1689.34,329.787L1688.99,330.146L1688.65,330.505L1688.31,330.863L1687.96,331.22L1687.61,331.575L1687.26,331.93L1686.91,332.284L1686.56,332.637L1686.21,332.989L1685.86,333.34L1685.5,333.69L1685.15,334.039L1684.79,334.387L1684.43,334.734L1684.08,335.08L1683.72,335.425L1683.36,335.77L1682.99,336.113L1682.63,336.455L1682.27,336.796L1681.9,337.136L1681.53,337.476L1681.17,337.814L1680.8,338.151L1680.43,338.487L1680.06,338.823L1679.68,339.157L1679.31,339.49L1678.94,339.822L1678.56,340.153L1678.18,340.483L1677.81,340.813L1677.43,341.141L1677.05,341.468L1676.67,341.794L1676.29,342.119L1675.9,342.443L1675.52,342.766L1675.14,343.088L1674.75,343.409L1674.36,343.728L1673.98,344.047L1673.59,344.365L1673.19,344.682L1672.8,344.997L1672.41,345.312L1672.02,345.625L1671.62,345.938L1671.23,346.249L1670.83,346.56L1670.43,346.869L1670.04,347.177L1669.64,347.484L1669.24,347.79L1668.83,348.096L1668.43,348.399L1668.03,348.702L1667.62,349.004L1667.22,349.305L1666.81,349.604L1666.4,349.903L1666,350.2L1665.59,350.496L1665.17,350.792L1664.76,351.086L1664.35,351.379L1663.94,351.671L1663.52,351.962L1663.11,352.251L1662.69,352.54L1662.27,352.827L1661.85,353.114L1661.43,353.399L1661.01,353.683L1660.59,353.966L1660.17,354.248L1659.75,354.528L1659.32,354.808L1658.9,355.086L1658.47,355.364L1658.04,355.64L1657.62,355.915L1657.19,356.189L1656.76,356.462L1656.33,356.733L1655.89,357.004L1655.46,357.273L1655.03,357.541L1654.59,357.808L1654.16,358.074L1653.72,358.339L1653.28,358.602L1652.85,358.864L1652.41,359.126L1651.97,359.386L1651.53,359.644L1651.08,359.902L1650.64,360.158L1650.2,360.414L1649.75,360.668L1649.31,360.921L1648.86,361.172L1648.41,361.423L1647.96,361.672L1647.52,361.92L1647.06,362.167L1646.61,362.413L1646.16,362.657L1645.71,362.901L1645.26,363.143L1644.8,363.384L1644.35,363.623L1643.89,363.862L1643.43,364.099L1642.98,364.335L1642.52,364.57L1642.06,364.803L1641.6,365.036L1641.13,365.267L1640.67,365.497L1640.21,365.725L1639.75,365.952L1639.28,366.179L1638.82,366.403L1638.35,366.627L1637.88,366.85L1637.41,367.071L1636.95,367.291L1636.48,367.509L1636.01,367.727L1635.53,367.943L1635.06,368.158L1634.59,368.371L1634.12,368.583L1633.64,368.794L1633.17,369.004L1632.69,369.213L1632.21,369.42L1631.74,369.626L1631.26,369.83L1630.78,370.034L1630.3,370.236L1629.82,370.437L1629.34,370.636L1628.85,370.834L1628.37,371.031L1627.89,371.227L1627.4,371.421L1626.91,371.614L1626.43,371.806L1625.94,371.996L1625.45,372.185L1624.97,372.373L1624.48,372.559L1623.99,372.745L1623.5,372.928L1623,373.111L1622.51,373.292L1622.02,373.472L1621.53,373.65L1621.03,373.827L1620.54,374.003L1620.04,374.178L1619.54,374.351L1619.05,374.522L1618.55,374.693L1618.05,374.862L1617.55,375.03L1617.05,375.196L1616.55,375.361L1616.05,375.525L1615.54,375.687L1615.04,375.848L1614.54,376.007L1614.03,376.166L1613.53,376.322L1613.02,376.478L1612.51,376.632L1612.01,376.785L1611.5,376.936L1610.99,377.086L1610.48,377.234L1609.97,377.381L1609.46,377.527L1608.95,377.672L1608.44,377.815L1607.92,377.956L1607.41,378.096L1606.9,378.235L1606.38,378.372L1605.87,378.508L1605.35,378.643L1604.83,378.776L1604.32,378.908L1603.8,379.038L1603.28,379.167L1602.76,379.294L1602.24,379.42L1601.72,379.545L1601.2,379.668L1600.68,379.79L1600.16,379.91L1599.63,380.029L1599.11,380.146L1598.59,380.262L1598.06,380.377L1597.54,380.49L1597.01,380.602L1596.48,380.712L1595.95,380.82L1595.43,380.928L1594.9,381.033L1594.37,381.138L1593.84,381.241L1593.31,381.342L1592.78,381.442L1592.25,381.541L1591.72,381.638L1591.18,381.733L1590.65,381.827L1590.12,381.92L1589.58,382.011L1589.05,382.1L1588.51,382.188L1587.98,382.275L1587.44,382.36L1586.9,382.444L1586.36,382.526L1585.83,382.606L1585.29,382.686L1584.75,382.763L1584.21,382.839L1583.67,382.914L1583.13,382.987L1582.59,383.058L1582.04,383.128L1581.5,383.197L1580.96,383.264L1580.41,383.329L1579.87,383.393L1579.33,383.456L1578.78,383.517L1578.24,383.576L1577.69,383.634L1577.14,383.69L1576.6,383.745L1576.05,383.798L1575.5,383.85L1574.95,383.9L1574.4,383.948L1573.85,383.995L1573.3,384.04L1572.75,384.084L1572.2,384.127L1571.65,384.167L1571.1,384.207L1570.54,384.244L1569.99,384.28L1569.44,384.315L1568.88,384.347L1568.33,384.379L1567.77,384.408L1567.22,384.436L1566.66,384.463L1566.11,384.488L1565.55,384.511L1564.99,384.533L1564.43,384.553L1563.88,384.572L1563.32,384.589L1562.76,384.604L1562.2,384.618L1561.64,384.63L1561.08,384.641L1560.52,384.649L1559.96,384.657L1559.4,384.662L1558.84,384.666L1558.27,384.669L1557.71,384.67L1556.4,384.67L1555.84,384.669L1555.28,384.666L1554.71,384.662L1554.15,384.657L1553.59,384.649L1553.03,384.641L1552.47,384.63L1551.91,384.618L1551.35,384.604L1550.79,384.589L1550.24,384.572L1549.68,384.553L1549.12,384.533L1548.56,384.511L1548.01,384.488L1547.45,384.463L1546.89,384.436L1546.34,384.408L1545.78,384.379L1545.23,384.347L1544.67,384.315L1544.12,384.28L1543.57,384.244L1543.02,384.207L1542.46,384.167L1541.91,384.127L1541.36,384.084L1540.81,384.04L1540.26,383.995L1539.71,383.948L1539.16,383.9L1538.61,383.85L1538.07,383.798L1537.52,383.745L1536.97,383.69L1536.42,383.634L1535.88,383.576L1535.33,383.517L1534.79,383.456L1534.24,383.393L1533.7,383.329L1533.15,383.264L1532.61,383.197L1532.07,383.128L1531.53,383.058L1530.99,382.987L1530.44,382.914L1529.9,382.839L1529.36,382.763L1528.83,382.686L1528.29,382.606L1527.75,382.526L1527.21,382.444L1526.67,382.36L1526.14,382.275L1525.6,382.188L1525.07,382.1L1524.53,382.011L1524,381.92L1523.46,381.827L1522.93,381.733L1522.4,381.638L1521.87,381.541L1521.33,381.442L1520.8,381.342L1520.27,381.241L1519.74,381.138L1519.21,381.033L1518.68,380.928L1518.16,380.82L1517.63,380.712L1517.1,380.602L1516.58,380.49L1516.05,380.377L1515.53,380.262L1515,380.146L1514.48,380.029L1513.96,379.91L1513.43,379.79L1512.91,379.668L1512.39,379.545L1511.87,379.42L1511.35,379.294L1510.83,379.167L1510.31,379.038L1509.8,378.908L1509.28,378.776L1508.76,378.643L1508.25,378.508L1507.73,378.372L1507.21,378.235L1506.7,378.096L1506.19,377.956L1505.67,377.815L1505.16,377.672L1504.65,377.527L1504.14,377.381L1503.63,377.234L1503.12,377.086L1502.61,376.936L1502.11,376.785L1501.6,376.632L1501.09,376.478L1500.59,376.322L1500.08,376.166L1499.58,376.007L1499.07,375.848L1498.57,375.687L1498.07,375.525L1497.57,375.361L1497.06,375.196L1496.56,375.03L1496.06,374.862L1495.57,374.693L1495.07,374.522L1494.57,374.351L1494.07,374.178L1493.58,374.003L1493.08,373.827L1492.59,373.65L1492.09,373.472L1491.6,373.292L1491.11,373.111L1490.62,372.928L1490.13,372.745L1489.64,372.559L1489.15,372.373L1488.66,372.185L1488.17,371.996L1487.68,371.806L1487.2,371.614L1486.71,371.421L1486.23,371.227L1485.74,371.031L1485.26,370.834L1484.78,370.636L1484.3,370.437L1483.82,370.236L1483.34,370.034L1482.86,369.83L1482.38,369.626L1481.9,369.42L1481.42,369.213L1480.95,369.004L1480.47,368.794L1480,368.583L1479.52,368.371L1479.05,368.158L1478.58,367.943L1478.11,367.727L1477.64,367.509L1477.17,367.291L1476.7,367.071L1476.23,366.85L1475.76,366.627L1475.3,366.403L1474.83,366.179L1474.37,365.952L1473.9,365.725L1473.44,365.496L1472.98,365.267L1472.52,365.036L1472.06,364.803L1471.6,364.57L1471.14,364.335L1470.68,364.099L1470.22,363.862L1469.77,363.623L1469.31,363.384L1468.86,363.143L1468.4,362.901L1467.95,362.657L1467.5,362.413L1467.05,362.167L1466.6,361.92L1466.15,361.672L1465.7,361.423L1465.25,361.172L1464.81,360.921L1464.36,360.668L1463.92,360.414L1463.47,360.158L1463.03,359.902L1462.59,359.644L1462.15,359.386L1461.71,359.126L1461.27,358.864L1460.83,358.602L1460.39,358.339L1459.95,358.074L1459.52,357.808L1459.08,357.541L1458.65,357.273L1458.22,357.004L1457.79,356.733L1457.36,356.462L1456.92,356.189L1456.5,355.915L1456.07,355.64L1455.64,355.364L1455.21,355.086L1454.79,354.808L1454.37,354.528L1453.94,354.248L1453.52,353.966L1453.1,353.683L1452.68,353.399L1452.26,353.114L1451.84,352.827L1451.42,352.54L1451.01,352.251L1450.59,351.961L1450.17,351.671L1449.76,351.379L1449.35,351.086L1448.94,350.792L1448.53,350.496L1448.12,350.2L1447.71,349.903L1447.3,349.604L1446.89,349.305L1446.49,349.004L1446.08,348.702L1445.68,348.399L1445.28,348.095L1444.88,347.79L1444.48,347.484L1444.08,347.177L1443.68,346.869L1443.28,346.56L1442.88,346.249L1442.49,345.938L1442.09,345.625L1441.7,345.312L1441.31,344.997L1440.92,344.682L1440.53,344.365L1440.14,344.047L1439.75,343.728L1439.36,343.409L1438.98,343.088L1438.59,342.766L1438.21,342.443L1437.83,342.119L1437.44,341.794L1437.06,341.468L1436.68,341.141L1436.3,340.813L1435.93,340.483L1435.55,340.153L1435.17,339.822L1434.8,339.49L1434.43,339.157L1434.06,338.823L1433.68,338.487L1433.32,338.151L1432.95,337.814L1432.58,337.476L1432.21,337.136L1431.85,336.796L1431.48,336.455L1431.12,336.113L1430.76,335.77L1430.4,335.426L1430.04,335.08L1429.68,334.734L1429.32,334.387L1428.96,334.039L1428.61,333.69L1428.25,333.34L1427.9,332.989L1427.55,332.637L1427.2,332.284L1426.85,331.93L1426.5,331.575L1426.15,331.22L1425.81,330.863L1425.46,330.505L1425.12,330.146L1424.78,329.787L1424.43,329.426L1424.09,329.065L1423.75,328.702L1423.42,328.339L1423.08,327.975L1422.74,327.609L1422.41,327.243L1422.08,326.876L1421.74,326.508L1421.41,326.139L1421.08,325.769L1420.75,325.399L1420.43,325.027L1420.1,324.654L1419.78,324.281L1419.45,323.906L1419.13,323.531L1418.81,323.155L1418.49,322.778L1418.17,322.4L1417.85,322.021L1417.54,321.641L1417.22,321.26L1416.9,320.879L1416.59,320.496L1416.28,320.113L1415.97,319.729L1415.66,319.343L1415.35,318.957L1415.05,318.57L1414.74,318.183L1414.44,317.794L1414.13,317.405L1413.83,317.014L1413.53,316.623L1413.23,316.231L1412.94,315.838L1412.64,315.444L1412.34,315.05L1412.05,314.654L1411.76,314.258L1411.46,313.861L1411.17,313.463L1410.89,313.064L1410.6,312.664L1410.31,312.264L1410.03,311.862L1409.74,311.46L1409.46,311.057L1409.18,310.653L1408.9,310.249L1408.62,309.843L1408.34,309.437L1408.07,309.03L1407.79,308.622L1407.52,308.213L1407.25,307.804L1406.98,307.393L1406.71,306.982L1406.44,306.57L1406.17,306.157L1405.91,305.744L1405.64,305.33L1405.38,304.914L1405.12,304.499L1404.86,304.082L1404.6,303.664L1404.34,303.246L1404.09,302.827L1403.83,302.407L1403.58,301.987L1403.33,301.565L1403.07,301.143L1402.83,300.72L1402.58,300.297L1402.33,299.872L1402.09,299.447L1401.84,299.021L1401.6,298.594L1401.36,298.167L1401.12,297.739L1400.88,297.31L1400.64,296.88L1400.41,296.45L1400.17,296.018L1399.94,295.586L1399.71,295.154L1399.48,294.72L1399.25,294.286L1399.02,293.852L1398.8,293.416L1398.57,292.98L1398.35,292.543L1398.13,292.105L1397.91,291.666L1397.69,291.227L1397.47,290.788L1397.26,290.347L1397.04,289.906L1396.83,289.464L1396.62,289.021L1396.4,288.578L1396.2,288.134L1395.99,287.689L1395.78,287.243L1395.58,286.797L1395.38,286.35L1395.17,285.903L1394.97,285.455L1394.78,285.006L1394.58,284.556L1394.38,284.106L1394.19,283.655L1394,283.204L1393.8,282.751L1393.61,282.299L1393.43,281.845L1393.24,281.391L1393.05,280.936L1392.87,280.48L1392.69,280.024L1392.51,279.567L1392.33,279.11L1392.15,278.652L1391.97,278.193L1391.8,277.734L1391.62,277.274L1391.45,276.813L1391.28,276.352L1391.11,275.89L1390.94,275.427L1390.78,274.964L1390.62,274.5L1390.45,274.036L1390.29,273.571L1390.13,273.105L1389.97,272.639L1389.82,272.172L1389.66,271.705L1389.51,271.237L1389.35,270.768L1389.2,270.299L1389.06,269.829L1388.91,269.358L1388.76,268.887L1388.62,268.416L1388.47,267.943L1388.33,267.471L1388.19,266.997L1388.05,266.523L1387.92,266.049L1387.78,265.574L1387.65,265.098L1387.52,264.621L1387.39,264.145L1387.26,263.667L1387.13,263.189L1387.01,262.711L1386.88,262.232L1386.76,261.752L1386.64,261.272L1386.52,260.791L1386.4,260.31L1386.29,259.828L1386.17,259.345L1386.06,258.862L1385.95,258.379L1385.84,257.895L1385.73,257.411L1385.62,256.926L1385.52,256.44L1385.41,255.954L1385.31,255.467L1385.21,254.98L1385.12,254.492L1385.02,254.004L1384.92,253.515L1384.83,253.026L1384.74,252.536L1384.65,252.046L1384.56,251.556L1384.47,251.064L1384.39,250.572L1384.31,250.08L1384.22,249.588L1384.14,249.094L1384.06,248.601L1383.99,248.107L1383.91,247.612L1383.84,247.117L1383.77,246.621L1383.7,246.125L1383.63,245.628L1383.56,245.131L1383.5,244.634L1383.43,244.136L1383.37,243.637L1383.31,243.139L1383.25,242.639L1383.2,242.139L1383.14,241.639L1383.09,241.138L1383.04,240.637L1382.99,240.135L1382.94,239.634L1382.89,239.131L1382.85,238.628L1382.81,238.125L1382.76,237.621L1382.73,237.117L1382.69,236.612L1382.65,236.107L1382.62,235.601L1382.58,235.095L1382.55,234.589L1382.52,234.082L1382.5,233.575L1382.47,233.068L1382.45,232.559L1382.42,232.051L1382.4,231.542L1382.39,231.033L1382.37,230.523L1382.35,230.013L1382.34,229.503L1382.33,228.992L1382.32,228.481L1382.31,227.97L1382.31,227.458L1382.3,226.945L1382.3,226.433L1382.3,225.92L1382.3,225.407L1382.3,224.894L1382.31,224.381L1382.31,223.87L1382.32,223.358L1382.33,222.847L1382.34,222.336L1382.35,221.826L1382.37,221.316L1382.39,220.806L1382.4,220.297L1382.42,219.788L1382.45,219.28L1382.47,218.772L1382.5,218.264L1382.52,217.757L1382.55,217.25L1382.58,216.744L1382.62,216.238L1382.65,215.732L1382.69,215.227L1382.73,214.723L1382.76,214.218L1382.81,213.714L1382.85,213.211L1382.89,212.708L1382.94,212.206L1382.99,211.704L1383.04,211.202L1383.09,210.701L1383.14,210.2L1383.2,209.7L1383.25,209.2L1383.31,208.701L1383.37,208.202L1383.43,207.703L1383.5,207.205L1383.56,206.708L1383.63,206.211L1383.7,205.714L1383.77,205.218L1383.84,204.723L1383.91,204.227L1383.99,203.733L1384.06,203.238L1384.14,202.745L1384.22,202.252L1384.31,201.759L1384.39,201.267L1384.47,200.775L1384.56,200.284L1384.65,199.793L1384.74,199.303L1384.83,198.813L1384.92,198.324L1385.02,197.835L1385.12,197.347L1385.21,196.859L1385.31,196.372L1385.41,195.886L1385.52,195.399L1385.62,194.914L1385.73,194.429L1385.84,193.944L1385.95,193.46L1386.06,192.977L1386.17,192.494L1386.29,192.011L1386.4,191.529L1386.52,191.048L1386.64,190.568L1386.76,190.087L1386.88,189.608L1387.01,189.129L1387.13,188.65L1387.26,188.172L1387.39,187.695L1387.52,187.218L1387.65,186.742L1387.78,186.266L1387.92,185.791L1388.05,185.316L1388.19,184.842L1388.33,184.369L1388.47,183.896L1388.62,183.423L1388.76,182.952L1388.91,182.481L1389.06,182.01L1389.2,181.541L1389.35,181.071L1389.51,180.602L1389.66,180.135L1389.82,179.667L1389.97,179.2L1390.13,178.734L1390.29,178.268L1390.45,177.803L1390.62,177.339L1390.78,176.875L1390.94,176.412L1391.11,175.949L1391.28,175.487L1391.45,175.026L1391.62,174.565L1391.8,174.105L1391.97,173.646L1392.15,173.187L1392.33,172.729L1392.51,172.272L1392.69,171.815L1392.87,171.359L1393.05,170.903L1393.24,170.448L1393.43,169.994L1393.61,169.541L1393.8,169.088L1394,168.636L1394.19,168.184L1394.38,167.733L1394.58,167.283L1394.78,166.833L1394.97,166.384L1395.17,165.936L1395.38,165.489L1395.58,165.042L1395.78,164.596L1395.99,164.15L1396.2,163.706L1396.4,163.262L1396.62,162.818L1396.83,162.375L1397.04,161.934L1397.26,161.492L1397.47,161.052L1397.69,160.612L1397.91,160.173L1398.13,159.734L1398.35,159.296L1398.57,158.86L1398.8,158.423L1399.02,157.988L1399.25,157.553L1399.48,157.119L1399.71,156.685L1399.94,156.253L1400.17,155.821L1400.41,155.39L1400.64,154.959L1400.88,154.53L1401.12,154.101L1401.36,153.672L1401.6,153.245L1401.84,152.818L1402.09,152.392L1402.33,151.967L1402.58,151.543L1402.83,151.119L1403.07,150.696L1403.33,150.274L1403.58,149.853L1403.83,149.432L1404.09,149.012L1404.34,148.593L1404.6,148.175L1404.86,147.757L1405.12,147.341L1405.38,146.925L1405.64,146.51L1405.91,146.095L1406.17,145.682L1406.44,145.269L1406.71,144.857L1406.98,144.446L1407.25,144.036L1407.52,143.626L1407.79,143.217L1408.07,142.809L1408.34,142.402L1408.62,141.996L1408.9,141.59L1409.18,141.186L1409.46,140.782L1409.74,140.379L1410.03,139.977L1410.31,139.575L1410.6,139.175L1410.89,138.775L1411.17,138.376L1411.46,137.978L1411.76,137.581L1412.05,137.185L1412.34,136.789L1412.64,136.395L1412.94,136.001L1413.23,135.608L1413.53,135.216L1413.83,134.825L1414.13,134.434L1414.44,134.045L1414.74,133.656L1415.05,133.269L1415.35,132.882L1415.66,132.496L1415.97,132.111L1416.28,131.726L1416.59,131.343L1416.9,130.961L1417.22,130.579L1417.54,130.198L1417.85,129.818L1418.17,129.439L1418.49,129.061L1418.81,128.684L1419.13,128.308L1419.45,127.933L1419.78,127.558L1420.1,127.185L1420.43,126.812L1420.75,126.441L1421.08,126.07L1421.41,125.7L1421.74,125.331L1422.08,124.963L1422.41,124.596L1422.74,124.23L1423.08,123.864L1423.42,123.5L1423.75,123.137L1424.09,122.774L1424.43,122.413L1424.78,122.052L1425.12,121.693L1425.46,121.334L1425.81,120.976L1426.15,120.62L1426.5,120.264L1426.85,119.909L1427.2,119.555L1427.55,119.202L1427.9,118.85L1428.25,118.499L1428.61,118.149L1428.96,117.8L1429.32,117.452L1429.68,117.105L1430.04,116.759L1430.4,116.414L1430.76,116.069L1431.12,115.726L1431.48,115.384L1431.85,115.043L1432.21,114.703L1432.58,114.363L1432.95,114.025L1433.32,113.688L1433.68,113.352L1434.06,113.017L1434.43,112.682L1434.8,112.349L1435.17,112.017L1435.55,111.686L1435.93,111.356L1436.3,111.027L1436.68,110.699L1437.06,110.371L1437.44,110.045L1437.83,109.72L1438.21,109.396L1438.59,109.073L1438.98,108.751L1439.36,108.431L1439.75,108.111L1440.14,107.792L1440.53,107.474L1440.92,107.158L1441.31,106.842L1441.7,106.527L1442.09,106.214L1442.49,105.901L1442.88,105.59L1443.28,105.279L1443.68,104.97L1444.08,104.662L1444.48,104.355L1444.88,104.049L1445.28,103.744L1445.68,103.44L1446.08,103.137L1446.49,102.835L1446.89,102.535L1447.3,102.235L1447.71,101.936L1448.12,101.639L1448.53,101.343L1448.94,101.048L1449.35,100.753L1449.76,100.46L1450.17,100.168L1450.59,99.878L1451.01,99.588L1451.42,99.299L1451.84,99.012L1452.26,98.726L1452.68,98.44L1453.1,98.156L1453.52,97.873L1453.94,97.591L1454.37,97.311L1454.79,97.031L1455.21,96.753L1455.64,96.475L1456.07,96.199L1456.5,95.924L1456.92,95.65L1457.36,95.378L1457.79,95.106L1458.22,94.835L1458.65,94.566L1459.08,94.298L1459.52,94.031L1459.95,93.765L1460.39,93.501L1460.83,93.237L1461.27,92.975L1461.71,92.714L1462.15,92.454L1462.59,92.195L1463.03,91.937L1463.47,91.681L1463.92,91.425L1464.36,91.171L1464.81,90.919L1465.25,90.667L1465.7,90.416L1466.15,90.167L1466.6,89.919L1467.05,89.672L1467.5,89.426L1467.95,89.182L1468.4,88.939L1468.86,88.696L1469.31,88.456L1469.77,88.216L1470.22,87.977L1470.68,87.74L1471.14,87.504L1471.6,87.269L1472.06,87.036L1472.52,86.804L1472.98,86.573L1473.44,86.343L1473.9,86.114L1474.37,85.887L1474.83,85.661L1475.3,85.436L1475.76,85.212L1476.23,84.99L1476.7,84.768L1477.17,84.549L1477.64,84.33L1478.11,84.113L1478.58,83.897L1479.05,83.682L1479.52,83.468L1480,83.256L1480.47,83.045L1480.95,82.835L1481.42,82.627L1481.9,82.419L1482.38,82.213L1482.86,82.009L1483.34,81.805L1483.82,81.603L1484.3,81.402L1484.78,81.203L1485.26,81.005L1485.74,80.808L1486.23,80.612L1486.71,80.418L1487.2,80.225L1487.68,80.033L1488.17,79.843L1488.66,79.654L1489.15,79.466L1489.64,79.28L1490.13,79.095L1490.62,78.911L1491.11,78.728L1491.6,78.547L1492.09,78.367L1492.59,78.189L1493.08,78.012L1493.58,77.836L1494.07,77.662L1494.57,77.489L1495.07,77.317L1495.57,77.146L1496.06,76.977L1496.56,76.81L1497.06,76.643L1497.57,76.478L1498.07,76.315L1498.57,76.152L1499.07,75.991L1499.58,75.832L1500.08,75.674L1500.59,75.517L1501.09,75.361L1501.6,75.207L1502.11,75.055L1502.61,74.903L1503.12,74.753L1503.63,74.605L1504.14,74.458L1504.65,74.312L1505.16,74.168L1505.67,74.025L1506.19,73.883L1506.7,73.743L1507.21,73.604L1507.73,73.467L1508.25,73.331L1508.76,73.196L1509.28,73.063L1509.8,72.931L1510.31,72.801L1510.83,72.672L1511.35,72.545L1511.87,72.419L1512.39,72.294L1512.91,72.171L1513.43,72.049L1513.96,71.929L1514.48,71.81L1515,71.693L1515.53,71.577L1516.05,71.462L1516.58,71.349L1517.1,71.238L1517.63,71.127L1518.16,71.019L1518.68,70.911L1519.21,70.806L1519.74,70.701L1520.27,70.598L1520.8,70.497L1521.33,70.397L1521.87,70.299L1522.4,70.202L1522.93,70.106L1523.46,70.012L1524,69.92L1524.53,69.828L1525.07,69.739L1525.6,69.651L1526.14,69.564L1526.67,69.479L1527.21,69.395L1527.75,69.313L1528.29,69.233L1528.83,69.154L1529.36,69.076L1529.9,69L1530.44,68.925L1530.99,68.852L1531.53,68.781L1532.07,68.711L1532.61,68.642L1533.15,68.575L1533.7,68.51L1534.24,68.446L1534.79,68.383L1535.33,68.323L1535.88,68.263L1536.42,68.205L1536.97,68.149L1537.52,68.094L1538.07,68.041L1538.61,67.99L1539.16,67.94L1539.71,67.891L1540.26,67.844L1540.81,67.799L1541.36,67.755L1541.91,67.713L1542.46,67.672L1543.02,67.633L1543.57,67.595L1544.12,67.559L1544.67,67.525L1545.23,67.492L1545.78,67.46L1546.34,67.431L1546.89,67.403L1547.45,67.376L1548.01,67.351L1548.56,67.328L1549.12,67.306L1549.68,67.286L1550.24,67.267L1550.79,67.25L1551.35,67.235L1551.91,67.221L1552.47,67.209L1553.03,67.199L1553.59,67.19L1554.15,67.182L1554.71,67.177L1555.28,67.173L1555.84,67.17L1556.4,67.169L1557.71,67.169L1558.27,67.17ZM1556.4,70.814L1555.85,70.815L1555.3,70.817L1554.75,70.821L1554.2,70.827L1553.65,70.834L1553.11,70.843L1552.56,70.853L1552.01,70.865L1551.47,70.878L1550.92,70.893L1550.37,70.91L1549.83,70.928L1549.28,70.948L1548.74,70.969L1548.19,70.992L1547.65,71.016L1547.11,71.042L1546.57,71.07L1546.02,71.099L1545.48,71.129L1544.94,71.161L1544.4,71.195L1543.86,71.23L1543.32,71.267L1542.78,71.305L1542.24,71.345L1541.7,71.386L1541.16,71.429L1540.63,71.473L1540.09,71.519L1539.55,71.567L1539.02,71.616L1538.48,71.666L1537.95,71.718L1537.41,71.772L1536.88,71.827L1536.34,71.883L1535.81,71.941L1535.28,72L1534.75,72.061L1534.22,72.124L1533.68,72.188L1533.15,72.253L1532.62,72.32L1532.09,72.389L1531.57,72.459L1531.04,72.53L1530.51,72.603L1529.98,72.677L1529.45,72.753L1528.93,72.83L1528.4,72.909L1527.88,72.989L1527.35,73.071L1526.83,73.154L1526.3,73.239L1525.78,73.325L1525.26,73.412L1524.74,73.501L1524.21,73.592L1523.69,73.683L1523.17,73.777L1522.65,73.872L1522.13,73.968L1521.62,74.065L1521.1,74.164L1520.58,74.265L1520.07,74.367L1519.55,74.47L1519.03,74.575L1518.52,74.681L1518,74.789L1517.49,74.898L1516.98,75.008L1516.46,75.12L1515.95,75.233L1515.44,75.348L1514.93,75.464L1514.42,75.582L1513.91,75.701L1513.4,75.821L1512.89,75.943L1512.38,76.066L1511.88,76.19L1511.37,76.316L1510.86,76.443L1510.36,76.572L1509.85,76.702L1509.35,76.834L1508.85,76.966L1508.34,77.101L1507.84,77.236L1507.34,77.373L1506.84,77.511L1506.34,77.651L1505.84,77.792L1505.34,77.934L1504.84,78.078L1504.35,78.223L1503.85,78.37L1503.35,78.517L1502.86,78.667L1502.36,78.817L1501.87,78.969L1501.37,79.122L1500.88,79.277L1500.39,79.432L1499.9,79.59L1499.41,79.748L1498.92,79.908L1498.43,80.069L1497.94,80.232L1497.45,80.396L1496.96,80.561L1496.48,80.727L1495.99,80.895L1495.51,81.064L1495.02,81.235L1494.54,81.406L1494.05,81.579L1493.57,81.754L1493.09,81.929L1492.61,82.106L1492.13,82.284L1491.65,82.464L1491.17,82.645L1490.69,82.827L1490.22,83.01L1489.74,83.195L1489.26,83.381L1488.79,83.568L1488.31,83.757L1487.84,83.947L1487.37,84.138L1486.9,84.33L1486.42,84.524L1485.95,84.719L1485.49,84.915L1485.02,85.112L1484.55,85.311L1484.08,85.511L1483.61,85.712L1483.15,85.914L1482.68,86.118L1482.22,86.323L1481.75,86.529L1481.29,86.737L1480.83,86.945L1480.37,87.155L1479.91,87.366L1479.45,87.579L1478.99,87.792L1478.53,88.007L1478.07,88.223L1477.62,88.44L1477.16,88.659L1476.71,88.879L1476.25,89.1L1475.8,89.322L1475.35,89.545L1474.9,89.77L1474.45,89.995L1474,90.222L1473.55,90.451L1473.1,90.68L1472.65,90.91L1472.2,91.142L1471.76,91.375L1471.32,91.609L1470.87,91.845L1470.43,92.081L1469.99,92.319L1469.54,92.558L1469.1,92.798L1468.66,93.039L1468.23,93.282L1467.79,93.525L1467.35,93.77L1466.91,94.016L1466.48,94.263L1466.04,94.511L1465.61,94.761L1465.18,95.011L1464.75,95.263L1464.31,95.516L1463.88,95.77L1463.45,96.025L1463.03,96.281L1462.6,96.539L1462.17,96.797L1461.75,97.057L1461.32,97.318L1460.9,97.58L1460.48,97.843L1460.05,98.107L1459.63,98.373L1459.21,98.639L1458.79,98.907L1458.38,99.175L1457.96,99.445L1457.54,99.716L1457.13,99.988L1456.71,100.262L1456.3,100.536L1455.88,100.811L1455.47,101.088L1455.06,101.365L1454.65,101.644L1454.24,101.924L1453.84,102.205L1453.43,102.487L1453.02,102.77L1452.62,103.054L1452.21,103.339L1451.81,103.626L1451.41,103.913L1451.01,104.201L1450.61,104.491L1450.21,104.782L1449.81,105.073L1449.41,105.366L1449.02,105.66L1448.62,105.955L1448.23,106.251L1447.83,106.548L1447.44,106.846L1447.05,107.145L1446.66,107.445L1446.27,107.746L1445.88,108.048L1445.49,108.352L1445.11,108.656L1444.72,108.961L1444.34,109.268L1443.95,109.575L1443.57,109.884L1443.19,110.193L1442.81,110.504L1442.43,110.815L1442.05,111.128L1441.67,111.441L1441.3,111.756L1440.92,112.071L1440.55,112.388L1440.17,112.706L1439.8,113.024L1439.43,113.344L1439.06,113.664L1438.69,113.986L1438.33,114.309L1437.96,114.632L1437.59,114.957L1437.23,115.283L1436.87,115.609L1436.5,115.937L1436.14,116.265L1435.78,116.595L1435.42,116.925L1435.06,117.257L1434.71,117.589L1434.35,117.923L1434,118.257L1433.64,118.592L1433.29,118.929L1432.94,119.266L1432.59,119.604L1432.24,119.943L1431.89,120.284L1431.54,120.625L1431.2,120.967L1430.85,121.31L1430.51,121.654L1430.16,121.999L1429.82,122.344L1429.48,122.691L1429.14,123.039L1428.8,123.387L1428.47,123.737L1428.13,124.087L1427.8,124.439L1427.46,124.791L1427.13,125.144L1426.8,125.499L1426.47,125.854L1426.14,126.21L1425.81,126.567L1425.48,126.924L1425.16,127.283L1424.83,127.643L1424.51,128.003L1424.19,128.365L1423.87,128.727L1423.55,129.09L1423.23,129.454L1422.91,129.819L1422.59,130.185L1422.28,130.552L1421.96,130.92L1421.65,131.288L1421.34,131.657L1421.03,132.028L1420.72,132.399L1420.41,132.771L1420.11,133.144L1419.8,133.517L1419.5,133.892L1419.19,134.268L1418.89,134.644L1418.59,135.021L1418.29,135.399L1417.99,135.778L1417.69,136.158L1417.4,136.538L1417.1,136.92L1416.81,137.302L1416.52,137.685L1416.23,138.069L1415.94,138.454L1415.65,138.839L1415.36,139.226L1415.08,139.613L1414.79,140.001L1414.51,140.39L1414.23,140.78L1413.94,141.17L1413.66,141.562L1413.38,141.954L1413.11,142.347L1412.83,142.74L1412.56,143.135L1412.28,143.53L1412.01,143.927L1411.74,144.323L1411.47,144.721L1411.2,145.12L1410.93,145.519L1410.67,145.919L1410.4,146.32L1410.14,146.722L1409.88,147.125L1409.62,147.528L1409.36,147.932L1409.1,148.337L1408.84,148.742L1408.59,149.149L1408.33,149.556L1408.08,149.964L1407.83,150.372L1407.58,150.782L1407.33,151.192L1407.08,151.603L1406.84,152.014L1406.59,152.427L1406.35,152.84L1406.11,153.254L1405.87,153.669L1405.63,154.084L1405.39,154.5L1405.15,154.917L1404.91,155.335L1404.68,155.753L1404.45,156.172L1404.22,156.592L1403.99,157.012L1403.76,157.434L1403.53,157.856L1403.3,158.278L1403.08,158.702L1402.86,159.126L1402.63,159.551L1402.41,159.976L1402.19,160.402L1401.98,160.829L1401.76,161.257L1401.54,161.685L1401.33,162.114L1401.12,162.544L1400.91,162.974L1400.7,163.405L1400.49,163.837L1400.28,164.27L1400.08,164.703L1399.87,165.137L1399.67,165.571L1399.47,166.006L1399.27,166.442L1399.07,166.879L1398.87,167.316L1398.68,167.754L1398.49,168.192L1398.29,168.631L1398.1,169.071L1397.91,169.512L1397.72,169.952L1397.54,170.394L1397.35,170.837L1397.17,171.28L1396.98,171.724L1396.8,172.168L1396.62,172.613L1396.44,173.058L1396.27,173.505L1396.09,173.952L1395.92,174.399L1395.75,174.847L1395.58,175.296L1395.41,175.745L1395.24,176.195L1395.07,176.646L1394.91,177.097L1394.74,177.549L1394.58,178.001L1394.42,178.455L1394.26,178.908L1394.1,179.362L1393.95,179.817L1393.79,180.273L1393.64,180.729L1393.49,181.185L1393.34,181.643L1393.19,182.101L1393.04,182.559L1392.9,183.018L1392.75,183.477L1392.61,183.938L1392.47,184.399L1392.33,184.86L1392.19,185.322L1392.05,185.784L1391.92,186.247L1391.79,186.711L1391.65,187.175L1391.52,187.639L1391.39,188.105L1391.27,188.57L1391.14,189.037L1391.02,189.504L1390.89,189.971L1390.77,190.439L1390.65,190.908L1390.54,191.377L1390.42,191.847L1390.3,192.317L1390.19,192.787L1390.08,193.259L1389.97,193.73L1389.86,194.203L1389.75,194.676L1389.65,195.149L1389.54,195.623L1389.44,196.097L1389.34,196.572L1389.24,197.047L1389.14,197.523L1389.05,198L1388.95,198.477L1388.86,198.954L1388.77,199.432L1388.68,199.91L1388.59,200.389L1388.51,200.869L1388.42,201.349L1388.34,201.829L1388.26,202.31L1388.18,202.791L1388.1,203.273L1388.02,203.756L1387.95,204.238L1387.87,204.722L1387.8,205.205L1387.73,205.69L1387.66,206.174L1387.6,206.659L1387.53,207.145L1387.47,207.631L1387.4,208.118L1387.34,208.605L1387.29,209.092L1387.23,209.58L1387.17,210.069L1387.12,210.557L1387.07,211.047L1387.02,211.536L1386.97,212.026L1386.92,212.517L1386.88,213.008L1386.83,213.499L1386.79,213.991L1386.75,214.484L1386.71,214.976L1386.67,215.47L1386.64,215.963L1386.61,216.457L1386.58,216.951L1386.55,217.446L1386.52,217.942L1386.49,218.437L1386.46,218.933L1386.44,219.43L1386.42,219.927L1386.4,220.424L1386.38,220.922L1386.37,221.42L1386.35,221.918L1386.34,222.417L1386.33,222.916L1386.32,223.416L1386.31,223.916L1386.3,224.416L1386.3,224.917L1386.3,225.418L1386.29,225.92L1386.3,226.421L1386.3,226.922L1386.3,227.423L1386.31,227.923L1386.32,228.423L1386.33,228.923L1386.34,229.422L1386.35,229.921L1386.37,230.42L1386.38,230.917L1386.4,231.415L1386.42,231.913L1386.44,232.41L1386.46,232.906L1386.49,233.402L1386.52,233.898L1386.55,234.393L1386.58,234.888L1386.61,235.382L1386.64,235.876L1386.67,236.37L1386.71,236.863L1386.75,237.355L1386.79,237.848L1386.83,238.34L1386.88,238.831L1386.92,239.322L1386.97,239.813L1387.02,240.303L1387.07,240.793L1387.12,241.282L1387.17,241.771L1387.23,242.259L1387.29,242.747L1387.34,243.234L1387.4,243.721L1387.47,244.208L1387.53,244.694L1387.6,245.18L1387.66,245.665L1387.73,246.149L1387.8,246.634L1387.87,247.118L1387.95,247.601L1388.02,248.084L1388.1,248.566L1388.18,249.048L1388.26,249.529L1388.34,250.01L1388.42,250.49L1388.51,250.97L1388.59,251.45L1388.68,251.929L1388.77,252.407L1388.86,252.885L1388.95,253.362L1389.05,253.839L1389.14,254.316L1389.24,254.792L1389.34,255.267L1389.44,255.742L1389.54,256.216L1389.65,256.69L1389.75,257.164L1389.86,257.637L1389.97,258.109L1390.08,258.58L1390.19,259.052L1390.3,259.522L1390.42,259.993L1390.54,260.462L1390.65,260.931L1390.77,261.4L1390.89,261.868L1391.02,262.335L1391.14,262.802L1391.27,263.269L1391.39,263.735L1391.52,264.2L1391.65,264.664L1391.79,265.129L1391.92,265.592L1392.05,266.055L1392.19,266.518L1392.33,266.979L1392.47,267.441L1392.61,267.902L1392.75,268.362L1392.9,268.821L1393.04,269.28L1393.19,269.739L1393.34,270.196L1393.49,270.654L1393.64,271.11L1393.79,271.566L1393.95,272.022L1394.1,272.477L1394.26,272.931L1394.42,273.385L1394.58,273.838L1394.74,274.29L1394.91,274.742L1395.07,275.193L1395.24,275.644L1395.41,276.094L1395.58,276.543L1395.75,276.992L1395.92,277.44L1396.09,277.888L1396.27,278.335L1396.44,278.781L1396.62,279.226L1396.8,279.671L1396.98,280.116L1397.17,280.559L1397.35,281.002L1397.54,281.445L1397.72,281.887L1397.91,282.328L1398.1,282.768L1398.29,283.208L1398.49,283.647L1398.68,284.086L1398.87,284.523L1399.07,284.961L1399.27,285.397L1399.47,285.833L1399.67,286.268L1399.87,286.703L1400.08,287.136L1400.28,287.57L1400.49,288.002L1400.7,288.434L1400.91,288.865L1401.12,289.295L1401.33,289.725L1401.54,290.154L1401.76,290.582L1401.98,291.01L1402.19,291.437L1402.41,291.863L1402.63,292.289L1402.86,292.713L1403.08,293.138L1403.3,293.561L1403.53,293.984L1403.76,294.406L1403.99,294.827L1404.22,295.247L1404.45,295.667L1404.68,296.086L1404.91,296.504L1405.15,296.922L1405.39,297.339L1405.63,297.755L1405.87,298.17L1406.11,298.585L1406.35,298.999L1406.59,299.412L1406.84,299.825L1407.08,300.236L1407.33,300.647L1407.58,301.058L1407.83,301.467L1408.08,301.876L1408.33,302.283L1408.59,302.691L1408.84,303.097L1409.1,303.503L1409.36,303.907L1409.62,304.311L1409.88,304.715L1410.14,305.117L1410.4,305.519L1410.67,305.92L1410.93,306.32L1411.2,306.719L1411.47,307.118L1411.74,307.516L1412.01,307.913L1412.28,308.309L1412.56,308.704L1412.83,309.099L1413.11,309.493L1413.38,309.885L1413.66,310.278L1413.94,310.669L1414.23,311.06L1414.51,311.449L1414.79,311.838L1415.08,312.226L1415.36,312.613L1415.65,313L1415.94,313.385L1416.23,313.77L1416.52,314.154L1416.81,314.537L1417.1,314.92L1417.4,315.301L1417.69,315.681L1417.99,316.061L1418.29,316.44L1418.59,316.818L1418.89,317.195L1419.19,317.572L1419.5,317.947L1419.8,318.322L1420.11,318.695L1420.41,319.068L1420.72,319.44L1421.03,319.811L1421.34,320.182L1421.65,320.551L1421.96,320.92L1422.28,321.287L1422.59,321.654L1422.91,322.02L1423.23,322.385L1423.55,322.749L1423.87,323.112L1424.19,323.474L1424.51,323.836L1424.83,324.196L1425.16,324.556L1425.48,324.915L1425.81,325.273L1426.14,325.629L1426.47,325.985L1426.8,326.341L1427.13,326.695L1427.46,327.048L1427.8,327.4L1428.13,327.752L1428.47,328.102L1428.8,328.452L1429.14,328.8L1429.48,329.148L1429.82,329.495L1430.16,329.841L1430.51,330.186L1430.85,330.529L1431.2,330.872L1431.54,331.214L1431.89,331.556L1432.24,331.896L1432.59,332.235L1432.94,332.573L1433.29,332.91L1433.64,333.247L1434,333.582L1434.35,333.916L1434.71,334.25L1435.06,334.582L1435.42,334.914L1435.78,335.244L1436.14,335.574L1436.5,335.902L1436.87,336.23L1437.23,336.557L1437.59,336.882L1437.96,337.207L1438.33,337.53L1438.69,337.853L1439.06,338.175L1439.43,338.495L1439.8,338.815L1440.17,339.134L1440.55,339.451L1440.92,339.768L1441.3,340.083L1441.67,340.398L1442.05,340.711L1442.43,341.024L1442.81,341.336L1443.19,341.646L1443.57,341.956L1443.95,342.264L1444.34,342.571L1444.72,342.878L1445.11,343.183L1445.49,343.488L1445.88,343.791L1446.27,344.093L1446.66,344.394L1447.05,344.694L1447.44,344.993L1447.83,345.292L1448.23,345.588L1448.62,345.884L1449.02,346.179L1449.41,346.473L1449.81,346.766L1450.21,347.058L1450.61,347.348L1451.01,347.638L1451.41,347.926L1451.81,348.214L1452.21,348.5L1452.62,348.785L1453.02,349.069L1453.43,349.352L1453.84,349.634L1454.24,349.915L1454.65,350.195L1455.06,350.474L1455.47,350.751L1455.88,351.028L1456.3,351.303L1456.71,351.578L1457.13,351.851L1457.54,352.123L1457.96,352.394L1458.38,352.664L1458.79,352.932L1459.21,353.2L1459.63,353.467L1460.05,353.732L1460.48,353.996L1460.9,354.259L1461.32,354.521L1461.75,354.782L1462.17,355.042L1462.6,355.301L1463.03,355.558L1463.45,355.814L1463.88,356.07L1464.31,356.323L1464.75,356.576L1465.18,356.828L1465.61,357.079L1466.04,357.328L1466.48,357.576L1466.91,357.823L1467.35,358.069L1467.79,358.314L1468.23,358.558L1468.66,358.8L1469.1,359.041L1469.54,359.281L1469.99,359.52L1470.43,359.758L1470.87,359.995L1471.32,360.23L1471.76,360.464L1472.2,360.697L1472.65,360.929L1473.1,361.159L1473.55,361.389L1474,361.617L1474.45,361.844L1474.9,362.07L1475.35,362.294L1475.8,362.518L1476.25,362.74L1476.71,362.961L1477.16,363.18L1477.62,363.399L1478.07,363.616L1478.53,363.832L1478.99,364.047L1479.45,364.261L1479.91,364.473L1480.37,364.684L1480.83,364.894L1481.29,365.103L1481.75,365.31L1482.22,365.516L1482.68,365.721L1483.15,365.925L1483.61,366.127L1484.08,366.328L1484.55,366.528L1485.02,366.727L1485.49,366.924L1485.95,367.121L1486.42,367.315L1486.9,367.509L1487.37,367.701L1487.84,367.893L1488.31,368.082L1488.79,368.271L1489.26,368.458L1489.74,368.644L1490.22,368.829L1490.69,369.012L1491.17,369.194L1491.65,369.375L1492.13,369.555L1492.61,369.733L1493.09,369.91L1493.57,370.085L1494.05,370.26L1494.54,370.433L1495.02,370.605L1495.51,370.775L1495.99,370.944L1496.48,371.112L1496.96,371.278L1497.45,371.444L1497.94,371.607L1498.43,371.77L1498.92,371.931L1499.41,372.091L1499.9,372.25L1500.39,372.407L1500.88,372.563L1501.37,372.717L1501.87,372.87L1502.36,373.022L1502.86,373.173L1503.35,373.322L1503.85,373.47L1504.35,373.616L1504.84,373.761L1505.34,373.905L1505.84,374.047L1506.34,374.188L1506.84,374.328L1507.34,374.466L1507.84,374.603L1508.34,374.739L1508.85,374.873L1509.35,375.006L1509.85,375.137L1510.36,375.267L1510.86,375.396L1511.37,375.523L1511.88,375.649L1512.38,375.773L1512.89,375.896L1513.4,376.018L1513.91,376.138L1514.42,376.257L1514.93,376.375L1515.44,376.491L1515.95,376.606L1516.46,376.719L1516.98,376.831L1517.49,376.941L1518,377.05L1518.52,377.158L1519.03,377.264L1519.55,377.369L1520.07,377.472L1520.58,377.574L1521.1,377.675L1521.62,377.774L1522.13,377.871L1522.65,377.968L1523.17,378.062L1523.69,378.156L1524.21,378.248L1524.74,378.338L1525.26,378.427L1525.78,378.514L1526.3,378.601L1526.83,378.685L1527.35,378.768L1527.88,378.85L1528.4,378.93L1528.93,379.009L1529.45,379.086L1529.98,379.162L1530.51,379.236L1531.04,379.309L1531.57,379.381L1532.09,379.451L1532.62,379.519L1533.15,379.586L1533.68,379.651L1534.22,379.715L1534.75,379.778L1535.28,379.839L1535.81,379.898L1536.34,379.956L1536.88,380.013L1537.41,380.068L1537.95,380.121L1538.48,380.173L1539.02,380.223L1539.55,380.272L1540.09,380.32L1540.63,380.366L1541.16,380.41L1541.7,380.453L1542.24,380.494L1542.78,380.534L1543.32,380.572L1543.86,380.609L1544.4,380.644L1544.94,380.678L1545.48,380.71L1546.02,380.741L1546.57,380.77L1547.11,380.797L1547.65,380.823L1548.19,380.847L1548.74,380.87L1549.28,380.891L1549.83,380.911L1550.37,380.929L1550.92,380.946L1551.47,380.961L1552.01,380.974L1552.56,380.986L1553.11,380.996L1553.65,381.005L1554.2,381.012L1554.75,381.018L1555.3,381.022L1555.85,381.024L1556.4,381.025L1557.71,381.025L1558.26,381.024L1558.81,381.022L1559.36,381.018L1559.91,381.012L1560.46,381.005L1561.01,380.996L1561.55,380.986L1562.1,380.974L1562.65,380.961L1563.19,380.946L1563.74,380.929L1564.28,380.911L1564.83,380.891L1565.37,380.87L1565.92,380.847L1566.46,380.823L1567,380.797L1567.55,380.77L1568.09,380.741L1568.63,380.71L1569.17,380.678L1569.71,380.644L1570.25,380.609L1570.79,380.572L1571.33,380.534L1571.87,380.494L1572.41,380.453L1572.95,380.41L1573.49,380.366L1574.02,380.32L1574.56,380.272L1575.1,380.223L1575.63,380.173L1576.17,380.121L1576.7,380.068L1577.23,380.013L1577.77,379.956L1578.3,379.898L1578.83,379.839L1579.37,379.778L1579.9,379.715L1580.43,379.651L1580.96,379.586L1581.49,379.519L1582.02,379.451L1582.55,379.381L1583.08,379.309L1583.6,379.236L1584.13,379.162L1584.66,379.086L1585.18,379.009L1585.71,378.93L1586.24,378.85L1586.76,378.768L1587.29,378.685L1587.81,378.601L1588.33,378.514L1588.85,378.427L1589.38,378.338L1589.9,378.248L1590.42,378.156L1590.94,378.062L1591.46,377.968L1591.98,377.871L1592.5,377.774L1593.01,377.675L1593.53,377.574L1594.05,377.472L1594.56,377.369L1595.08,377.264L1595.6,377.158L1596.11,377.05L1596.62,376.941L1597.14,376.831L1597.65,376.719L1598.16,376.606L1598.67,376.491L1599.18,376.375L1599.69,376.257L1600.2,376.138L1600.71,376.018L1601.22,375.896L1601.73,375.773L1602.24,375.649L1602.74,375.523L1603.25,375.396L1603.75,375.267L1604.26,375.137L1604.76,375.006L1605.27,374.873L1605.77,374.739L1606.27,374.603L1606.77,374.466L1607.27,374.328L1607.77,374.188L1608.27,374.047L1608.77,373.905L1609.27,373.761L1609.77,373.616L1610.26,373.47L1610.76,373.322L1611.26,373.173L1611.75,373.022L1612.24,372.87L1612.74,372.717L1613.23,372.563L1613.72,372.407L1614.21,372.249L1614.7,372.091L1615.19,371.931L1615.68,371.77L1616.17,371.607L1616.66,371.444L1617.15,371.278L1617.63,371.112L1618.12,370.944L1618.61,370.775L1619.09,370.605L1619.58,370.433L1620.06,370.26L1620.54,370.085L1621.02,369.91L1621.5,369.733L1621.98,369.555L1622.46,369.375L1622.94,369.194L1623.42,369.012L1623.9,368.829L1624.37,368.644L1624.85,368.458L1625.32,368.271L1625.8,368.082L1626.27,367.893L1626.74,367.701L1627.22,367.509L1627.69,367.316L1628.16,367.121L1628.63,366.924L1629.1,366.727L1629.57,366.528L1630.03,366.328L1630.5,366.127L1630.97,365.925L1631.43,365.721L1631.89,365.516L1632.36,365.31L1632.82,365.103L1633.28,364.894L1633.74,364.684L1634.2,364.473L1634.66,364.261L1635.12,364.047L1635.58,363.832L1636.04,363.616L1636.49,363.399L1636.95,363.18L1637.4,362.961L1637.86,362.74L1638.31,362.518L1638.76,362.294L1639.22,362.07L1639.67,361.844L1640.12,361.617L1640.57,361.389L1641.01,361.159L1641.46,360.929L1641.91,360.697L1642.35,360.464L1642.8,360.23L1643.24,359.995L1643.68,359.758L1644.13,359.52L1644.57,359.281L1645.01,359.041L1645.45,358.8L1645.89,358.558L1646.33,358.314L1646.76,358.069L1647.2,357.823L1647.63,357.576L1648.07,357.328L1648.5,357.079L1648.93,356.828L1649.37,356.576L1649.8,356.323L1650.23,356.069L1650.66,355.814L1651.09,355.558L1651.51,355.301L1651.94,355.042L1652.37,354.782L1652.79,354.521L1653.21,354.259L1653.64,353.996L1654.06,353.732L1654.48,353.467L1654.9,353.2L1655.32,352.932L1655.74,352.664L1656.15,352.394L1656.57,352.123L1656.99,351.851L1657.4,351.578L1657.82,351.303L1658.23,351.028L1658.64,350.751L1659.05,350.474L1659.46,350.195L1659.87,349.915L1660.28,349.634L1660.68,349.352L1661.09,349.069L1661.5,348.785L1661.9,348.5L1662.3,348.214L1662.7,347.926L1663.11,347.638L1663.51,347.348L1663.9,347.058L1664.3,346.766L1664.7,346.473L1665.1,346.179L1665.49,345.884L1665.89,345.588L1666.28,345.291L1666.67,344.994L1667.06,344.694L1667.45,344.394L1667.84,344.093L1668.23,343.791L1668.62,343.488L1669.01,343.183L1669.39,342.878L1669.78,342.571L1670.16,342.264L1670.54,341.956L1670.92,341.646L1671.3,341.336L1671.68,341.024L1672.06,340.712L1672.44,340.398L1672.81,340.083L1673.19,339.768L1673.56,339.451L1673.94,339.134L1674.31,338.815L1674.68,338.495L1675.05,338.175L1675.42,337.853L1675.79,337.53L1676.15,337.207L1676.52,336.882L1676.88,336.557L1677.25,336.23L1677.61,335.902L1677.97,335.574L1678.33,335.244L1678.69,334.914L1679.05,334.582L1679.41,334.25L1679.76,333.916L1680.12,333.582L1680.47,333.247L1680.82,332.911L1681.17,332.573L1681.53,332.235L1681.88,331.896L1682.22,331.556L1682.57,331.215L1682.92,330.872L1683.26,330.529L1683.61,330.186L1683.95,329.841L1684.29,329.495L1684.63,329.148L1684.97,328.8L1685.31,328.452L1685.64,328.102L1685.98,327.752L1686.32,327.4L1686.65,327.048L1686.98,326.695L1687.31,326.34L1687.64,325.985L1687.97,325.629L1688.3,325.273L1688.63,324.915L1688.95,324.556L1689.28,324.196L1689.6,323.836L1689.92,323.474L1690.25,323.112L1690.57,322.749L1690.88,322.385L1691.2,322.02L1691.52,321.654L1691.83,321.287L1692.15,320.92L1692.46,320.551L1692.77,320.182L1693.08,319.811L1693.39,319.44L1693.7,319.068L1694.01,318.695L1694.31,318.322L1694.62,317.947L1694.92,317.572L1695.22,317.195L1695.52,316.818L1695.82,316.44L1696.12,316.061L1696.42,315.682L1696.71,315.301L1697.01,314.92L1697.3,314.537L1697.59,314.154L1697.88,313.77L1698.17,313.386L1698.46,313L1698.75,312.613L1699.04,312.226L1699.32,311.838L1699.61,311.449L1699.89,311.059L1700.17,310.669L1700.45,310.278L1700.73,309.886L1701,309.493L1701.28,309.099L1701.56,308.704L1701.83,308.309L1702.1,307.913L1702.37,307.516L1702.64,307.118L1702.91,306.719L1703.18,306.32L1703.44,305.92L1703.71,305.519L1703.97,305.117L1704.23,304.715L1704.49,304.311L1704.75,303.907L1705.01,303.503L1705.27,303.097L1705.52,302.691L1705.78,302.283L1706.03,301.876L1706.28,301.467L1706.53,301.058L1706.78,300.647L1707.03,300.236L1707.28,299.825L1707.52,299.412L1707.76,298.999L1708.01,298.585L1708.25,298.17L1708.49,297.755L1708.73,297.339L1708.96,296.922L1709.2,296.505L1709.43,296.086L1709.66,295.667L1709.9,295.247L1710.13,294.827L1710.36,294.406L1710.58,293.984L1710.81,293.561L1711.03,293.138L1711.26,292.713L1711.48,292.289L1711.7,291.863L1711.92,291.437L1712.14,291.01L1712.35,290.582L1712.57,290.154L1712.78,289.725L1713,289.295L1713.21,288.865L1713.41,288.434L1713.62,288.002L1713.83,287.57L1714.04,287.136L1714.24,286.703L1714.44,286.268L1714.64,285.833L1714.84,285.397L1715.04,284.961L1715.24,284.524L1715.43,284.086L1715.63,283.647L1715.82,283.208L1716.01,282.768L1716.2,282.328L1716.39,281.887L1716.58,281.445L1716.76,281.002L1716.95,280.559L1717.13,280.116L1717.31,279.671L1717.49,279.226L1717.67,278.781L1717.84,278.334L1718.02,277.888L1718.19,277.44L1718.37,276.992L1718.54,276.543L1718.71,276.094L1718.87,275.644L1719.04,275.193L1719.21,274.742L1719.37,274.29L1719.53,273.838L1719.69,273.385L1719.85,272.931L1720.01,272.477L1720.16,272.022L1720.32,271.567L1720.47,271.11L1720.63,270.654L1720.78,270.197L1720.92,269.739L1721.07,269.28L1721.22,268.821L1721.36,268.362L1721.5,267.901L1721.64,267.441L1721.78,266.979L1721.92,266.518L1722.06,266.055L1722.19,265.592L1722.33,265.129L1722.46,264.664L1722.59,264.2L1722.72,263.734L1722.85,263.269L1722.97,262.802L1723.1,262.335L1723.22,261.868L1723.34,261.4L1723.46,260.931L1723.58,260.462L1723.69,259.993L1723.81,259.522L1723.92,259.052L1724.03,258.581L1724.14,258.109L1724.25,257.636L1724.36,257.164L1724.47,256.69L1724.57,256.217L1724.67,255.742L1724.77,255.267L1724.87,254.792L1724.97,254.316L1725.06,253.84L1725.16,253.363L1725.25,252.885L1725.34,252.407L1725.43,251.929L1725.52,251.45L1725.61,250.97L1725.69,250.49L1725.78,250.01L1725.86,249.529L1725.94,249.048L1726.01,248.566L1726.09,248.084L1726.17,247.601L1726.24,247.117L1726.31,246.634L1726.38,246.15L1726.45,245.665L1726.52,245.18L1726.58,244.694L1726.65,244.208L1726.71,243.721L1726.77,243.234L1726.83,242.747L1726.88,242.259L1726.94,241.771L1726.99,241.282L1727.04,240.793L1727.1,240.303L1727.14,239.813L1727.19,239.322L1727.24,238.831L1727.28,238.34L1727.32,237.848L1727.36,237.356L1727.4,236.863L1727.44,236.37L1727.47,235.876L1727.51,235.382L1727.54,234.888L1727.57,234.393L1727.6,233.898L1727.62,233.402L1727.65,232.906L1727.67,232.409L1727.69,231.913L1727.71,231.415L1727.73,230.918L1727.75,230.419L1727.76,229.921L1727.78,229.422L1727.79,228.923L1727.8,228.423L1727.8,227.923L1727.81,227.423L1727.81,226.922L1727.82,226.421L1727.82,225.92L1727.82,225.418L1727.81,224.917L1727.81,224.416L1727.8,223.916L1727.8,223.416L1727.79,222.916L1727.78,222.417L1727.76,221.918L1727.75,221.42L1727.73,220.922L1727.71,220.424L1727.69,219.927L1727.67,219.43L1727.65,218.933L1727.62,218.437L1727.6,217.942L1727.57,217.446L1727.54,216.951L1727.51,216.457L1727.47,215.963L1727.44,215.47L1727.4,214.976L1727.36,214.484L1727.32,213.991L1727.28,213.5L1727.24,213.008L1727.19,212.517L1727.14,212.027L1727.1,211.536L1727.04,211.047L1726.99,210.557L1726.94,210.069L1726.88,209.58L1726.83,209.092L1726.77,208.605L1726.71,208.118L1726.65,207.631L1726.58,207.145L1726.52,206.66L1726.45,206.174L1726.38,205.69L1726.31,205.206L1726.24,204.722L1726.17,204.238L1726.09,203.755L1726.01,203.273L1725.94,202.792L1725.86,202.31L1725.78,201.829L1725.69,201.349L1725.61,200.869L1725.52,200.389L1725.43,199.91L1725.34,199.432L1725.25,198.954L1725.16,198.477L1725.06,198L1724.97,197.523L1724.87,197.047L1724.77,196.572L1724.67,196.097L1724.57,195.623L1724.47,195.149L1724.36,194.676L1724.25,194.203L1724.14,193.73L1724.03,193.259L1723.92,192.788L1723.81,192.317L1723.69,191.847L1723.58,191.377L1723.46,190.908L1723.34,190.439L1723.22,189.971L1723.1,189.504L1722.97,189.037L1722.85,188.571L1722.72,188.105L1722.59,187.639L1722.46,187.175L1722.33,186.711L1722.19,186.247L1722.06,185.784L1721.92,185.322L1721.78,184.86L1721.64,184.398L1721.5,183.938L1721.36,183.477L1721.22,183.018L1721.07,182.559L1720.92,182.101L1720.78,181.643L1720.63,181.186L1720.47,180.729L1720.32,180.273L1720.16,179.817L1720.01,179.363L1719.85,178.908L1719.69,178.454L1719.53,178.001L1719.37,177.549L1719.21,177.097L1719.04,176.646L1718.87,176.195L1718.71,175.745L1718.54,175.296L1718.37,174.847L1718.19,174.399L1718.02,173.951L1717.84,173.505L1717.67,173.058L1717.49,172.613L1717.31,172.168L1717.13,171.723L1716.95,171.28L1716.76,170.837L1716.58,170.394L1716.39,169.953L1716.2,169.511L1716.01,169.071L1715.82,168.631L1715.63,168.192L1715.43,167.754L1715.24,167.316L1715.04,166.878L1714.84,166.442L1714.64,166.006L1714.44,165.571L1714.24,165.136L1714.04,164.703L1713.83,164.27L1713.62,163.837L1713.41,163.405L1713.21,162.974L1713,162.544L1712.78,162.114L1712.57,161.685L1712.35,161.257L1712.14,160.829L1711.92,160.402L1711.7,159.976L1711.48,159.551L1711.26,159.126L1711.03,158.702L1710.81,158.278L1710.58,157.856L1710.36,157.434L1710.13,157.013L1709.9,156.592L1709.66,156.172L1709.43,155.753L1709.2,155.335L1708.96,154.917L1708.73,154.5L1708.49,154.084L1708.25,153.669L1708.01,153.254L1707.76,152.84L1707.52,152.427L1707.28,152.014L1707.03,151.603L1706.78,151.192L1706.53,150.782L1706.28,150.372L1706.03,149.964L1705.78,149.556L1705.52,149.149L1705.27,148.742L1705.01,148.337L1704.75,147.932L1704.49,147.528L1704.23,147.125L1703.97,146.722L1703.71,146.32L1703.44,145.919L1703.18,145.519L1702.91,145.12L1702.64,144.721L1702.37,144.324L1702.1,143.927L1701.83,143.53L1701.56,143.135L1701.28,142.74L1701,142.347L1700.73,141.954L1700.45,141.561L1700.17,141.17L1699.89,140.78L1699.61,140.39L1699.32,140.001L1699.04,139.613L1698.75,139.226L1698.46,138.839L1698.17,138.454L1697.88,138.069L1697.59,137.685L1697.3,137.302L1697.01,136.92L1696.71,136.538L1696.42,136.158L1696.12,135.778L1695.82,135.399L1695.52,135.021L1695.22,134.644L1694.92,134.268L1694.62,133.892L1694.31,133.517L1694.01,133.144L1693.7,132.771L1693.39,132.399L1693.08,132.028L1692.77,131.657L1692.46,131.288L1692.15,130.92L1691.83,130.552L1691.52,130.185L1691.2,129.819L1690.88,129.454L1690.57,129.09L1690.25,128.727L1689.92,128.365L1689.6,128.003L1689.28,127.643L1688.95,127.283L1688.63,126.924L1688.3,126.567L1687.97,126.21L1687.64,125.854L1687.31,125.499L1686.98,125.144L1686.65,124.791L1686.32,124.439L1685.98,124.087L1685.64,123.737L1685.31,123.387L1684.97,123.039L1684.63,122.691L1684.29,122.344L1683.95,121.999L1683.61,121.654L1683.26,121.31L1682.92,120.967L1682.57,120.625L1682.22,120.284L1681.88,119.944L1681.53,119.604L1681.17,119.266L1680.82,118.929L1680.47,118.592L1680.12,118.257L1679.76,117.923L1679.41,117.589L1679.05,117.257L1678.69,116.925L1678.33,116.595L1677.97,116.265L1677.61,115.937L1677.25,115.609L1676.88,115.283L1676.52,114.957L1676.15,114.632L1675.79,114.309L1675.42,113.986L1675.05,113.664L1674.68,113.344L1674.31,113.024L1673.94,112.706L1673.56,112.388L1673.19,112.071L1672.81,111.756L1672.44,111.441L1672.06,111.128L1671.68,110.815L1671.3,110.504L1670.92,110.193L1670.54,109.884L1670.16,109.575L1669.78,109.268L1669.39,108.961L1669.01,108.656L1668.62,108.352L1668.23,108.048L1667.84,107.746L1667.45,107.445L1667.06,107.145L1666.67,106.846L1666.28,106.548L1665.89,106.251L1665.49,105.955L1665.1,105.66L1664.7,105.366L1664.3,105.073L1663.9,104.782L1663.51,104.491L1663.11,104.201L1662.7,103.913L1662.3,103.626L1661.9,103.339L1661.5,103.054L1661.09,102.77L1660.68,102.487L1660.28,102.205L1659.87,101.924L1659.46,101.644L1659.05,101.365L1658.64,101.088L1658.23,100.811L1657.82,100.536L1657.4,100.262L1656.99,99.988L1656.57,99.716L1656.15,99.445L1655.74,99.175L1655.32,98.907L1654.9,98.639L1654.48,98.373L1654.06,98.107L1653.64,97.843L1653.21,97.58L1652.79,97.318L1652.37,97.057L1651.94,96.797L1651.51,96.539L1651.09,96.281L1650.66,96.025L1650.23,95.77L1649.8,95.516L1649.37,95.263L1648.93,95.011L1648.5,94.76L1648.07,94.511L1647.63,94.263L1647.2,94.016L1646.76,93.77L1646.33,93.525L1645.89,93.282L1645.45,93.039L1645.01,92.798L1644.57,92.558L1644.13,92.319L1643.68,92.081L1643.24,91.845L1642.8,91.609L1642.35,91.375L1641.91,91.142L1641.46,90.91L1641.01,90.68L1640.57,90.451L1640.12,90.222L1639.67,89.995L1639.22,89.77L1638.76,89.545L1638.31,89.322L1637.86,89.099L1637.4,88.879L1636.95,88.659L1636.49,88.44L1636.04,88.223L1635.58,88.007L1635.12,87.792L1634.66,87.579L1634.2,87.366L1633.74,87.155L1633.28,86.945L1632.82,86.737L1632.36,86.529L1631.89,86.323L1631.43,86.118L1630.97,85.914L1630.5,85.712L1630.03,85.511L1629.57,85.311L1629.1,85.112L1628.63,84.915L1628.16,84.719L1627.69,84.524L1627.22,84.33L1626.74,84.138L1626.27,83.947L1625.8,83.757L1625.32,83.568L1624.85,83.381L1624.37,83.195L1623.9,83.01L1623.42,82.827L1622.94,82.645L1622.46,82.464L1621.98,82.285L1621.5,82.106L1621.02,81.929L1620.54,81.754L1620.06,81.579L1619.58,81.406L1619.09,81.235L1618.61,81.064L1618.12,80.895L1617.63,80.727L1617.15,80.561L1616.66,80.396L1616.17,80.232L1615.68,80.069L1615.19,79.908L1614.7,79.748L1614.21,79.59L1613.72,79.432L1613.23,79.277L1612.74,79.122L1612.24,78.969L1611.75,78.817L1611.26,78.667L1610.76,78.517L1610.26,78.37L1609.77,78.223L1609.27,78.078L1608.77,77.934L1608.27,77.792L1607.77,77.651L1607.27,77.511L1606.77,77.373L1606.27,77.236L1605.77,77.101L1605.27,76.966L1604.76,76.834L1604.26,76.702L1603.75,76.572L1603.25,76.443L1602.74,76.316L1602.24,76.19L1601.73,76.066L1601.22,75.943L1600.71,75.821L1600.2,75.701L1599.69,75.582L1599.18,75.464L1598.67,75.348L1598.16,75.233L1597.65,75.12L1597.14,75.008L1596.62,74.898L1596.11,74.789L1595.6,74.681L1595.08,74.575L1594.56,74.47L1594.05,74.367L1593.53,74.265L1593.01,74.164L1592.5,74.065L1591.98,73.968L1591.46,73.872L1590.94,73.777L1590.42,73.683L1589.9,73.592L1589.38,73.501L1588.85,73.412L1588.33,73.325L1587.81,73.239L1587.28,73.154L1586.76,73.071L1586.24,72.989L1585.71,72.909L1585.18,72.83L1584.66,72.753L1584.13,72.677L1583.6,72.603L1583.08,72.53L1582.55,72.459L1582.02,72.389L1581.49,72.32L1580.96,72.253L1580.43,72.188L1579.9,72.124L1579.37,72.061L1578.83,72L1578.3,71.941L1577.77,71.883L1577.23,71.827L1576.7,71.772L1576.17,71.718L1575.63,71.666L1575.1,71.616L1574.56,71.567L1574.02,71.519L1573.49,71.473L1572.95,71.429L1572.41,71.386L1571.87,71.345L1571.33,71.305L1570.79,71.267L1570.25,71.23L1569.71,71.195L1569.17,71.161L1568.63,71.129L1568.09,71.099L1567.55,71.07L1567,71.042L1566.46,71.016L1565.92,70.992L1565.37,70.969L1564.83,70.948L1564.28,70.928L1563.74,70.91L1563.19,70.893L1562.65,70.878L1562.1,70.865L1561.55,70.853L1561.01,70.843L1560.46,70.834L1559.91,70.827L1559.36,70.821L1558.81,70.817L1558.26,70.815L1557.71,70.814L1556.4,70.814Z" style="fill:rgb(42,233,147);"/>
        </g>
    </g>
</svg>
