<?xml version="1.0" encoding="UTF-8" standalone="no"?>
<!DOCTYPE svg PUBLIC "-//W3C//DTD SVG 1.1//EN" "http://www.w3.org/Graphics/SVG/1.1/DTD/svg11.dtd">
<svg width="100%" height="100%" viewBox="0 0 1608 1040" version="1.1" xmlns="http://www.w3.org/2000/svg" xmlns:xlink="http://www.w3.org/1999/xlink" xml:space="preserve" xmlns:serif="http://www.serif.com/" style="fill-rule:evenodd;clip-rule:evenodd;stroke-linecap:round;stroke-miterlimit:10;">
    <g transform="matrix(1,0,0,1,-6102.42,-8232.24)">
        <g transform="matrix(1.54249,0,0,1.12006,5944.9,8466.65)">
            <g transform="matrix(0.648304,0,0,0.892809,-3854.1,-7559.1)">
                <rect x="6120.01" y="8928.52" width="327.824" height="258.64" style="fill:white;"/>
            </g>
        </g>
        <g transform="matrix(1.54249,0,0,1.12006,5944.9,8466.65)">
            <g transform="matrix(0.648304,0,0,0.892809,-3285.52,-7723.5)">
                <rect x="6120.01" y="8928.52" width="327.824" height="258.64" style="fill:white;"/>
            </g>
        </g>
        <g transform="matrix(1.54249,0,0,1.12006,5944.9,8466.65)">
            <g id="box-open-box" transform="matrix(0.648304,0,0,0.892809,623.353,254.974)">
                <g transform="matrix(1,0,0,1,-804,-520)">
                    <g transform="matrix(1,0,0,1,-7139.83,-7748.97)">
                        <g transform="matrix(1,0,0,0.999997,-0.028089,0.0249057)">
                            <g>
                                <path d="M8522.56,8165.56L7856.56,8165.56L7856.56,8788.56L8522.56,8788.56L8522.56,8165.56ZM8347.35,8493.05L8347.35,8278.74L8050.89,8278.74L8050.89,8493.05L8347.35,8493.05ZM8098.24,8322.79L8098.24,8365.65L8094.94,8365.65L8094.94,8322.79L8098.24,8322.79ZM8100.47,8365.65L8099.42,8365.65L8099.42,8322.79L8100.47,8322.79L8100.47,8365.65ZM8105.52,8365.65L8102.85,8365.65L8102.85,8322.79L8105.52,8322.79L8105.52,8365.65ZM8110.9,8365.65L8107.9,8365.65L8107.9,8322.79L8110.9,8322.79L8110.9,8365.65ZM8115.61,8365.65L8114.75,8365.65L8114.75,8322.79L8115.61,8322.79L8115.61,8365.65ZM8118.32,8365.65L8116.78,8365.65L8116.78,8322.79L8118.32,8322.79L8118.32,8365.65ZM8122.57,8365.65L8120.71,8365.65L8120.71,8322.79L8122.57,8322.79L8122.57,8365.65ZM8129.04,8365.65L8126.42,8365.65L8126.42,8322.79L8129.04,8322.79L8129.04,8365.65ZM8133.76,8365.65L8131.42,8365.65L8131.42,8322.79L8133.76,8322.79L8133.76,8365.65ZM8138.05,8365.65L8136.14,8365.65L8136.14,8322.79L8138.05,8322.79L8138.05,8365.65ZM8142.93,8365.65L8140.43,8365.65L8140.43,8322.79L8142.93,8322.79L8142.93,8365.65ZM8149.14,8365.65L8146.79,8365.65L8146.79,8322.79L8149.14,8322.79L8149.14,8365.65ZM8154.19,8365.65L8151.52,8365.65L8151.52,8322.79L8154.19,8322.79L8154.19,8365.65ZM8159.57,8365.65L8156.57,8365.65L8156.57,8322.79L8159.57,8322.79L8159.57,8365.65ZM8165.65,8365.65L8163.42,8365.65L8163.42,8322.79L8165.65,8322.79L8165.65,8365.65ZM8170.71,8365.65L8168.03,8365.65L8168.03,8322.79L8170.71,8322.79L8170.71,8365.65ZM8172.94,8365.65L8171.89,8365.65L8171.89,8322.79L8172.94,8322.79L8172.94,8365.65ZM8179.05,8365.65L8175.32,8365.65L8175.32,8322.79L8179.05,8322.79L8179.05,8365.65ZM8186.72,8365.65L8182.9,8365.65L8182.9,8322.79L8186.72,8322.79L8186.72,8365.65ZM8191.61,8365.65L8189.1,8365.65L8189.1,8322.79L8191.61,8322.79L8191.61,8365.65ZM8197.81,8365.65L8195.46,8365.65L8195.46,8322.79L8197.81,8322.79L8197.81,8365.65ZM8202.66,8365.65L8200.19,8365.65L8200.19,8322.79L8202.66,8322.79L8202.66,8365.65ZM8208.8,8365.65L8203.83,8365.65L8203.83,8322.79L8208.8,8322.79L8208.8,8365.65ZM8213.69,8365.65L8211.18,8365.65L8211.18,8322.79L8213.69,8322.79L8213.69,8365.65ZM8217.55,8322.79L8219.95,8322.79L8219.95,8365.65L8217.55,8365.65L8217.55,8322.79Z" style="fill:url(#_Linear1);"/>
                            </g>
                        </g>
                        <g transform="matrix(1,0,0,0.999997,-0.028089,0.0249057)">
                            <g>
                                <path d="M7805.83,8165.56L7139.83,8165.56L7139.83,8788.56L7805.83,8788.56L7805.83,8165.56ZM7467.2,8681.27L7467.2,8466.96L7170.74,8466.96L7170.74,8681.27L7467.2,8681.27ZM7218.1,8511.01L7218.1,8553.88L7214.8,8553.88L7214.8,8511.01L7218.1,8511.01ZM7220.32,8553.88L7219.28,8553.88L7219.28,8511.01L7220.32,8511.01L7220.32,8553.88ZM7225.37,8553.88L7222.71,8553.88L7222.71,8511.01L7225.37,8511.01L7225.37,8553.88ZM7230.75,8553.88L7227.76,8553.88L7227.76,8511.01L7230.75,8511.01L7230.75,8553.88ZM7235.47,8553.88L7234.61,8553.88L7234.61,8511.01L7235.47,8511.01L7235.47,8553.88ZM7238.18,8553.88L7236.64,8553.88L7236.64,8511.01L7238.18,8511.01L7238.18,8553.88ZM7242.42,8553.88L7240.57,8553.88L7240.57,8511.01L7242.42,8511.01L7242.42,8553.88ZM7248.9,8553.88L7246.28,8553.88L7246.28,8511.01L7248.9,8511.01L7248.9,8553.88ZM7253.62,8553.88L7251.28,8553.88L7251.28,8511.01L7253.62,8511.01L7253.62,8553.88ZM7257.9,8553.88L7256,8553.88L7256,8511.01L7257.9,8511.01L7257.9,8553.88ZM7262.79,8553.88L7260.28,8553.88L7260.28,8511.01L7262.79,8511.01L7262.79,8553.88ZM7269,8553.88L7266.65,8553.88L7266.65,8511.01L7269,8511.01L7269,8553.88ZM7274.05,8553.88L7271.38,8553.88L7271.38,8511.01L7274.05,8511.01L7274.05,8553.88ZM7279.43,8553.88L7276.43,8553.88L7276.43,8511.01L7279.43,8511.01L7279.43,8553.88ZM7285.51,8553.88L7283.28,8553.88L7283.28,8511.01L7285.51,8511.01L7285.51,8553.88ZM7290.57,8553.88L7287.89,8553.88L7287.89,8511.01L7290.57,8511.01L7290.57,8553.88ZM7292.8,8553.88L7291.75,8553.88L7291.75,8511.01L7292.8,8511.01L7292.8,8553.88ZM7298.9,8553.88L7295.18,8553.88L7295.18,8511.01L7298.9,8511.01L7298.9,8553.88ZM7306.57,8553.88L7302.76,8553.88L7302.76,8511.01L7306.57,8511.01L7306.57,8553.88ZM7311.46,8553.88L7308.96,8553.88L7308.96,8511.01L7311.46,8511.01L7311.46,8553.88ZM7317.67,8553.88L7315.32,8553.88L7315.32,8511.01L7317.67,8511.01L7317.67,8553.88ZM7322.52,8553.88L7320.05,8553.88L7320.05,8511.01L7322.52,8511.01L7322.52,8553.88ZM7328.66,8553.88L7323.69,8553.88L7323.69,8511.01L7328.66,8511.01L7328.66,8553.88ZM7333.55,8553.88L7331.04,8553.88L7331.04,8511.01L7333.55,8511.01L7333.55,8553.88ZM7337.41,8511.01L7339.81,8511.01L7339.81,8553.88L7337.41,8553.88L7337.41,8511.01Z" style="fill:url(#_Linear2);"/>
                            </g>
                        </g>
                        <g transform="matrix(0.423853,0,0,0.426561,7456.83,8436.88)">
                            <g>
                                <g>
                                    <path d="M456.672,166.916C460.965,161.513 495.859,117.039 522.521,89.818C563.292,48.193 607.344,11.072 657.583,11.072C723.411,11.072 769.589,68.946 769.589,125.56C769.589,175.858 728.545,238.076 660.172,237.878C620.976,237.765 491.743,237.878 491.743,237.878L471.386,264.872L520.788,264.872C569.313,264.872 603.155,307.225 603.155,350.556C603.155,393.887 565.852,434.431 522.521,434.431L345.986,434.431C344,440.389 284.071,511.485 255.063,536.665C219.512,567.525 183.459,590.237 145.282,590.237C72.871,590.237 32.844,529.605 32.844,474.998C32.844,420.391 79.213,364.354 145.282,363.518L310.93,363.518L331.706,336.331L281.02,336.331C235.636,336.331 199.863,296.952 199.863,251.569C199.863,214.057 225.366,166.916 281.02,166.916L456.672,166.916ZM657.383,202.472C701.129,202.472 733.796,168.329 733.796,124.724C733.796,81.119 699.026,46.976 657.383,46.976C603.761,46.976 540.03,115.646 473.627,202.472L283.668,202.472C249.382,202.473 235.353,230.281 235.353,251.63C235.353,272.98 251.97,300.788 283.668,300.789L401.333,300.789C377.12,334.343 352.907,367.897 329.038,399.105L145.282,399.105C105.7,399.106 68.869,433.249 68.869,476.853C68.869,520.458 103.356,554.602 145.282,554.602C198.905,554.602 262.635,485.932 329.038,399.105L518.998,399.105C550.574,399.105 567.312,371.708 567.312,349.947C567.312,328.186 550.817,300.789 518.998,300.789L401.333,300.789C425.546,267.235 449.759,233.681 473.627,202.472L657.383,202.472Z" style="fill:url(#_Linear3);"/>
                                    <g transform="matrix(2.35932,0,0,2.34432,-747.898,-1612.68)">
                                        <path d="M510.563,759.075C510.556,759.083 510.558,759.095 510.566,759.101C510.574,759.107 510.585,759.106 510.591,759.098C510.598,759.09 510.596,759.078 510.588,759.072C510.58,759.066 510.569,759.067 510.563,759.075Z" style="fill:none;stroke:black;stroke-width:0.02px;"/>
                                        <path d="M595.66,774.259C595.65,774.259 595.642,774.267 595.642,774.277C595.642,774.288 595.65,774.296 595.66,774.296C595.67,774.296 595.679,774.287 595.679,774.277C595.679,774.267 595.67,774.259 595.66,774.259Z" style="fill:none;stroke:black;stroke-width:0.02px;"/>
                                        <circle cx="510.528" cy="759.11" r="0.018" style="fill:none;stroke:black;stroke-width:0.02px;"/>
                                        <circle cx="595.6" cy="774.277" r="0.018" style="fill:none;stroke:black;stroke-width:0.02px;"/>
                                        <path d="M510.588,759.072C512.535,756.604 527.228,737.773 538.469,726.224C555.749,708.468 574.421,692.633 595.715,692.633C623.616,692.633 643.189,717.32 643.189,741.469C643.189,762.925 625.792,789.465 596.812,789.38C580.199,789.332 525.423,789.38 525.423,789.38L516.795,800.895L537.734,800.895C558.301,800.895 572.645,818.961 572.645,837.444C572.645,855.928 556.834,873.222 538.469,873.222L463.644,873.222C462.802,875.764 437.401,906.091 425.106,916.831C410.038,929.995 394.757,939.683 378.576,939.683C347.884,939.683 330.918,913.82 330.918,890.527C330.918,867.234 350.572,843.33 378.576,842.973L448.786,842.973L457.591,831.377L436.108,831.377C416.872,831.377 401.71,814.579 401.71,795.22C401.71,779.219 412.519,759.11 436.108,759.11L510.51,759.11M595.679,774.277C614.196,774.252 628.018,759.697 628.018,741.113C628.018,722.513 613.281,707.949 595.63,707.949C572.902,707.949 545.89,737.241 517.745,774.277L437.23,774.277C422.698,774.278 416.752,786.14 416.752,795.247C416.752,804.354 423.795,816.215 437.23,816.216L487.103,816.216C476.84,830.528 466.577,844.841 456.461,858.154L378.576,858.154C361.799,858.154 346.188,872.718 346.188,891.318C346.188,909.918 360.805,924.483 378.576,924.483C401.303,924.483 428.316,895.191 456.461,858.154L536.975,858.154C550.359,858.154 557.453,846.467 557.453,837.185C557.453,827.902 550.462,816.216 536.975,816.216L487.103,816.216C497.365,801.903 507.628,787.59 517.745,774.277L595.581,774.277" style="fill:none;stroke:black;stroke-width:0.02px;stroke-linejoin:round;stroke-miterlimit:1.5;"/>
                                    </g>
                                </g>
                            </g>
                        </g>
                        <g transform="matrix(0.873137,0,0,0.878718,4804.2,6451.13)">
                            <g>
                                <path d="M2675,2049.04L2713.82,2049.04C2715.9,2046.41 2732.84,2024.82 2745.78,2011.61C2765.58,1991.4 2786.96,1973.38 2811.35,1973.38C2843.3,1973.38 2865.72,2001.48 2865.72,2028.96C2865.72,2053.38 2845.8,2083.58 2812.61,2083.48C2793.58,2083.43 2730.84,2083.48 2730.84,2083.48L2720.96,2096.59L2744.94,2096.59C2768.5,2096.59 2784.93,2117.15 2784.93,2138.18C2784.93,2159.22 2766.82,2178.9 2745.78,2178.9L2675,2178.9L2675,2161.75L2744.07,2161.75C2759.4,2161.75 2767.53,2148.45 2767.53,2137.89C2767.53,2127.32 2759.52,2114.02 2744.07,2114.02L2686.95,2114.02C2698.71,2097.74 2710.46,2081.45 2722.05,2066.3L2811.25,2066.3C2832.49,2066.3 2848.35,2049.72 2848.35,2028.56C2848.35,2007.39 2831.47,1990.81 2811.25,1990.81C2785.22,1990.81 2754.28,2024.15 2722.05,2066.3L2675,2066.3L2675,2049.04ZM2675,2130.55L2675,2114.02L2686.95,2114.02C2682.97,2119.55 2678.98,2125.07 2675,2130.55Z" style="fill:url(#_Linear4);"/>
                            </g>
                        </g>
                        <g transform="matrix(-0.343326,0,0,1.02371,11611.4,1247.57)">
                            <g>
                                <path d="M9265.89,6566.64L8706.49,6357.28L8342.28,6503.81L8973.67,6746.02L9265.89,6566.64Z" style="fill:url(#_Linear5);"/>
                            </g>
                        </g>
                        <g transform="matrix(-0.343326,0,0,1.02371,10886.1,1253.93)">
                            <g>
                                <path d="M8973.67,6565.31L9748.1,6565.31L9900.91,6741.14L8973.67,6741.14L8973.67,6565.31Z" style="fill:url(#_Linear6);"/>
                            </g>
                        </g>
                        <g transform="matrix(-0.343326,0,0,1.02371,10519.2,1243.33)">
                            <g>
                                <path d="M8738.62,6573.36L9604.9,6573.36L9830.07,6751.69L8890.69,6751.69L8738.62,6573.36Z" style="fill:url(#_Linear7);"/>
                            </g>
                        </g>
                        <g transform="matrix(1,0,0,0.999997,-362.468,1268.58)">
                            <g>
                                <path d="M8783.15,6704L8219,6704L8221,6889L8883.25,6889L8783.15,6704Z" style="fill:url(#_Linear8);"/>
                            </g>
                        </g>
                        <g transform="matrix(0.423853,0,0,0.426561,8173.56,8436.88)">
                            <g>
                                <g>
                                    <path d="M456.672,166.916C460.965,161.513 495.859,117.039 522.521,89.818C563.292,48.193 607.344,11.072 657.583,11.072C723.411,11.072 769.589,68.946 769.589,125.56C769.589,175.858 728.545,238.076 660.172,237.878C620.976,237.765 491.743,237.878 491.743,237.878L471.386,264.872L520.788,264.872C569.313,264.872 603.155,307.225 603.155,350.556C603.155,393.887 565.852,434.431 522.521,434.431L345.986,434.431C344,440.389 284.071,511.485 255.063,536.665C219.512,567.525 183.459,590.237 145.282,590.237C72.871,590.237 32.844,529.605 32.844,474.998C32.844,420.391 79.213,364.354 145.282,363.518L310.93,363.518L331.706,336.331L281.02,336.331C235.636,336.331 199.863,296.952 199.863,251.569C199.863,214.057 225.366,166.916 281.02,166.916L456.672,166.916ZM657.383,202.472C701.129,202.472 733.796,168.329 733.796,124.724C733.796,81.119 699.026,46.976 657.383,46.976C603.761,46.976 540.03,115.646 473.627,202.472L283.668,202.472C249.382,202.473 235.353,230.281 235.353,251.63C235.353,272.98 251.97,300.788 283.668,300.789L401.333,300.789C377.12,334.343 352.907,367.897 329.038,399.105L145.282,399.105C105.7,399.106 68.869,433.249 68.869,476.853C68.869,520.458 103.356,554.602 145.282,554.602C198.905,554.602 262.635,485.932 329.038,399.105L518.998,399.105C550.574,399.105 567.312,371.708 567.312,349.947C567.312,328.186 550.817,300.789 518.998,300.789L401.333,300.789C425.546,267.235 449.759,233.681 473.627,202.472L657.383,202.472Z" style="fill:url(#_Linear9);"/>
                                    <g transform="matrix(2.35932,0,0,2.34432,-2438.87,-1612.68)">
                                        <path d="M1227.28,759.075C1227.28,759.083 1227.28,759.095 1227.29,759.101C1227.29,759.107 1227.31,759.106 1227.31,759.098C1227.32,759.09 1227.32,759.078 1227.31,759.072C1227.3,759.066 1227.29,759.067 1227.28,759.075Z" style="fill:none;stroke:black;stroke-width:0.02px;"/>
                                        <path d="M1312.38,774.259C1312.37,774.259 1312.36,774.267 1312.36,774.277C1312.36,774.288 1312.37,774.296 1312.38,774.296C1312.39,774.296 1312.4,774.287 1312.4,774.277C1312.4,774.267 1312.39,774.259 1312.38,774.259Z" style="fill:none;stroke:black;stroke-width:0.02px;"/>
                                        <circle cx="1227.25" cy="759.11" r="0.018" style="fill:none;stroke:black;stroke-width:0.02px;"/>
                                        <circle cx="1312.32" cy="774.277" r="0.018" style="fill:none;stroke:black;stroke-width:0.02px;"/>
                                        <path d="M1227.31,759.072C1229.26,756.604 1243.95,737.773 1255.19,726.224C1272.47,708.468 1291.14,692.633 1312.43,692.633C1340.34,692.633 1359.91,717.32 1359.91,741.469C1359.91,762.925 1342.51,789.465 1313.53,789.38C1296.92,789.332 1242.14,789.38 1242.14,789.38L1233.52,800.895L1254.45,800.895C1275.02,800.895 1289.37,818.961 1289.37,837.444C1289.37,855.928 1273.56,873.222 1255.19,873.222L1180.37,873.222C1179.52,875.764 1154.12,906.091 1141.83,916.831C1126.76,929.995 1111.48,939.683 1095.3,939.683C1064.6,939.683 1047.64,913.82 1047.64,890.527C1047.64,867.234 1067.29,843.33 1095.3,842.973L1165.51,842.973L1174.31,831.377L1152.83,831.377C1133.59,831.377 1118.43,814.579 1118.43,795.22C1118.43,779.219 1129.24,759.11 1152.83,759.11L1227.23,759.11M1312.4,774.277C1330.92,774.252 1344.74,759.697 1344.74,741.113C1344.74,722.513 1330,707.949 1312.35,707.949C1289.62,707.949 1262.61,737.241 1234.46,774.277L1153.95,774.277C1139.42,774.278 1133.47,786.14 1133.47,795.247C1133.47,804.354 1140.52,816.215 1153.95,816.216L1203.82,816.216C1193.56,830.528 1183.3,844.841 1173.18,858.154L1095.3,858.154C1078.52,858.154 1062.91,872.718 1062.91,891.318C1062.91,909.918 1077.53,924.483 1095.3,924.483C1118.02,924.483 1145.04,895.191 1173.18,858.154L1253.7,858.154C1267.08,858.154 1274.17,846.467 1274.17,837.185C1274.17,827.902 1267.18,816.216 1253.7,816.216L1203.82,816.216C1214.09,801.903 1224.35,787.59 1234.46,774.277L1312.3,774.277" style="fill:none;stroke:black;stroke-width:0.02px;stroke-linejoin:round;stroke-miterlimit:1.5;"/>
                                    </g>
                                </g>
                            </g>
                        </g>
                        <g transform="matrix(0.873137,0,0,0.878718,5520.91,6451.13)">
                            <g>
                                <path d="M2675,2049.04L2713.82,2049.04C2715.9,2046.41 2732.84,2024.82 2745.78,2011.61C2765.58,1991.4 2786.96,1973.38 2811.35,1973.38C2843.3,1973.38 2865.72,2001.48 2865.72,2028.96C2865.72,2053.38 2845.8,2083.58 2812.61,2083.48C2793.58,2083.43 2730.84,2083.48 2730.84,2083.48L2720.96,2096.59L2744.94,2096.59C2768.5,2096.59 2784.93,2117.15 2784.93,2138.18C2784.93,2159.22 2766.82,2178.9 2745.78,2178.9L2675,2178.9L2675,2161.75L2744.07,2161.75C2759.4,2161.75 2767.53,2148.45 2767.53,2137.89C2767.53,2127.32 2759.52,2114.02 2744.07,2114.02L2686.95,2114.02C2698.71,2097.74 2710.46,2081.45 2722.05,2066.3L2811.25,2066.3C2832.49,2066.3 2848.35,2049.72 2848.35,2028.56C2848.35,2007.39 2831.47,1990.81 2811.25,1990.81C2785.22,1990.81 2754.28,2024.15 2722.05,2066.3L2675,2066.3L2675,2049.04ZM2675,2130.55L2675,2114.02L2686.95,2114.02C2682.97,2119.55 2678.98,2125.07 2675,2130.55Z" style="fill:url(#_Linear10);"/>
                            </g>
                        </g>
                        <g transform="matrix(-0.343326,0,0,1.02371,11033.5,1247.57)">
                            <g>
                                <path d="M9277.3,6565.31L8619.62,6350.81L8518.55,6497.33L9277.3,6748.57L9277.3,6565.31Z" style="fill:url(#_Linear11);"/>
                            </g>
                        </g>
                    </g>
                </g>
            </g>
        </g>
    </g>
    <defs>
        <linearGradient id="_Linear1" x1="0" y1="0" x2="1" y2="7.21055e-06" gradientUnits="userSpaceOnUse" gradientTransform="matrix(560.172,482.147,-482.147,560.172,7878.73,8252.9)"><stop offset="0" style="stop-color:rgb(243,170,59);stop-opacity:1"/><stop offset="0.43" style="stop-color:rgb(237,164,53);stop-opacity:1"/><stop offset="1" style="stop-color:rgb(191,115,0);stop-opacity:1"/></linearGradient>
        <linearGradient id="_Linear2" x1="0" y1="0" x2="1" y2="7.276e-06" gradientUnits="userSpaceOnUse" gradientTransform="matrix(878.026,822.022,-822.022,878.026,8101.22,6776.42)"><stop offset="0" style="stop-color:rgb(243,170,59);stop-opacity:1"/><stop offset="0.43" style="stop-color:rgb(237,164,53);stop-opacity:1"/><stop offset="1" style="stop-color:rgb(191,115,0);stop-opacity:1"/></linearGradient>
        <linearGradient id="_Linear3" x1="0" y1="0" x2="1" y2="0.00615265" gradientUnits="userSpaceOnUse" gradientTransform="matrix(-752.433,581.112,-581.112,-752.433,763.957,15.5995)"><stop offset="0" style="stop-color:rgb(249,207,0);stop-opacity:1"/><stop offset="1" style="stop-color:rgb(241,159,77);stop-opacity:1"/></linearGradient>
        <linearGradient id="_Linear4" x1="0" y1="0" x2="1" y2="0.00598347" gradientUnits="userSpaceOnUse" gradientTransform="matrix(-290.741,204.548,-204.548,-290.741,2857.5,1991)"><stop offset="0" style="stop-color:rgb(249,207,0);stop-opacity:1"/><stop offset="1" style="stop-color:rgb(241,159,77);stop-opacity:1"/></linearGradient>
        <linearGradient id="_Linear5" x1="0" y1="0" x2="1" y2="-0.0848753" gradientUnits="userSpaceOnUse" gradientTransform="matrix(-590.946,-56.5713,56.5713,-590.946,9238.22,6582.4)"><stop offset="0" style="stop-color:rgb(243,170,59);stop-opacity:1"/><stop offset="1" style="stop-color:rgb(191,115,0);stop-opacity:1"/></linearGradient>
        <linearGradient id="_Linear6" x1="0" y1="0" x2="1" y2="-0.120972" gradientUnits="userSpaceOnUse" gradientTransform="matrix(-977.028,-133.451,133.451,-977.028,9889.73,6687.61)"><stop offset="0" style="stop-color:rgb(243,170,59);stop-opacity:1"/><stop offset="1" style="stop-color:rgb(191,115,0);stop-opacity:1"/></linearGradient>
        <linearGradient id="_Linear7" x1="0" y1="0" x2="1" y2="-0.0553692" gradientUnits="userSpaceOnUse" gradientTransform="matrix(-1749.19,-109.173,109.173,-1749.19,9744.95,6728.07)"><stop offset="0" style="stop-color:rgb(243,170,59);stop-opacity:1"/><stop offset="1" style="stop-color:rgb(191,115,0);stop-opacity:1"/></linearGradient>
        <linearGradient id="_Linear8" x1="0" y1="0" x2="1" y2="0" gradientUnits="userSpaceOnUse" gradientTransform="matrix(-6.08175,-405.61,405.61,-6.08175,8556,6980)"><stop offset="0" style="stop-color:black;stop-opacity:1"/><stop offset="1" style="stop-color:rgb(241,159,77);stop-opacity:1"/></linearGradient>
        <linearGradient id="_Linear9" x1="0" y1="0" x2="1" y2="0.00615265" gradientUnits="userSpaceOnUse" gradientTransform="matrix(-752.433,581.112,-581.112,-752.433,763.957,15.5995)"><stop offset="0" style="stop-color:rgb(249,207,0);stop-opacity:1"/><stop offset="1" style="stop-color:rgb(241,159,77);stop-opacity:1"/></linearGradient>
        <linearGradient id="_Linear10" x1="0" y1="0" x2="1" y2="0.00598347" gradientUnits="userSpaceOnUse" gradientTransform="matrix(-290.741,204.548,-204.548,-290.741,2857.5,1991)"><stop offset="0" style="stop-color:rgb(249,207,0);stop-opacity:1"/><stop offset="1" style="stop-color:rgb(241,159,77);stop-opacity:1"/></linearGradient>
        <linearGradient id="_Linear11" x1="0" y1="0" x2="1" y2="-0.0848753" gradientUnits="userSpaceOnUse" gradientTransform="matrix(-590.946,-56.5713,56.5713,-590.946,9238.22,6582.4)"><stop offset="0" style="stop-color:rgb(243,170,59);stop-opacity:1"/><stop offset="1" style="stop-color:rgb(191,115,0);stop-opacity:1"/></linearGradient>
    </defs>
</svg>
