<?xml version="1.0" encoding="UTF-8" standalone="no"?>
<!DOCTYPE svg PUBLIC "-//W3C//DTD SVG 1.1//EN" "http://www.w3.org/Graphics/SVG/1.1/DTD/svg11.dtd">
<svg width="100%" height="100%" viewBox="0 0 1163 1011" version="1.1" xmlns="http://www.w3.org/2000/svg" xmlns:xlink="http://www.w3.org/1999/xlink" xml:space="preserve" xmlns:serif="http://www.serif.com/" style="fill-rule:evenodd;clip-rule:evenodd;stroke-linejoin:round;stroke-miterlimit:2;">
    <g transform="matrix(1,0,0,1,-200.364,69.9378)">
        <g>
            <g transform="matrix(-0.98004,-1.2002e-16,1.22465e-16,-1,1630.96,875.381)">
                <g transform="matrix(-1.02037,1.22465e-16,-1.24959e-16,-1,1459.73,945.319)">
                    <path d="M275.364,768.226L328.096,873.69L380.828,768.226C354.462,794.592 301.73,794.592 275.364,768.226Z" style="fill:url(#_Linear1);"/>
                    <path d="M201.881,531.91L96.417,479.178L201.881,426.446L149.149,479.178L201.881,531.91Z" style="fill:url(#_Linear2);"/>
                    <path d="M925.802,764.398L351.533,764.398L351.533,789.319L351.082,793.891L349.749,798.287L347.583,802.339L344.668,805.891L341.117,808.805L337.065,810.971L332.668,812.305L328.096,812.755L323.524,812.305L319.127,810.971L315.076,808.805L311.524,805.891L308.609,802.339L306.444,798.287L305.11,793.891L304.66,789.319L304.66,717.525L878.929,717.525L878.929,502.614L149.149,502.614L144.577,502.164L140.18,500.83L136.128,498.665L132.577,495.75L129.662,492.199L127.496,488.147L126.163,483.75L125.712,479.178L126.163,474.606L127.496,470.209L129.662,466.157L132.577,462.606L136.128,459.691L140.18,457.526L144.577,456.192L149.149,455.742L925.802,455.742L925.802,764.398Z" style="fill:url(#_Linear3);"/>
                </g>
            </g>
            <g transform="matrix(-1,-1.22465e-16,1.22465e-16,-1,1653.41,875.381)">
                <g transform="matrix(-1,1.22465e-16,-1.22465e-16,-1,1453.05,945.319)">
                    <path d="M957.235,600.571L1009.97,706.035L1062.7,600.571C1036.33,626.937 983.601,626.937 957.235,600.571Z" style="fill:url(#_Linear4);"/>
                    <path d="M353.928,383.167L248.464,330.435L353.928,277.703L301.196,330.435L353.928,383.167Z" style="fill:url(#_Linear5);"/>
                    <path d="M676.679,456.402L1033.4,456.402L1033.4,621.663L1032.95,626.236L1031.62,630.632L1029.45,634.684L1026.54,638.235L1022.99,641.15L1018.94,643.316L1014.54,644.649L1009.97,645.1L1005.39,644.649L1001,643.316L996.947,641.15L993.395,638.235L990.481,634.684L988.315,630.632L986.981,626.236L986.531,621.663L986.531,503.275L629.806,503.275L629.806,353.872L301.196,353.872L296.623,353.421L292.227,352.088L288.175,349.922L284.623,347.007L281.709,343.456L279.543,339.404L278.209,335.008L277.759,330.435L278.209,325.863L279.543,321.467L281.709,317.415L284.623,313.863L288.175,310.949L292.227,308.783L296.623,307.449L301.196,306.999L676.679,306.999L676.679,456.402Z" style="fill:url(#_Linear6);"/>
                </g>
            </g>
            <g transform="matrix(-1,-1.22465e-16,1.22465e-16,-1,1653.41,875.381)">
                <g transform="matrix(-1,1.22465e-16,-1.22465e-16,-1,1453.05,945.319)">
                    <path d="M784.277,544.37L678.812,597.102L784.277,649.834C757.911,623.468 757.911,570.736 784.277,544.37Z" style="fill:url(#_Linear7);"/>
                    <path d="M954.896,691.738L1060.36,744.47L954.896,797.202L1007.63,744.47L954.896,691.738Z" style="fill:url(#_Linear8);"/>
                    <path d="M926.971,721.034L1007.63,721.034L1009.13,721.082L1010.63,721.226L1012.11,721.466L1013.57,721.8L1015.01,722.228L1016.42,722.747L1017.8,723.355L1019.13,724.05L1020.41,724.829L1021.65,725.688L1022.82,726.625L1023.93,727.635L1024.98,728.714L1025.95,729.858L1026.85,731.062L1027.67,732.321L1028.41,733.63L1029.06,734.984L1029.62,736.376L1030.1,737.802L1030.48,739.255L1030.76,740.73L1030.96,742.22L1031.05,743.719L1031.05,745.222L1030.96,746.721L1030.76,748.211L1030.48,749.685L1030.1,751.139L1029.62,752.565L1029.06,753.957L1028.41,755.311L1027.67,756.62L1026.85,757.879L1025.95,759.083L1024.98,760.227L1023.93,761.306L1022.82,762.316L1021.65,763.253L1020.41,764.112L1019.13,764.891L1017.8,765.586L1016.42,766.194L1015.01,766.713L1013.57,767.14L1012.11,767.475L1010.63,767.714L1009.13,767.859L1007.63,767.907L880.098,767.907L880.098,620.538L763.184,620.538L761.682,620.49L760.187,620.346L758.704,620.106L757.239,619.772L755.799,619.344L754.389,618.826L753.015,618.217L751.683,617.523L750.398,616.744L749.166,615.884L747.992,614.948L746.879,613.938L745.834,612.858L744.86,611.714L743.962,610.51L743.142,609.251L742.405,607.942L741.753,606.589L741.189,605.196L740.716,603.77L740.335,602.317L740.048,600.842L739.856,599.352L739.759,597.853L739.759,596.351L739.856,594.852L740.048,593.361L740.335,591.887L740.716,590.434L741.189,589.008L741.753,587.615L742.405,586.262L743.142,584.953L743.962,583.694L744.86,582.49L745.834,581.346L746.879,580.266L747.992,579.256L749.166,578.32L750.398,577.46L751.683,576.681L753.015,575.986L754.389,575.378L755.799,574.859L757.239,574.432L758.704,574.098L760.187,573.858L761.682,573.714L763.184,573.665L926.971,573.665L926.971,721.034Z" style="fill:url(#_Linear9);"/>
                </g>
            </g>
            <g transform="matrix(-1,-1.22465e-16,1.22465e-16,-1,1653.41,875.381)">
                <g transform="matrix(-1,1.22465e-16,-1.22465e-16,-1,1453.05,945.319)">
                    <path d="M897.647,208.898L1003.11,156.166L897.647,103.434C924.013,129.8 924.013,182.532 897.647,208.898Z" style="fill:url(#_Linear10);"/>
                    <path d="M366.793,697.787L261.329,645.055L366.793,592.323L314.061,645.055L366.793,697.787Z" style="fill:url(#_Linear11);"/>
                    <path d="M923.312,133.18L927.708,134.514L931.76,136.68L935.311,139.594L938.226,143.146L940.392,147.198L941.726,151.594L942.176,156.166L941.726,160.739L940.392,165.135L938.226,169.187L935.311,172.738L931.76,175.653L927.708,177.819L923.312,179.152L918.739,179.603L676.679,179.603L676.679,668.492L314.061,668.492L309.489,668.041L305.092,666.708L301.04,664.542L297.489,661.627L294.574,658.076L292.409,654.024L291.075,649.627L290.625,645.055L291.075,640.483L292.409,636.086L294.574,632.035L297.489,628.483L301.04,625.568L305.092,623.403L309.489,622.069L314.061,621.619L629.806,621.619L629.806,132.73L918.739,132.73L923.312,133.18Z" style="fill:url(#_Linear12);"/>
                </g>
            </g>
            <g transform="matrix(-1,-1.22465e-16,1.22465e-16,-1,1653.41,875.381)">
                <g transform="matrix(-1,1.22465e-16,-1.22465e-16,-1,1453.05,945.319)">
                    <path d="M992.383,384.337L1097.85,331.605L992.383,278.873C1018.75,305.239 1018.75,357.971 992.383,384.337Z" style="fill:url(#_Linear13);"/>
                    <path d="M956.267,768.931L903.535,874.395L850.803,768.931L903.535,821.663L956.267,768.931Z" style="fill:url(#_Linear14);"/>
                    <path d="M1018.05,308.619L1022.45,309.952L1026.5,312.118L1030.05,315.033L1032.96,318.584L1035.13,322.636L1036.46,327.033L1036.91,331.605L1036.46,336.177L1035.13,340.574L1032.96,344.626L1030.05,348.177L1026.5,351.092L1022.45,353.257L1018.05,354.591L1013.48,355.041L808.842,355.041L808.842,456.063L926.971,456.063L926.971,821.663L926.521,826.236L925.187,830.632L923.021,834.684L920.107,838.235L916.555,841.15L912.503,843.316L908.107,844.649L903.535,845.1L898.962,844.649L894.566,843.316L890.514,841.15L886.963,838.235L884.048,834.684L881.882,830.632L880.549,826.236L880.098,821.663L880.098,502.936L761.97,502.936L761.97,308.168L1013.48,308.168L1018.05,308.619Z" style="fill:url(#_Linear15);"/>
                </g>
            </g>
            <g transform="matrix(-1,-1.22465e-16,1.22465e-16,-1,1653.41,875.381)">
                <g transform="matrix(-1,1.22465e-16,-1.22465e-16,-1,1453.05,945.319)">
                    <path d="M593.694,170.242L540.962,64.777L488.23,170.242C514.596,143.876 567.328,143.876 593.694,170.242Z" style="fill:url(#_Linear16);"/>
                    <path d="M733.844,314.161L786.576,208.697L839.308,314.161L786.576,261.429L733.844,314.161Z" style="fill:url(#_Linear17);"/>
                    <path d="M790.316,238.293L791.791,238.581L793.244,238.962L794.67,239.435L796.062,239.999L797.416,240.651L798.725,241.388L799.984,242.207L801.188,243.106L802.332,244.08L803.411,245.125L804.421,246.237L805.358,247.412L806.217,248.644L806.996,249.929L807.691,251.261L808.299,252.634L808.818,254.044L809.246,255.485L809.58,256.949L809.82,258.432L809.964,259.928L810.012,261.429L810.012,355.041L517.525,355.041L517.525,149.149L517.573,147.647L517.718,146.152L517.957,144.669L518.292,143.204L518.719,141.764L519.238,140.354L519.846,138.98L520.541,137.648L521.32,136.363L522.179,135.131L523.116,133.957L524.126,132.844L525.205,131.799L526.349,130.825L527.553,129.927L528.812,129.107L530.121,128.37L531.475,127.718L532.868,127.154L534.293,126.681L535.747,126.3L537.221,126.013L538.711,125.821L540.21,125.724L541.713,125.724L543.212,125.821L544.702,126.013L546.177,126.3L547.63,126.681L549.056,127.154L550.448,127.718L551.802,128.37L553.111,129.107L554.37,129.927L555.574,130.825L556.718,131.799L557.797,132.844L558.807,133.957L559.744,135.131L560.603,136.363L561.382,137.648L562.077,138.98L562.685,140.354L563.204,141.764L563.632,143.204L563.966,144.669L564.206,146.152L564.35,147.647L564.398,149.149L564.398,308.168L763.139,308.168L763.139,261.429L763.187,259.928L763.332,258.432L763.571,256.949L763.906,255.485L764.333,254.044L764.852,252.634L765.46,251.261L766.155,249.929L766.934,248.644L767.793,247.412L768.73,246.237L769.74,245.125L770.819,244.08L771.963,243.106L773.167,242.207L774.426,241.388L775.735,240.651L777.089,239.999L778.482,239.435L779.907,238.962L781.361,238.581L782.835,238.293L784.325,238.101L785.824,238.005L787.327,238.005L788.826,238.101L790.316,238.293Z" style="fill:url(#_Linear18);"/>
                </g>
            </g>
            <g transform="matrix(-1,-1.22465e-16,1.22465e-16,-1,1653.41,875.381)">
                <g transform="matrix(-1,1.22465e-16,-1.22465e-16,-1,1453.05,945.319)">
                    <path d="M455.481,840.337L508.213,945.801L560.945,840.337C534.579,866.703 481.847,866.703 455.481,840.337Z" style="fill:url(#_Linear19);"/>
                    <path d="M356.066,283.752L408.798,178.288L461.53,283.752L408.798,231.02L356.066,283.752Z" style="fill:url(#_Linear20);"/>
                    <path d="M413.37,208.034L417.767,209.368L421.818,211.533L425.37,214.448L428.285,218L430.45,222.051L431.784,226.448L432.234,231.02L432.234,454.367L531.65,454.367L531.65,861.429L531.199,866.002L529.866,870.398L527.7,874.45L524.785,878.001L521.234,880.916L517.182,883.082L512.785,884.416L508.213,884.866L503.641,884.416L499.244,883.082L495.192,880.916L491.641,878.001L488.726,874.45L486.561,870.398L485.227,866.002L484.777,861.429L484.777,501.24L385.361,501.24L385.361,231.02L385.812,226.448L387.145,222.051L389.311,218L392.226,214.448L395.777,211.533L399.829,209.368L404.226,208.034L408.798,207.584L413.37,208.034Z" style="fill:url(#_Linear21);"/>
                </g>
            </g>
        </g>
    </g>
    <defs>
        <linearGradient id="_Linear1" x1="0" y1="0" x2="1" y2="0" gradientUnits="userSpaceOnUse" gradientTransform="matrix(-698.064,-8.54881e-14,8.72292e-14,-712.281,999.796,505.289)"><stop offset="0" style="stop-color:rgb(249,207,0);stop-opacity:1"/><stop offset="1" style="stop-color:rgb(241,159,77);stop-opacity:1"/></linearGradient>
        <linearGradient id="_Linear2" x1="0" y1="0" x2="1" y2="0" gradientUnits="userSpaceOnUse" gradientTransform="matrix(-698.064,-8.54881e-14,8.72292e-14,-712.281,999.796,505.289)"><stop offset="0" style="stop-color:rgb(249,207,0);stop-opacity:1"/><stop offset="1" style="stop-color:rgb(241,159,77);stop-opacity:1"/></linearGradient>
        <linearGradient id="_Linear3" x1="0" y1="0" x2="1" y2="0" gradientUnits="userSpaceOnUse" gradientTransform="matrix(-698.064,-8.54881e-14,8.72292e-14,-712.281,999.796,505.289)"><stop offset="0" style="stop-color:rgb(249,207,0);stop-opacity:1"/><stop offset="1" style="stop-color:rgb(241,159,77);stop-opacity:1"/></linearGradient>
        <linearGradient id="_Linear4" x1="0" y1="0" x2="1" y2="0" gradientUnits="userSpaceOnUse" gradientTransform="matrix(-712.281,-8.72292e-14,8.72292e-14,-712.281,1013.48,505.289)"><stop offset="0" style="stop-color:rgb(249,207,0);stop-opacity:1"/><stop offset="1" style="stop-color:rgb(241,159,77);stop-opacity:1"/></linearGradient>
        <linearGradient id="_Linear5" x1="0" y1="0" x2="1" y2="0" gradientUnits="userSpaceOnUse" gradientTransform="matrix(-712.281,-8.72292e-14,8.72292e-14,-712.281,1013.48,505.289)"><stop offset="0" style="stop-color:rgb(249,207,0);stop-opacity:1"/><stop offset="1" style="stop-color:rgb(241,159,77);stop-opacity:1"/></linearGradient>
        <linearGradient id="_Linear6" x1="0" y1="0" x2="1" y2="0" gradientUnits="userSpaceOnUse" gradientTransform="matrix(-712.281,-8.72292e-14,8.72292e-14,-712.281,1013.48,505.289)"><stop offset="0" style="stop-color:rgb(249,207,0);stop-opacity:1"/><stop offset="1" style="stop-color:rgb(241,159,77);stop-opacity:1"/></linearGradient>
        <linearGradient id="_Linear7" x1="0" y1="0" x2="1" y2="0" gradientUnits="userSpaceOnUse" gradientTransform="matrix(-712.281,-8.72292e-14,8.72292e-14,-712.281,1013.48,505.289)"><stop offset="0" style="stop-color:rgb(249,207,0);stop-opacity:1"/><stop offset="1" style="stop-color:rgb(241,159,77);stop-opacity:1"/></linearGradient>
        <linearGradient id="_Linear8" x1="0" y1="0" x2="1" y2="0" gradientUnits="userSpaceOnUse" gradientTransform="matrix(-712.281,-8.72292e-14,8.72292e-14,-712.281,1013.48,505.289)"><stop offset="0" style="stop-color:rgb(249,207,0);stop-opacity:1"/><stop offset="1" style="stop-color:rgb(241,159,77);stop-opacity:1"/></linearGradient>
        <linearGradient id="_Linear9" x1="0" y1="0" x2="1" y2="0" gradientUnits="userSpaceOnUse" gradientTransform="matrix(-712.281,-8.72292e-14,8.72292e-14,-712.281,1013.48,505.289)"><stop offset="0" style="stop-color:rgb(249,207,0);stop-opacity:1"/><stop offset="1" style="stop-color:rgb(241,159,77);stop-opacity:1"/></linearGradient>
        <linearGradient id="_Linear10" x1="0" y1="0" x2="1" y2="0" gradientUnits="userSpaceOnUse" gradientTransform="matrix(-712.281,-8.72292e-14,8.72292e-14,-712.281,1013.48,505.289)"><stop offset="0" style="stop-color:rgb(249,207,0);stop-opacity:1"/><stop offset="1" style="stop-color:rgb(241,159,77);stop-opacity:1"/></linearGradient>
        <linearGradient id="_Linear11" x1="0" y1="0" x2="1" y2="0" gradientUnits="userSpaceOnUse" gradientTransform="matrix(-712.281,-8.72292e-14,8.72292e-14,-712.281,1013.48,505.289)"><stop offset="0" style="stop-color:rgb(249,207,0);stop-opacity:1"/><stop offset="1" style="stop-color:rgb(241,159,77);stop-opacity:1"/></linearGradient>
        <linearGradient id="_Linear12" x1="0" y1="0" x2="1" y2="0" gradientUnits="userSpaceOnUse" gradientTransform="matrix(-712.281,-8.72292e-14,8.72292e-14,-712.281,1013.48,505.289)"><stop offset="0" style="stop-color:rgb(249,207,0);stop-opacity:1"/><stop offset="1" style="stop-color:rgb(241,159,77);stop-opacity:1"/></linearGradient>
        <linearGradient id="_Linear13" x1="0" y1="0" x2="1" y2="0" gradientUnits="userSpaceOnUse" gradientTransform="matrix(-712.281,-8.72292e-14,8.72292e-14,-712.281,1013.48,505.289)"><stop offset="0" style="stop-color:rgb(249,207,0);stop-opacity:1"/><stop offset="1" style="stop-color:rgb(241,159,77);stop-opacity:1"/></linearGradient>
        <linearGradient id="_Linear14" x1="0" y1="0" x2="1" y2="0" gradientUnits="userSpaceOnUse" gradientTransform="matrix(-712.281,-8.72292e-14,8.72292e-14,-712.281,1013.48,505.289)"><stop offset="0" style="stop-color:rgb(249,207,0);stop-opacity:1"/><stop offset="1" style="stop-color:rgb(241,159,77);stop-opacity:1"/></linearGradient>
        <linearGradient id="_Linear15" x1="0" y1="0" x2="1" y2="0" gradientUnits="userSpaceOnUse" gradientTransform="matrix(-712.281,-8.72292e-14,8.72292e-14,-712.281,1013.48,505.289)"><stop offset="0" style="stop-color:rgb(249,207,0);stop-opacity:1"/><stop offset="1" style="stop-color:rgb(241,159,77);stop-opacity:1"/></linearGradient>
        <linearGradient id="_Linear16" x1="0" y1="0" x2="1" y2="0" gradientUnits="userSpaceOnUse" gradientTransform="matrix(-712.281,-8.72292e-14,8.72292e-14,-712.281,1013.48,505.289)"><stop offset="0" style="stop-color:rgb(249,207,0);stop-opacity:1"/><stop offset="1" style="stop-color:rgb(241,159,77);stop-opacity:1"/></linearGradient>
        <linearGradient id="_Linear17" x1="0" y1="0" x2="1" y2="0" gradientUnits="userSpaceOnUse" gradientTransform="matrix(-712.281,-8.72292e-14,8.72292e-14,-712.281,1013.48,505.289)"><stop offset="0" style="stop-color:rgb(249,207,0);stop-opacity:1"/><stop offset="1" style="stop-color:rgb(241,159,77);stop-opacity:1"/></linearGradient>
        <linearGradient id="_Linear18" x1="0" y1="0" x2="1" y2="0" gradientUnits="userSpaceOnUse" gradientTransform="matrix(-712.281,-8.72292e-14,8.72292e-14,-712.281,1013.48,505.289)"><stop offset="0" style="stop-color:rgb(249,207,0);stop-opacity:1"/><stop offset="1" style="stop-color:rgb(241,159,77);stop-opacity:1"/></linearGradient>
        <linearGradient id="_Linear19" x1="0" y1="0" x2="1" y2="0" gradientUnits="userSpaceOnUse" gradientTransform="matrix(-712.281,-8.72292e-14,8.72292e-14,-712.281,1013.48,505.289)"><stop offset="0" style="stop-color:rgb(249,207,0);stop-opacity:1"/><stop offset="1" style="stop-color:rgb(241,159,77);stop-opacity:1"/></linearGradient>
        <linearGradient id="_Linear20" x1="0" y1="0" x2="1" y2="0" gradientUnits="userSpaceOnUse" gradientTransform="matrix(-712.281,-8.72292e-14,8.72292e-14,-712.281,1013.48,505.289)"><stop offset="0" style="stop-color:rgb(249,207,0);stop-opacity:1"/><stop offset="1" style="stop-color:rgb(241,159,77);stop-opacity:1"/></linearGradient>
        <linearGradient id="_Linear21" x1="0" y1="0" x2="1" y2="0" gradientUnits="userSpaceOnUse" gradientTransform="matrix(-712.281,-8.72292e-14,8.72292e-14,-712.281,1013.48,505.289)"><stop offset="0" style="stop-color:rgb(249,207,0);stop-opacity:1"/><stop offset="1" style="stop-color:rgb(241,159,77);stop-opacity:1"/></linearGradient>
    </defs>
</svg>
