<?xml version="1.0" encoding="UTF-8" standalone="no"?>
<!DOCTYPE svg PUBLIC "-//W3C//DTD SVG 1.1//EN" "http://www.w3.org/Graphics/SVG/1.1/DTD/svg11.dtd">
<svg width="100%" height="100%" viewBox="0 0 400 500" version="1.1" xmlns="http://www.w3.org/2000/svg" xmlns:xlink="http://www.w3.org/1999/xlink" xml:space="preserve" xmlns:serif="http://www.serif.com/" style="fill-rule:evenodd;clip-rule:evenodd;stroke-linejoin:round;stroke-miterlimit:2;">
    <g transform="matrix(1,0,0,1,-7108,-6434)">
        <g id="Con-box-zoom" transform="matrix(0.344049,0,0,0.494766,7108.22,6560.21)">
            <rect x="-0.636" y="-255.093" width="1162.62" height="1010.58" style="fill:none;"/>
            <clipPath id="_clip1">
                <rect x="-0.636" y="-255.093" width="1162.62" height="1010.58"/>
            </clipPath>
            <g clip-path="url(#_clip1)">
                <g transform="matrix(4.07078,0,0,2.83073,-27512.6,-19449)">
                    <path d="M6812,6959C6828,6961 6835.11,6970.62 6842,6975C6848.89,6979.38 6859.56,6995.72 6870,6996C6880.44,6996.28 6894.54,6987.19 6902,6983C6909.46,6978.81 6918.48,6974.26 6922,6973C6925.52,6971.74 6933.96,6971.95 6939,6978C6944,6984 6942,6991 6936,6996C6928.92,7001.9 6895,7017.7 6895,7017.7C6895,7017.7 6867.11,7027.84 6858,7023C6848.89,7018.16 6847,7017 6842,7012C6841.84,7022.2 6844.1,7051.51 6844.1,7051.51C6852.55,7042.21 6861.41,7030.94 6861.41,7030.94C6873.81,7032.35 6902,7024 6912,7017.7C6924.96,7024.74 6939.94,7041.06 6944,7046C6948.06,7050.94 6963.34,7072.55 6965,7079C6966.66,7085.45 6963.96,7096.51 6957,7100C6950.04,7103.49 6942.25,7104.68 6936,7100C6929.75,7095.32 6910.4,7056.16 6895,7051.51C6881.85,7067.42 6860.16,7097.42 6840.43,7101.64C6820.71,7105.87 6810.69,7107.87 6797.17,7097.16C6783.65,7086.45 6783.99,7078.38 6781,7067C6778.01,7055.62 6777.23,6997.63 6781,6984C6784.77,6970.37 6796,6957 6812,6959Z" style="fill:rgb(249,207,0);"/>
                    <g transform="matrix(1,0,0,1,0,-2)">
                        <circle cx="6857" cy="6937" r="35" style="fill:rgb(249,207,0);"/>
                    </g>
                </g>
                <g transform="matrix(41.734,0,0,29.0208,-240307,-205268)">
                    <path d="M6366.36,7306.5L5606.36,7306.5L5606.36,6604.5L6366.36,6604.5L6366.36,7306.5ZM5948.36,7207.5L5948.36,7027.5L5699.36,7027.5L5699.36,7207.5L5948.36,7207.5ZM5739.13,7064.5L5739.13,7100.5L5736.36,7100.5L5736.36,7064.5L5739.13,7064.5ZM5741,7100.5L5740.12,7100.5L5740.12,7064.5L5741,7064.5L5741,7100.5ZM5745.24,7100.5L5743,7100.5L5743,7064.5L5745.24,7064.5L5745.24,7100.5ZM5749.76,7100.5L5747.24,7100.5L5747.24,7064.5L5749.76,7064.5L5749.76,7100.5ZM5753.72,7100.5L5753,7100.5L5753,7064.5L5753.72,7064.5L5753.72,7100.5ZM5756,7100.5L5754.7,7100.5L5754.7,7064.5L5756,7064.5L5756,7100.5ZM5759.56,7100.5L5758,7100.5L5758,7064.5L5759.56,7064.5L5759.56,7100.5ZM5765,7100.5L5762.8,7100.5L5762.8,7064.5L5765,7064.5L5765,7100.5ZM5768.96,7100.5L5767,7100.5L5767,7064.5L5768.96,7064.5L5768.96,7100.5ZM5772.56,7100.5L5770.96,7100.5L5770.96,7064.5L5772.56,7064.5L5772.56,7100.5ZM5776.67,7100.5L5774.56,7100.5L5774.56,7064.5L5776.67,7064.5L5776.67,7100.5ZM5781.88,7100.5L5779.91,7100.5L5779.91,7064.5L5781.88,7064.5L5781.88,7100.5ZM5786.12,7100.5L5783.88,7100.5L5783.88,7064.5L5786.12,7064.5L5786.12,7100.5ZM5790.64,7100.5L5788.12,7100.5L5788.12,7064.5L5790.64,7064.5L5790.64,7100.5ZM5795.75,7100.5L5793.88,7100.5L5793.88,7064.5L5795.75,7064.5L5795.75,7100.5ZM5800,7100.5L5797.75,7100.5L5797.75,7064.5L5800,7064.5L5800,7100.5ZM5801.87,7100.5L5800.99,7100.5L5800.99,7064.5L5801.87,7064.5L5801.87,7100.5ZM5807,7100.5L5803.87,7100.5L5803.87,7064.5L5807,7064.5L5807,7100.5ZM5813.44,7100.5L5810.24,7100.5L5810.24,7064.5L5813.44,7064.5L5813.44,7100.5ZM5817.55,7100.5L5815.44,7100.5L5815.44,7064.5L5817.55,7064.5L5817.55,7100.5ZM5822.76,7100.5L5820.79,7100.5L5820.79,7064.5L5822.76,7064.5L5822.76,7100.5ZM5826.83,7100.5L5824.76,7100.5L5824.76,7064.5L5826.83,7064.5L5826.83,7100.5ZM5831.99,7100.5L5827.82,7100.5L5827.82,7064.5L5831.99,7064.5L5831.99,7100.5ZM5836.1,7100.5L5833.99,7100.5L5833.99,7064.5L5836.1,7064.5L5836.1,7100.5ZM5839.34,7064.5L5841.36,7064.5L5841.36,7100.5L5839.34,7100.5L5839.34,7064.5ZM6102.36,6618.5L5868.36,6618.5L5868.36,6849.79C5876.93,6842.53 5885.16,6834.89 5893.31,6827.16C5899.84,6820.97 5906.31,6814.7 5912.95,6808.62C5916.53,6805.34 5920.15,6802.1 5923.95,6799.08C5924.86,6798.36 5925.77,6797.66 5926.7,6796.98C5926.81,6796.9 5926.92,6796.82 5927.03,6796.74C5927.14,6796.66 5927.25,6796.43 5927.36,6796.5C5928.16,6797.09 5928.81,6797.88 5929.53,6798.57C5930.24,6799.24 5930.95,6799.91 5931.66,6800.58C5934.99,6803.72 5938.34,6806.85 5941.69,6809.97C5951.02,6818.64 5960.46,6827.18 5970.02,6835.59C5974.19,6839.25 5978.37,6842.89 5982.56,6846.52C5982.59,6846.54 5986.35,6849.79 5986.36,6849.79C5986.37,6849.8 5988.51,6847.89 5988.52,6847.88C5991.24,6845.45 5993.93,6842.99 5996.58,6840.49C6001.79,6835.58 6006.86,6830.52 6011.82,6825.35C6016.47,6820.49 6021.01,6815.52 6025.56,6810.56C6028.04,6807.86 6030.52,6805.17 6033.03,6802.52C6033.64,6801.87 6034.26,6801.23 6034.88,6800.59C6035.08,6800.37 6035.2,6799.89 6035.49,6799.95C6036.13,6800.07 6036.58,6800.65 6037.12,6801.01C6038.22,6801.72 6039.32,6802.43 6040.42,6803.15C6044.77,6805.99 6049.09,6808.86 6053.37,6811.81C6061.29,6817.25 6069.05,6822.94 6076.65,6828.82C6085.39,6835.6 6093.93,6842.63 6102.36,6849.79L6102.36,6618.5Z" style="fill:url(#_Linear2);"/>
                </g>
            </g>
        </g>
    </g>
    <defs>
        <linearGradient id="_Linear2" x1="0" y1="0" x2="1" y2="0" gradientUnits="userSpaceOnUse" gradientTransform="matrix(1171,1225,-1225,1171,5152,6067)"><stop offset="0" style="stop-color:rgb(243,170,59);stop-opacity:1"/><stop offset="0.43" style="stop-color:rgb(237,164,53);stop-opacity:1"/><stop offset="1" style="stop-color:rgb(191,115,0);stop-opacity:1"/></linearGradient>
    </defs>
</svg>
