<svg viewBox="0 0 5229 1916" xmlns="http://www.w3.org/2000/svg" fill-rule="evenodd" clip-rule="evenodd" stroke-linejoin="round"><path fill="none" d="M0 .006h5228.65v1915.18H0z"/><path d="M914.906 1349.526l-55.422 100.56-47.192-104.68 49.25 53.37 53.364-49.25z" fill="gray"/><path d="M861.541 1293.76c-1.907 47.6 2.445 44.03 0 105" fill="none" stroke="gray" stroke-width="34.23" transform="translate(.001 .014)"/><path d="M3549.506 216.78l193.42 89.455-187.61 101.065 92.35-98.162-98.16-92.357z" fill="gray"/><path d="M3137.66 546.064c221.01-5.321 181.12-226.914 510-236.937" fill="none" stroke="gray" stroke-width="63.54" transform="translate(0 .01)"/><path d="M3549.81 980.87l193.12 90.102-187.95 100.44 92.68-97.86-97.85-92.681z" fill="gray"/><path d="M3163.66 850.009c174.12-9.583 158.91 232.351 484 223.531" fill="none" stroke="gray" stroke-width="63.54" transform="translate(0 .014)"/><path d="M4384.49 6179.24c70.13 0 127.08 56.94 127.08 127.08v254.16c0 70.13-56.95 127.08-127.08 127.08h-943.85c-70.13 0-127.07-56.95-127.07-127.08v-254.16c0-70.14 56.94-127.08 127.07-127.08h943.85zm-176.78 313.47c-5.92 0-11.82-1.25-17.69-3.73-5.86-2.49-10.75-6.29-14.66-11.42-3.92-5.12-5.87-11.49-5.87-19.11 0-6.23 1.37-12.42 4.12-18.55 2.75-6.13 7.22-11.26 13.4-15.38 6.19-4.12 14.04-6.19 23.55-6.19 6.34 0 12.42 1.35 18.24 4.05 5.81 2.69 10.54 6.63 14.19 11.81 3.65 5.18 5.47 11.31 5.47 18.4 0 5.49-1.24 11.31-3.73 17.44-2.48 6.13-6.76 11.44-12.84 15.94-6.08 4.49-14.14 6.74-24.18 6.74zm-564.22-18.87c3.28 0 7.3-1.27 12.05-3.81l7.78 17.13a55.263 55.263 0 01-11.11 3.96c-3.91.95-7.61 1.43-11.1 1.43-11.73 0-20.98-3.02-27.75-9.04-6.76-6.03-10.15-14.96-10.15-26.8 0-5.92 1.46-11.84 4.37-17.76 2.9-5.92 7.42-10.84 13.55-14.75 6.13-3.91 13.85-5.87 23.16-5.87 9.51 0 17.55 2.59 24.1 7.77 6.55 5.18 10.68 14.54 12.37 28.07l-51.86 12.85c1.7 2.43 3.84 4.17 6.43 5.23 2.59 1.06 5.31 1.59 8.16 1.59zm396.76 16.96l8.4-69.29h-20.61l-2.38 7.13c-2.22-3.28-5.02-5.87-8.4-7.77-3.39-1.9-8.14-2.85-14.28-2.85-7.4 0-14.06 1.93-19.98 5.79-5.92 3.85-10.57 8.9-13.95 15.14-3.38 6.24-5.08 12.79-5.08 19.66 0 6.87 1.38 12.9 4.13 18.08 2.75 5.18 6.29 9.12 10.62 11.81 4.34 2.7 8.83 3.99 13.48 3.89 10.26.21 19.19-3.17 26.8-10.15l-.95 8.56h22.2zm-323.34 1.43c-4.54 0-9.64-.92-15.3-2.78-5.66-1.84-10.44-5.36-14.35-10.54l10.62-11.58c3.6 4.23 6.88 6.9 9.84 8.01 2.96 1.11 5.86 1.67 8.72 1.67 2.85 0 4.86-.58 6.02-1.75 1.17-1.16 1.75-2.53 1.75-4.12 0-1.8-.82-3.2-2.46-4.2-1.64-1.01-4.31-2.2-8.01-3.57l-3.01-1.11c-5.29-2.01-9.17-4.73-11.66-8.17-2.48-3.43-3.72-7.32-3.72-11.65 0-3.38.79-6.9 2.38-10.55 1.58-3.65 4.41-6.79 8.48-9.43 4.07-2.65 9.54-3.97 16.41-3.97 5.39 0 10.44.66 15.15 1.99 4.7 1.32 9.01 3.67 12.92 7.05l-9.99 12.53c-4.55-4.55-9.41-6.82-14.59-6.82-2.85 0-4.91.58-6.18 1.75-1.27 1.16-1.91 2.64-1.91 4.44 0 1.79.85 3.22 2.54 4.28 1.69 1.05 4.33 2.22 7.93 3.48 1.8.53 3.28 1.06 4.44 1.59 9.3 3.91 13.95 9.83 13.95 17.76 0 4.55-1.13 8.78-3.41 12.69-2.27 3.91-5.68 7.05-10.22 9.43-4.55 2.38-9.99 3.57-16.34 3.57zm130.99-1.43l8.56-69.29h-22.2l-8.56 69.29h22.2zm299.86 0l8.57-69.29h-22.2l-8.57 69.29h22.2zm-48.04-69.61l3.64-30.13h-22.2l-3.65 30.13h-10.78l-2.06 17.28h10.78l-6.34 52.33h22.2l6.34-52.33h16.81l2.06-17.28h-16.8zm-299.87 0l3.65-30.13h-22.2l-3.65 30.13h-10.78l-2.07 17.28h10.79l-6.35 52.33h22.2l6.35-52.33h16.81l2.06-17.28h-16.81zm533.13 69.61l6.34-51.85c.53-6.13-1.13-11.13-4.99-14.99-3.86-3.85-9.07-5.78-15.62-5.78-6.03 0-11.47 1.21-16.33 3.64-4.87 2.43-8.83 5.76-11.9 9.99l-.31-10.3h-20.14l-8.41 69.29h22.2l3.49-28.22c.85-7.51 3.09-13.64 6.74-18.4 3.65-4.75 8.01-7.13 13.08-7.13 3.39 0 5.79.87 7.22 2.61 1.43 1.75 2.03 4.26 1.82 7.53l-5.39 43.61h22.2zm-390.73 0l6.34-51.85c.53-6.13-1.13-11.13-4.99-14.99-3.86-3.85-9.07-5.78-15.62-5.78-6.03 0-11.47 1.21-16.34 3.64-4.86 2.43-8.82 5.76-11.89 9.99l-.32-10.3h-20.13l-8.41 69.29h22.2l3.49-28.22c.85-7.51 3.09-13.64 6.74-18.4 3.65-4.75 8.01-7.13 13.08-7.13 3.38 0 5.79.87 7.22 2.61 1.42 1.75 2.03 4.26 1.82 7.53l-5.39 43.61h22.2zm-410.87 0c9.83 0 19.13-2.3 27.91-6.9 8.77-4.59 16.07-11.17 21.88-19.74 5.82-8.56 9.36-18.44 10.63-29.65.31-3.07.47-6.03.47-8.88 0-9.41-1.71-17.97-5.15-25.69-3.44-7.72-8.96-13.95-16.57-18.71-7.61-4.76-17.39-7.14-29.34-7.14h-41.23l-14.27 116.71h45.67zm491.9-43.61c-.84-3.38-2.69-6.07-5.55-8.08-2.85-2.01-6.39-3.01-10.62-3.01-4.55 0-8.33 1-11.34 3.01s-5.23 4.54-6.66 7.61c-1.43 3.06-2.14 6.13-2.14 9.2 0 5.71 1.61 10.25 4.84 13.63 3.22 3.39 7.53 5.08 12.92 5.08 3.17 0 6.18-.87 9.04-2.62 2.85-1.74 5.34-4.36 7.45-7.85l2.06-16.97zm185.06 27.28c6.03 0 10.47-2.19 13.32-6.58 2.86-4.39 4.28-9.17 4.28-14.35 0-6.45-1.74-10.92-5.23-13.4-3.49-2.49-7.14-3.73-10.94-3.73-4.02 0-7.38 1.08-10.07 3.25-2.7 2.17-4.68 4.87-5.95 8.09-1.27 3.22-1.9 6.42-1.9 9.59 0 6.35 1.74 10.79 5.23 13.32 3.49 2.54 7.24 3.81 11.26 3.81zm-669.35-78.34c4.12 0 8.46.9 13 2.7 4.55 1.8 8.49 4.94 11.82 9.44 3.33 4.49 4.99 10.59 4.99 18.31 0 2.01-.16 4.12-.47 6.34-1.27 11.53-5.32 20.35-12.13 26.48-6.82 6.14-15.52 9.2-26.09 9.2h-18.71l8.88-72.47h18.71zm104.5 39.49c-6.02 0-10.54 1.8-13.56 5.39-3.01 3.6-4.52 7.98-4.52 13.16v.48l31.56-8.25c-.84-3.38-2.48-6.02-4.91-7.93-2.44-1.9-5.29-2.85-8.57-2.85zm192.2-38.53c0-3.39 1.19-6.24 3.57-8.57 2.37-2.32 5.41-3.49 9.11-3.49 3.07 0 5.82.85 8.25 2.54 2.43 1.69 3.65 4.28 3.65 7.77 0 3.38-1.19 6.24-3.57 8.56-2.38 2.33-5.42 3.49-9.12 3.49-3.07 0-5.82-.84-8.25-2.53-2.43-1.7-3.64-4.29-3.64-7.77zm299.86 0c0-3.39 1.19-6.24 3.57-8.57 2.38-2.32 5.42-3.49 9.12-3.49 3.07 0 5.81.85 8.25 2.54 2.43 1.69 3.64 4.28 3.64 7.77 0 3.38-1.19 6.24-3.56 8.56-2.38 2.33-5.42 3.49-9.12 3.49-3.07 0-5.82-.84-8.25-2.53-2.43-1.7-3.65-4.29-3.65-7.77z" fill="url(#_Linear1)" transform="translate(447.098 -5372.815)"/><path d="M4370.13 5096.49c70.14 0 127.08 56.95 127.08 127.08v254.16c0 70.13-56.94 127.08-127.08 127.08h-943.84c-70.14 0-127.08-56.95-127.08-127.08v-254.16c0-70.13 56.94-127.08 127.08-127.08h943.84zm-352.59 226.17l-9.2 72.95c-.74 6.55-3.09 12.18-7.05 16.88-3.97 4.71-9.02 8.28-15.15 10.71-6.13 2.43-12.79 3.65-19.98 3.65-6.24 0-11.6-.69-16.09-2.07-4.5-1.37-8.09-2.93-10.79-4.67-2.69-1.75-5.73-4.05-9.12-6.9l14.91-15.23c3.17 2.96 6.48 5.29 9.91 6.98 3.44 1.69 7.85 2.54 13.24 2.54 4.76 0 8.94-1.4 12.53-4.2 3.59-2.8 5.66-6.69 6.18-11.66l1.11-9.04c-2.43 3.39-5.68 6.11-9.75 8.17-4.07 2.06-8.85 3.09-14.35 3.09-6.45 0-12.24-1.42-17.36-4.28-5.13-2.85-9.17-7-12.13-12.45-2.96-5.44-4.44-11.97-4.44-19.58 0-5.61 1.53-11.39 4.59-17.37 3.07-5.97 7.67-10.96 13.8-14.98 6.13-4.02 13.48-6.03 22.04-6.03 5.82 0 10.81.8 14.99 2.38 4.17 1.59 7.32 3.7 9.43 6.34l2.22-5.23h20.46zm-406.43 62.48c-2.86 1.9-7.32 3.86-13.4 5.87-6.08 2.01-12.61 3.01-19.58 3.01-9.1 0-17.87-1.74-26.33-5.23-8.46-3.49-15.49-9.28-21.09-17.37-5.6-8.08-8.4-18.63-8.4-31.63 0-11.63 2.16-22.39 6.5-32.27 4.33-9.89 11.05-17.87 20.14-23.95 9.09-6.08 20.29-9.12 33.62-9.12 7.92 0 15.14 1.19 21.64 3.57s12.03 5.31 16.57 8.8l-11.73 21.09c-3.28-3.06-7.16-5.71-11.66-7.93-4.49-2.21-9.54-3.33-15.14-3.33-7.09 0-13.32 1.75-18.71 5.24-5.4 3.49-9.6 8.38-12.61 14.67-3.01 6.29-4.52 13.45-4.52 21.48 0 10.05 2.93 18.16 8.8 24.34 5.87 6.19 13.82 9.28 23.87 9.28 5.81 0 10.52-.74 14.11-2.22 3.59-1.48 7.24-3.33 10.94-5.55l6.98 21.25zm55.66 8.72c-5.92 0-11.82-1.24-17.68-3.72-5.87-2.49-10.76-6.29-14.67-11.42s-5.87-11.5-5.87-19.11c0-6.24 1.38-12.42 4.13-18.55 2.74-6.14 7.21-11.26 13.4-15.39 6.18-4.12 14.03-6.18 23.54-6.18 6.35 0 12.43 1.35 18.24 4.04 5.81 2.7 10.55 6.64 14.19 11.82 3.65 5.18 5.47 11.31 5.47 18.39 0 5.5-1.24 11.31-3.72 17.45-2.49 6.13-6.77 11.44-12.85 15.93s-14.14 6.74-24.18 6.74zm496.5 0c-5.92 0-11.81-1.24-17.68-3.72-5.87-2.49-10.76-6.29-14.67-11.42s-5.87-11.5-5.87-19.11c0-6.24 1.38-12.42 4.13-18.55 2.75-6.14 7.21-11.26 13.4-15.39 6.18-4.12 14.03-6.18 23.55-6.18 6.34 0 12.42 1.35 18.23 4.04 5.82 2.7 10.55 6.64 14.19 11.82 3.65 5.18 5.47 11.31 5.47 18.39 0 5.5-1.24 11.31-3.72 17.45-2.49 6.13-6.77 11.44-12.85 15.93s-14.14 6.74-24.18 6.74zm-323.65-.47c-4.55 0-9.65-.93-15.31-2.78-5.65-1.85-10.43-5.36-14.35-10.54l10.63-11.58c3.59 4.23 6.87 6.9 9.83 8.01 2.96 1.11 5.87 1.66 8.72 1.66 2.85 0 4.86-.58 6.03-1.74 1.16-1.16 1.74-2.54 1.74-4.12 0-1.8-.82-3.2-2.46-4.21-1.63-1-4.31-2.19-8-3.56l-3.02-1.12c-5.28-2-9.17-4.73-11.65-8.16-2.49-3.44-3.73-7.32-3.73-11.66 0-3.38.79-6.9 2.38-10.54 1.58-3.65 4.41-6.79 8.48-9.44 4.07-2.64 9.54-3.96 16.42-3.96 5.39 0 10.43.66 15.14 1.98 4.7 1.32 9.01 3.67 12.92 7.06l-9.99 12.53c-4.54-4.55-9.41-6.82-14.59-6.82-2.85 0-4.91.58-6.18 1.74-1.27 1.16-1.9 2.64-1.9 4.44 0 1.8.84 3.23 2.53 4.28 1.69 1.06 4.34 2.22 7.93 3.49 1.8.53 3.28 1.06 4.44 1.59 9.31 3.91 13.96 9.83 13.96 17.76 0 4.54-1.14 8.77-3.41 12.68-2.27 3.91-5.68 7.06-10.23 9.44-4.55 2.38-9.99 3.57-16.33 3.57zm68.5-1.43l8.56-69.3h-22.2l-8.56 69.3h22.2zm331.11 0l3.33-27.12c.42-3.8 1.77-7.53 4.04-11.18 2.28-3.64 5.24-6.63 8.88-8.96 3.65-2.32 7.69-3.48 12.13-3.48 1.17 0 2.07.05 2.7.15l3.8-22.2c-2.74 0-5.94.74-9.59 2.22-3.65 1.48-7.24 3.68-10.78 6.58-3.54 2.91-6.48 6.27-8.8 10.07l.63-15.38h-19.98l-8.4 69.3h22.04zm-447.19 0l6.35-51.85c.53-6.14-1.14-11.13-5-14.99-3.86-3.86-9.06-5.79-15.62-5.79-6.02 0-11.47 1.22-16.33 3.65-4.86 2.43-8.83 5.76-11.89 9.99l-.32-10.31h-20.14l-8.41 69.3h22.21l3.48-28.23c.85-7.5 3.1-13.63 6.74-18.39 3.65-4.76 8.01-7.14 13.09-7.14 3.38 0 5.78.87 7.21 2.62 1.43 1.74 2.04 4.25 1.83 7.53l-5.4 43.61h22.2zm311.29 0l6.34-51.85c.53-6.14-1.14-11.13-4.99-14.99-3.86-3.86-9.07-5.79-15.62-5.79-6.03 0-11.47 1.22-16.34 3.65-4.86 2.43-8.82 5.76-11.89 9.99l-.32-10.31h-20.14l-8.4 69.3h22.2l3.49-28.23c.84-7.5 3.09-13.63 6.74-18.39 3.65-4.76 8.01-7.14 13.08-7.14 3.38 0 5.79.87 7.22 2.62 1.42 1.74 2.03 4.25 1.82 7.53l-5.39 43.61h22.2zm-111.16-43.61c-1.17-3.49-3.31-6.21-6.43-8.17-3.11-1.95-6.89-2.93-11.33-2.93-4.87 0-8.94 1.06-12.21 3.17-3.28 2.12-5.69 4.73-7.22 7.85-1.53 3.12-2.3 6.21-2.3 9.28 0 5.81 1.67 10.31 5 13.48s8 4.75 14.03 4.75c3.6 0 6.98-.89 10.15-2.69 3.17-1.8 5.92-4.39 8.25-7.77l2.06-16.97zm-324.77 27.28c6.03 0 10.47-2.2 13.32-6.58 2.86-4.39 4.29-9.18 4.29-14.36 0-6.45-1.75-10.91-5.24-13.4-3.49-2.48-7.13-3.72-10.94-3.72-4.02 0-7.37 1.08-10.07 3.25a19.242 19.242 0 00-5.95 8.09c-1.26 3.22-1.9 6.42-1.9 9.59 0 6.34 1.75 10.78 5.23 13.32 3.49 2.54 7.25 3.81 11.26 3.81zm496.5 0c6.03 0 10.47-2.2 13.33-6.58 2.85-4.39 4.28-9.18 4.28-14.36 0-6.45-1.75-10.91-5.24-13.4-3.49-2.48-7.13-3.72-10.94-3.72-4.01 0-7.37 1.08-10.07 3.25a19.136 19.136 0 00-5.94 8.09c-1.27 3.22-1.91 6.42-1.91 9.59 0 6.34 1.75 10.78 5.24 13.32 3.48 2.54 7.24 3.81 11.25 3.81zm-267.99-77.39c0-3.38 1.19-6.24 3.57-8.56 2.38-2.33 5.42-3.49 9.12-3.49 3.06 0 5.81.84 8.24 2.54 2.44 1.69 3.65 4.28 3.65 7.77 0 3.38-1.19 6.23-3.57 8.56s-5.41 3.49-9.12 3.49c-3.06 0-5.81-.85-8.24-2.54-2.43-1.69-3.65-4.28-3.65-7.77z" fill="url(#_Linear2)" transform="translate(463.754 -5038.57)"/><path d="M1196.07 4958.24c70.14 0 127.08 56.94 127.08 127.08v254.16c0 70.13-56.94 127.08-127.08 127.08H252.228c-70.137 0-127.079-56.95-127.079-127.08v-254.16c0-70.14 56.942-127.08 127.079-127.08h943.842zm-360.917 226.17l-9.198 72.95c-.74 6.55-3.092 12.18-7.056 16.88-3.965 4.71-9.013 8.28-15.144 10.71-6.132 2.43-12.792 3.65-19.981 3.65-6.237 0-11.602-.69-16.095-2.07-4.493-1.37-8.088-2.93-10.784-4.67-2.695-1.75-5.735-4.05-9.118-6.9l14.906-15.23c3.172 2.96 6.476 5.29 9.911 6.98 3.436 1.69 7.85 2.54 13.242 2.54 4.757 0 8.933-1.4 12.527-4.2 3.594-2.81 5.656-6.69 6.184-11.66l1.111-9.04c-2.432 3.38-5.683 6.11-9.753 8.17-4.07 2.06-8.854 3.09-14.351 3.09-6.449 0-12.237-1.43-17.364-4.28-5.127-2.85-9.171-7-12.131-12.45-2.96-5.44-4.44-11.97-4.44-19.58 0-5.61 1.533-11.39 4.598-17.37 3.066-5.97 7.665-10.96 13.797-14.98 6.131-4.02 13.478-6.03 22.042-6.03 5.814 0 10.809.79 14.985 2.38 4.176 1.59 7.321 3.7 9.435 6.34l2.22-5.23h20.457zm-406.431 62.48c-2.854 1.9-7.321 3.86-13.399 5.87-6.079 2.01-12.607 3.01-19.584 3.01-9.092 0-17.867-1.74-26.324-5.23s-15.488-9.28-21.091-17.37c-5.603-8.08-8.404-18.63-8.404-31.63 0-11.63 2.167-22.39 6.501-32.27 4.335-9.89 11.048-17.87 20.14-23.95 9.091-6.08 20.297-9.12 33.618-9.12 7.928 0 15.144 1.19 21.645 3.57 6.502 2.38 12.026 5.31 16.572 8.8l-11.735 21.09c-3.277-3.06-7.162-5.71-11.655-7.93-4.493-2.22-9.541-3.33-15.144-3.33-7.084 0-13.321 1.75-18.712 5.24-5.392 3.49-9.594 8.38-12.607 14.67-3.013 6.29-4.52 13.45-4.52 21.48 0 10.05 2.934 18.16 8.801 24.34 5.868 6.19 13.823 9.28 23.866 9.28 5.814 0 10.519-.74 14.113-2.22 3.595-1.48 7.242-3.33 10.942-5.55l6.977 21.25zm55.661 8.72c-5.921 0-11.814-1.24-17.682-3.73-5.867-2.48-10.756-6.29-14.668-11.41-3.911-5.13-5.867-11.5-5.867-19.11 0-6.24 1.374-12.42 4.123-18.55 2.748-6.14 7.215-11.26 13.399-15.39 6.185-4.12 14.034-6.18 23.549-6.18 6.343 0 12.422 1.35 18.236 4.04 5.815 2.7 10.545 6.64 14.193 11.82 3.647 5.18 5.471 11.31 5.471 18.39 0 5.5-1.243 11.31-3.727 17.44-2.484 6.14-6.766 11.45-12.845 15.94-6.078 4.49-14.139 6.74-24.182 6.74zm586.727-18.87c3.28 0 7.3-1.27 12.06-3.81l7.77 17.13c-3.49 1.69-7.19 3.01-11.1 3.97-3.92.95-7.62 1.42-11.1 1.42-11.74 0-20.99-3.01-27.76-9.04-6.76-6.02-10.14-14.96-10.14-26.8 0-5.92 1.45-11.84 4.36-17.76 2.9-5.92 7.42-10.83 13.56-14.74 6.13-3.92 13.84-5.87 23.15-5.87 9.51 0 17.55 2.59 24.1 7.77 6.56 5.18 10.68 14.54 12.37 28.07l-51.85 12.84c1.69 2.43 3.83 4.18 6.42 5.23 2.59 1.06 5.31 1.59 8.16 1.59zm-88.006 0c3.277 0 7.295-1.27 12.052-3.81l7.774 17.13c-3.493 1.69-7.193 3.01-11.104 3.97-3.912.95-7.612 1.42-11.101 1.42-11.734 0-20.984-3.01-27.75-9.04-6.766-6.02-10.149-14.96-10.149-26.8 0-5.92 1.453-11.84 4.361-17.76 2.907-5.92 7.426-10.83 13.558-14.74 6.131-3.92 13.849-5.87 23.152-5.87 9.515 0 17.553 2.59 24.103 7.77 6.56 5.18 10.68 14.54 12.37 28.07l-51.855 12.84c1.692 2.43 3.832 4.18 6.422 5.23a21.357 21.357 0 008.167 1.59zm-325.874 18.4c-4.545 0-9.646-.93-15.302-2.78-5.656-1.85-10.44-5.37-14.351-10.54l10.624-11.58c3.595 4.23 6.872 6.9 9.832 8.01 2.96 1.11 5.867 1.66 8.722 1.66 2.854 0 4.863-.58 6.026-1.74 1.162-1.16 1.744-2.54 1.744-4.12 0-1.8-.819-3.2-2.458-4.21-1.639-1-4.308-2.19-8.008-3.57l-3.013-1.11c-5.286-2-9.171-4.73-11.655-8.16-2.485-3.44-3.727-7.32-3.727-11.66 0-3.38.793-6.9 2.379-10.54 1.585-3.65 4.413-6.79 8.484-9.44 4.07-2.64 9.541-3.96 16.412-3.96 5.392 0 10.44.66 15.144 1.98 4.705 1.32 9.013 3.67 12.924 7.06l-9.99 12.52c-4.546-4.54-9.409-6.81-14.589-6.81-2.855 0-4.916.58-6.185 1.74-1.268 1.16-1.903 2.64-1.903 4.44 0 1.8.846 3.22 2.538 4.28 1.691 1.06 4.334 2.22 7.928 3.49 1.798.53 3.278 1.06 4.441 1.59 9.303 3.91 13.954 9.83 13.954 17.76 0 4.54-1.136 8.77-3.409 12.68-2.273 3.91-5.682 7.06-10.228 9.44-4.546 2.38-9.991 3.57-16.334 3.57zm68.505-1.43l8.563-69.3h-22.2l-8.563 69.3h22.2zm-116.077 0l6.343-51.86c.528-6.13-1.137-11.12-4.996-14.98-3.858-3.86-9.065-5.79-15.619-5.79-6.026 0-11.471 1.22-16.334 3.65-4.863 2.43-8.827 5.76-11.893 9.99l-.317-10.31h-20.139l-8.405 69.3h22.201l3.489-28.23c.845-7.5 3.092-13.64 6.739-18.39 3.647-4.76 8.008-7.14 13.083-7.14 3.383 0 5.788.87 7.215 2.62 1.427 1.74 2.035 4.25 1.824 7.53l-5.392 43.61h22.201zm311.284 0l6.343-51.86c.529-6.13-1.136-11.12-4.995-14.98-3.859-3.86-9.065-5.79-15.62-5.79-6.025 0-11.47 1.22-16.333 3.65-4.863 2.43-8.827 5.76-11.893 9.99l-.317-10.31h-20.139l-8.405 69.3h22.201l3.488-28.23c.846-7.5 3.093-13.64 6.74-18.39 3.647-4.76 8.008-7.14 13.082-7.14 3.383 0 5.788.87 7.216 2.62 1.427 1.74 2.035 4.25 1.823 7.53l-5.391 43.61h22.2zm-111.161-43.61c-1.163-3.49-3.304-6.21-6.423-8.17-3.118-1.95-6.898-2.93-11.338-2.93-4.863 0-8.933 1.06-12.21 3.17-3.278 2.11-5.683 4.73-7.216 7.85-1.532 3.12-2.299 6.21-2.299 9.28 0 5.81 1.665 10.3 4.995 13.48 3.33 3.17 8.008 4.75 14.034 4.75 3.595 0 6.978-.89 10.149-2.69 3.172-1.8 5.92-4.39 8.246-7.77l2.062-16.97zm-324.764 27.28c6.026 0 10.466-2.2 13.32-6.59 2.855-4.38 4.282-9.17 4.282-14.35 0-6.45-1.745-10.91-5.233-13.4-3.489-2.48-7.136-3.72-10.942-3.72-4.017 0-7.374 1.08-10.07 3.25-2.695 2.16-4.678 4.86-5.946 8.08-1.269 3.23-1.903 6.43-1.903 9.6 0 6.34 1.744 10.78 5.233 13.32 3.489 2.54 7.242 3.81 11.259 3.81zm586.093-38.86c-6.02 0-10.54 1.8-13.55 5.39-3.02 3.6-4.52 7.99-4.52 13.17v.47l31.55-8.24c-.84-3.39-2.48-6.03-4.91-7.93-2.43-1.9-5.29-2.86-8.57-2.86zm-88.006 0c-6.026 0-10.545 1.8-13.558 5.39-3.013 3.6-4.52 7.99-4.52 13.17v.47l31.557-8.24c-.846-3.39-2.484-6.03-4.916-7.93-2.431-1.9-5.286-2.86-8.563-2.86zm-269.579-38.53c0-3.38 1.189-6.24 3.568-8.56 2.378-2.33 5.418-3.49 9.118-3.49 3.066 0 5.814.84 8.246 2.54 2.431 1.69 3.647 4.28 3.647 7.76 0 3.39-1.189 6.24-3.568 8.57-2.378 2.32-5.418 3.49-9.118 3.49-3.066 0-5.814-.85-8.246-2.54-2.431-1.69-3.647-4.28-3.647-7.77z" fill="url(#_Linear3)" transform="translate(142.513 -4900.321)"/><path d="M1196.07 5678.33c70.14 0 127.08 56.94 127.08 127.08v254.16c0 70.13-56.94 127.08-127.08 127.08H252.228c-70.137 0-127.079-56.95-127.079-127.08v-254.16c0-70.14 56.942-127.08 127.079-127.08h943.842zm-376.188 226.33l-9.198 72.94c-.74 6.56-3.092 12.19-7.056 16.89-3.965 4.71-9.013 8.27-15.144 10.71-6.132 2.43-12.792 3.64-19.981 3.64-6.237 0-11.602-.68-16.095-2.06-4.493-1.37-8.088-2.93-10.784-4.68-2.695-1.74-5.735-4.04-9.118-6.9l14.906-15.22c3.172 2.96 6.476 5.29 9.911 6.98 3.436 1.69 7.85 2.54 13.241 2.54 4.758 0 8.934-1.4 12.528-4.21 3.594-2.8 5.656-6.68 6.184-11.65l1.11-9.04c-2.431 3.38-5.682 6.1-9.752 8.17-4.07 2.06-8.854 3.09-14.351 3.09-6.449 0-12.237-1.43-17.364-4.28-5.127-2.86-9.171-7.01-12.131-12.45-2.96-5.44-4.44-11.97-4.44-19.58 0-5.61 1.533-11.4 4.598-17.37 3.066-5.97 7.665-10.97 13.796-14.98 6.132-4.02 13.479-6.03 22.043-6.03 5.814 0 10.809.79 14.985 2.38 4.176 1.58 7.321 3.7 9.435 6.34l2.22-5.23h20.457zm-272.751 70.41c-9.409 0-18.395-2.01-26.958-6.03-8.563-4.02-15.54-10.18-20.932-18.47-5.392-8.3-8.087-18.64-8.087-31 0-9.94 2.405-19.8 7.215-29.58 4.81-9.78 12.025-17.87 21.645-24.26 9.621-6.4 21.144-9.6 34.57-9.6 9.409 0 18.395 2.01 26.958 6.03 8.563 4.02 15.54 10.18 20.932 18.47 5.391 8.3 8.087 18.64 8.087 31.01 0 9.93-2.405 19.79-7.215 29.57-4.81 9.78-12.025 17.87-21.646 24.26-9.62 6.4-21.143 9.6-34.569 9.6zm309.223-1.11l8.563-69.3h-22.2l-8.564 69.3h22.201zm-145.89 0l8.563-69.3h-22.2l-8.563 69.3h22.2zm-65.65 0l3.33-27.12c.423-3.81 1.771-7.53 4.043-11.18 2.273-3.65 5.233-6.63 8.881-8.96 3.647-2.32 7.691-3.49 12.131-3.49 1.163 0 2.061.06 2.696.16l3.805-22.2c-2.748 0-5.946.74-9.593 2.22-3.648 1.48-7.242 3.67-10.784 6.58-3.541 2.91-6.475 6.26-8.801 10.07l.635-15.38h-19.981l-8.404 69.3h22.042zm305.893 0l6.343-51.86c.528-6.13-1.137-11.12-4.995-14.98-3.859-3.86-9.066-5.79-15.62-5.79-6.026 0-11.47 1.21-16.333 3.65-4.863 2.43-8.828 5.76-11.894 9.99l-.317-10.31h-20.139l-8.404 69.3h22.2l3.489-28.23c.846-7.51 3.092-13.64 6.739-18.39 3.648-4.76 8.008-7.14 13.083-7.14 3.383 0 5.788.87 7.215 2.62 1.427 1.74 2.035 4.25 1.824 7.53l-5.392 43.61h22.201zm-156.198-43.61c-1.162-3.49-3.303-6.21-6.422-8.17-3.119-1.95-6.898-2.93-11.338-2.93-4.863 0-8.933 1.06-12.21 3.17-3.278 2.11-5.683 4.73-7.216 7.85-1.533 3.12-2.299 6.21-2.299 9.28 0 5.81 1.665 10.3 4.995 13.47 3.33 3.18 8.008 4.76 14.034 4.76 3.595 0 6.977-.9 10.149-2.69 3.172-1.8 5.92-4.39 8.246-7.77l2.061-16.97zm-247.061 22.52c8.986 0 16.439-2.04 22.359-6.11 5.92-4.07 10.228-9.14 12.924-15.22 2.696-6.08 4.044-12.29 4.044-18.64 0-6.13-1.427-11.84-4.282-17.12-2.854-5.29-6.818-9.52-11.893-12.69-5.074-3.17-10.73-4.75-16.968-4.75-8.985 0-16.386 2-22.2 6.02-5.815 4.02-10.017 9.09-12.607 15.22-2.59 6.14-3.885 12.37-3.885 18.72 0 6.13 1.374 11.84 4.123 17.12 2.749 5.29 6.607 9.52 11.576 12.69s10.572 4.76 16.809 4.76zm296.696-72.63c0-3.38 1.189-6.24 3.568-8.56 2.378-2.33 5.418-3.49 9.118-3.49 3.066 0 5.814.84 8.246 2.53 2.431 1.69 3.647 4.29 3.647 7.77 0 3.39-1.189 6.24-3.568 8.57-2.379 2.32-5.418 3.49-9.118 3.49-3.066 0-5.815-.85-8.246-2.54-2.432-1.69-3.647-4.28-3.647-7.77zm-145.89 0c0-3.38 1.189-6.24 3.568-8.56 2.378-2.33 5.418-3.49 9.118-3.49 3.066 0 5.814.84 8.246 2.53 2.431 1.69 3.647 4.29 3.647 7.77 0 3.39-1.189 6.24-3.568 8.57-2.379 2.32-5.418 3.49-9.118 3.49-3.066 0-5.814-.85-8.246-2.54-2.431-1.69-3.647-4.28-3.647-7.77z" fill="url(#_Linear4)" transform="translate(142.513 -4871.913)"/><path d="M1203.78 6272.15c70.14 0 127.08 56.94 127.08 127.08v254.15c0 70.14-56.94 127.08-127.08 127.08H259.94c-70.137 0-127.079-56.94-127.079-127.08v-254.15c0-70.14 56.942-127.08 127.079-127.08h943.84zm-507.598 333.36l4.123-37.26c2.537 1.79 5.497 3.22 8.88 4.28 3.383 1.06 6.66 1.58 9.832 1.58 8.774 0 16.465-1.98 23.073-5.94 6.607-3.97 11.681-9.25 15.223-15.86 3.541-6.61 5.312-13.77 5.312-21.49 0-6.23-1.427-11.73-4.281-16.49-2.855-4.76-6.74-8.43-11.656-11.02s-10.281-3.88-16.095-3.88c-6.449 0-14.431 2.64-23.945 7.92l-.317-6.02h-19.029l-13.162 104.18h22.042zm-40.754-33.3l8.563-69.3H641.79l-3.488 28.23c-.846 7.51-3.04 13.64-6.581 18.39-3.542 4.76-7.744 7.14-12.607 7.14-3.066 0-5.233-.87-6.502-2.61-1.268-1.75-1.797-4.26-1.586-7.54l5.392-43.61h-22.201l-6.343 51.86-.158 2.06c0 5.5 1.85 9.99 5.55 13.48 3.7 3.49 8.51 5.23 14.43 5.23 5.815 0 11.074-1.24 15.779-3.72 4.704-2.49 8.589-5.9 11.655-10.23l.159 10.62h20.139zm-173.641-4.44c-3.066 2.01-6.819 3.6-11.259 4.76-4.44 1.16-8.774 1.74-13.003 1.74-4.969 0-10.255-.95-15.858-2.85-5.603-1.9-10.492-5.34-14.668-10.31-4.176-4.97-6.264-11.68-6.264-20.14 0-6.45 1.454-12.71 4.361-18.79 2.907-6.08 7.295-11.07 13.162-14.99 5.867-3.91 12.977-5.86 21.328-5.86 12.475 0 22.36 3.65 29.654 10.94l-12.527 13.48c-4.335-4.12-9.568-6.19-15.699-6.19-3.172 0-6.132.85-8.881 2.54-2.748 1.69-4.942 4.05-6.581 7.06-1.638 3.01-2.457 6.42-2.457 10.23 0 4.86 1.665 8.9 4.995 12.13 3.33 3.22 7.796 4.83 13.399 4.83 4.229 0 7.876-1.05 10.942-3.17l9.356 14.59zm662.533-12.53c3.28 0 7.29-1.26 12.05-3.8l7.77 17.12c-3.49 1.7-7.19 3.02-11.1 3.97-3.91.95-7.61 1.43-11.1 1.43-11.74 0-20.99-3.02-27.75-9.04-6.77-6.03-10.15-14.96-10.15-26.8 0-5.92 1.45-11.84 4.36-17.76 2.91-5.92 7.43-10.84 13.56-14.75 6.13-3.91 13.85-5.87 23.15-5.87 9.52 0 17.55 2.59 24.1 7.77 6.56 5.18 10.68 14.54 12.37 28.07l-51.85 12.85c1.69 2.43 3.83 4.17 6.42 5.23 2.59 1.06 5.31 1.58 8.17 1.58zm-124.64 16.97l8.4-69.3h-20.61l-2.38 7.14c-2.22-3.28-5.02-5.87-8.407-7.77-3.383-1.9-8.14-2.85-14.272-2.85-7.4 0-14.06 1.93-19.98 5.78-5.92 3.86-10.572 8.91-13.955 15.15-3.383 6.24-5.074 12.79-5.074 19.66 0 6.87 1.374 12.9 4.123 18.08 2.748 5.18 6.29 9.12 10.624 11.81 4.335 2.7 8.828 3.99 13.479 3.89 10.255.21 19.188-3.17 26.8-10.15l-.952 8.56h22.204zm-620.511 0l8.563-69.3h-22.201l-8.563 69.3h22.201zm679.971-69.61l3.65-30.13h-22.2l-3.65 30.13h-10.78l-2.06 17.28h10.78l-6.34 52.33h22.2l6.34-52.33h16.81l2.06-17.28h-16.81zm-508.868 69.61l-22.2-40.59 26.799-18.56-11.893-11.89-35.997 24.26 9.515-78.33h-22.201l-15.223 125.11h22.2l3.013-24.1c15.301-10.93 11.114 4.78 20.14 24.1h25.847zm-244.048-36.95c10.572 0 19.32-2.27 26.244-6.82 6.925-4.54 11.946-10.25 15.065-17.12 3.119-6.87 4.678-14.01 4.678-21.41 0-10.68-3.489-19.08-10.466-25.21-6.977-6.13-16.968-9.2-29.971-9.2h-35.362l-14.272 116.71h23.786l4.599-36.95h15.699zm545.501 36.95c9.832 0 19.135-2.3 27.91-6.9 8.774-4.59 16.069-11.18 21.883-19.74 5.815-8.56 9.356-18.45 10.625-29.65.317-3.07.476-6.03.476-8.88 0-9.41-1.718-17.97-5.154-25.69-3.436-7.72-8.96-13.96-16.571-18.71-7.612-4.76-17.391-7.14-29.337-7.14h-41.23l-14.271 116.71h45.669zm130.985-43.61c-.85-3.38-2.7-6.08-5.551-8.08-2.854-2.01-6.396-3.02-10.625-3.02-4.545 0-8.325 1.01-11.338 3.02-3.013 2-5.233 4.54-6.66 7.61-1.427 3.06-2.141 6.13-2.141 9.19 0 5.71 1.613 10.26 4.837 13.64 3.224 3.39 7.532 5.08 12.924 5.08 3.171 0 6.184-.88 9.039-2.62 2.854-1.74 5.338-4.36 7.455-7.85l2.06-16.97zm-284.328 26.96c4.441 0 8.299-.98 11.576-2.93 3.278-1.96 5.789-4.57 7.533-7.85a21.978 21.978 0 002.616-10.47c0-5.07-1.744-9.22-5.233-12.45-3.488-3.22-7.558-4.83-12.21-4.83-3.594 0-6.845.84-9.752 2.53-2.908 1.7-5.63 4.34-8.167 7.93l-2.062 16.97c2.961 7.4 8.194 11.1 15.699 11.1zm160.955-78.02c4.123 0 8.457.9 13.003 2.7 4.546 1.79 8.484 4.94 11.814 9.43 3.33 4.5 4.995 10.6 4.995 18.32 0 2.01-.158 4.12-.475 6.34-1.269 11.53-5.313 20.35-12.131 26.48-6.819 6.13-15.514 9.2-26.086 9.2h-18.712l8.88-72.47h18.712zm264.983 39.49c-6.03 0-10.55 1.79-13.56 5.39-3.01 3.59-4.52 7.98-4.52 13.16v.48l31.56-8.25c-.85-3.38-2.49-6.03-4.92-7.93-2.43-1.9-5.28-2.85-8.56-2.85zm-811.912-39.33c6.026 0 10.149 1.64 12.369 4.92 2.22 3.27 3.33 6.82 3.33 10.62 0 2.64-.687 5.5-2.061 8.56-1.374 3.07-3.568 5.69-6.581 7.85-3.013 2.17-6.845 3.25-11.497 3.25h-14.747l4.281-35.2h14.906zm54.551.79c0-3.38 1.189-6.23 3.568-8.56 2.378-2.33 5.418-3.49 9.118-3.49 3.065 0 5.814.85 8.246 2.54 2.431 1.69 3.647 4.28 3.647 7.77 0 3.38-1.189 6.24-3.568 8.56-2.379 2.33-5.418 3.49-9.118 3.49-3.066 0-5.815-.85-8.246-2.54-2.432-1.69-3.647-4.28-3.647-7.77z" fill="url(#_Linear5)" transform="matrix(.75863 0 0 .75863 306.33 -3297.477)"/><path d="M3435 2648h-760v-702h760v702zm-418-99v-180h-249v180h249zm-107-143v36h-105v-36h105zm261-446h-234v231.29c8.57-7.26 16.8-14.91 24.95-22.63 6.54-6.2 13-12.46 19.64-18.55 3.58-3.28 7.2-6.52 11.01-9.54.9-.71 1.81-1.41 2.74-2.1.11-.08.22-.16.33-.23.11-.08.22-.32.33-.24.81.59 1.45 1.38 2.18 2.06l2.13 2.01c3.33 3.15 6.67 6.28 10.02 9.4 9.33 8.67 18.77 17.21 28.33 25.62 4.17 3.66 8.35 7.3 12.54 10.92.03.02 3.79 3.28 3.8 3.28.01 0 2.15-1.91 2.16-1.92 2.72-2.42 5.41-4.88 8.06-7.38 5.21-4.92 10.29-9.97 15.24-15.15 4.65-4.86 9.2-9.82 13.74-14.78 2.48-2.7 4.96-5.39 7.47-8.05.62-.64 1.23-1.29 1.85-1.93.2-.21.32-.69.61-.63.64.11 1.09.7 1.63 1.05 1.1.72 2.2 1.43 3.3 2.14 4.35 2.84 8.67 5.72 12.95 8.66 7.92 5.45 15.68 11.13 23.28 17.02 8.74 6.77 17.28 13.81 25.71 20.97V1960z" fill="url(#_Linear6)" transform="matrix(.6294 0 0 .6294 184.043 190.643)"/><path d="M456.672 166.916c4.293-5.403 39.187-49.877 65.849-77.098 40.771-41.625 84.823-78.746 135.062-78.746 65.828 0 112.006 57.874 112.006 114.488 0 50.298-41.044 112.516-109.417 112.318-39.196-.113-168.429 0-168.429 0l-20.357 26.994h49.402c48.525 0 82.367 42.353 82.367 85.684 0 43.331-37.303 83.875-80.634 83.875H345.986c-1.986 5.958-61.915 77.054-90.923 102.234-35.551 30.86-71.604 53.572-109.781 53.572-72.411 0-112.438-60.632-112.438-115.239 0-54.607 46.369-110.644 112.438-111.48H310.93l20.776-27.187H281.02c-45.384 0-81.157-39.379-81.157-84.762 0-37.512 25.503-84.653 81.157-84.653h175.652zm200.711 35.556c43.746 0 76.413-34.143 76.413-77.748 0-43.605-34.77-77.748-76.413-77.748-53.622 0-117.353 68.67-183.756 155.496H283.668c-34.286.001-48.315 27.809-48.315 49.158 0 21.35 16.617 49.158 48.315 49.159h117.665c-24.213 33.554-48.426 67.108-72.295 98.316H145.282c-39.582.001-76.413 34.144-76.413 77.748 0 43.605 34.487 77.749 76.413 77.749 53.623 0 117.353-68.67 183.756-155.497h189.96c31.576 0 48.314-27.397 48.314-49.158 0-21.761-16.495-49.158-48.314-49.158H401.333c24.213-33.554 48.426-67.108 72.294-98.317h183.756z" fill="url(#_Linear7)" transform="matrix(.30553 0 0 .30553 2096.17 1609.176)"/><g transform="translate(0 .005)" fill="none" stroke="#000" stroke-width=".02" stroke-linecap="round"><path d="M2235.7 1660.13c-.01.01-.01.02 0 .03.01 0 .02 0 .03-.01 0 0 0-.01-.01-.02 0-.01-.02-.01-.02 0zM2297.05 1671.01c-.01 0-.02.01-.02.02s.01.02.02.02.02-.01.02-.02-.01-.02-.02-.02z" stroke-linejoin="miter" stroke-miterlimit="10"/><circle cx="2235.66" cy="1660.17" r=".018" stroke-linejoin="miter" stroke-miterlimit="10"/><circle cx="2296.99" cy="1671.03" r=".018" stroke-linejoin="miter" stroke-miterlimit="10"/><path d="M2235.72 1660.13c1.44-1.81 12.01-15.26 20.09-23.52 12.46-12.72 25.92-24.06 41.27-24.06 20.11 0 34.22 17.69 34.22 34.98 0 15.37-12.54 34.38-33.43 34.32-11.98-.04-51.46 0-51.46 0l-6.22 8.25h15.09c14.83 0 25.17 12.94 25.17 26.18 0 13.23-11.4 25.62-24.64 25.62h-53.93c-.61 1.82-18.92 23.54-27.78 31.24-10.87 9.43-21.88 16.36-33.55 16.36-22.12 0-34.35-18.52-34.35-35.2 0-16.69 14.17-33.81 34.35-34.06h50.61l6.35-8.31h-15.48c-13.87 0-24.8-12.03-24.8-25.9 0-11.46 7.79-25.86 24.8-25.86h53.61m61.43 10.86c13.34-.02 23.29-10.45 23.29-23.75 0-13.33-10.62-23.76-23.34-23.76-16.39 0-35.86 20.98-56.15 47.51h-58.03c-10.48 0-14.77 8.5-14.77 15.02s5.08 15.02 14.77 15.02h35.95c-7.4 10.25-14.8 20.5-22.09 30.04h-56.15c-12.09 0-23.34 10.43-23.34 23.75s10.53 23.76 23.34 23.76c16.39 0 35.86-20.98 56.15-47.51h58.04c9.64 0 14.76-8.37 14.76-15.02s-5.04-15.02-14.76-15.02h-35.95c7.39-10.25 14.79-20.5 22.08-30.04h56.1" stroke-miterlimit="1.5"/></g><path d="M2675 2049.04h38.82c2.08-2.63 19.02-24.22 31.96-37.43 19.8-20.21 41.18-38.23 65.57-38.23 31.95 0 54.37 28.1 54.37 55.58 0 24.42-19.92 54.62-53.11 54.52-19.03-.05-81.77 0-81.77 0l-9.88 13.11h23.98c23.56 0 39.99 20.56 39.99 41.59 0 21.04-18.11 40.72-39.15 40.72H2675v-17.15h69.07c15.33 0 23.46-13.3 23.46-23.86 0-10.57-8.01-23.87-23.46-23.87h-57.12c11.76-16.28 23.51-32.57 35.1-47.72h89.2c21.24 0 37.1-16.58 37.1-37.74 0-21.17-16.88-37.75-37.1-37.75-26.03 0-56.97 33.34-89.2 75.49H2675v-17.26zm0 81.51v-16.53h11.95c-3.98 5.53-7.97 11.05-11.95 16.53z" fill="url(#_Linear8)" transform="matrix(.6294 0 0 .6294 184.043 186.867)"/><path d="M3435 2648h-760v-702h760v702zm-418-99v-180h-249v180h249zm-107-143v36h-105v-36h105zm261-446h-234v231.29c8.57-7.26 16.8-14.91 24.95-22.63 6.54-6.2 13-12.46 19.64-18.55 3.58-3.28 7.2-6.52 11.01-9.54.9-.71 1.81-1.41 2.74-2.1.11-.08.22-.16.33-.23.11-.08.22-.32.33-.24.81.59 1.45 1.38 2.18 2.06l2.13 2.01c3.33 3.15 6.67 6.28 10.02 9.4 9.33 8.67 18.77 17.21 28.33 25.62 4.17 3.66 8.35 7.3 12.54 10.92.03.02 3.79 3.28 3.8 3.28.01 0 2.15-1.91 2.16-1.92 2.72-2.42 5.41-4.88 8.06-7.38 5.21-4.92 10.29-9.97 15.24-15.15 4.65-4.86 9.2-9.82 13.74-14.78 2.48-2.7 4.96-5.39 7.47-8.05.62-.64 1.23-1.29 1.85-1.93.2-.21.32-.69.61-.63.64.11 1.09.7 1.63 1.05 1.1.72 2.2 1.43 3.3 2.14 4.35 2.84 8.67 5.72 12.95 8.66 7.92 5.45 15.68 11.13 23.28 17.02 8.74 6.77 17.28 13.81 25.71 20.97V1960z" fill="url(#_Linear9)" transform="matrix(.6294 0 0 .6294 1223.04 190.643)"/><path d="M456.672 166.916c4.293-5.403 39.187-49.877 65.849-77.098 40.771-41.625 84.823-78.746 135.062-78.746 65.828 0 112.006 57.874 112.006 114.488 0 50.298-41.044 112.516-109.417 112.318-39.196-.113-168.429 0-168.429 0l-20.357 26.994h49.402c48.525 0 82.367 42.353 82.367 85.684 0 43.331-37.303 83.875-80.634 83.875H345.986c-1.986 5.958-61.915 77.054-90.923 102.234-35.551 30.86-71.604 53.572-109.781 53.572-72.411 0-112.438-60.632-112.438-115.239 0-54.607 46.369-110.644 112.438-111.48H310.93l20.776-27.187H281.02c-45.384 0-81.157-39.379-81.157-84.762 0-37.512 25.503-84.653 81.157-84.653h175.652zm200.711 35.556c43.746 0 76.413-34.143 76.413-77.748 0-43.605-34.77-77.748-76.413-77.748-53.622 0-117.353 68.67-183.756 155.496H283.668c-34.286.001-48.315 27.809-48.315 49.158 0 21.35 16.617 49.158 48.315 49.159h117.665c-24.213 33.554-48.426 67.108-72.295 98.316H145.282c-39.582.001-76.413 34.144-76.413 77.748 0 43.605 34.487 77.749 76.413 77.749 53.623 0 117.353-68.67 183.756-155.497h189.96c31.576 0 48.314-27.397 48.314-49.158 0-21.761-16.495-49.158-48.314-49.158H401.333c24.213-33.554 48.426-67.108 72.294-98.317h183.756z" fill="url(#_Linear10)" transform="matrix(.30553 0 0 .30553 3135.167 1609.176)"/><g transform="translate(.009 .005)" fill="none" stroke="#000" stroke-width=".02" stroke-linecap="round"><path d="M3274.7 1660.13c-.01.01-.01.02 0 .03.01 0 .02 0 .03-.01 0 0 0-.01-.01-.02 0-.01-.02-.01-.02 0zM3336.05 1671.01c-.01 0-.02.01-.02.02s.01.02.02.02.02-.01.02-.02-.01-.02-.02-.02z" stroke-linejoin="miter" stroke-miterlimit="10"/><circle cx="3274.66" cy="1660.17" r=".018" stroke-linejoin="miter" stroke-miterlimit="10"/><circle cx="3335.99" cy="1671.03" r=".018" stroke-linejoin="miter" stroke-miterlimit="10"/><path d="M3274.72 1660.13c1.44-1.81 12.01-15.26 20.09-23.52 12.46-12.72 25.92-24.06 41.27-24.06 20.11 0 34.22 17.69 34.22 34.98 0 15.37-12.54 34.38-33.43 34.32-11.98-.04-51.46 0-51.46 0l-6.22 8.25h15.09c14.83 0 25.17 12.94 25.17 26.18 0 13.23-11.4 25.62-24.64 25.62h-53.93c-.61 1.82-18.92 23.54-27.78 31.24-10.87 9.43-21.88 16.36-33.54 16.36-22.13 0-34.36-18.52-34.36-35.2 0-16.69 14.17-33.81 34.36-34.06h50.6l6.35-8.31h-15.48c-13.87 0-24.8-12.03-24.8-25.9 0-11.46 7.79-25.86 24.8-25.86h53.61m61.43 10.86c13.34-.02 23.29-10.45 23.29-23.75 0-13.33-10.62-23.76-23.34-23.76-16.39 0-35.86 20.98-56.15 47.51h-58.03c-10.48 0-14.77 8.5-14.77 15.02s5.08 15.02 14.77 15.02h35.95c-7.4 10.25-14.8 20.5-22.09 30.04h-56.14c-12.1 0-23.35 10.43-23.35 23.75s10.53 23.76 23.35 23.76c16.38 0 35.85-20.98 56.14-47.51h58.04c9.64 0 14.76-8.37 14.76-15.02s-5.04-15.02-14.76-15.02h-35.95c7.39-10.25 14.79-20.5 22.08-30.04h56.1" stroke-miterlimit="1.5"/></g><g><path d="M2675 2049.04h38.82c2.08-2.63 19.02-24.22 31.96-37.43 19.8-20.21 41.18-38.23 65.57-38.23 31.95 0 54.37 28.1 54.37 55.58 0 24.42-19.92 54.62-53.11 54.52-19.03-.05-81.77 0-81.77 0l-9.88 13.11h23.98c23.56 0 39.99 20.56 39.99 41.59 0 21.04-18.11 40.72-39.15 40.72H2675v-17.15h69.07c15.33 0 23.46-13.3 23.46-23.86 0-10.57-8.01-23.87-23.46-23.87h-57.12c11.76-16.28 23.51-32.57 35.1-47.72h89.2c21.24 0 37.1-16.58 37.1-37.74 0-21.17-16.88-37.75-37.1-37.75-26.03 0-56.97 33.34-89.2 75.49H2675v-17.26zm0 81.51v-16.53h11.95c-3.98 5.53-7.97 11.05-11.95 16.53z" fill="url(#_Linear11)" transform="matrix(.6294 0 0 .6294 1223.04 186.867)"/></g><g><path d="M1656.59 403.4l-189.22-98.037 191.96-92.55-96.67 93.921 93.93 96.666z" fill="gray"/><path d="M2071.66 584.731c-148.11-89.788-308.24-275.111-509-278" fill="none" stroke="gray" stroke-width="63.54" transform="translate(0 .003)"/></g><g><path d="M1659.58 1146.39l-192.21-92.03 188.95-98.55-93.66 96.92 96.92 93.66z" fill="gray"/><path d="M2071.66 849.731c-163.54 90.925-231.09 198.249-509 202.999" fill="none" stroke="gray" stroke-width="63.54" transform="translate(0 -.001)"/></g><g><path d="M2286.073 1283.238l-171.56 126.42 1.81-213.1 41.53 128.22 128.22-41.54z" fill="gray"/><path d="M2626.33 922.758c-53.48 134.172-379.63 228.002-468.48 402.002" fill="none" stroke="gray" stroke-width="63.54" transform="translate(.002 .017)"/></g><g><path d="M2727.776 1212.713l-93.8 191.35-96.8-189.86 96.05 94.56 94.55-96.05z" fill="gray"/><path d="M2626.33 922.758c.79 128.832 5.59 218.922 6.9 386.002" fill="none" stroke="gray" stroke-width="63.54" transform="translate(-.005 .004)"/></g><g><path d="M3141.336 1179.593l6.87 212.99-174.52-122.3 129.17 38.48 38.48-129.17z" fill="gray"/><path d="M2626.33 922.758c54.4 128.832 386.14 218.922 476.52 386.002" fill="none" stroke="gray" stroke-width="63.54" transform="matrix(1 0 0 1 .008 .004)"/></g><g><path d="M2977.07 5593.67c70.14 0 127.08 56.94 127.08 127.08v254.16c0 70.14-56.94 127.08-127.08 127.08h-943.84c-70.14 0-127.08-56.94-127.08-127.08v-254.16c0-70.14 56.94-127.08 127.08-127.08h943.84zm-465.02 234.63l-9.2 72.95c-.74 6.55-3.09 12.18-7.06 16.89-3.96 4.7-9.01 8.27-15.14 10.7-6.13 2.43-12.79 3.65-19.98 3.65-6.24 0-11.6-.69-16.1-2.06-4.49-1.38-8.08-2.94-10.78-4.68-2.7-1.74-5.74-4.05-9.12-6.9l14.91-15.22c3.17 2.96 6.47 5.28 9.91 6.98 3.44 1.69 7.85 2.53 13.24 2.53 4.76 0 8.93-1.4 12.53-4.2 3.59-2.8 5.65-6.69 6.18-11.66l1.11-9.03c-2.43 3.38-5.68 6.1-9.75 8.16-4.07 2.06-8.85 3.1-14.35 3.1-6.45 0-12.24-1.43-17.36-4.29-5.13-2.85-9.18-7-12.14-12.44-2.96-5.45-4.44-11.98-4.44-19.59 0-5.6 1.54-11.39 4.6-17.36 3.07-5.98 7.67-10.97 13.8-14.99 6.13-4.02 13.48-6.02 22.04-6.02 5.81 0 10.81.79 14.99 2.37 4.17 1.59 7.32 3.7 9.43 6.35l2.22-5.24h20.46zm-406.43 62.48c-2.86 1.91-7.32 3.86-13.4 5.87-6.08 2.01-12.61 3.01-19.59 3.01-9.09 0-17.86-1.74-26.32-5.23s-15.49-9.28-21.09-17.36c-5.6-8.09-8.4-18.64-8.4-31.64 0-11.63 2.16-22.38 6.5-32.27 4.33-9.88 11.04-17.87 20.14-23.94 9.09-6.08 20.29-9.12 33.61-9.12 7.93 0 15.15 1.19 21.65 3.56 6.5 2.38 12.02 5.32 16.57 8.81l-11.73 21.09c-3.28-3.07-7.17-5.71-11.66-7.93-4.49-2.22-9.54-3.33-15.14-3.33-7.09 0-13.32 1.74-18.72 5.23-5.39 3.49-9.59 8.38-12.6 14.67-3.02 6.29-4.52 13.45-4.52 21.49 0 10.04 2.93 18.15 8.8 24.34 5.87 6.18 13.82 9.27 23.87 9.27 5.81 0 10.51-.74 14.11-2.22 3.59-1.48 7.24-3.33 10.94-5.55l6.98 21.25zm55.66 8.73c-5.92 0-11.82-1.25-17.68-3.73-5.87-2.49-10.76-6.29-14.67-11.42s-5.87-11.5-5.87-19.11c0-6.23 1.37-12.42 4.12-18.55 2.75-6.13 7.22-11.26 13.4-15.38 6.19-4.13 14.04-6.19 23.55-6.19 6.34 0 12.42 1.35 18.24 4.05 5.81 2.69 10.54 6.63 14.19 11.81 3.65 5.18 5.47 11.31 5.47 18.4 0 5.49-1.24 11.31-3.73 17.44-2.48 6.13-6.76 11.44-12.84 15.94-6.08 4.49-14.14 6.74-24.18 6.74zm635.73-18.88c3.28 0 7.29-1.26 12.05-3.8l7.77 17.12c-3.49 1.7-7.19 3.02-11.1 3.97-3.91.95-7.61 1.43-11.1 1.43-11.74 0-20.99-3.02-27.75-9.04-6.77-6.03-10.15-14.96-10.15-26.8 0-5.92 1.45-11.84 4.36-17.76 2.91-5.92 7.43-10.84 13.56-14.75 6.13-3.91 13.85-5.87 23.15-5.87 9.52 0 17.55 2.59 24.11 7.77 6.55 5.18 10.67 14.54 12.36 28.07l-51.85 12.85c1.69 2.43 3.83 4.17 6.42 5.23 2.59 1.06 5.31 1.58 8.17 1.58zm-462.88 18.4c-4.55 0-9.65-.93-15.31-2.78-5.65-1.85-10.44-5.36-14.35-10.54l10.63-11.58c3.59 4.23 6.87 6.9 9.83 8.01 2.96 1.11 5.87 1.67 8.72 1.67 2.85 0 4.86-.59 6.03-1.75 1.16-1.16 1.74-2.54 1.74-4.12 0-1.8-.82-3.2-2.46-4.2-1.64-1.01-4.31-2.2-8.01-3.57l-3.01-1.11c-5.28-2.01-9.17-4.73-11.66-8.17-2.48-3.43-3.72-7.32-3.72-11.65 0-3.39.79-6.9 2.38-10.55 1.58-3.65 4.41-6.79 8.48-9.43 4.07-2.65 9.54-3.97 16.41-3.97 5.4 0 10.44.66 15.15 1.98 4.7 1.33 9.01 3.68 12.92 7.06l-9.99 12.53c-4.54-4.55-9.41-6.82-14.59-6.82-2.85 0-4.91.58-6.18 1.74-1.27 1.17-1.9 2.65-1.9 4.44 0 1.8.84 3.23 2.53 4.29 1.69 1.05 4.34 2.22 7.93 3.48 1.8.53 3.28 1.06 4.44 1.59 9.31 3.91 13.96 9.83 13.96 17.76 0 4.55-1.14 8.77-3.41 12.69-2.28 3.91-5.69 7.05-10.23 9.43-4.55 2.38-9.99 3.57-16.33 3.57zm68.5-1.43l8.56-69.3h-22.2l-8.56 69.3h22.2zm574.05-69.61l3.64-30.13h-22.2l-3.65 30.13h-10.78l-2.06 17.28h10.78l-6.34 52.33h22.2l6.34-52.33h16.81l2.06-17.28h-16.8zm-690.13 69.61l6.34-51.85c.53-6.13-1.13-11.13-4.99-14.99-3.86-3.86-9.06-5.79-15.62-5.79-6.02 0-11.47 1.22-16.33 3.65-4.87 2.43-8.83 5.76-11.9 9.99l-.31-10.31h-20.14l-8.41 69.3h22.2l3.49-28.22c.85-7.51 3.09-13.64 6.74-18.4 3.65-4.76 8.01-7.13 13.08-7.13 3.39 0 5.79.87 7.22 2.61 1.43 1.74 2.03 4.26 1.82 7.53l-5.39 43.61h22.2zm311.29 0l6.34-51.85c.53-6.13-1.14-11.13-5-14.99-3.85-3.86-9.06-5.79-15.61-5.79-6.03 0-11.47 1.22-16.34 3.65-4.86 2.43-8.82 5.76-11.89 9.99l-.32-10.31h-20.14l-8.4 69.3h22.2l3.49-28.22c.84-7.51 3.09-13.64 6.74-18.4 3.64-4.76 8-7.13 13.08-7.13 3.38 0 5.79.87 7.21 2.61 1.43 1.74 2.04 4.26 1.83 7.53l-5.39 43.61h22.2zm137.01 0l6.34-52.01c.11-.64.16-1.48.16-2.54 0-5.5-1.8-9.91-5.39-13.24-3.6-3.33-8.57-4.99-14.91-4.99-4.33 0-8.69 1.24-13.08 3.72-4.39 2.49-8.38 5.79-11.97 9.91-1.17-9.09-7.67-13.63-19.51-13.63-11.21 0-20.14 4.81-26.8 14.43l-.32-10.95h-20.13l-8.41 69.3h22.2l3.49-28.7c.74-6.55 2.85-12.34 6.34-17.36 3.49-5.03 7.72-7.54 12.69-7.54 2.43.22 4.15 1.01 5.15 2.38 1.01 1.38 1.51 3.28 1.51 5.71l-.16 2.7-5.23 42.81h22.2l3.49-28.38c.74-6.77 2.88-12.66 6.42-17.68 3.54-5.03 7.9-7.54 13.08-7.54 2.33.11 3.94.82 4.84 2.14.9 1.33 1.35 3.2 1.35 5.63 0 1.27-.06 2.28-.16 3.02l-5.24 42.81h22.05zm182.36 0l6.34-51.85c.53-6.13-1.13-11.13-4.99-14.99-3.86-3.86-9.07-5.79-15.62-5.79-6.03 0-11.47 1.22-16.34 3.65-4.86 2.43-8.82 5.76-11.89 9.99l-.32-10.31h-20.13l-8.41 69.3h22.2l3.49-28.22c.85-7.51 3.09-13.64 6.74-18.4 3.65-4.76 8.01-7.13 13.08-7.13 3.38 0 5.79.87 7.22 2.61 1.42 1.74 2.03 4.26 1.82 7.53l-5.39 43.61h22.2zm-430.53-43.61c-1.17-3.48-3.31-6.21-6.43-8.16-3.12-1.96-6.89-2.94-11.34-2.94-4.86 0-8.93 1.06-12.21 3.18-3.27 2.11-5.68 4.73-7.21 7.84-1.53 3.12-2.3 6.22-2.3 9.28 0 5.82 1.67 10.31 4.99 13.48 3.33 3.17 8.01 4.76 14.04 4.76 3.59 0 6.98-.9 10.15-2.7 3.17-1.8 5.92-4.39 8.24-7.77l2.07-16.97zm-324.77 27.28c6.03 0 10.47-2.2 13.32-6.58 2.86-4.39 4.28-9.17 4.28-14.35 0-6.45-1.74-10.92-5.23-13.4-3.49-2.49-7.14-3.73-10.94-3.73-4.02 0-7.37 1.08-10.07 3.25a19.22 19.22 0 00-5.95 8.09c-1.27 3.22-1.9 6.42-1.9 9.59 0 6.34 1.74 10.79 5.23 13.32 3.49 2.54 7.24 3.81 11.26 3.81zm635.1-38.85c-6.03 0-10.55 1.8-13.56 5.39s-4.52 7.98-4.52 13.16v.48l31.56-8.25c-.85-3.38-2.49-6.02-4.92-7.93-2.43-1.9-5.28-2.85-8.56-2.85zm-406.59-38.54c0-3.38 1.19-6.23 3.57-8.56s5.42-3.49 9.12-3.49c3.06 0 5.81.85 8.24 2.54 2.43 1.69 3.65 4.28 3.65 7.77 0 3.38-1.19 6.24-3.57 8.56-2.38 2.33-5.42 3.49-9.12 3.49-3.06 0-5.81-.84-8.24-2.54-2.43-1.69-3.65-4.28-3.65-7.77z" fill="url(#_Linear12)" transform="translate(121.182 -5160.37)"/></g><g><path d="M2684.17 6781.53h-478.34V6339.7h478.34v441.83zm-263.09-175.6h-156.71v113.29h156.71v-113.29zm-67.34 45.95h-66.09v-22.66h66.09v22.66zm18.13-48.95c-5.92 0-11.81-1.24-17.68-3.73-5.87-2.48-10.76-6.29-14.67-11.41-3.91-5.13-5.87-11.5-5.87-19.11 0-6.24 1.38-12.42 4.13-18.55 2.75-6.14 7.21-11.26 13.4-15.39 6.18-4.12 14.03-6.18 23.54-6.18 6.35 0 12.43 1.35 18.24 4.04 5.82 2.7 10.55 6.64 14.19 11.82 3.65 5.18 5.47 11.31 5.47 18.39 0 5.5-1.24 11.31-3.72 17.45-2.49 6.13-6.77 11.44-12.85 15.93-6.08 4.5-14.14 6.74-24.18 6.74zm90.86 0c-5.92 0-11.81-1.24-17.68-3.73-5.86-2.48-10.75-6.29-14.66-11.41-3.92-5.13-5.87-11.5-5.87-19.11 0-6.24 1.37-12.42 4.12-18.55 2.75-6.14 7.22-11.26 13.4-15.39 6.18-4.12 14.03-6.18 23.55-6.18 6.34 0 12.42 1.35 18.24 4.04 5.81 2.7 10.54 6.64 14.19 11.82 3.64 5.18 5.47 11.31 5.47 18.39 0 5.5-1.24 11.31-3.73 17.45-2.48 6.13-6.76 11.44-12.84 15.93-6.08 4.5-14.14 6.74-24.19 6.74zm130.2-1.9l15.38-125.12h-22.05l-7.29 59.79c-2.64-2.22-5.87-4.02-9.67-5.4-3.81-1.37-7.93-2.06-12.37-2.06-8.67 0-16.15 2.01-22.44 6.03-6.29 4.02-11.05 9.17-14.27 15.46-3.23 6.29-4.84 12.82-4.84 19.58 0 6.03 1.48 11.61 4.44 16.73 2.96 5.13 7.03 9.23 12.21 12.29 5.18 3.07 11 4.6 17.44 4.6 4.02 0 7.75-.77 11.19-2.3 3.43-1.53 7.1-3.83 11.02-6.9l-.96 7.3h22.21zm-280.21-8.88c-2.96 2.64-8.38 5.07-16.25 7.29-7.88 2.22-15.25 3.33-22.12 3.33-5.92 0-13.38-1.37-22.36-4.12-8.99-2.75-17.26-8.11-24.82-16.09-7.56-7.99-11.34-19.17-11.34-33.54 0-9.94 2.17-19.91 6.5-29.9 4.34-9.99 11.21-18.36 20.62-25.13s21.25-10.15 35.52-10.15c7.19 0 14.38.9 21.56 2.7 7.19 1.79 13.59 4.49 19.19 8.08l-10.15 20.94c-4.01-2.65-8.74-4.73-14.19-6.27-5.44-1.53-10.6-2.3-15.46-2.3-9.62 0-17.39 2.14-23.31 6.43-5.92 4.28-10.1 9.54-12.53 15.77-2.43 6.24-3.65 12.58-3.65 19.03 0 8.46 2.36 15.04 7.06 19.75 4.71 4.7 9.94 7.87 15.7 9.51 5.76 1.64 10.86 2.46 15.3 2.46 5.4.21 9.73-.53 13.01-2.22l1.74-15.23h-20.14l2.7-22.04h43.61l-6.19 51.7zm327.78 10.31c-4.55 0-9.65-.93-15.3-2.78-5.66-1.85-10.44-5.36-14.36-10.54l10.63-11.58c3.59 4.23 6.87 6.9 9.83 8.01 2.96 1.11 5.87 1.66 8.72 1.66 2.86 0 4.87-.58 6.03-1.74 1.16-1.16 1.74-2.54 1.74-4.13 0-1.79-.82-3.19-2.45-4.2-1.64-1-4.31-2.19-8.01-3.56l-3.02-1.11c-5.28-2.01-9.17-4.74-11.65-8.17-2.49-3.44-3.73-7.32-3.73-11.66 0-3.38.79-6.89 2.38-10.54 1.59-3.65 4.41-6.79 8.48-9.44 4.07-2.64 9.55-3.96 16.42-3.96 5.39 0 10.44.66 15.14 1.98 4.7 1.32 9.01 3.67 12.93 7.06l-10 12.52c-4.54-4.54-9.4-6.81-14.58-6.81-2.86 0-4.92.58-6.19 1.74-1.27 1.16-1.9 2.64-1.9 4.44 0 1.8.84 3.23 2.53 4.28 1.7 1.06 4.34 2.22 7.93 3.49 1.8.53 3.28 1.06 4.44 1.59 9.31 3.91 13.96 9.83 13.96 17.76 0 4.54-1.14 8.77-3.41 12.68-2.27 3.91-5.68 7.06-10.23 9.44-4.54 2.38-9.99 3.57-16.33 3.57zm-267.99-17.76c6.02 0 10.46-2.2 13.32-6.59 2.85-4.38 4.28-9.17 4.28-14.35 0-6.44-1.75-10.91-5.24-13.4-3.48-2.48-7.13-3.72-10.94-3.72-4.02 0-7.37 1.08-10.07 3.25-2.69 2.17-4.68 4.86-5.94 8.09-1.27 3.22-1.91 6.42-1.91 9.59 0 6.34 1.75 10.78 5.24 13.32 3.48 2.54 7.24 3.81 11.26 3.81zm90.86 0c6.02 0 10.47-2.2 13.32-6.59 2.85-4.38 4.28-9.17 4.28-14.35 0-6.44-1.74-10.91-5.23-13.4-3.49-2.48-7.14-3.72-10.94-3.72-4.02 0-7.38 1.08-10.07 3.25a19.22 19.22 0 00-5.95 8.09c-1.27 3.22-1.9 6.42-1.9 9.59 0 6.34 1.74 10.78 5.23 13.32 3.49 2.54 7.24 3.81 11.26 3.81zm112.91-27.91c-.85-3.39-2.81-6.08-5.87-8.09-3.07-2.01-6.82-3.01-11.26-3.01-6.34 0-11.42 1.82-15.22 5.47-3.81 3.64-5.71 8.59-5.71 14.82 0 5.5 1.66 9.92 4.99 13.25s7.74 4.99 13.24 4.99c7.09 0 13.01-3.49 17.76-10.47l2.07-16.96zm-58.27-208.28h-147.28v145.57c5.05-4.29 9.93-8.78 14.74-13.33 2.9-2.74 5.77-5.5 8.66-8.24 1.83-1.72 3.66-3.43 5.51-5.12 1.13-1.02 2.27-2.04 3.43-3.04.66-.56 1.32-1.11 1.98-1.65.37-.29.73-.59 1.1-.87.22-.17.43-.34.65-.5.14-.11.29-.22.43-.33.08-.05.15-.1.22-.16l.21-.15c.04-.03.13-.2.21-.15.03.03.06.05.09.07.03.03.06.05.09.08.03.02.06.05.09.07.09.08.18.16.26.24.12.11.23.23.34.34.16.17.32.34.5.5.44.42.89.85 1.34 1.27l1.57 1.48c.79.74 1.57 1.48 2.36 2.22 1.89 1.76 3.79 3.52 5.69 5.27 3.31 3.05 6.65 6.08 10.02 9.08 3.45 3.07 6.92 6.12 10.41 9.15 1.06.92 2.12 1.83 3.18 2.75l.82.7c.12.11.23.23.37.32.02.02.04-.03.06-.05.05-.04.1-.09.15-.13.16-.14.31-.28.47-.42.44-.39.88-.78 1.32-1.18 1.91-1.71 3.8-3.46 5.66-5.24 3.04-2.9 6.01-5.89 8.91-8.94 2.74-2.87 5.42-5.8 8.11-8.73 1.55-1.7 3.11-3.39 4.7-5.06.38-.41.77-.81 1.16-1.22.1-.11.16-.35.32-.4.1-.02.23.05.31.09.29.14.51.4.78.58.69.45 1.38.89 2.07 1.34 2.4 1.57 4.78 3.15 7.15 4.76 5.51 3.76 10.9 7.71 16.17 11.8 5.33 4.15 10.53 8.44 15.67 12.8v-145.57z" fill="url(#_Linear13)" transform="translate(182.663 -4924.257)"/></g><defs><linearGradient id="_Linear1" x1="0" y1="0" x2="1" y2="0" gradientUnits="userSpaceOnUse" gradientTransform="rotate(-22.806 18135.24 -4891.086) scale(1206.781)"><stop offset="0" stop-color="#f9cf00"/><stop offset="1" stop-color="#f19f4d"/></linearGradient><linearGradient id="_Linear2" x1="0" y1="0" x2="1" y2="0" gradientUnits="userSpaceOnUse" gradientTransform="rotate(-18.824 18415.52 -7216.784) scale(1195.376)"><stop offset="0" stop-color="#f9cf00"/><stop offset="1" stop-color="#f19f4d"/></linearGradient><linearGradient id="_Linear3" x1="0" y1="0" x2="1" y2="0" gradientUnits="userSpaceOnUse" gradientTransform="matrix(1087 -468.604 468.604 1087 187 5426.85)"><stop offset="0" stop-color="#f9cf00"/><stop offset="1" stop-color="#f19f4d"/></linearGradient><linearGradient id="_Linear4" x1="0" y1="0" x2="1" y2="0" gradientUnits="userSpaceOnUse" gradientTransform="scale(1201.804) rotate(-18.432 15.723 2.07)"><stop offset="0" stop-color="#f9cf00"/><stop offset="1" stop-color="#f19f4d"/></linearGradient><linearGradient id="_Linear5" x1="0" y1="0" x2="1" y2="0" gradientUnits="userSpaceOnUse" gradientTransform="rotate(-20.166 18870.94 2970.184) scale(1205.007)"><stop offset="0" stop-color="#f9cf00"/><stop offset="1" stop-color="#f19f4d"/></linearGradient><linearGradient id="_Linear6" x1="0" y1="0" x2="1" y2="0" gradientUnits="userSpaceOnUse" gradientTransform="matrix(667 917 -1106.43 804.788 2768 1731)"><stop offset="0" stop-color="#f3aa3b"/><stop offset=".43" stop-color="#eda435"/><stop offset="1" stop-color="#bf7300"/></linearGradient><linearGradient id="_Linear7" x1="0" y1="0" x2="1" y2="0" gradientUnits="userSpaceOnUse" gradientTransform="scale(-950.69) rotate(-38.033 -.426 1.158)"><stop offset="0" stop-color="#f9cf00"/><stop offset="1" stop-color="#f19f4d"/></linearGradient><linearGradient id="_Linear8" x1="0" y1="0" x2="1" y2="0" gradientUnits="userSpaceOnUse" gradientTransform="matrix(-289.5 206.289 -248.904 -349.305 2857.5 1991)"><stop offset="0" stop-color="#f9cf00"/><stop offset="1" stop-color="#f19f4d"/></linearGradient><linearGradient id="_Linear9" x1="0" y1="0" x2="1" y2="0" gradientUnits="userSpaceOnUse" gradientTransform="matrix(667 917 -1106.43 804.788 2768 1731)"><stop offset="0" stop-color="#f3aa3b"/><stop offset=".43" stop-color="#eda435"/><stop offset="1" stop-color="#bf7300"/></linearGradient><linearGradient id="_Linear10" x1="0" y1="0" x2="1" y2="0" gradientUnits="userSpaceOnUse" gradientTransform="scale(-950.69) rotate(-38.033 -.426 1.158)"><stop offset="0" stop-color="#f9cf00"/><stop offset="1" stop-color="#f19f4d"/></linearGradient><linearGradient id="_Linear11" x1="0" y1="0" x2="1" y2="0" gradientUnits="userSpaceOnUse" gradientTransform="matrix(-289.5 206.289 -248.904 -349.305 2857.5 1991)"><stop offset="0" stop-color="#f9cf00"/><stop offset="1" stop-color="#f19f4d"/></linearGradient><linearGradient id="_Linear12" x1="0" y1="0" x2="1" y2="0" gradientUnits="userSpaceOnUse" gradientTransform="rotate(-21.523 16791.65 -2175.327) scale(1101.274)"><stop offset="0" stop-color="#f9cf00"/><stop offset="1" stop-color="#f19f4d"/></linearGradient><linearGradient id="_Linear13" x1="0" y1="0" x2="1" y2="0" gradientUnits="userSpaceOnUse" gradientTransform="rotate(42.75 -7007.29 5992.193) scale(637.923)"><stop offset="0" stop-color="#f3aa3b"/><stop offset=".43" stop-color="#eda435"/><stop offset="1" stop-color="#bf7300"/></linearGradient></defs></svg>