<?xml version="1.0" encoding="UTF-8" standalone="no"?>
<!DOCTYPE svg PUBLIC "-//W3C//DTD SVG 1.1//EN" "http://www.w3.org/Graphics/SVG/1.1/DTD/svg11.dtd">
<svg width="100%" height="100%" viewBox="0 0 784 605" version="1.1" xmlns="http://www.w3.org/2000/svg" xmlns:xlink="http://www.w3.org/1999/xlink" xml:space="preserve" xmlns:serif="http://www.serif.com/" style="fill-rule:evenodd;clip-rule:evenodd;stroke-linejoin:round;stroke-miterlimit:2;">
    <g transform="matrix(1,0,0,1,6.2521,-2277.51)">
        <g transform="matrix(2.75919,0,0,2.82073,-939.168,1642.3)">
            <g transform="matrix(0.362425,0,0,0.354518,340.378,-582.225)">
                <path d="M777,2277.51L777,2882.06L-6.252,2882.06L-6.252,2277.51L777,2277.51ZM447.992,2539.71L468.349,2512.72C468.349,2512.72 597.583,2512.61 636.778,2512.72C705.152,2512.92 746.196,2450.7 746.196,2400.4C746.196,2343.79 700.018,2285.91 634.189,2285.91C583.951,2285.91 539.898,2323.03 499.127,2364.66C472.465,2391.88 437.572,2436.35 433.278,2441.76L257.627,2441.76C201.972,2441.76 176.47,2488.9 176.47,2526.41C176.47,2571.79 212.242,2611.17 257.627,2611.17L308.312,2611.17L287.537,2638.36L121.889,2638.36C55.819,2639.2 9.45,2695.23 9.45,2749.84C9.45,2804.45 49.477,2865.08 121.889,2865.08C160.065,2865.08 196.118,2842.37 231.67,2811.51C260.676,2786.33 320.601,2715.24 322.593,2709.27L499.127,2709.27C542.459,2709.27 579.762,2668.73 579.762,2625.4C579.762,2582.07 545.92,2539.71 497.394,2539.71L447.992,2539.71ZM450.233,2477.31C516.637,2390.49 580.367,2321.82 633.989,2321.82C675.633,2321.82 710.403,2355.96 710.403,2399.57C710.403,2443.17 677.735,2477.31 633.989,2477.31L450.233,2477.31C426.365,2508.52 402.152,2542.08 377.939,2575.63L495.604,2575.63C527.423,2575.63 543.919,2603.03 543.919,2624.79C543.919,2646.55 527.181,2673.95 495.604,2673.95L305.645,2673.95C239.242,2760.77 175.511,2829.44 121.889,2829.44C79.962,2829.44 45.475,2795.3 45.475,2751.7C45.475,2708.09 82.306,2673.95 121.889,2673.95L305.645,2673.95C329.513,2642.74 353.726,2609.18 377.939,2575.63L260.274,2575.63C228.576,2575.63 211.96,2547.82 211.96,2526.47C211.96,2505.12 225.989,2477.32 260.274,2477.31L450.233,2477.31Z" style="fill:url(#_Linear1);"/>
            </g>
        </g>
    </g>
    <defs>
        <linearGradient id="_Linear1" x1="0" y1="0" x2="1" y2="0" gradientUnits="userSpaceOnUse" gradientTransform="matrix(752.834,0,0,604.549,-6.2521,2579.79)"><stop offset="0" style="stop-color:rgb(249,207,0);stop-opacity:1"/><stop offset="1" style="stop-color:rgb(241,159,77);stop-opacity:1"/></linearGradient>
    </defs>
</svg>
