<?xml version="1.0" encoding="UTF-8" standalone="no"?><!DOCTYPE svg PUBLIC "-//W3C//DTD SVG 1.1//EN" "http://www.w3.org/Graphics/SVG/1.1/DTD/svg11.dtd"><svg width="100%" height="100%" viewBox="0 0 1022 972" version="1.1" xmlns="http://www.w3.org/2000/svg" xmlns:xlink="http://www.w3.org/1999/xlink" xml:space="preserve" xmlns:serif="http://www.serif.com/" style="fill-rule:evenodd;clip-rule:evenodd;stroke-linecap:round;stroke-linejoin:round;stroke-miterlimit:1.5;"><path d="M510.683,690.374l-471.5,-286.31l943,0l-471.5,286.31Z" style="fill:url(#_Linear1);stroke:url(#_Linear2);stroke-width:43.47px;"/><path d="M722.766,21.735l124.417,109.256l0,355.049l-336.5,204.334l-340.5,-206.763l0,-461.876l552.583,0l124.417,109.256l-124.417,0l0,-109.256l124.417,109.256l-124.417,0l0,-109.256Z" style="fill:#fff;stroke:url(#_Linear3);stroke-width:43.47px;"/><g><path d="M303.888,509.89c-18.749,0.001 -36.663,10.376 -47.052,26.34l-22.657,-13.758c14.305,-22.098 39.154,-38.473 69.709,-38.86l122.317,0l15.341,-20.075l-37.427,0c-33.512,0 -59.927,-29.078 -59.927,-62.59c0,-27.699 18.831,-62.509 59.927,-62.509l129.704,0c3.17,-3.989 28.936,-36.829 48.624,-56.93c30.105,-30.736 62.634,-58.147 99.731,-58.147c48.609,0 82.708,42.735 82.708,84.539c0,37.141 -30.308,83.084 -80.796,82.938l-124.37,0l-15.032,19.932l36.479,0c35.832,0 60.821,31.275 60.821,63.271c0,31.996 -27.545,61.934 -59.541,61.934l-130.356,0c-1.467,4.4 -45.719,56.898 -67.139,75.491l-1.774,1.483l-23.47,-14.252c25.35,-20.943 52.297,-52.755 79.868,-88.807l140.269,0c23.317,0 35.676,-20.23 35.676,-36.299c0,-16.068 -12.18,-36.299 -35.676,-36.299l-86.885,0c17.879,-24.777 35.758,-49.554 53.383,-72.598l135.688,0c32.302,-0.001 56.425,-25.212 56.425,-57.411c0,-32.198 -25.675,-57.41 -56.425,-57.41c-39.596,0 -86.655,50.707 -135.688,114.821l-140.269,0c-25.317,0 -35.676,20.534 -35.676,36.299c0,15.765 12.27,36.299 35.676,36.299l86.886,0l-26.787,36.949c-4.445,6.022 -8.89,12.045 -13.334,18.068l-13.263,17.581l-135.688,0Z" style="fill:url(#_Linear4);"/><path d="M303.858,509.909c0.01,0 0.018,-0.009 0.018,-0.019c0,-0.01 -0.008,-0.018 -0.018,-0.018c-0.01,0 -0.018,0.008 -0.018,0.018c0,0.01 0.008,0.019 0.018,0.019Z" style="fill:none;stroke:#000;stroke-width:0.02px;stroke-linejoin:miter;stroke-miterlimit:10;"/><path d="M303.919,509.909c-0.01,0 -0.018,-0.009 -0.018,-0.019c0,-0.01 0.008,-0.018 0.018,-0.018c0.01,0 0.018,0.008 0.018,0.018c0,0.01 -0.008,0.019 -0.018,0.019Z" style="fill:none;stroke:#000;stroke-width:0.02px;stroke-linejoin:miter;stroke-miterlimit:10;"/><path d="M303.84,509.89c-18.732,0.019 -36.624,10.39 -47.004,26.34l-22.657,-13.758c14.305,-22.098 39.154,-38.473 69.709,-38.86l122.317,0l15.341,-20.075l-37.427,0c-33.512,0 -59.927,-29.078 -59.927,-62.59c0,-27.699 18.831,-62.509 59.927,-62.509l129.704,0c3.17,-3.989 28.936,-36.829 48.624,-56.93c30.105,-30.736 62.634,-58.147 99.731,-58.147c48.609,0 82.708,42.735 82.708,84.539c0,37.141 -30.308,83.084 -80.796,82.938l-124.37,0l-15.032,19.932l36.479,0c35.832,0 60.821,31.275 60.821,63.271c0,31.996 -27.545,61.934 -59.541,61.934l-130.356,0c-1.467,4.4 -45.719,56.898 -67.139,75.491l-1.774,1.483l-23.47,-14.252c25.35,-20.943 52.297,-52.755 79.868,-88.807l140.269,0c23.317,0 35.676,-20.23 35.676,-36.299c0,-16.068 -12.18,-36.299 -35.676,-36.299l-86.885,0c17.879,-24.777 35.758,-49.554 53.383,-72.598l135.688,0c32.302,-0.001 56.425,-25.212 56.425,-57.411c0,-32.198 -25.675,-57.41 -56.425,-57.41c-39.596,0 -86.655,50.707 -135.688,114.821l-140.269,0c-25.317,0 -35.676,20.534 -35.676,36.299c0,15.765 12.27,36.299 35.676,36.299l86.886,0l-26.787,36.949c-4.445,6.022 -8.89,12.045 -13.334,18.068l-13.263,17.581l-135.639,0" style="fill:none;stroke:#000;stroke-width:0.02px;"/></g><g><g><path d="M982.183,932.098l-943,0l0,-528.034l471.5,286.31l471.5,-286.31l0,528.034Z" style="fill:none;stroke:url(#_Linear5);stroke-width:43.47px;stroke-linejoin:miter;"/><path d="M510.683,690.374l165.772,-100.662l305.728,342.386l-943,0l305.728,-342.386l165.772,100.662Z" style="fill:none;stroke:url(#_Linear6);stroke-width:43.47px;stroke-linejoin:miter;"/></g></g><defs><linearGradient id="_Linear1" x1="0" y1="0" x2="1" y2="0" gradientUnits="userSpaceOnUse" gradientTransform="matrix(943,0,0,-286.31,39.183,547.219)"><stop offset="0" style="stop-color:#f9cf00;stop-opacity:1"/><stop offset="1" style="stop-color:#f19f4d;stop-opacity:1"/></linearGradient><linearGradient id="_Linear2" x1="0" y1="0" x2="1" y2="0" gradientUnits="userSpaceOnUse" gradientTransform="matrix(3438.24,0,0,-1058.04,-2456.06,830.118)"><stop offset="0" style="stop-color:#f9cf00;stop-opacity:1"/><stop offset="1" style="stop-color:#f19f4d;stop-opacity:1"/></linearGradient><linearGradient id="_Linear3" x1="0" y1="0" x2="1" y2="0" gradientUnits="userSpaceOnUse" gradientTransform="matrix(3438.24,0,0,1058.04,-2456.06,161.354)"><stop offset="0" style="stop-color:#f9cf00;stop-opacity:1"/><stop offset="1" style="stop-color:#f19f4d;stop-opacity:1"/></linearGradient><linearGradient id="_Linear4" x1="0" y1="0" x2="1" y2="0" gradientUnits="userSpaceOnUse" gradientTransform="matrix(-552.935,432.518,-432.518,-552.935,760.727,226.704)"><stop offset="0" style="stop-color:#f9cf00;stop-opacity:1"/><stop offset="1" style="stop-color:#f19f4d;stop-opacity:1"/></linearGradient><linearGradient id="_Linear5" x1="0" y1="0" x2="1" y2="0" gradientUnits="userSpaceOnUse" gradientTransform="matrix(3438.24,0,0,1058.04,-2456.06,161.354)"><stop offset="0" style="stop-color:#f9cf00;stop-opacity:1"/><stop offset="1" style="stop-color:#f19f4d;stop-opacity:1"/></linearGradient><linearGradient id="_Linear6" x1="0" y1="0" x2="1" y2="0" gradientUnits="userSpaceOnUse" gradientTransform="matrix(3438.24,0,0,1058.04,-2456.06,161.354)"><stop offset="0" style="stop-color:#f9cf00;stop-opacity:1"/><stop offset="1" style="stop-color:#f19f4d;stop-opacity:1"/></linearGradient></defs></svg>