<?xml version="1.0" encoding="UTF-8" standalone="no"?>
<!DOCTYPE svg PUBLIC "-//W3C//DTD SVG 1.1//EN" "http://www.w3.org/Graphics/SVG/1.1/DTD/svg11.dtd">
<svg width="100%" height="100%" viewBox="0 0 346 347" version="1.1" xmlns="http://www.w3.org/2000/svg" xmlns:xlink="http://www.w3.org/1999/xlink" xml:space="preserve" xmlns:serif="http://www.serif.com/" style="fill-rule:evenodd;clip-rule:evenodd;stroke-linejoin:round;stroke-miterlimit:2;">
    <g transform="matrix(1,0,0,1,-42.2663,-1154.48)">
        <g id="LOGO---round" serif:id="LOGO - round" transform="matrix(1.27233,0,0,1.6693,-390.807,775.228)">
            <rect x="340.378" y="227.191" width="271.728" height="207.871" style="fill:none;"/>
            <clipPath id="_clip1">
                <rect x="340.378" y="227.191" width="271.728" height="207.871"/>
            </clipPath>
            <g clip-path="url(#_clip1)">
                <g transform="matrix(0.641905,0,0,0.489256,82.8784,222.321)">
                    <g id="Gradient-Logo" serif:id="Gradient Logo">
                        <path d="M456.672,166.916C460.965,161.513 495.859,117.039 522.521,89.818C563.292,48.193 607.344,11.072 657.583,11.072C723.411,11.072 769.589,68.946 769.589,125.56C769.589,175.858 728.545,238.076 660.172,237.878C620.976,237.765 491.743,237.878 491.743,237.878L471.386,264.872L520.788,264.872C569.313,264.872 603.155,307.225 603.155,350.556C603.155,393.887 565.852,434.431 522.521,434.431L345.986,434.431C344,440.389 284.071,511.485 255.063,536.665C219.512,567.525 183.459,590.237 145.282,590.237C72.871,590.237 32.844,529.605 32.844,474.998C32.844,420.391 79.213,364.354 145.282,363.518L310.93,363.518L331.706,336.331L281.02,336.331C235.636,336.331 199.863,296.952 199.863,251.569C199.863,214.057 225.366,166.916 281.02,166.916L456.672,166.916ZM657.383,202.472C701.129,202.472 733.796,168.329 733.796,124.724C733.796,81.119 699.026,46.976 657.383,46.976C603.761,46.976 540.03,115.646 473.627,202.472L283.668,202.472C249.382,202.473 235.353,230.281 235.353,251.63C235.353,272.98 251.97,300.788 283.668,300.789L401.333,300.789C377.12,334.343 352.907,367.897 329.038,399.105L145.282,399.105C105.7,399.106 68.869,433.249 68.869,476.853C68.869,520.458 103.356,554.602 145.282,554.602C198.905,554.602 262.635,485.932 329.038,399.105L518.998,399.105C550.574,399.105 567.312,371.708 567.312,349.947C567.312,328.186 550.817,300.789 518.998,300.789L401.333,300.789C425.546,267.235 449.759,233.681 473.627,202.472L657.383,202.472Z" style="fill:url(#_Linear2);"/>
                    </g>
                </g>
                <g transform="matrix(0.785959,0,0,0.599053,-53.445,-143.794)">
                    <circle cx="673.937" cy="792.15" r="172.864" style="fill:none;"/>
                </g>
            </g>
        </g>
    </g>
    <defs>
        <linearGradient id="_Linear2" x1="0" y1="0" x2="1" y2="0" gradientUnits="userSpaceOnUse" gradientTransform="matrix(-326.553,345.622,-345.622,-326.553,732.668,77.3222)"><stop offset="0" style="stop-color:rgb(249,207,0);stop-opacity:1"/><stop offset="1" style="stop-color:rgb(241,159,77);stop-opacity:1"/></linearGradient>
    </defs>
</svg>
