<?xml version="1.0" encoding="UTF-8" standalone="no"?><!DOCTYPE svg PUBLIC "-//W3C//DTD SVG 1.1//EN" "http://www.w3.org/Graphics/SVG/1.1/DTD/svg11.dtd"><svg width="100%" height="100%" viewBox="0 0 1163 1011" version="1.1" xmlns="http://www.w3.org/2000/svg" xmlns:xlink="http://www.w3.org/1999/xlink" xml:space="preserve" xmlns:serif="http://www.serif.com/" style="fill-rule:evenodd;clip-rule:evenodd;stroke-linecap:round;stroke-linejoin:round;stroke-miterlimit:1.5;"><rect id="Email" x="0" y="0" width="1162.63" height="1010.58" style="fill:none;"/><path d="M581.312,718.747l-471.5,-286.311l943,0l-471.5,286.311Z" style="fill:none;stroke:url(#_Linear1);stroke-width:43.47px;"/><path d="M793.396,50.107l124.416,109.256l0,355.05l-336.5,204.334l-340.5,-206.763l0,-461.877l552.584,0l124.416,109.256l-124.416,0l0,-109.256l124.416,109.256l-124.416,0l0,-109.256Z" style="fill:#fff;stroke:url(#_Linear2);stroke-width:43.47px;"/><g><path d="M374.518,538.263c-18.75,0 -36.664,10.376 -47.053,26.339l-22.656,-13.758c14.305,-22.097 39.154,-38.472 69.709,-38.859l122.317,0l15.34,-20.075l-37.427,0c-33.512,0 -59.927,-29.078 -59.927,-62.59c0,-27.7 18.832,-62.509 59.927,-62.509l129.704,0c3.171,-3.99 28.936,-36.83 48.624,-56.93c30.106,-30.736 62.635,-58.147 99.732,-58.147c48.608,0 82.707,42.735 82.707,84.539c0,37.141 -30.308,83.084 -80.795,82.938l-124.371,0l-15.032,19.932l36.48,0c35.831,0 60.821,31.274 60.821,63.27c0,31.997 -27.546,61.935 -59.542,61.935l-130.356,0c-1.466,4.4 -45.719,56.898 -67.138,75.491l-1.775,1.482l-23.47,-14.251c25.35,-20.944 52.298,-52.756 79.869,-88.807l140.269,0c23.316,0 35.676,-20.231 35.676,-36.299c0,-16.069 -12.181,-36.299 -35.676,-36.299l-86.886,0c17.879,-24.777 35.758,-49.554 53.383,-72.599l135.688,0c32.303,0 56.425,-25.212 56.425,-57.41c0,-32.198 -25.675,-57.41 -56.425,-57.41c-39.595,0 -86.655,50.706 -135.688,114.82l-140.269,0c-25.316,0.001 -35.676,20.535 -35.676,36.3c0,15.764 12.27,36.298 35.676,36.299l86.886,0l-26.787,36.948c-4.445,6.023 -8.889,12.046 -13.334,18.069l-13.262,17.581l-135.688,0Z" style="fill:url(#_Linear3);"/><path d="M374.487,538.281c0.011,0 0.019,-0.008 0.019,-0.018c0,-0.01 -0.008,-0.018 -0.019,-0.018c-0.01,0 -0.018,0.008 -0.018,0.018c0,0.01 0.008,0.018 0.018,0.018Z" style="fill:none;stroke:#000;stroke-width:0.02px;stroke-linejoin:miter;stroke-miterlimit:10;"/><path d="M374.548,538.281c-0.01,0 -0.018,-0.008 -0.018,-0.018c0,-0.01 0.008,-0.018 0.018,-0.018c0.01,0 0.018,0.008 0.018,0.018c0,0.01 -0.008,0.018 -0.018,0.018Z" style="fill:none;stroke:#000;stroke-width:0.02px;stroke-linejoin:miter;stroke-miterlimit:10;"/><path d="M374.469,538.263c-18.732,0.018 -36.624,10.389 -47.004,26.339l-22.656,-13.758c14.305,-22.097 39.154,-38.472 69.709,-38.859l122.317,0l15.34,-20.075l-37.427,0c-33.512,0 -59.927,-29.078 -59.927,-62.59c0,-27.7 18.832,-62.509 59.927,-62.509l129.704,0c3.171,-3.99 28.936,-36.83 48.624,-56.93c30.106,-30.736 62.635,-58.147 99.732,-58.147c48.608,0 82.707,42.735 82.707,84.539c0,37.141 -30.308,83.084 -80.795,82.938l-124.371,0l-15.032,19.932l36.48,0c35.831,0 60.821,31.274 60.821,63.27c0,31.997 -27.546,61.935 -59.542,61.935l-130.356,0c-1.466,4.4 -45.719,56.898 -67.138,75.491l-1.775,1.482l-23.47,-14.251c25.35,-20.944 52.298,-52.756 79.869,-88.807l140.269,0c23.316,0 35.676,-20.231 35.676,-36.299c0,-16.069 -12.181,-36.299 -35.676,-36.299l-86.886,0c17.879,-24.777 35.758,-49.554 53.383,-72.599l135.688,0c32.303,0 56.425,-25.212 56.425,-57.41c0,-32.198 -25.675,-57.41 -56.425,-57.41c-39.595,0 -86.655,50.706 -135.688,114.82l-140.269,0c-25.316,0.001 -35.676,20.535 -35.676,36.3c0,15.764 12.27,36.298 35.676,36.299l86.886,0l-26.787,36.948c-4.445,6.023 -8.889,12.046 -13.334,18.069l-13.262,17.581l-135.64,0" style="fill:none;stroke:#000;stroke-width:0.02px;"/></g><g><g><path d="M1052.81,960.471l-943,0l0,-528.035l471.5,286.311l471.5,-286.311l0,528.035Z" style="fill:none;stroke:url(#_Linear4);stroke-width:43.47px;stroke-linejoin:miter;"/><path d="M581.312,718.747l165.772,-100.662l305.728,342.386l-943,0l305.729,-342.386l165.771,100.662Z" style="fill:none;stroke:url(#_Linear5);stroke-width:43.47px;stroke-linejoin:miter;"/></g></g><defs><linearGradient id="_Linear1" x1="0" y1="0" x2="1" y2="0" gradientUnits="userSpaceOnUse" gradientTransform="matrix(3438.24,0,0,-1058.04,-2385.43,858.491)"><stop offset="0" style="stop-color:#f9cf00;stop-opacity:1"/><stop offset="1" style="stop-color:#f19f4d;stop-opacity:1"/></linearGradient><linearGradient id="_Linear2" x1="0" y1="0" x2="1" y2="0" gradientUnits="userSpaceOnUse" gradientTransform="matrix(3438.24,0,0,1058.04,-2385.43,189.727)"><stop offset="0" style="stop-color:#f9cf00;stop-opacity:1"/><stop offset="1" style="stop-color:#f19f4d;stop-opacity:1"/></linearGradient><linearGradient id="_Linear3" x1="0" y1="0" x2="1" y2="0" gradientUnits="userSpaceOnUse" gradientTransform="matrix(-552.935,432.518,-432.518,-552.935,831.356,255.077)"><stop offset="0" style="stop-color:#f9cf00;stop-opacity:1"/><stop offset="1" style="stop-color:#f19f4d;stop-opacity:1"/></linearGradient><linearGradient id="_Linear4" x1="0" y1="0" x2="1" y2="0" gradientUnits="userSpaceOnUse" gradientTransform="matrix(3438.24,0,0,1058.04,-2385.43,189.727)"><stop offset="0" style="stop-color:#f9cf00;stop-opacity:1"/><stop offset="1" style="stop-color:#f19f4d;stop-opacity:1"/></linearGradient><linearGradient id="_Linear5" x1="0" y1="0" x2="1" y2="0" gradientUnits="userSpaceOnUse" gradientTransform="matrix(3438.24,0,0,1058.04,-2385.43,189.727)"><stop offset="0" style="stop-color:#f9cf00;stop-opacity:1"/><stop offset="1" style="stop-color:#f19f4d;stop-opacity:1"/></linearGradient></defs></svg>