<?xml version="1.0" encoding="UTF-8" standalone="no"?><!DOCTYPE svg PUBLIC "-//W3C//DTD SVG 1.1//EN" "http://www.w3.org/Graphics/SVG/1.1/DTD/svg11.dtd"><svg width="100%" height="100%" viewBox="0 0 1163 1011" version="1.1" xmlns="http://www.w3.org/2000/svg" xmlns:xlink="http://www.w3.org/1999/xlink" xml:space="preserve" xmlns:serif="http://www.serif.com/" style="fill-rule:evenodd;clip-rule:evenodd;stroke-linecap:round;stroke-miterlimit:10;"><rect id="Consignment" x="0" y="0" width="1162.63" height="1010.58" style="fill:none;"/><path d="M940.396,968l-760,0l0,-702l760,0l0,702Zm-418,-99l0,-180l-249,0l0,180l249,0Zm-107,-143l0,36l-105,0l0,-36l105,0Zm261,-446l-234,0l0,231.289c8.571,-7.26 16.802,-14.905 24.952,-22.632c6.532,-6.195 13,-12.46 19.638,-18.543c3.578,-3.28 7.203,-6.521 11.007,-9.539c0.903,-0.717 1.817,-1.42 2.747,-2.101c0.109,-0.08 0.219,-0.16 0.329,-0.239c0.109,-0.079 0.218,-0.314 0.327,-0.235c0.807,0.589 1.45,1.375 2.176,2.062c0.71,0.671 1.419,1.342 2.129,2.012c3.331,3.143 6.672,6.275 10.027,9.393c9.326,8.668 18.769,17.21 28.33,25.618c4.164,3.662 8.348,7.302 12.543,10.929c0.023,0.02 3.789,3.274 3.795,3.275c0.007,0.002 2.15,-1.905 2.161,-1.916c2.719,-2.426 5.406,-4.888 8.058,-7.387c5.212,-4.912 10.285,-9.969 15.238,-15.142c4.655,-4.862 9.198,-9.828 13.748,-14.788c2.473,-2.696 4.951,-5.388 7.468,-8.044c0.613,-0.646 1.227,-1.289 1.844,-1.93c0.205,-0.213 0.325,-0.692 0.615,-0.637c0.638,0.119 1.089,0.704 1.632,1.057c1.099,0.713 2.197,1.426 3.294,2.142c4.349,2.84 8.675,5.714 12.955,8.658c7.92,5.448 15.675,11.133 23.275,17.019c8.745,6.773 17.285,13.804 25.712,20.968l0,-231.289Z" style="fill:url(#_Linear1);"/><g><path d="M765.137,654.847c2.084,-2.623 19.023,-24.212 31.965,-37.426c19.792,-20.206 41.177,-38.227 65.564,-38.227c31.956,0 54.372,28.095 54.372,55.577c0,24.417 -19.924,54.62 -53.115,54.524c-19.027,-0.056 -81.761,0 -81.761,0l-9.882,13.103l23.981,0c23.556,0 39.984,20.56 39.984,41.594c0,21.035 -18.108,40.716 -39.143,40.716l-85.696,0c-0.964,2.893 -30.056,37.405 -44.137,49.628c-17.258,14.981 -34.76,26.006 -53.292,26.006c-35.151,0 -54.581,-29.433 -54.581,-55.941c0,-26.508 22.509,-53.71 54.581,-54.117l80.412,0l10.085,-13.197l-24.605,0c-22.031,0 -39.396,-19.116 -39.396,-41.147c0,-18.209 12.38,-41.093 39.396,-41.093l85.268,0Zm97.432,17.26c21.236,0 37.094,-16.574 37.094,-37.742c0,-21.167 -16.879,-37.741 -37.094,-37.741c-26.03,0 -56.967,33.334 -89.202,75.483l-92.213,0c-16.643,0 -23.453,13.499 -23.453,23.863c0,10.364 8.066,23.863 23.453,23.864l57.119,0c-11.754,16.288 -23.507,32.576 -35.094,47.726l-89.202,0c-19.214,0 -37.094,16.574 -37.094,37.742c0,21.167 16.742,37.741 37.094,37.741c26.03,0 56.968,-33.334 89.202,-75.483l92.213,0c15.328,0 23.454,-13.3 23.454,-23.863c0,-10.564 -8.008,-23.863 -23.454,-23.863l-57.119,0c11.754,-16.289 23.508,-32.577 35.094,-47.727l89.202,0Z" style="fill:url(#_Linear2);"/><path d="M765.141,654.812c-0.006,0.007 -0.005,0.019 0.003,0.025c0.008,0.006 0.02,0.005 0.026,-0.003c0.006,-0.008 0.005,-0.019 -0.003,-0.025c-0.008,-0.007 -0.019,-0.005 -0.026,0.003Z" style="fill:none;stroke:#000;stroke-width:0.02px;"/><path d="M862.6,672.089c-0.01,0 -0.019,0.008 -0.019,0.018c0,0.01 0.009,0.018 0.019,0.018c0.01,0 0.018,-0.008 0.018,-0.018c0,-0.01 -0.008,-0.018 -0.018,-0.018Z" style="fill:none;stroke:#000;stroke-width:0.02px;"/><circle cx="765.106" cy="654.847" r="0.018" style="fill:none;stroke:#000;stroke-width:0.02px;"/><circle cx="862.539" cy="672.107" r="0.018" style="fill:none;stroke:#000;stroke-width:0.02px;"/><path d="M765.167,654.809c2.212,-2.787 19.053,-24.236 31.935,-37.388c19.792,-20.206 41.177,-38.227 65.564,-38.227c31.956,0 54.372,28.095 54.372,55.577c0,24.417 -19.924,54.62 -53.115,54.524c-19.027,-0.056 -81.761,0 -81.761,0l-9.882,13.103l23.981,0c23.556,0 39.984,20.56 39.984,41.594c0,21.035 -18.108,40.716 -39.143,40.716l-85.696,0c-0.964,2.893 -30.056,37.405 -44.137,49.628c-17.258,14.981 -34.76,26.006 -53.292,26.006c-35.151,0 -54.581,-29.433 -54.581,-55.941c0,-26.508 22.509,-53.71 54.581,-54.117l80.412,0l10.085,-13.197l-24.605,0c-22.031,0 -39.396,-19.116 -39.396,-41.147c0,-18.209 12.38,-41.093 39.396,-41.093l85.219,0m97.53,17.26c21.211,-0.025 37.045,-16.591 37.045,-37.742c0,-21.167 -16.879,-37.741 -37.094,-37.741c-26.03,0 -56.967,33.334 -89.202,75.483l-92.213,0c-16.643,0 -23.453,13.499 -23.453,23.863c0,10.364 8.066,23.863 23.453,23.864l57.119,0c-11.754,16.288 -23.507,32.576 -35.094,47.726l-89.202,0c-19.214,0 -37.094,16.574 -37.094,37.742c0,21.167 16.742,37.741 37.094,37.741c26.03,0 56.968,-33.334 89.202,-75.483l92.213,0c15.328,0 23.454,-13.3 23.454,-23.863c0,-10.564 -8.008,-23.863 -23.454,-23.863l-57.119,0c11.754,-16.289 23.508,-32.577 35.094,-47.727l89.154,0" style="fill:none;stroke:#000;stroke-width:0.02px;stroke-linejoin:round;stroke-miterlimit:1.5;"/></g><path d="M940.396,257l-264,-1l-42,-214l-74,0l9.766,215l-23.766,0l8,-215l-73,0l-39,215l-262,0l95.624,-215l568.751,0l95.625,215Z" style="fill:url(#_Linear3);"/><defs><linearGradient id="_Linear1" x1="0" y1="0" x2="1" y2="0" gradientUnits="userSpaceOnUse" gradientTransform="matrix(667,917,-1106.43,804.788,273.396,51)"><stop offset="0" style="stop-color:#f3aa3b;stop-opacity:1"/><stop offset="0.43" style="stop-color:#eda435;stop-opacity:1"/><stop offset="1" style="stop-color:#bf7300;stop-opacity:1"/></linearGradient><linearGradient id="_Linear2" x1="0" y1="0" x2="1" y2="0" gradientUnits="userSpaceOnUse" gradientTransform="matrix(-363.501,284.339,-284.339,-363.501,914.304,581.392)"><stop offset="0" style="stop-color:#f9cf00;stop-opacity:1"/><stop offset="1" style="stop-color:#f19f4d;stop-opacity:1"/></linearGradient><linearGradient id="_Linear3" x1="0" y1="0" x2="1" y2="0" gradientUnits="userSpaceOnUse" gradientTransform="matrix(675,-917,259.414,190.954,180.396,959)"><stop offset="0" style="stop-color:#f3aa3b;stop-opacity:1"/><stop offset="0.66" style="stop-color:#eda435;stop-opacity:1"/><stop offset="1" style="stop-color:#bf7300;stop-opacity:1"/></linearGradient></defs></svg>