<?xml version="1.0" encoding="UTF-8" standalone="no"?><!DOCTYPE svg PUBLIC "-//W3C//DTD SVG 1.1//EN" "http://www.w3.org/Graphics/SVG/1.1/DTD/svg11.dtd"><svg width="100%" height="100%" viewBox="0 0 1163 1011" version="1.1" xmlns="http://www.w3.org/2000/svg" xmlns:xlink="http://www.w3.org/1999/xlink" xml:space="preserve" xmlns:serif="http://www.serif.com/" style="fill-rule:evenodd;clip-rule:evenodd;stroke-linejoin:round;stroke-miterlimit:2;"><rect id="Present" x="0" y="0" width="1162.63" height="1010.58" style="fill:none;"/><g><path d="M526.81,377.966l-427.722,0c-17.17,0 -31.088,13.918 -31.088,31.087c0,26.524 0,65.299 0,97.08c0,30.474 24.704,55.177 55.177,55.177l403.633,0l0,-183.344Z" style="fill:#f3aa3b;"/><path d="M527.649,627.46l-392.833,0c-6.966,0 -13.647,2.767 -18.573,7.693c-4.926,4.926 -7.693,11.606 -7.693,18.573c0,64.854 0,232.356 0,302.001c0,17.17 13.918,31.088 31.088,31.088l388.011,0l0,-359.355Z" style="fill:#f3aa3b;"/><path d="M619.19,377.966l427.722,0c17.169,0 31.088,13.918 31.088,31.087c0,23.881 0,57.694 0,87.391c0,17.204 -6.834,33.703 -18.999,45.867c-12.165,12.165 -28.664,18.999 -45.867,18.999l-393.944,0l0,-183.344Z" style="fill:#f3aa3b;"/><g><path d="M620.028,627.46l392.833,0c6.966,0 13.647,2.767 18.573,7.693c4.926,4.926 7.693,11.606 7.693,18.573c0,64.854 0,232.356 0,302.001c0,17.17 -13.918,31.088 -31.088,31.088l-388.011,0l0,-359.355Z" style="fill:#f3aa3b;"/></g><path d="M535.371,363.666l-23.553,-31.231c0,0 -164.249,-0.145 -214.065,0c-86.899,0.252 -139.064,-78.825 -139.064,-142.752c0,-71.953 58.69,-145.508 142.355,-145.508c63.851,0 119.839,47.179 171.657,100.083c33.499,34.201 77.223,89.833 83.489,97.732l35.095,0c5.457,-6.867 49.805,-63.391 83.691,-97.987c51.818,-52.903 107.806,-100.083 171.657,-100.083c83.665,0 142.355,73.555 142.355,145.508c0,63.927 -52.165,143.004 -139.064,142.752c-49.816,-0.144 -214.065,0 -214.065,0l-23.746,31.486l-76.742,0Zm-0.528,-76.231c12.9,16.867 25.878,34.272 38.902,51.988c13.021,-17.714 25.997,-35.12 38.894,-51.988l-77.796,0c-84.396,-110.352 -165.394,-197.628 -233.545,-197.628c-52.927,0 -97.118,43.395 -97.118,98.814c0,55.419 41.518,98.813 97.118,98.814l233.545,0Zm77.949,-0.254l0.005,0.048l0.037,-0.048l233.545,0c55.599,-0.001 97.118,-43.395 97.118,-98.814c0,-55.42 -44.191,-98.815 -97.118,-98.815c-68.151,0 -149.149,87.275 -233.545,197.629l-0.042,0Z" style="fill:url(#_Linear1);"/></g><defs><linearGradient id="_Linear1" x1="0" y1="0" x2="1" y2="0" gradientUnits="userSpaceOnUse" gradientTransform="matrix(-1193.98,898.835,-898.835,-1193.98,1133.64,259.881)"><stop offset="0" style="stop-color:#f9cf00;stop-opacity:1"/><stop offset="1" style="stop-color:#f19f4d;stop-opacity:1"/></linearGradient></defs></svg>