<?xml version="1.0" encoding="UTF-8" standalone="no"?><!DOCTYPE svg PUBLIC "-//W3C//DTD SVG 1.1//EN" "http://www.w3.org/Graphics/SVG/1.1/DTD/svg11.dtd"><svg width="100%" height="100%" viewBox="0 0 290 174" version="1.1" xmlns="http://www.w3.org/2000/svg" xmlns:xlink="http://www.w3.org/1999/xlink" xml:space="preserve" xmlns:serif="http://www.serif.com/" style="fill-rule:evenodd;clip-rule:evenodd;stroke-linejoin:round;stroke-miterlimit:2;"><path d="M174.317,86.835l111.519,83.335l-39.446,0c-12.767,0 -25.096,-3.95 -34.677,-11.11c-23.608,-17.642 -67.025,-50.089 -67.025,-50.089c0,0 -43.45,32.455 -67.066,50.096c-9.58,7.156 -21.905,11.103 -34.668,11.103l-39.454,0l111.559,-83.335l-111.559,-83.335l39.454,0c12.763,0 25.088,3.947 34.668,11.103c23.616,17.641 67.066,50.096 67.066,50.096c0,0 43.417,-32.447 67.025,-50.089c9.581,-7.16 21.91,-11.11 34.677,-11.11l39.446,0l-111.519,83.335Z" style="fill:#8a0000;fill-rule:nonzero;stroke:#fff;stroke-width:7px;"/></svg>