<?xml version="1.0" encoding="UTF-8" standalone="no"?>
<!DOCTYPE svg PUBLIC "-//W3C//DTD SVG 1.1//EN" "http://www.w3.org/Graphics/SVG/1.1/DTD/svg11.dtd">
<svg width="100%" height="100%" viewBox="0 0 601 312" version="1.1" xmlns="http://www.w3.org/2000/svg" xmlns:xlink="http://www.w3.org/1999/xlink" xml:space="preserve" xmlns:serif="http://www.serif.com/" style="fill-rule:evenodd;clip-rule:evenodd;stroke-linejoin:round;stroke-miterlimit:2;">
    <g transform="matrix(1,0,0,1,-3639.52,-1168.37)">
        <g transform="matrix(0.681342,0,0,0.630332,3581.43,1254.79)">
            <g transform="matrix(0.0555942,-0.429747,0.916219,0.138486,262.357,327.969)">
                <g transform="matrix(3.65605,0,0,1.58646,-13093,-1990.69)">
                    <path d="M3693,1644C3691.73,1629.9 3681.53,1576.9 3680,1568C3671.52,1557.19 3661.43,1543.26 3666,1518C3670.57,1492.74 3680.45,1486.03 3693,1478C3705.55,1469.98 3744,1450 3744,1450C3742.2,1439.79 3733,1387 3733,1387C3715.85,1394.51 3645.26,1429.79 3630,1450C3614.74,1470.21 3599.32,1494.27 3602,1537C3604.68,1579.73 3631.18,1611.33 3645,1622C3658.83,1632.67 3681.41,1645.02 3693,1644Z" style="fill:url(#_Linear1);"/>
                </g>
                <g transform="matrix(3.65605,0,0,1.58646,-13093,-1990.69)">
                    <path d="M3743,1470C3744.2,1484.38 3774.51,1662.54 3778,1679C3781.49,1695.46 3771.16,1710.26 3758,1714C3744.84,1717.74 3721.18,1715.85 3716,1689C3710.82,1662.15 3686.98,1516.19 3685,1504C3697.16,1494.44 3732,1473 3743,1470Z" style="fill:url(#_Linear2);"/>
                </g>
                <g transform="matrix(3.65605,0,0,1.58646,-13093,-1990.69)">
                    <path d="M3732,1288C3734.56,1279 3746,1268 3759,1266C3770.88,1264.17 3787.45,1271.51 3792,1276C3794.16,1284.99 3828.64,1480.01 3832,1499C3835.36,1517.99 3834.2,1566.63 3824,1584C3813.8,1601.37 3799.73,1624.98 3787,1628C3782.66,1605.56 3773.12,1546.71 3771,1539C3771.87,1528.3 3767.81,1499.18 3764,1479C3760.19,1458.82 3732.73,1294.01 3732,1288Z" style="fill:url(#_Linear3);"/>
                </g>
                <g transform="matrix(3.65605,0,0,1.58646,-13093,-1990.69)">
                    <path d="M3712,1182C3725,1174 3762.31,1170.13 3772.6,1171.54C3771.2,1157.03 3768.22,1145.62 3766,1133C3763,1116 3740.87,1110.49 3731,1112C3721.13,1113.51 3702.69,1129.31 3705,1142C3707,1153 3710.83,1174.68 3712,1182Z" style="fill:url(#_Linear4);"/>
                </g>
                <g transform="matrix(3.65605,0,0,1.58646,-13093,-1990.69)">
                    <path d="M3668,1402L3725,1374C3722.61,1362.65 3714,1306 3714,1306C3711,1288 3722,1254 3754,1251C3787.01,1247.9 3810.43,1267.72 3815,1280C3819.57,1292.28 3825.04,1319.18 3818,1328C3820.7,1340.57 3826.75,1385.7 3832,1407C3852.97,1391.24 3861.62,1379.66 3870,1365C3886,1337 3895.89,1268.55 3849,1223C3814,1189 3769.74,1185.42 3742,1190C3714.26,1194.58 3672.32,1222.6 3662,1251C3651.68,1279.4 3648.47,1304.07 3653,1328C3657.53,1351.93 3668,1402 3668,1402Z" style="fill:url(#_Linear5);"/>
                </g>
            </g>
        </g>
    </g>
    <defs>
        <linearGradient id="_Linear1" x1="0" y1="0" x2="1" y2="0" gradientUnits="userSpaceOnUse" gradientTransform="matrix(223,-390,836.146,478.104,3639,1621)"><stop offset="0" style="stop-color:rgb(249,207,0);stop-opacity:1"/><stop offset="1" style="stop-color:rgb(241,159,77);stop-opacity:1"/></linearGradient>
        <linearGradient id="_Linear2" x1="0" y1="0" x2="1" y2="0" gradientUnits="userSpaceOnUse" gradientTransform="matrix(223,-390,836.146,478.104,3639,1621)"><stop offset="0" style="stop-color:rgb(249,207,0);stop-opacity:1"/><stop offset="1" style="stop-color:rgb(241,159,77);stop-opacity:1"/></linearGradient>
        <linearGradient id="_Linear3" x1="0" y1="0" x2="1" y2="0" gradientUnits="userSpaceOnUse" gradientTransform="matrix(223,-390,836.146,478.104,3639,1621)"><stop offset="0" style="stop-color:rgb(249,207,0);stop-opacity:1"/><stop offset="1" style="stop-color:rgb(241,159,77);stop-opacity:1"/></linearGradient>
        <linearGradient id="_Linear4" x1="0" y1="0" x2="1" y2="0" gradientUnits="userSpaceOnUse" gradientTransform="matrix(223,-390,836.146,478.104,3639,1621)"><stop offset="0" style="stop-color:rgb(249,207,0);stop-opacity:1"/><stop offset="1" style="stop-color:rgb(241,159,77);stop-opacity:1"/></linearGradient>
        <linearGradient id="_Linear5" x1="0" y1="0" x2="1" y2="0" gradientUnits="userSpaceOnUse" gradientTransform="matrix(223,-390,836.146,478.104,3639,1621)"><stop offset="0" style="stop-color:rgb(249,207,0);stop-opacity:1"/><stop offset="1" style="stop-color:rgb(241,159,77);stop-opacity:1"/></linearGradient>
    </defs>
</svg>
