<?xml version="1.0" encoding="UTF-8" standalone="no"?>
<!DOCTYPE svg PUBLIC "-//W3C//DTD SVG 1.1//EN" "http://www.w3.org/Graphics/SVG/1.1/DTD/svg11.dtd">
<svg viewBox="0 0 750 587" xmlns="http://www.w3.org/2000/svg" fill-rule="evenodd" clip-rule="evenodd" stroke-linejoin="round" stroke-miterlimit="2">
  <path fill="none" d="M0 .004h749.749v586.348H-.001z"/>
  <path d="M433.279 158.622c4.293-5.403 39.187-49.877 65.849-77.098C539.898 39.899 583.95 2.778 634.19 2.778c65.828 0 112.006 57.874 112.006 114.488 0 50.298-41.044 112.516-109.417 112.318-39.196-.113-168.43 0-168.43 0l-20.356 26.994h49.402c48.525 0 82.367 42.353 82.367 85.684 0 43.33-37.303 83.875-80.634 83.875H322.593c-1.986 5.958-61.915 77.054-90.923 102.234-35.551 30.86-71.604 53.572-109.78 53.572-72.412 0-112.439-60.632-112.439-115.24 0-54.606 46.37-110.643 112.438-111.48h165.648l20.776-27.186h-50.686c-45.384 0-81.157-39.38-81.157-84.762 0-37.512 25.503-84.653 81.157-84.653h175.652zm200.71 35.556c43.747 0 76.414-34.143 76.414-77.748 0-43.605-34.77-77.748-76.413-77.748-53.622 0-117.353 68.67-183.756 155.496H260.275c-34.286 0-48.315 27.809-48.315 49.158 0 21.35 16.617 49.158 48.315 49.159H377.94c-24.213 33.554-48.426 67.108-72.295 98.316H121.889c-39.582 0-76.413 34.144-76.413 77.748 0 43.605 34.487 77.749 76.413 77.749 53.623 0 117.353-68.67 183.756-155.497h189.96c31.576 0 48.314-27.397 48.314-49.158 0-21.761-16.495-49.158-48.314-49.158H377.94c24.213-33.554 48.426-67.108 72.294-98.317H633.99z"/>
</svg>