<?xml version="1.0" encoding="UTF-8" standalone="no"?>
<!DOCTYPE svg PUBLIC "-//W3C//DTD SVG 1.1//EN" "http://www.w3.org/Graphics/SVG/1.1/DTD/svg11.dtd">
<svg width="100%" height="100%" viewBox="0 0 737 580" version="1.1" xmlns="http://www.w3.org/2000/svg" xmlns:xlink="http://www.w3.org/1999/xlink" xml:space="preserve" xmlns:serif="http://www.serif.com/" style="fill-rule:evenodd;clip-rule:evenodd;stroke-linejoin:round;stroke-miterlimit:2">
  <defs>
    <linearGradient id="flexLG" x1="100%" y1="0%" x2="0%" y2="100%">
      <stop offset="0%" style="stop-color:#f9cf00"/>
      <stop offset="100%" style="stop-color:#f19e4d"/>
    </linearGradient>
  </defs>
  <path  d="M423.828,155.844c4.293,-5.403 39.187,-49.877 65.849,-77.097c40.771,-41.625 84.823,-78.747 135.062,-78.747c65.828,0 112.007,57.874 112.007,114.488c0,50.298 -41.045,112.517 -109.418,112.319c-39.195,-0.114 -168.429,0 -168.429,0l-20.357,26.993l49.402,0c48.525,0 82.367,42.353 82.367,85.684c0,43.331 -37.303,83.875 -80.634,83.875l-176.534,0c-1.987,5.959 -61.916,77.054 -90.923,102.234c-35.552,30.86 -71.605,53.572 -109.781,53.572c-72.412,0 -112.439,-60.632 -112.439,-115.239c0,-54.606 46.369,-110.643 112.439,-111.48l165.648,0l20.775,-27.186l-50.686,0c-45.384,-0.001 -81.156,-39.379 -81.156,-84.763c0,-37.512 25.502,-84.653 81.156,-84.653l175.652,0Zm200.711,35.557c43.746,-0.001 76.414,-34.144 76.414,-77.749c0,-43.604 -34.77,-77.748 -76.414,-77.748c-53.622,0 -117.353,68.67 -183.756,155.497l-189.959,0c-34.285,0 -48.315,27.808 -48.315,49.158c0,21.349 16.617,49.158 48.315,49.158l117.665,0c-24.213,33.554 -48.426,67.108 -72.294,98.317l-183.756,0c-39.582,0 -76.414,34.143 -76.414,77.748c0,43.604 34.487,77.748 76.414,77.748c53.622,0 117.353,-68.67 183.756,-155.496l189.959,0c31.576,-0.001 48.314,-27.398 48.314,-49.159c0,-21.761 -16.495,-49.158 -48.314,-49.158l-117.665,0c24.213,-33.554 48.426,-67.108 72.294,-98.316l183.756,0Z"  fill="url(#flexLG)"/>
</svg>
