<?xml version="1.0" encoding="UTF-8" standalone="no"?>
<!DOCTYPE svg PUBLIC "-//W3C//DTD SVG 1.1//EN" "http://www.w3.org/Graphics/SVG/1.1/DTD/svg11.dtd">
<svg width="100%" height="100%" viewBox="0 0 1023 970" version="1.1" xmlns="http://www.w3.org/2000/svg" xmlns:xlink="http://www.w3.org/1999/xlink" xml:space="preserve" xmlns:serif="http://www.serif.com/" style="fill-rule:evenodd;clip-rule:evenodd;stroke-linecap:round;stroke-miterlimit:10;">
    <g transform="matrix(1,0,0,1,-8037.49,-6550)">
        <g transform="matrix(0.908599,0,0,1.00355,8020.94,6793.24)">
            <g transform="matrix(0.946647,0,0,1.18324,23.4368,-53.436)">
                <g transform="matrix(0.860342,0,0,0.627582,-6750.36,-4111.79)">
                    <rect x="8085" y="6763" width="900" height="836" style="fill:url(#_Linear1);"/>
                </g>
                <g transform="matrix(0.403832,0,0,0.86212,-3432.86,-5690.92)">
                    <path d="M9240.13,6562.38L8851.27,6418.78L8487.06,6565.31L8991.2,6743.09L9240.13,6562.38Z" style="fill:url(#_Linear2);"/>
                </g>
                <g transform="matrix(-0.399158,0,0,0.86212,4570.95,-5693.44)">
                    <path d="M9238.22,6565.31L8851.27,6418.78L8487.06,6565.31L8973.67,6746.02L9238.22,6565.31Z" style="fill:url(#_Linear3);"/>
                </g>
                <g transform="matrix(1.16262,0,0,0.842148,-9350.1,-5675.75)">
                    <path d="M8798,6704L8302.26,6704L8221,6889L8883.25,6889L8798,6704Z" style="fill:url(#_Linear4);"/>
                </g>
                <g transform="matrix(0.49278,0,0,0.359229,574.059,361.038)">
                    <g>
                        <path d="M456.672,166.916C460.965,161.513 495.859,117.039 522.521,89.818C563.292,48.193 607.344,11.072 657.583,11.072C723.411,11.072 769.589,68.946 769.589,125.56C769.589,175.858 728.545,238.076 660.172,237.878C620.976,237.765 491.743,237.878 491.743,237.878L471.386,264.872L520.788,264.872C569.313,264.872 603.155,307.225 603.155,350.556C603.155,393.887 565.852,434.431 522.521,434.431L345.986,434.431C344,440.389 284.071,511.485 255.063,536.665C219.512,567.525 183.459,590.237 145.282,590.237C72.871,590.237 32.844,529.605 32.844,474.998C32.844,420.391 79.213,364.354 145.282,363.518L310.93,363.518L331.706,336.331L281.02,336.331C235.636,336.331 199.863,296.952 199.863,251.569C199.863,214.057 225.366,166.916 281.02,166.916L456.672,166.916ZM657.383,202.472C701.129,202.472 733.796,168.329 733.796,124.724C733.796,81.119 699.026,46.976 657.383,46.976C603.761,46.976 540.03,115.646 473.627,202.472L283.668,202.472C249.382,202.473 235.353,230.281 235.353,251.63C235.353,272.98 251.97,300.788 283.668,300.789L401.333,300.789C377.12,334.343 352.907,367.897 329.038,399.105L145.282,399.105C105.7,399.106 68.869,433.249 68.869,476.853C68.869,520.458 103.356,554.602 145.282,554.602C198.905,554.602 262.635,485.932 329.038,399.105L518.998,399.105C550.574,399.105 567.312,371.708 567.312,349.947C567.312,328.186 550.817,300.789 518.998,300.789L401.333,300.789C425.546,267.235 449.759,233.681 473.627,202.472L657.383,202.472Z" style="fill:url(#_Linear5);"/>
                        <g transform="matrix(2.35932,-0,-0,2.34432,-1176.13,-1449.54)">
                            <path d="M692.07,689.486C692.064,689.494 692.066,689.505 692.073,689.511C692.081,689.518 692.093,689.516 692.099,689.508C692.105,689.5 692.104,689.489 692.096,689.483C692.088,689.476 692.077,689.478 692.07,689.486Z" style="fill:none;stroke:black;stroke-width:0.02px;"/>
                            <path d="M777.168,704.67C777.158,704.67 777.15,704.678 777.15,704.688C777.15,704.698 777.158,704.706 777.168,704.706C777.178,704.706 777.186,704.698 777.186,704.688C777.186,704.678 777.178,704.67 777.168,704.67Z" style="fill:none;stroke:black;stroke-width:0.02px;"/>
                            <circle cx="692.035" cy="689.521" r="0.018" style="fill:none;stroke:black;stroke-width:0.02px;"/>
                            <circle cx="777.107" cy="704.688" r="0.018" style="fill:none;stroke:black;stroke-width:0.02px;"/>
                            <path d="M692.096,689.483C694.043,687.015 708.735,668.184 719.976,656.634C737.257,638.878 755.929,623.044 777.222,623.044C805.124,623.044 824.696,647.731 824.696,671.88C824.696,693.335 807.3,719.875 778.32,719.791C761.707,719.742 706.931,719.791 706.931,719.791L698.303,731.305L719.242,731.305C739.809,731.305 754.153,749.371 754.153,767.855C754.153,786.338 738.342,803.633 719.976,803.633L645.152,803.633C644.31,806.174 618.909,836.501 606.614,847.242C591.545,860.406 576.264,870.094 560.083,870.094C529.392,870.094 512.426,844.23 512.426,820.937C512.426,797.644 532.08,773.741 560.083,773.384L630.293,773.384L639.099,761.787L617.616,761.787C598.38,761.787 583.217,744.99 583.217,725.631C583.217,709.629 594.027,689.521 617.616,689.521L692.017,689.521M777.186,704.688C795.704,704.662 809.526,690.107 809.526,671.524C809.526,652.923 794.788,638.359 777.138,638.359C754.41,638.359 727.397,667.651 699.252,704.688L618.738,704.688C604.206,704.688 598.26,716.55 598.26,725.657C598.26,734.764 605.303,746.626 618.738,746.626L668.61,746.626C658.348,760.939 648.085,775.252 637.968,788.564L560.083,788.564C543.306,788.564 527.695,803.129 527.695,821.729C527.695,840.329 542.313,854.893 560.083,854.893C582.811,854.893 609.823,825.601 637.968,788.564L718.483,788.564C731.867,788.564 738.961,776.878 738.961,767.595C738.961,758.313 731.969,746.626 718.483,746.626L668.61,746.626C678.873,732.313 689.136,718 699.252,704.688L777.089,704.688" style="fill:none;stroke:black;stroke-width:0.02px;stroke-linejoin:round;stroke-miterlimit:1.5;"/>
                        </g>
                    </g>
                </g>
                <g transform="matrix(1.01513,0,0,0.740013,-2509.96,-1311.26)">
                    <path d="M2675,2049.04L2713.82,2049.04C2715.9,2046.41 2732.84,2024.82 2745.78,2011.61C2765.58,1991.4 2786.96,1973.38 2811.35,1973.38C2843.3,1973.38 2865.72,2001.48 2865.72,2028.96C2865.72,2053.38 2845.8,2083.58 2812.61,2083.48C2793.58,2083.43 2730.84,2083.48 2730.84,2083.48L2720.96,2096.59L2744.94,2096.59C2768.5,2096.59 2784.93,2117.15 2784.93,2138.18C2784.93,2159.22 2766.82,2178.9 2745.78,2178.9L2675,2178.9L2675,2161.75L2744.07,2161.75C2759.4,2161.75 2767.53,2148.45 2767.53,2137.89C2767.53,2127.32 2759.52,2114.02 2744.07,2114.02L2686.95,2114.02C2698.71,2097.74 2710.46,2081.45 2722.05,2066.3L2811.25,2066.3C2832.49,2066.3 2848.35,2049.72 2848.35,2028.56C2848.35,2007.39 2831.47,1990.81 2811.25,1990.81C2785.22,1990.81 2754.28,2024.15 2722.05,2066.3L2675,2066.3L2675,2049.04ZM2675,2130.55L2675,2114.02L2686.95,2114.02C2682.97,2119.55 2678.98,2125.07 2675,2130.55Z" style="fill:url(#_Linear6);"/>
                </g>
            </g>
        </g>
    </g>
    <defs>
        <linearGradient id="_Linear1" x1="0" y1="0" x2="1" y2="0" gradientUnits="userSpaceOnUse" gradientTransform="matrix(883.784,815.872,-768.574,820.937,8101.22,6776.42)"><stop offset="0" style="stop-color:rgb(243,170,59);stop-opacity:1"/><stop offset="0.43" style="stop-color:rgb(237,164,53);stop-opacity:1"/><stop offset="1" style="stop-color:rgb(191,115,0);stop-opacity:1"/></linearGradient>
        <linearGradient id="_Linear2" x1="0" y1="0" x2="1" y2="0" gradientUnits="userSpaceOnUse" gradientTransform="matrix(380.403,206.594,-785.333,166.473,8629.21,6508.06)"><stop offset="0" style="stop-color:rgb(243,170,59);stop-opacity:1"/><stop offset="1" style="stop-color:rgb(191,115,0);stop-opacity:1"/></linearGradient>
        <linearGradient id="_Linear3" x1="0" y1="0" x2="1" y2="0" gradientUnits="userSpaceOnUse" gradientTransform="matrix(-590.946,-56.5713,220.113,-258.612,9238.22,6582.4)"><stop offset="0" style="stop-color:rgb(243,170,59);stop-opacity:1"/><stop offset="1" style="stop-color:rgb(191,115,0);stop-opacity:1"/></linearGradient>
        <linearGradient id="_Linear4" x1="0" y1="0" x2="1" y2="0" gradientUnits="userSpaceOnUse" gradientTransform="matrix(-6.08175,-405.61,116.152,-1.74159,8556,6980)"><stop offset="0" style="stop-color:black;stop-opacity:1"/><stop offset="1" style="stop-color:rgb(241,159,77);stop-opacity:1"/></linearGradient>
        <linearGradient id="_Linear5" x1="0" y1="0" x2="1" y2="0.00617899" gradientUnits="userSpaceOnUse" gradientTransform="matrix(-748.814,585.739,-585.739,-748.814,763.957,15.5995)"><stop offset="0" style="stop-color:rgb(249,207,0);stop-opacity:1"/><stop offset="1" style="stop-color:rgb(241,159,77);stop-opacity:1"/></linearGradient>
        <linearGradient id="_Linear6" x1="0" y1="0" x2="1" y2="0.0049845" gradientUnits="userSpaceOnUse" gradientTransform="matrix(-289.5,206.289,-248.904,-349.305,2857.5,1991)"><stop offset="0" style="stop-color:rgb(249,207,0);stop-opacity:1"/><stop offset="1" style="stop-color:rgb(241,159,77);stop-opacity:1"/></linearGradient>
    </defs>
</svg>
