<?xml version="1.0" encoding="UTF-8" standalone="no"?><!DOCTYPE svg PUBLIC "-//W3C//DTD SVG 1.1//EN" "http://www.w3.org/Graphics/SVG/1.1/DTD/svg11.dtd"><svg width="100%" height="100%" viewBox="0 0 3940 1011" version="1.1" xmlns="http://www.w3.org/2000/svg" xmlns:xlink="http://www.w3.org/1999/xlink" xml:space="preserve" xmlns:serif="http://www.serif.com/" style="fill-rule:evenodd;clip-rule:evenodd;stroke-linecap:round;stroke-miterlimit:10;"><rect id="origin-dest" x="0" y="0" width="3939.55" height="1010.58" style="fill:none;"/><g><path d="M532.069,979.115l-478.337,0l0,-441.833l478.337,0l0,441.833Zm-263.085,-62.31l0,-113.29l-156.718,0l0,113.29l156.718,0Zm-67.345,-90.003l0,22.658l-66.086,0l0,-22.658l66.086,0Zm164.271,-280.708l-147.277,0l0,145.571c5.395,-4.57 10.575,-9.381 15.704,-14.245c4.112,-3.898 8.183,-7.842 12.36,-11.67c2.253,-2.064 4.534,-4.104 6.928,-6.004c0.569,-0.451 1.144,-0.893 1.729,-1.322c0.069,-0.05 0.138,-0.101 0.207,-0.151c0.069,-0.049 0.138,-0.197 0.206,-0.148c0.508,0.371 0.913,0.866 1.37,1.298c0.446,0.423 0.893,0.845 1.34,1.267c2.096,1.978 4.199,3.949 6.31,5.911c5.87,5.456 11.813,10.832 17.831,16.124c2.621,2.305 5.255,4.596 7.895,6.879c0.014,0.012 2.384,2.06 2.388,2.061c0.005,0.001 1.353,-1.199 1.361,-1.206c1.711,-1.527 3.402,-3.077 5.071,-4.649c3.28,-3.092 6.473,-6.275 9.591,-9.531c2.929,-3.059 5.789,-6.185 8.652,-9.307c1.557,-1.697 3.117,-3.391 4.701,-5.063c0.385,-0.406 0.772,-0.811 1.161,-1.215c0.128,-0.133 0.204,-0.435 0.387,-0.401c0.401,0.076 0.685,0.444 1.027,0.666c0.691,0.449 1.383,0.898 2.073,1.348c2.737,1.787 5.46,3.597 8.154,5.449c4.985,3.429 9.866,7.007 14.649,10.712c5.504,4.263 10.879,8.688 16.182,13.197l0,-145.571Z" style="fill:url(#_Linear1);"/><g><path d="M421.763,782.019c1.312,-1.651 11.973,-15.239 20.119,-23.556c12.457,-12.717 25.916,-24.059 41.265,-24.059c20.113,0 34.222,17.682 34.222,34.979c0,15.368 -12.541,34.378 -33.431,34.317c-11.975,-0.035 -51.459,0 -51.459,0l-6.22,8.247l15.094,0c14.825,0 25.165,12.94 25.165,26.179c0,13.239 -11.397,25.627 -24.636,25.627l-53.936,0c-0.607,1.82 -18.917,23.542 -27.78,31.235c-10.862,9.429 -21.877,16.368 -33.541,16.368c-22.124,0 -34.353,-18.525 -34.353,-35.209c0,-16.684 14.167,-33.805 34.353,-34.061l50.61,0l6.347,-8.306l-15.485,0c-13.867,0 -24.796,-12.031 -24.796,-25.897c0,-11.461 7.792,-25.864 24.796,-25.864l53.666,0Zm61.323,10.863c13.366,0 23.347,-10.431 23.347,-23.754c0,-13.322 -10.623,-23.754 -23.347,-23.754c-16.383,0 -35.854,20.98 -56.143,47.508l-58.038,0c-10.475,0.001 -14.761,8.497 -14.761,15.02c0,6.523 5.077,15.019 14.761,15.019l35.951,0c-7.398,10.252 -14.796,20.503 -22.088,30.039l-56.143,0c-12.094,0 -23.347,10.431 -23.347,23.754c0,13.322 10.537,23.754 23.347,23.754c16.383,0 35.855,-20.98 56.143,-47.508l58.038,0c9.647,-0.001 14.761,-8.371 14.761,-15.02c0,-6.648 -5.04,-15.019 -14.761,-15.019l-35.95,0c7.397,-10.252 14.795,-20.503 22.087,-30.039l56.143,0Z" style="fill:url(#_Linear2);"/><path d="M421.768,781.984c-0.006,0.008 -0.005,0.019 0.003,0.025c0.008,0.007 0.019,0.005 0.025,-0.003c0.007,-0.007 0.005,-0.019 -0.003,-0.025c-0.007,-0.006 -0.019,-0.005 -0.025,0.003Z" style="fill:none;stroke:#000;stroke-width:0.02px;"/><path d="M483.117,792.864c-0.01,0 -0.019,0.008 -0.019,0.018c0,0.011 0.009,0.019 0.019,0.019c0.01,0 0.018,-0.009 0.018,-0.019c0,-0.01 -0.008,-0.018 -0.018,-0.018Z" style="fill:none;stroke:#000;stroke-width:0.02px;"/><circle cx="421.733" cy="782.019" r="0.018" style="fill:none;stroke:#000;stroke-width:0.02px;"/><circle cx="483.056" cy="792.882" r="0.018" style="fill:none;stroke:#000;stroke-width:0.02px;"/><path d="M421.793,781.981c1.438,-1.811 12.003,-15.262 20.089,-23.518c12.457,-12.717 25.916,-24.059 41.265,-24.059c20.113,0 34.222,17.682 34.222,34.979c0,15.368 -12.541,34.378 -33.431,34.317c-11.975,-0.035 -51.459,0 -51.459,0l-6.22,8.247l15.094,0c14.825,0 25.165,12.94 25.165,26.179c0,13.239 -11.397,25.627 -24.636,25.627l-53.936,0c-0.607,1.82 -18.917,23.542 -27.78,31.235c-10.862,9.429 -21.877,16.368 -33.541,16.368c-22.124,0 -34.353,-18.525 -34.353,-35.209c0,-16.684 14.167,-33.805 34.353,-34.061l50.61,0l6.347,-8.306l-15.485,0c-13.867,0 -24.796,-12.031 -24.796,-25.897c0,-11.461 7.792,-25.864 24.796,-25.864l53.618,0m61.42,10.863c13.341,-0.025 23.298,-10.448 23.298,-23.754c0,-13.322 -10.623,-23.754 -23.347,-23.754c-16.383,0 -35.854,20.98 -56.143,47.508l-58.038,0c-10.475,0.001 -14.761,8.497 -14.761,15.02c0,6.523 5.077,15.019 14.761,15.019l35.951,0c-7.398,10.252 -14.796,20.503 -22.088,30.039l-56.143,0c-12.094,0 -23.347,10.431 -23.347,23.754c0,13.322 10.537,23.754 23.347,23.754c16.383,0 35.855,-20.98 56.143,-47.508l58.038,0c9.647,-0.001 14.761,-8.371 14.761,-15.02c0,-6.648 -5.04,-15.019 -14.761,-15.019l-35.95,0c7.397,-10.252 14.795,-20.503 22.087,-30.039l56.095,0" style="fill:none;stroke:#000;stroke-width:0.02px;stroke-linejoin:round;stroke-miterlimit:1.5;"/></g><g><path d="M53.732,598.356l24.432,0c1.312,-1.651 11.973,-15.239 20.119,-23.555c12.457,-12.718 25.916,-24.06 41.265,-24.06c20.113,0 34.222,17.682 34.222,34.98c0,15.367 -12.541,34.377 -33.43,34.316c-11.976,-0.035 -51.46,0 -51.46,0l-6.22,8.247l15.094,0c14.825,0 25.165,12.941 25.165,26.179c0,13.239 -11.397,25.627 -24.636,25.627l-44.551,0l0,-10.793l43.475,0c9.647,0 14.761,-8.371 14.761,-15.02c0,-6.648 -5.04,-15.019 -14.761,-15.019l-35.95,0c7.397,-10.252 14.795,-20.503 22.088,-30.038l56.142,0c13.366,-0.001 23.347,-10.432 23.347,-23.755c0,-13.322 -10.623,-23.754 -23.347,-23.754c-16.383,0 -35.854,20.981 -56.142,47.509l-29.613,0l0,-10.864Zm0,51.306l0,-10.404l7.525,0c-2.51,3.478 -5.019,6.955 -7.525,10.404Z" style="fill:url(#_Linear3);"/></g></g><g><path d="M3836.57,979.115l-478.337,0l0,-441.833l478.337,0l0,441.833Zm-322.912,-432.357l-145.95,0l0,422.882l459.387,0l0,-422.882l-147.209,0l0,144.907c-0.114,1.675 -0.52,3.259 -1.386,4.711c-0.607,1.019 -1.398,1.927 -2.324,2.668c-0.762,0.61 -1.614,1.107 -2.523,1.463c-0.729,0.285 -1.494,0.479 -2.272,0.572c-4.707,0.559 -7.714,-2.735 -11.017,-5.49c-1.966,-1.641 -3.931,-3.262 -5.924,-4.87c-1.992,-1.607 -3.876,-3.097 -5.903,-4.66c-2.974,-2.296 -5.987,-4.543 -9.036,-6.739c-2.033,-1.465 -4.082,-2.907 -6.147,-4.327c-1.033,-0.711 -2.072,-1.412 -3.11,-2.115c-0.149,-0.101 -0.285,-0.367 -0.451,-0.297c-0.333,0.14 -0.489,0.531 -0.734,0.796c-1.457,1.584 -2.91,3.171 -4.37,4.751c-2.252,2.438 -4.534,4.85 -6.858,7.22c-2.453,2.5 -4.951,4.956 -7.5,7.358c-1.977,1.863 -3.239,3.007 -5.26,4.823c-1.056,0.949 -2.08,1.915 -3.335,2.594c-0.784,0.424 -1.645,0.76 -2.525,0.921c-6.086,1.112 -10.261,-4.141 -14.379,-7.73c-2.967,-2.584 -5.565,-4.867 -8.518,-7.501c-3.023,-2.696 -6.027,-5.413 -9.012,-8.15c-1.493,-1.369 -2.979,-2.745 -4.464,-4.121c-1.009,-0.935 -1.842,-2.099 -3.016,-2.815c-0.248,-0.151 -0.436,0.383 -0.651,0.579c-1.041,0.946 -2.85,2.609 -3.877,3.571c-4.321,4.044 -8.574,8.159 -12.891,12.207c-1.7,1.594 -3.286,3.068 -4.993,4.625c-2.009,1.83 -4.043,3.629 -6.089,5.419c-1.342,1.174 -2.693,2.496 -4.36,3.205c-6.346,2.701 -12.86,-2.053 -13.303,-8.668l0,-144.907Zm59.827,379.522l-156.719,0c-5.232,0 -9.475,-4.242 -9.475,-9.475l0,-113.29c0,-5.233 4.243,-9.475 9.475,-9.475l156.719,0c5.233,0 9.475,4.242 9.475,9.475l0,113.29c0,5.233 -4.242,9.475 -9.475,9.475Zm0,-122.765l-156.719,0l0,113.29l156.719,0l0,-113.29Zm-67.345,45.945l-66.086,0l0,-22.658l66.086,0l0,22.658Zm-9.475,-13.183l-47.136,0l0,3.708l47.136,0l0,-3.708Zm173.746,-290.183l-147.277,0l0,145.571c5.371,-4.601 10.573,-9.378 15.704,-14.245c3.084,-2.924 6.142,-5.875 9.245,-8.78c1.406,-1.316 3.291,-3.066 4.811,-4.432c1.374,-1.234 2.047,-1.82 3.456,-3.013c0.482,-0.407 1.282,-1.057 1.776,-1.449c0.284,-0.225 0.57,-0.449 0.858,-0.669c0.973,-0.744 1.132,-1.177 1.988,-0.326c0.335,0.334 0.299,0.323 0.666,0.672c0.444,0.425 0.892,0.845 1.34,1.267c1.049,0.988 2.098,1.976 3.149,2.961c1.052,0.986 2.104,1.97 3.161,2.95c1.469,1.363 2.94,2.723 4.416,4.077c2.954,2.708 5.925,5.396 8.916,8.063c4.1,3.656 8.24,7.266 12.393,10.863c0.795,0.688 1.363,1.827 2.389,2.061c0.59,0.135 0.909,-0.801 1.36,-1.206c1.935,-1.737 3.179,-2.866 5.071,-4.649c4.823,-4.545 9.447,-9.294 13.943,-14.161c2.218,-2.402 4.417,-4.822 6.641,-7.218c1.124,-1.21 2.501,-2.944 3.789,-4.108c0.257,-0.232 0.999,0.539 1.147,0.636c0.687,0.455 1.383,0.896 2.072,1.348c2.372,1.557 3.939,2.585 6.129,4.068c11.469,7.765 22.272,16.368 32.857,25.29l0,-145.571Z" style="fill:#f3aa3b;"/></g><path d="M811.22,629.862c-5.362,0 -10.506,-2.131 -14.298,-5.923c-3.792,-3.792 -5.922,-8.935 -5.922,-14.298c0,-35.611 0,-109.107 0,-144.717c0,-5.363 2.13,-10.506 5.922,-14.298c3.792,-3.792 8.936,-5.923 14.298,-5.923c197.964,0 1787.03,0 1984.99,0c5.363,0 10.506,-2.13 14.298,-5.922c3.792,-3.792 5.923,-8.935 5.923,-14.298c0,-27.679 0,-78.247 0,-116.122c0,-8.178 4.926,-15.551 12.482,-18.681c7.556,-3.13 16.253,-1.4 22.036,4.383c61.287,61.287 186.631,186.631 228.921,228.921c7.897,7.897 7.897,20.7 0,28.596c-42.29,42.291 -167.634,167.635 -228.921,228.922c-5.783,5.783 -14.48,7.513 -22.036,4.383c-7.556,-3.13 -12.482,-10.503 -12.482,-18.681l0,-116.122c0,-5.363 -2.131,-10.506 -5.923,-14.298c-3.792,-3.792 -8.935,-5.922 -14.298,-5.922c-197.963,0 -1787.03,0 -1984.99,0Z" style="fill:url(#_Linear4);"/><g><path d="M122.155,259.058c-9.968,0 -19.488,-2.128 -28.56,-6.384c-9.072,-4.256 -16.464,-10.78 -22.176,-19.572c-5.712,-8.792 -8.568,-19.74 -8.568,-32.844c0,-10.528 2.548,-20.972 7.644,-31.332c5.096,-10.36 12.74,-18.928 22.932,-25.704c10.192,-6.776 22.4,-10.164 36.624,-10.164c9.968,0 19.488,2.128 28.56,6.384c9.072,4.256 16.464,10.78 22.176,19.572c5.712,8.792 8.568,19.74 8.568,32.844c0,10.528 -2.548,20.972 -7.644,31.332c-5.096,10.36 -12.74,18.928 -22.932,25.704c-10.192,6.776 -22.4,10.164 -36.624,10.164Zm0.336,-23.52c9.52,0 17.416,-2.156 23.688,-6.468c6.272,-4.312 10.836,-9.688 13.692,-16.128c2.856,-6.44 4.284,-13.02 4.284,-19.74c0,-6.496 -1.512,-12.544 -4.536,-18.144c-3.024,-5.6 -7.224,-10.08 -12.6,-13.44c-5.376,-3.36 -11.368,-5.04 -17.976,-5.04c-9.52,0 -17.36,2.128 -23.52,6.384c-6.16,4.256 -10.612,9.632 -13.356,16.128c-2.744,6.496 -4.116,13.104 -4.116,19.824c0,6.496 1.456,12.544 4.368,18.144c2.912,5.6 7,10.08 12.264,13.44c5.264,3.36 11.2,5.04 17.808,5.04Z" style="fill:#f3aa3b;fill-rule:nonzero;"/><path d="M231.691,200.762c2.464,-4.032 5.572,-7.588 9.324,-10.668c3.752,-3.08 7.56,-5.404 11.424,-6.972c3.864,-1.568 7.252,-2.352 10.164,-2.352l-4.032,23.52c-0.672,-0.112 -1.624,-0.168 -2.856,-0.168c-4.704,0 -8.988,1.232 -12.852,3.696c-3.864,2.464 -7,5.628 -9.408,9.492c-2.408,3.864 -3.836,7.812 -4.284,11.844l-3.528,28.728l-23.352,0l8.904,-73.416l21.168,0l-0.672,16.296Z" style="fill:#f3aa3b;fill-rule:nonzero;"/><path d="M304.267,184.466l-9.072,73.416l-23.52,0l9.072,-73.416l23.52,0Zm-22.008,-25.872c0,-3.584 1.26,-6.608 3.78,-9.072c2.52,-2.464 5.74,-3.696 9.66,-3.696c3.248,0 6.16,0.896 8.736,2.688c2.576,1.792 3.864,4.536 3.864,8.232c0,3.584 -1.26,6.608 -3.78,9.072c-2.52,2.464 -5.74,3.696 -9.66,3.696c-3.248,0 -6.16,-0.896 -8.736,-2.688c-2.576,-1.792 -3.864,-4.536 -3.864,-8.232Z" style="fill:#f3aa3b;fill-rule:nonzero;"/><path d="M411.115,184.466l-9.744,77.28c-0.784,6.944 -3.276,12.908 -7.476,17.892c-4.2,4.984 -9.548,8.764 -16.044,11.34c-6.496,2.576 -13.552,3.864 -21.168,3.864c-6.608,0 -12.292,-0.728 -17.052,-2.184c-4.76,-1.456 -8.568,-3.108 -11.424,-4.956c-2.856,-1.848 -6.076,-4.284 -9.66,-7.308l15.792,-16.128c3.36,3.136 6.86,5.6 10.5,7.392c3.64,1.792 8.316,2.688 14.028,2.688c5.04,0 9.464,-1.484 13.272,-4.452c3.808,-2.968 5.992,-7.084 6.552,-12.348l1.176,-9.576c-2.576,3.584 -6.02,6.468 -10.332,8.652c-4.312,2.184 -9.38,3.276 -15.204,3.276c-6.832,0 -12.964,-1.512 -18.396,-4.536c-5.432,-3.024 -9.716,-7.42 -12.852,-13.188c-3.136,-5.768 -4.704,-12.684 -4.704,-20.748c0,-5.936 1.624,-12.068 4.872,-18.396c3.248,-6.328 8.12,-11.62 14.616,-15.876c6.496,-4.256 14.28,-6.384 23.352,-6.384c6.16,0 11.452,0.84 15.876,2.52c4.424,1.68 7.756,3.92 9.996,6.72l2.352,-5.544l21.672,0Zm-26.88,27.216c-1.232,-3.696 -3.5,-6.58 -6.804,-8.652c-3.304,-2.072 -7.308,-3.108 -12.012,-3.108c-5.152,0 -9.464,1.12 -12.936,3.36c-3.472,2.24 -6.02,5.012 -7.644,8.316c-1.624,3.304 -2.436,6.58 -2.436,9.828c0,6.16 1.764,10.92 5.292,14.28c3.528,3.36 8.484,5.04 14.868,5.04c3.808,0 7.392,-0.952 10.752,-2.856c3.36,-1.904 6.272,-4.648 8.736,-8.232l2.184,-17.976Z" style="fill:#f3aa3b;fill-rule:nonzero;"/><path d="M458.827,184.466l-9.072,73.416l-23.52,0l9.072,-73.416l23.52,0Zm-22.008,-25.872c0,-3.584 1.26,-6.608 3.78,-9.072c2.52,-2.464 5.74,-3.696 9.66,-3.696c3.248,0 6.16,0.896 8.736,2.688c2.576,1.792 3.864,4.536 3.864,8.232c0,3.584 -1.26,6.608 -3.78,9.072c-2.52,2.464 -5.74,3.696 -9.66,3.696c-3.248,0 -6.16,-0.896 -8.736,-2.688c-2.576,-1.792 -3.864,-4.536 -3.864,-8.232Z" style="fill:#f3aa3b;fill-rule:nonzero;"/><path d="M534.595,180.938c6.944,0 12.46,2.044 16.548,6.132c4.088,4.088 5.852,9.38 5.292,15.876l-6.72,54.936l-23.52,0l5.712,-46.2c0.224,-3.472 -0.42,-6.132 -1.932,-7.98c-1.512,-1.848 -4.06,-2.772 -7.644,-2.772c-5.376,0 -9.996,2.52 -13.86,7.56c-3.864,5.04 -6.244,11.536 -7.14,19.488l-3.696,29.904l-23.52,0l8.904,-73.416l21.336,0l0.336,10.92c3.248,-4.48 7.448,-8.008 12.6,-10.584c5.152,-2.576 10.92,-3.864 17.304,-3.864Z" style="fill:#f3aa3b;fill-rule:nonzero;"/></g><g><path d="M2920.04,134.234l43.68,0c12.656,0 23.016,2.52 31.08,7.56c8.064,5.04 13.916,11.648 17.556,19.824c3.64,8.176 5.46,17.248 5.46,27.216c0,3.024 -0.168,6.16 -0.504,9.408c-1.344,11.872 -5.096,22.344 -11.256,31.416c-6.16,9.072 -13.888,16.044 -23.184,20.916c-9.296,4.872 -19.152,7.308 -29.568,7.308l-48.384,0l15.12,-123.648Zm31.92,100.128c11.2,0 20.412,-3.248 27.636,-9.744c7.224,-6.496 11.508,-15.848 12.852,-28.056c0.336,-2.352 0.504,-4.592 0.504,-6.72c0,-8.176 -1.764,-14.644 -5.292,-19.404c-3.528,-4.76 -7.7,-8.092 -12.516,-9.996c-4.816,-1.904 -9.408,-2.856 -13.776,-2.856l-19.824,0l-9.408,76.776l19.824,0Z" style="fill:#f3aa3b;fill-rule:nonzero;"/><path d="M3072.08,239.906c3.472,0 7.728,-1.344 12.768,-4.032l8.232,18.144c-3.696,1.792 -7.616,3.192 -11.76,4.2c-4.144,1.008 -8.064,1.512 -11.76,1.512c-12.432,0 -22.232,-3.192 -29.4,-9.576c-7.168,-6.384 -10.752,-15.848 -10.752,-28.392c0,-6.272 1.54,-12.544 4.62,-18.816c3.08,-6.272 7.868,-11.48 14.364,-15.624c6.496,-4.144 14.672,-6.216 24.528,-6.216c10.08,0 18.592,2.744 25.536,8.232c6.944,5.488 11.312,15.4 13.104,29.736l-54.936,13.608c1.792,2.576 4.06,4.424 6.804,5.544c2.744,1.12 5.628,1.68 8.652,1.68Zm0,-40.488c-6.384,0 -11.172,1.904 -14.364,5.712c-3.192,3.808 -4.788,8.456 -4.788,13.944l0,0.504l33.432,-8.736c-0.896,-3.584 -2.632,-6.384 -5.208,-8.4c-2.576,-2.016 -5.6,-3.024 -9.072,-3.024Z" style="fill:#f3aa3b;fill-rule:nonzero;"/><path d="M3149.86,259.394c-4.816,0 -10.22,-0.98 -16.212,-2.94c-5.992,-1.96 -11.06,-5.684 -15.204,-11.172l11.256,-12.264c3.808,4.48 7.28,7.308 10.416,8.484c3.136,1.176 6.216,1.764 9.24,1.764c3.024,0 5.152,-0.616 6.384,-1.848c1.232,-1.232 1.848,-2.688 1.848,-4.368c0,-1.904 -0.868,-3.388 -2.604,-4.452c-1.736,-1.064 -4.564,-2.324 -8.484,-3.78l-3.192,-1.176c-5.6,-2.128 -9.716,-5.012 -12.348,-8.652c-2.632,-3.64 -3.948,-7.756 -3.948,-12.348c0,-3.584 0.84,-7.308 2.52,-11.172c1.68,-3.864 4.676,-7.196 8.988,-9.996c4.312,-2.8 10.108,-4.2 17.388,-4.2c5.712,0 11.06,0.7 16.044,2.1c4.984,1.4 9.548,3.892 13.692,7.476l-10.584,13.272c-4.816,-4.816 -9.968,-7.224 -15.456,-7.224c-3.024,0 -5.208,0.616 -6.552,1.848c-1.344,1.232 -2.016,2.8 -2.016,4.704c0,1.904 0.896,3.416 2.688,4.536c1.792,1.12 4.592,2.352 8.4,3.696c1.904,0.56 3.472,1.12 4.704,1.68c9.856,4.144 14.784,10.416 14.784,18.816c0,4.816 -1.204,9.296 -3.612,13.44c-2.408,4.144 -6.02,7.476 -10.836,9.996c-4.816,2.52 -10.584,3.78 -17.304,3.78Z" style="fill:#f3aa3b;fill-rule:nonzero;"/><path d="M3241.59,152.21l-3.864,31.92l17.808,0l-2.184,18.312l-17.808,0l-6.72,55.44l-23.52,0l6.72,-55.44l-11.424,0l2.184,-18.312l11.424,0l3.864,-31.92l23.52,0Z" style="fill:#f3aa3b;fill-rule:nonzero;"/><path d="M3297.7,184.466l-9.072,73.416l-23.52,0l9.072,-73.416l23.52,0Zm-22.008,-25.872c0,-3.584 1.26,-6.608 3.78,-9.072c2.52,-2.464 5.74,-3.696 9.66,-3.696c3.248,0 6.16,0.896 8.736,2.688c2.576,1.792 3.864,4.536 3.864,8.232c0,3.584 -1.26,6.608 -3.78,9.072c-2.52,2.464 -5.74,3.696 -9.66,3.696c-3.248,0 -6.16,-0.896 -8.736,-2.688c-2.576,-1.792 -3.864,-4.536 -3.864,-8.232Z" style="fill:#f3aa3b;fill-rule:nonzero;"/><path d="M3373.47,180.938c6.944,0 12.46,2.044 16.548,6.132c4.088,4.088 5.852,9.38 5.292,15.876l-6.72,54.936l-23.52,0l5.712,-46.2c0.224,-3.472 -0.42,-6.132 -1.932,-7.98c-1.512,-1.848 -4.06,-2.772 -7.644,-2.772c-5.376,0 -9.996,2.52 -13.86,7.56c-3.864,5.04 -6.244,11.536 -7.14,19.488l-3.696,29.904l-23.52,0l8.904,-73.416l21.336,0l0.336,10.92c3.248,-4.48 7.448,-8.008 12.6,-10.584c5.152,-2.576 10.92,-3.864 17.304,-3.864Z" style="fill:#f3aa3b;fill-rule:nonzero;"/><path d="M3501.32,184.466l-8.904,73.416l-23.52,0l1.008,-9.072c-8.064,7.392 -17.528,10.976 -28.392,10.752c-4.928,0.112 -9.688,-1.26 -14.28,-4.116c-4.592,-2.856 -8.344,-7.028 -11.256,-12.516c-2.912,-5.488 -4.368,-11.872 -4.368,-19.152c0,-7.28 1.792,-14.224 5.376,-20.832c3.584,-6.608 8.512,-11.956 14.784,-16.044c6.272,-4.088 13.328,-6.132 21.168,-6.132c6.496,0 11.536,1.008 15.12,3.024c3.584,2.016 6.552,4.76 8.904,8.232l2.52,-7.56l21.84,0Zm-26.88,27.216c-0.896,-3.584 -2.856,-6.44 -5.88,-8.568c-3.024,-2.128 -6.776,-3.192 -11.256,-3.192c-4.816,0 -8.82,1.064 -12.012,3.192c-3.192,2.128 -5.544,4.816 -7.056,8.064c-1.512,3.248 -2.268,6.496 -2.268,9.744c0,6.048 1.708,10.864 5.124,14.448c3.416,3.584 7.98,5.376 13.692,5.376c3.36,0 6.552,-0.924 9.576,-2.772c3.024,-1.848 5.656,-4.62 7.896,-8.316l2.184,-17.976Z" style="fill:#f3aa3b;fill-rule:nonzero;"/><path d="M3559.28,152.21l-3.864,31.92l17.808,0l-2.184,18.312l-17.808,0l-6.72,55.44l-23.52,0l6.72,-55.44l-11.424,0l2.184,-18.312l11.424,0l3.864,-31.92l23.52,0Z" style="fill:#f3aa3b;fill-rule:nonzero;"/><path d="M3615.39,184.466l-9.072,73.416l-23.52,0l9.072,-73.416l23.52,0Zm-22.008,-25.872c0,-3.584 1.26,-6.608 3.78,-9.072c2.52,-2.464 5.74,-3.696 9.66,-3.696c3.248,0 6.16,0.896 8.736,2.688c2.576,1.792 3.864,4.536 3.864,8.232c0,3.584 -1.26,6.608 -3.78,9.072c-2.52,2.464 -5.74,3.696 -9.66,3.696c-3.248,0 -6.16,-0.896 -8.736,-2.688c-2.576,-1.792 -3.864,-4.536 -3.864,-8.232Z" style="fill:#f3aa3b;fill-rule:nonzero;"/><path d="M3669.82,259.898c-6.272,0 -12.516,-1.316 -18.732,-3.948c-6.216,-2.632 -11.396,-6.664 -15.54,-12.096c-4.144,-5.432 -6.216,-12.18 -6.216,-20.244c0,-6.608 1.456,-13.16 4.368,-19.656c2.912,-6.496 7.644,-11.928 14.196,-16.296c6.552,-4.368 14.868,-6.552 24.948,-6.552c6.72,0 13.16,1.428 19.32,4.284c6.16,2.856 11.172,7.028 15.036,12.516c3.864,5.488 5.796,11.984 5.796,19.488c0,5.824 -1.316,11.984 -3.948,18.48c-2.632,6.496 -7.168,12.124 -13.608,16.884c-6.44,4.76 -14.98,7.14 -25.62,7.14Zm0.672,-19.32c6.384,0 11.088,-2.324 14.112,-6.972c3.024,-4.648 4.536,-9.716 4.536,-15.204c0,-6.832 -1.848,-11.564 -5.544,-14.196c-3.696,-2.632 -7.56,-3.948 -11.592,-3.948c-4.256,0 -7.812,1.148 -10.668,3.444c-2.856,2.296 -4.956,5.152 -6.3,8.568c-1.344,3.416 -2.016,6.804 -2.016,10.164c0,6.72 1.848,11.424 5.544,14.112c3.696,2.688 7.672,4.032 11.928,4.032Z" style="fill:#f3aa3b;fill-rule:nonzero;"/><path d="M3787.42,180.938c6.944,0 12.46,2.044 16.548,6.132c4.088,4.088 5.852,9.38 5.292,15.876l-6.72,54.936l-23.52,0l5.712,-46.2c0.224,-3.472 -0.42,-6.132 -1.932,-7.98c-1.512,-1.848 -4.06,-2.772 -7.644,-2.772c-5.376,0 -9.996,2.52 -13.86,7.56c-3.864,5.04 -6.244,11.536 -7.14,19.488l-3.696,29.904l-23.52,0l8.904,-73.416l21.336,0l0.336,10.92c3.248,-4.48 7.448,-8.008 12.6,-10.584c5.152,-2.576 10.92,-3.864 17.304,-3.864Z" style="fill:#f3aa3b;fill-rule:nonzero;"/></g><defs><linearGradient id="_Linear1" x1="0" y1="0" x2="1" y2="0" gradientUnits="userSpaceOnUse" gradientTransform="matrix(419.804,577.151,-696.379,506.526,112.266,401.963)"><stop offset="0" style="stop-color:#f3aa3b;stop-opacity:1"/><stop offset="0.43" style="stop-color:#eda435;stop-opacity:1"/><stop offset="1" style="stop-color:#bf7300;stop-opacity:1"/></linearGradient><linearGradient id="_Linear2" x1="0" y1="0" x2="1" y2="0" gradientUnits="userSpaceOnUse" gradientTransform="matrix(-228.784,178.96,-178.96,-228.784,515.648,735.787)"><stop offset="0" style="stop-color:#f9cf00;stop-opacity:1"/><stop offset="1" style="stop-color:#f19f4d;stop-opacity:1"/></linearGradient><linearGradient id="_Linear3" x1="0" y1="0" x2="1" y2="0" gradientUnits="userSpaceOnUse" gradientTransform="matrix(-182.209,129.836,-156.658,-219.849,168.596,561.829)"><stop offset="0" style="stop-color:#f9cf00;stop-opacity:1"/><stop offset="1" style="stop-color:#f19f4d;stop-opacity:1"/></linearGradient><linearGradient id="_Linear4" x1="0" y1="0" x2="1" y2="0" gradientUnits="userSpaceOnUse" gradientTransform="matrix(-1701,1172.25,-282.721,-410.245,2844,-161.67)"><stop offset="0" style="stop-color:#f9cf00;stop-opacity:1"/><stop offset="1" style="stop-color:#f19f4d;stop-opacity:1"/></linearGradient></defs></svg>