<?xml version="1.0" encoding="UTF-8" standalone="no"?>
<!DOCTYPE svg PUBLIC "-//W3C//DTD SVG 1.1//EN" "http://www.w3.org/Graphics/SVG/1.1/DTD/svg11.dtd">
<svg width="100%" height="100%" viewBox="0 0 3839 847" version="1.1" xmlns="http://www.w3.org/2000/svg" xmlns:xlink="http://www.w3.org/1999/xlink" xml:space="preserve" xmlns:serif="http://www.serif.com/" style="fill-rule:evenodd;clip-rule:evenodd;stroke-linecap:round;stroke-miterlimit:10;">
    <g transform="matrix(1,0,0,1,-674.814,-3757.73)">
        <g transform="matrix(3.38849,0,0,1,623.238,3879.76)">
            <g transform="matrix(0.185744,0,0,0.629391,-18.168,275.325)">
                <g transform="matrix(1,0,0,1,-2495.24,-1935.09)">
                    <path d="M3435,2648L2675,2648L2675,1946L3435,1946L3435,2648ZM3017,2549L3017,2369L2768,2369L2768,2549L3017,2549ZM2910,2406L2910,2442L2805,2442L2805,2406L2910,2406ZM3171,1960L2937,1960L2937,2191.29C2945.57,2184.03 2953.8,2176.38 2961.95,2168.66C2968.49,2162.46 2974.95,2156.2 2981.59,2150.11C2985.17,2146.83 2988.79,2143.59 2992.6,2140.57C2993.5,2139.86 2994.41,2139.16 2995.34,2138.47C2995.45,2138.39 2995.56,2138.31 2995.67,2138.24C2995.78,2138.16 2995.89,2137.92 2996,2138C2996.81,2138.59 2997.45,2139.38 2998.18,2140.06C2998.89,2140.73 2999.6,2141.4 3000.31,2142.07C3003.64,2145.22 3006.98,2148.35 3010.33,2151.47C3019.66,2160.14 3029.1,2168.68 3038.66,2177.09C3042.83,2180.75 3047.01,2184.39 3051.2,2188.01C3051.23,2188.03 3054.99,2191.29 3055,2191.29C3055.01,2191.29 3057.15,2189.38 3057.16,2189.37C3059.88,2186.95 3062.57,2184.49 3065.22,2181.99C3070.43,2177.07 3075.51,2172.02 3080.46,2166.84C3085.11,2161.98 3089.66,2157.02 3094.2,2152.06C3096.68,2149.36 3099.16,2146.67 3101.67,2144.01C3102.29,2143.37 3102.9,2142.72 3103.52,2142.08C3103.72,2141.87 3103.84,2141.39 3104.13,2141.45C3104.77,2141.56 3105.22,2142.15 3105.76,2142.5C3106.86,2143.22 3107.96,2143.93 3109.06,2144.64C3113.41,2147.48 3117.73,2150.36 3122.01,2153.3C3129.93,2158.75 3137.69,2164.43 3145.29,2170.32C3154.03,2177.09 3162.57,2184.13 3171,2191.29L3171,1960Z" style="fill:url(#_Linear1);"/>
                </g>
                <g transform="matrix(0.485436,0,0,0.485436,542.816,318.727)">
                    <g>
                        <path d="M456.672,166.916C460.965,161.513 495.859,117.039 522.521,89.818C563.292,48.193 607.344,11.072 657.583,11.072C723.411,11.072 769.589,68.946 769.589,125.56C769.589,175.858 728.545,238.076 660.172,237.878C620.976,237.765 491.743,237.878 491.743,237.878L471.386,264.872L520.788,264.872C569.313,264.872 603.155,307.225 603.155,350.556C603.155,393.887 565.852,434.431 522.521,434.431L345.986,434.431C344,440.389 284.071,511.485 255.063,536.665C219.512,567.525 183.459,590.237 145.282,590.237C72.871,590.237 32.844,529.605 32.844,474.998C32.844,420.391 79.213,364.354 145.282,363.518L310.93,363.518L331.706,336.331L281.02,336.331C235.636,336.331 199.863,296.952 199.863,251.569C199.863,214.057 225.366,166.916 281.02,166.916L456.672,166.916ZM657.383,202.472C701.129,202.472 733.796,168.329 733.796,124.724C733.796,81.119 699.026,46.976 657.383,46.976C603.761,46.976 540.03,115.646 473.627,202.472L283.668,202.472C249.382,202.473 235.353,230.281 235.353,251.63C235.353,272.98 251.97,300.788 283.668,300.789L401.333,300.789C377.12,334.343 352.907,367.897 329.038,399.105L145.282,399.105C105.7,399.106 68.869,433.249 68.869,476.853C68.869,520.458 103.356,554.602 145.282,554.602C198.905,554.602 262.635,485.932 329.038,399.105L518.998,399.105C550.574,399.105 567.312,371.708 567.312,349.947C567.312,328.186 550.817,300.789 518.998,300.789L401.333,300.789C425.546,267.235 449.759,233.681 473.627,202.472L657.383,202.472Z" style="fill:url(#_Linear2);"/>
                        <g transform="matrix(3.27301,-0,-0,3.27301,-747.898,-1957.14)">
                            <path d="M368.035,648.926C368.029,648.934 368.03,648.945 368.038,648.951C368.046,648.958 368.058,648.956 368.064,648.949C368.07,648.941 368.069,648.929 368.061,648.923C368.053,648.917 368.042,648.918 368.035,648.926Z" style="fill:none;stroke:black;stroke-width:0.02px;"/>
                            <path d="M429.384,659.806C429.374,659.806 429.366,659.814 429.366,659.825C429.366,659.835 429.374,659.843 429.384,659.843C429.394,659.843 429.402,659.835 429.402,659.825C429.402,659.814 429.394,659.806 429.384,659.806Z" style="fill:none;stroke:black;stroke-width:0.02px;"/>
                            <circle cx="368" cy="648.961" r="0.018" style="fill:none;stroke:black;stroke-width:0.02px;"/>
                            <circle cx="429.323" cy="659.825" r="0.018" style="fill:none;stroke:black;stroke-width:0.02px;"/>
                            <path d="M368.061,648.923C369.498,647.112 380.063,633.662 388.15,625.406C400.606,612.688 414.066,601.346 429.415,601.346C449.527,601.346 463.636,619.028 463.636,636.326C463.636,651.693 451.096,670.703 430.206,670.642C418.231,670.607 378.746,670.642 378.746,670.642L372.526,678.889L387.62,678.889C402.446,678.889 412.786,691.83 412.786,705.068C412.786,718.307 401.388,730.695 388.15,730.695L334.213,730.695C333.606,732.515 315.296,754.237 306.434,761.93C295.572,771.359 284.556,778.298 272.892,778.298C250.769,778.298 238.539,759.773 238.539,743.089C238.539,726.405 252.706,709.284 272.892,709.029L323.503,709.029L329.85,700.722L314.364,700.722C300.498,700.722 289.568,688.691 289.568,674.825C289.568,663.364 297.36,648.961 314.364,648.961L367.982,648.961M429.402,659.825C442.744,659.799 452.7,649.377 452.7,636.07C452.7,622.748 442.077,612.316 429.354,612.316C412.971,612.316 393.499,633.297 373.211,659.825L315.173,659.825C304.698,659.825 300.412,668.321 300.412,674.844C300.412,681.367 305.488,689.863 315.173,689.863L351.123,689.863C343.725,700.115 336.328,710.367 329.035,719.902L272.892,719.902C260.799,719.902 249.546,730.334 249.546,743.656C249.546,756.978 260.083,767.41 272.892,767.41C289.276,767.41 308.747,746.43 329.035,719.902L387.073,719.902C396.721,719.901 401.835,711.531 401.835,704.882C401.835,698.234 396.795,689.863 387.073,689.863L351.123,689.863C358.521,679.611 365.919,669.36 373.211,659.825L429.305,659.825" style="fill:none;stroke:black;stroke-width:0.02px;stroke-linejoin:round;stroke-miterlimit:1.5;"/>
                        </g>
                    </g>
                </g>
                <g transform="matrix(1,0,0,1,-2495.24,-1941.09)">
                    <path d="M2675,2049.04L2713.82,2049.04C2715.9,2046.41 2732.84,2024.82 2745.78,2011.61C2765.58,1991.4 2786.96,1973.38 2811.35,1973.38C2843.3,1973.38 2865.72,2001.48 2865.72,2028.96C2865.72,2053.38 2845.8,2083.58 2812.61,2083.48C2793.58,2083.43 2730.84,2083.48 2730.84,2083.48L2720.96,2096.59L2744.94,2096.59C2768.5,2096.59 2784.93,2117.15 2784.93,2138.18C2784.93,2159.22 2766.82,2178.9 2745.78,2178.9L2675,2178.9L2675,2161.75L2744.07,2161.75C2759.4,2161.75 2767.53,2148.45 2767.53,2137.89C2767.53,2127.32 2759.52,2114.02 2744.07,2114.02L2686.95,2114.02C2698.71,2097.74 2710.46,2081.45 2722.05,2066.3L2811.25,2066.3C2832.49,2066.3 2848.35,2049.72 2848.35,2028.56C2848.35,2007.39 2831.47,1990.81 2811.25,1990.81C2785.22,1990.81 2754.28,2024.15 2722.05,2066.3L2675,2066.3L2675,2049.04ZM2675,2130.55L2675,2114.02L2686.95,2114.02C2682.97,2119.55 2678.98,2125.07 2675,2130.55Z" style="fill:url(#_Linear3);"/>
                </g>
            </g>
        </g>
        <g transform="matrix(3.38849,0,0,1,623.238,3879.76)">
            <g transform="matrix(0.185744,0,0,0.629391,493.57,-942.605)">
                <path d="M3435,2648L2675,2648L2675,1946L3435,1946L3435,2648ZM2921.95,1961.05L2690.05,1961.05L2690.05,2632.95L3419.95,2632.95L3419.95,1961.05L3186.05,1961.05L3186.05,2191.29C3185.87,2193.95 3185.23,2196.47 3183.85,2198.78C3182.89,2200.39 3181.63,2201.84 3180.16,2203.01C3178.95,2203.98 3177.6,2204.77 3176.15,2205.34C3174.99,2205.79 3173.78,2206.1 3172.54,2206.25C3165.06,2207.14 3160.28,2201.9 3155.04,2197.52C3151.91,2194.92 3148.79,2192.34 3145.63,2189.79C3142.46,2187.23 3139.47,2184.87 3136.25,2182.38C3131.52,2178.73 3126.73,2175.16 3121.89,2171.67C3118.66,2169.35 3115.4,2167.05 3112.12,2164.8C3110.48,2163.67 3108.83,2162.56 3107.18,2161.44C3106.94,2161.28 3106.73,2160.86 3106.46,2160.97C3105.94,2161.19 3105.69,2161.81 3105.3,2162.23C3102.98,2164.75 3100.68,2167.27 3098.36,2169.78C3094.78,2173.66 3091.15,2177.49 3087.46,2181.25C3083.56,2185.22 3079.59,2189.13 3075.54,2192.94C3072.4,2195.9 3070.4,2197.72 3067.19,2200.61C3065.51,2202.11 3063.88,2203.65 3061.89,2204.73C3060.64,2205.4 3059.27,2205.93 3057.88,2206.19C3048.21,2207.96 3041.57,2199.61 3035.03,2193.91C3030.32,2189.8 3026.19,2186.18 3021.49,2181.99C3016.69,2177.71 3011.92,2173.39 3007.18,2169.04C3004.8,2166.87 3002.44,2164.68 3000.08,2162.49C2998.48,2161.01 2997.16,2159.16 2995.29,2158.02C2994.9,2157.78 2994.6,2158.63 2994.26,2158.94C2992.6,2160.45 2989.73,2163.09 2988.1,2164.62C2981.23,2171.04 2974.48,2177.58 2967.62,2184.01C2964.91,2186.54 2962.39,2188.89 2959.68,2191.36C2956.49,2194.27 2953.26,2197.13 2950.01,2199.97C2947.88,2201.83 2945.73,2203.93 2943.08,2205.06C2933,2209.35 2922.65,2201.8 2921.95,2191.29L2921.95,1961.05ZM3017,2564.05L2768,2564.05C2759.69,2564.05 2752.95,2557.31 2752.95,2549L2752.95,2369C2752.95,2360.69 2759.69,2353.95 2768,2353.95L3017,2353.95C3025.31,2353.95 3032.05,2360.69 3032.05,2369L3032.05,2549C3032.05,2557.31 3025.31,2564.05 3017,2564.05ZM3017,2369L2768,2369L2768,2549L3017,2549L3017,2369ZM2910,2442L2805,2442L2805,2406L2910,2406L2910,2442ZM2894.95,2421.05L2820.05,2421.05L2820.05,2426.95L2894.95,2426.95L2894.95,2421.05ZM3171,1960L2937,1960L2937,2191.29C2945.53,2183.98 2953.8,2176.39 2961.95,2168.66C2966.85,2164.01 2971.71,2159.32 2976.64,2154.71C2978.88,2152.61 2981.87,2149.83 2984.28,2147.66C2986.47,2145.7 2987.54,2144.77 2989.78,2142.88C2990.54,2142.23 2991.81,2141.2 2992.6,2140.57C2993.05,2140.22 2993.5,2139.86 2993.96,2139.51C2995.51,2138.33 2995.76,2137.64 2997.12,2138.99C2997.65,2139.52 2997.6,2139.51 2998.18,2140.06C2998.88,2140.74 2999.6,2141.4 3000.31,2142.07C3001.97,2143.64 3003.64,2145.21 3005.31,2146.78C3006.98,2148.35 3008.65,2149.91 3010.33,2151.47C3012.67,2153.63 3015,2155.79 3017.35,2157.94C3022.04,2162.25 3026.76,2166.52 3031.51,2170.75C3038.03,2176.56 3044.61,2182.3 3051.2,2188.01C3052.47,2189.11 3053.37,2190.92 3055,2191.29C3055.94,2191.5 3056.45,2190.02 3057.16,2189.37C3060.24,2186.61 3062.21,2184.82 3065.22,2181.99C3072.88,2174.76 3080.23,2167.22 3087.37,2159.49C3090.9,2155.67 3094.39,2151.83 3097.92,2148.02C3099.71,2146.1 3101.9,2143.34 3103.94,2141.49C3104.35,2141.12 3105.53,2142.35 3105.76,2142.5C3106.86,2143.22 3107.96,2143.93 3109.06,2144.64C3112.83,2147.12 3115.32,2148.75 3118.8,2151.11C3137.02,2163.44 3154.18,2177.11 3171,2191.29L3171,1960Z" style="fill:rgb(243,170,59);"/>
            </g>
        </g>
        <g transform="matrix(3.38849,0,0,1,623.238,3879.76)">
            <g transform="matrix(0.295117,0,0,1,2.77068,-3827.17)">
                <path d="M831.052,4356.32C825.689,4356.32 820.546,4354.19 816.754,4350.39C812.962,4346.6 810.832,4341.46 810.832,4336.1C810.832,4300.49 810.832,4226.99 810.832,4191.38C810.832,4186.02 812.962,4180.87 816.754,4177.08C820.546,4173.29 825.689,4171.16 831.052,4171.16C1029.02,4171.16 2618.08,4171.16 2816.04,4171.16C2821.41,4171.16 2826.55,4169.03 2830.34,4165.24C2834.13,4161.44 2836.26,4156.3 2836.26,4150.94C2836.26,4123.26 2836.26,4072.69 2836.26,4034.82C2836.26,4026.64 2841.19,4019.26 2848.74,4016.14C2856.3,4013.01 2865,4014.74 2870.78,4020.52C2932.07,4081.81 3057.41,4207.15 3099.7,4249.44C3107.6,4257.34 3107.6,4270.14 3099.7,4278.04C3057.41,4320.33 2932.07,4445.67 2870.78,4506.96C2865,4512.74 2856.3,4514.47 2848.74,4511.34C2841.19,4508.21 2836.26,4500.84 2836.26,4492.66L2836.26,4376.54C2836.26,4371.17 2834.13,4366.03 2830.34,4362.24C2826.55,4358.45 2821.41,4356.32 2816.04,4356.32C2618.08,4356.32 1029.02,4356.32 831.052,4356.32Z" style="fill:url(#_Linear4);"/>
            </g>
        </g>
        <g transform="matrix(3.38849,0,0,1,623.238,3879.76)">
            <g transform="matrix(0.358192,0,0,1,-4.70568,-3832.76)">
                <g transform="matrix(138.416,0,0,168,53.7325,3835.55)">
                    <path d="M0.421,0.007C0.362,0.007 0.305,-0.006 0.251,-0.031C0.197,-0.056 0.153,-0.095 0.119,-0.148C0.085,-0.2 0.068,-0.265 0.068,-0.343C0.068,-0.406 0.083,-0.468 0.114,-0.53C0.144,-0.591 0.189,-0.642 0.25,-0.683C0.311,-0.723 0.383,-0.743 0.468,-0.743C0.527,-0.743 0.584,-0.73 0.638,-0.705C0.692,-0.68 0.736,-0.641 0.77,-0.589C0.804,-0.536 0.821,-0.471 0.821,-0.393C0.821,-0.33 0.806,-0.268 0.776,-0.206C0.745,-0.145 0.7,-0.094 0.639,-0.054C0.578,-0.013 0.506,0.007 0.421,0.007ZM0.423,-0.133C0.48,-0.133 0.527,-0.146 0.564,-0.172C0.601,-0.197 0.628,-0.229 0.646,-0.268C0.663,-0.306 0.671,-0.345 0.671,-0.385C0.671,-0.424 0.662,-0.46 0.644,-0.493C0.626,-0.526 0.601,-0.553 0.569,-0.573C0.537,-0.593 0.501,-0.603 0.462,-0.603C0.405,-0.603 0.359,-0.59 0.322,-0.565C0.285,-0.54 0.259,-0.508 0.243,-0.469C0.226,-0.43 0.218,-0.391 0.218,-0.351C0.218,-0.312 0.227,-0.276 0.244,-0.243C0.261,-0.21 0.286,-0.183 0.317,-0.163C0.348,-0.143 0.384,-0.133 0.423,-0.133Z" style="fill:rgb(243,170,59);fill-rule:nonzero;"/>
                </g>
                <g transform="matrix(138.416,0,0,168,171.663,3835.55)">
                    <path d="M0.221,-0.34C0.236,-0.364 0.254,-0.385 0.277,-0.404C0.299,-0.422 0.322,-0.436 0.344,-0.445C0.368,-0.454 0.388,-0.459 0.405,-0.459L0.381,-0.319C0.377,-0.32 0.371,-0.32 0.364,-0.32C0.336,-0.32 0.311,-0.313 0.288,-0.298C0.265,-0.283 0.246,-0.265 0.232,-0.242C0.217,-0.219 0.209,-0.195 0.206,-0.171L0.185,0L0.046,0L0.099,-0.437L0.225,-0.437L0.221,-0.34Z" style="fill:rgb(243,170,59);fill-rule:nonzero;"/>
                </g>
                <g transform="matrix(138.416,0,0,168,228.967,3835.55)">
                    <path d="M0.239,-0.437L0.185,0L0.045,0L0.099,-0.437L0.239,-0.437ZM0.108,-0.591C0.108,-0.612 0.116,-0.63 0.131,-0.645C0.146,-0.66 0.165,-0.667 0.188,-0.667C0.207,-0.667 0.225,-0.662 0.24,-0.651C0.255,-0.64 0.263,-0.624 0.263,-0.602C0.263,-0.581 0.256,-0.563 0.241,-0.548C0.226,-0.533 0.206,-0.526 0.183,-0.526C0.164,-0.526 0.146,-0.531 0.131,-0.542C0.116,-0.553 0.108,-0.569 0.108,-0.591Z" style="fill:rgb(243,170,59);fill-rule:nonzero;"/>
                </g>
                <g transform="matrix(138.416,0,0,168,268.277,3835.55)">
                    <path d="M0.591,-0.437L0.533,0.023C0.528,0.064 0.514,0.1 0.489,0.129C0.464,0.159 0.432,0.182 0.393,0.197C0.354,0.212 0.312,0.22 0.267,0.22C0.228,0.22 0.194,0.216 0.166,0.207C0.137,0.198 0.115,0.188 0.098,0.177C0.081,0.166 0.061,0.152 0.04,0.134L0.134,0.038C0.154,0.057 0.175,0.071 0.197,0.082C0.218,0.093 0.246,0.098 0.28,0.098C0.31,0.098 0.336,0.089 0.359,0.071C0.382,0.054 0.395,0.029 0.398,-0.002L0.405,-0.059C0.39,-0.038 0.369,-0.021 0.344,-0.008C0.318,0.005 0.288,0.012 0.253,0.012C0.212,0.012 0.176,0.003 0.143,-0.015C0.111,-0.033 0.086,-0.059 0.067,-0.094C0.048,-0.128 0.039,-0.169 0.039,-0.217C0.039,-0.252 0.049,-0.289 0.068,-0.327C0.087,-0.364 0.116,-0.396 0.155,-0.421C0.194,-0.446 0.24,-0.459 0.294,-0.459C0.331,-0.459 0.362,-0.454 0.389,-0.444C0.415,-0.434 0.435,-0.421 0.448,-0.404L0.462,-0.437L0.591,-0.437ZM0.431,-0.275C0.424,-0.297 0.41,-0.314 0.391,-0.327C0.371,-0.339 0.347,-0.345 0.319,-0.345C0.288,-0.345 0.263,-0.338 0.242,-0.325C0.221,-0.312 0.206,-0.295 0.197,-0.276C0.187,-0.256 0.182,-0.236 0.182,-0.217C0.182,-0.18 0.193,-0.152 0.214,-0.132C0.234,-0.112 0.264,-0.102 0.302,-0.102C0.325,-0.102 0.346,-0.108 0.366,-0.119C0.386,-0.13 0.403,-0.147 0.418,-0.168L0.431,-0.275Z" style="fill:rgb(243,170,59);fill-rule:nonzero;"/>
                </g>
                <g transform="matrix(138.416,0,0,168,356.31,3835.55)">
                    <path d="M0.239,-0.437L0.185,0L0.045,0L0.099,-0.437L0.239,-0.437ZM0.108,-0.591C0.108,-0.612 0.116,-0.63 0.131,-0.645C0.146,-0.66 0.165,-0.667 0.188,-0.667C0.207,-0.667 0.225,-0.662 0.24,-0.651C0.255,-0.64 0.263,-0.624 0.263,-0.602C0.263,-0.581 0.256,-0.563 0.241,-0.548C0.226,-0.533 0.206,-0.526 0.183,-0.526C0.164,-0.526 0.146,-0.531 0.131,-0.542C0.116,-0.553 0.108,-0.569 0.108,-0.591Z" style="fill:rgb(243,170,59);fill-rule:nonzero;"/>
                </g>
                <g transform="matrix(138.416,0,0,168,395.62,3835.55)">
                    <path d="M0.406,-0.458C0.447,-0.458 0.48,-0.446 0.504,-0.422C0.529,-0.397 0.539,-0.366 0.536,-0.327L0.496,0L0.356,0L0.39,-0.275C0.391,-0.296 0.388,-0.312 0.379,-0.323C0.37,-0.334 0.354,-0.339 0.333,-0.339C0.301,-0.339 0.274,-0.324 0.251,-0.294C0.228,-0.264 0.213,-0.225 0.208,-0.178L0.186,0L0.046,0L0.099,-0.437L0.226,-0.437L0.228,-0.372C0.247,-0.399 0.272,-0.42 0.303,-0.435C0.334,-0.45 0.368,-0.458 0.406,-0.458Z" style="fill:rgb(243,170,59);fill-rule:nonzero;"/>
                </g>
            </g>
        </g>
        <g transform="matrix(3.38849,0,0,1,623.238,3879.76)">
            <g transform="matrix(0.574619,0,0,1,847.024,-3797.82)">
                <g transform="matrix(86.2826,0,0,168,53.7325,3835.55)">
                    <path d="M0.155,-0.736L0.415,-0.736C0.49,-0.736 0.552,-0.721 0.6,-0.691C0.648,-0.661 0.683,-0.622 0.705,-0.573C0.726,-0.524 0.737,-0.47 0.737,-0.411C0.737,-0.393 0.736,-0.374 0.734,-0.355C0.726,-0.284 0.704,-0.222 0.667,-0.168C0.63,-0.114 0.584,-0.073 0.529,-0.043C0.474,-0.015 0.415,0 0.353,0L0.065,0L0.155,-0.736ZM0.345,-0.14C0.412,-0.14 0.467,-0.159 0.509,-0.198C0.553,-0.237 0.578,-0.292 0.586,-0.365C0.588,-0.379 0.589,-0.392 0.589,-0.405C0.589,-0.454 0.579,-0.492 0.558,-0.521C0.537,-0.549 0.512,-0.569 0.483,-0.58C0.454,-0.591 0.427,-0.597 0.401,-0.597L0.283,-0.597L0.227,-0.14L0.345,-0.14Z" style="fill:rgb(243,170,59);fill-rule:nonzero;"/>
                </g>
                <g transform="matrix(86.2826,0,0,168,119.911,3835.55)">
                    <path d="M0.293,-0.107C0.314,-0.107 0.339,-0.115 0.369,-0.131L0.418,-0.023C0.396,-0.012 0.373,-0.004 0.348,0.002C0.323,0.008 0.3,0.011 0.278,0.011C0.204,0.011 0.146,-0.008 0.103,-0.046C0.06,-0.084 0.039,-0.14 0.039,-0.215C0.039,-0.252 0.048,-0.29 0.067,-0.327C0.085,-0.364 0.113,-0.395 0.152,-0.42C0.191,-0.445 0.239,-0.457 0.298,-0.457C0.358,-0.457 0.409,-0.441 0.45,-0.408C0.491,-0.375 0.517,-0.316 0.528,-0.231L0.201,-0.15C0.212,-0.135 0.225,-0.124 0.242,-0.117C0.258,-0.11 0.275,-0.107 0.293,-0.107ZM0.293,-0.348C0.255,-0.348 0.227,-0.337 0.207,-0.314C0.189,-0.291 0.179,-0.264 0.179,-0.231L0.179,-0.228L0.378,-0.28C0.373,-0.301 0.362,-0.318 0.347,-0.33C0.332,-0.342 0.314,-0.348 0.293,-0.348Z" style="fill:rgb(243,170,59);fill-rule:nonzero;"/>
                </g>
                <g transform="matrix(86.2826,0,0,168,167.798,3835.55)">
                    <path d="M0.201,0.009C0.172,0.009 0.14,0.003 0.105,-0.009C0.069,-0.02 0.039,-0.042 0.014,-0.075L0.081,-0.148C0.104,-0.121 0.124,-0.105 0.143,-0.098C0.162,-0.091 0.18,-0.087 0.198,-0.087C0.216,-0.087 0.229,-0.091 0.236,-0.098C0.243,-0.105 0.247,-0.114 0.247,-0.124C0.247,-0.135 0.242,-0.144 0.232,-0.151C0.221,-0.157 0.204,-0.164 0.181,-0.173L0.162,-0.18C0.129,-0.193 0.104,-0.21 0.089,-0.232C0.073,-0.253 0.065,-0.278 0.065,-0.305C0.065,-0.326 0.07,-0.348 0.08,-0.372C0.09,-0.395 0.108,-0.414 0.134,-0.431C0.159,-0.448 0.194,-0.456 0.237,-0.456C0.271,-0.456 0.303,-0.452 0.333,-0.444C0.362,-0.435 0.389,-0.42 0.414,-0.399L0.351,-0.32C0.322,-0.349 0.292,-0.363 0.259,-0.363C0.241,-0.363 0.228,-0.359 0.22,-0.352C0.212,-0.345 0.208,-0.335 0.208,-0.324C0.208,-0.313 0.213,-0.304 0.224,-0.297C0.235,-0.29 0.251,-0.283 0.274,-0.275C0.285,-0.272 0.295,-0.268 0.302,-0.265C0.361,-0.24 0.39,-0.203 0.39,-0.153C0.39,-0.124 0.383,-0.098 0.369,-0.073C0.354,-0.048 0.333,-0.029 0.304,-0.014C0.275,0.001 0.241,0.009 0.201,0.009Z" style="fill:rgb(243,170,59);fill-rule:nonzero;"/>
                </g>
                <g transform="matrix(86.2826,0,0,168,206.453,3835.55)">
                    <path d="M0.299,-0.629L0.276,-0.439L0.382,-0.439L0.369,-0.33L0.263,-0.33L0.223,0L0.083,0L0.123,-0.33L0.055,-0.33L0.068,-0.439L0.136,-0.439L0.159,-0.629L0.299,-0.629Z" style="fill:rgb(243,170,59);fill-rule:nonzero;"/>
                </g>
                <g transform="matrix(86.2826,0,0,168,240.448,3835.55)">
                    <path d="M0.239,-0.437L0.185,0L0.045,0L0.099,-0.437L0.239,-0.437ZM0.108,-0.591C0.108,-0.612 0.116,-0.63 0.131,-0.645C0.146,-0.66 0.165,-0.667 0.188,-0.667C0.207,-0.667 0.225,-0.662 0.24,-0.651C0.255,-0.64 0.263,-0.624 0.263,-0.602C0.263,-0.581 0.256,-0.563 0.241,-0.548C0.226,-0.533 0.206,-0.526 0.183,-0.526C0.164,-0.526 0.146,-0.531 0.131,-0.542C0.116,-0.553 0.108,-0.569 0.108,-0.591Z" style="fill:rgb(243,170,59);fill-rule:nonzero;"/>
                </g>
                <g transform="matrix(86.2826,0,0,168,264.952,3835.55)">
                    <path d="M0.406,-0.458C0.447,-0.458 0.48,-0.446 0.504,-0.422C0.529,-0.397 0.539,-0.366 0.536,-0.327L0.496,0L0.356,0L0.39,-0.275C0.391,-0.296 0.388,-0.312 0.379,-0.323C0.37,-0.334 0.354,-0.339 0.333,-0.339C0.301,-0.339 0.274,-0.324 0.251,-0.294C0.228,-0.264 0.213,-0.225 0.208,-0.178L0.186,0L0.046,0L0.099,-0.437L0.226,-0.437L0.228,-0.372C0.247,-0.399 0.272,-0.42 0.303,-0.435C0.334,-0.45 0.368,-0.458 0.406,-0.458Z" style="fill:rgb(243,170,59);fill-rule:nonzero;"/>
                </g>
                <g transform="matrix(86.2826,0,0,168,316.29,3835.55)">
                    <path d="M0.572,-0.437L0.519,0L0.379,0L0.385,-0.054C0.337,-0.01 0.281,0.011 0.216,0.01C0.187,0.011 0.158,0.002 0.131,-0.015C0.104,-0.032 0.081,-0.056 0.064,-0.089C0.047,-0.122 0.038,-0.16 0.038,-0.203C0.038,-0.246 0.049,-0.288 0.07,-0.327C0.091,-0.366 0.121,-0.398 0.158,-0.423C0.195,-0.447 0.237,-0.459 0.284,-0.459C0.323,-0.459 0.353,-0.453 0.374,-0.441C0.395,-0.429 0.413,-0.413 0.427,-0.392L0.442,-0.437L0.572,-0.437ZM0.412,-0.275C0.407,-0.296 0.395,-0.313 0.377,-0.326C0.359,-0.339 0.337,-0.345 0.31,-0.345C0.281,-0.345 0.258,-0.339 0.238,-0.326C0.22,-0.313 0.205,-0.297 0.197,-0.278C0.188,-0.259 0.183,-0.239 0.183,-0.22C0.183,-0.184 0.193,-0.155 0.214,-0.134C0.234,-0.113 0.261,-0.102 0.295,-0.102C0.315,-0.102 0.334,-0.108 0.352,-0.118C0.37,-0.13 0.386,-0.146 0.399,-0.168L0.412,-0.275Z" style="fill:rgb(243,170,59);fill-rule:nonzero;"/>
                </g>
                <g transform="matrix(86.2826,0,0,168,369.613,3835.55)">
                    <path d="M0.299,-0.629L0.276,-0.439L0.382,-0.439L0.369,-0.33L0.263,-0.33L0.223,0L0.083,0L0.123,-0.33L0.055,-0.33L0.068,-0.439L0.136,-0.439L0.159,-0.629L0.299,-0.629Z" style="fill:rgb(243,170,59);fill-rule:nonzero;"/>
                </g>
                <g transform="matrix(86.2826,0,0,168,403.608,3835.55)">
                    <path d="M0.239,-0.437L0.185,0L0.045,0L0.099,-0.437L0.239,-0.437ZM0.108,-0.591C0.108,-0.612 0.116,-0.63 0.131,-0.645C0.146,-0.66 0.165,-0.667 0.188,-0.667C0.207,-0.667 0.225,-0.662 0.24,-0.651C0.255,-0.64 0.263,-0.624 0.263,-0.602C0.263,-0.581 0.256,-0.563 0.241,-0.548C0.226,-0.533 0.206,-0.526 0.183,-0.526C0.164,-0.526 0.146,-0.531 0.131,-0.542C0.116,-0.553 0.108,-0.569 0.108,-0.591Z" style="fill:rgb(243,170,59);fill-rule:nonzero;"/>
                </g>
                <g transform="matrix(86.2826,0,0,168,428.113,3835.55)">
                    <path d="M0.279,0.012C0.242,0.012 0.204,0.004 0.168,-0.012C0.131,-0.027 0.1,-0.051 0.075,-0.084C0.05,-0.116 0.038,-0.156 0.038,-0.204C0.038,-0.243 0.047,-0.282 0.064,-0.321C0.081,-0.36 0.11,-0.392 0.149,-0.418C0.188,-0.444 0.237,-0.457 0.297,-0.457C0.337,-0.457 0.375,-0.449 0.412,-0.432C0.449,-0.414 0.478,-0.39 0.501,-0.357C0.525,-0.324 0.536,-0.286 0.536,-0.241C0.536,-0.206 0.528,-0.17 0.513,-0.131C0.497,-0.092 0.47,-0.059 0.432,-0.031C0.393,-0.002 0.342,0.012 0.279,0.012ZM0.283,-0.103C0.321,-0.103 0.349,-0.117 0.367,-0.145C0.385,-0.172 0.394,-0.202 0.394,-0.235C0.394,-0.276 0.383,-0.304 0.361,-0.32C0.339,-0.335 0.316,-0.343 0.292,-0.343C0.267,-0.343 0.246,-0.336 0.229,-0.323C0.212,-0.309 0.199,-0.292 0.191,-0.272C0.183,-0.251 0.179,-0.231 0.179,-0.211C0.179,-0.171 0.19,-0.143 0.212,-0.127C0.234,-0.111 0.258,-0.103 0.283,-0.103Z" style="fill:rgb(243,170,59);fill-rule:nonzero;"/>
                </g>
                <g transform="matrix(86.2826,0,0,168,477.553,3835.55)">
                    <path d="M0.406,-0.458C0.447,-0.458 0.48,-0.446 0.504,-0.422C0.529,-0.397 0.539,-0.366 0.536,-0.327L0.496,0L0.356,0L0.39,-0.275C0.391,-0.296 0.388,-0.312 0.379,-0.323C0.37,-0.334 0.354,-0.339 0.333,-0.339C0.301,-0.339 0.274,-0.324 0.251,-0.294C0.228,-0.264 0.213,-0.225 0.208,-0.178L0.186,0L0.046,0L0.099,-0.437L0.226,-0.437L0.228,-0.372C0.247,-0.399 0.272,-0.42 0.303,-0.435C0.334,-0.45 0.368,-0.458 0.406,-0.458Z" style="fill:rgb(243,170,59);fill-rule:nonzero;"/>
                </g>
            </g>
        </g>
    </g>
    <defs>
        <linearGradient id="_Linear1" x1="0" y1="0" x2="1" y2="0" gradientUnits="userSpaceOnUse" gradientTransform="matrix(667,917,-1106.43,804.788,2768,1731)"><stop offset="0" style="stop-color:rgb(243,170,59);stop-opacity:1"/><stop offset="0.43" style="stop-color:rgb(237,164,53);stop-opacity:1"/><stop offset="1" style="stop-color:rgb(191,115,0);stop-opacity:1"/></linearGradient>
        <linearGradient id="_Linear2" x1="0" y1="0" x2="1" y2="0" gradientUnits="userSpaceOnUse" gradientTransform="matrix(-748.814,585.739,-585.739,-748.814,763.957,15.5995)"><stop offset="0" style="stop-color:rgb(249,207,0);stop-opacity:1"/><stop offset="1" style="stop-color:rgb(241,159,77);stop-opacity:1"/></linearGradient>
        <linearGradient id="_Linear3" x1="0" y1="0" x2="1" y2="0" gradientUnits="userSpaceOnUse" gradientTransform="matrix(-289.5,206.289,-248.904,-349.305,2857.5,1991)"><stop offset="0" style="stop-color:rgb(249,207,0);stop-opacity:1"/><stop offset="1" style="stop-color:rgb(241,159,77);stop-opacity:1"/></linearGradient>
        <linearGradient id="_Linear4" x1="0" y1="0" x2="1" y2="0" gradientUnits="userSpaceOnUse" gradientTransform="matrix(-1701,1172.25,-282.721,-410.245,2863.83,3564.79)"><stop offset="0" style="stop-color:rgb(249,207,0);stop-opacity:1"/><stop offset="1" style="stop-color:rgb(241,159,77);stop-opacity:1"/></linearGradient>
    </defs>
</svg>
