<?xml version="1.0" encoding="UTF-8" standalone="no"?>
<!DOCTYPE svg PUBLIC "-//W3C//DTD SVG 1.1//EN" "http://www.w3.org/Graphics/SVG/1.1/DTD/svg11.dtd">
<svg width="100%" height="100%" viewBox="0 0 1163 1011" version="1.1" xmlns="http://www.w3.org/2000/svg" xmlns:xlink="http://www.w3.org/1999/xlink" xml:space="preserve" xmlns:serif="http://www.serif.com/" style="fill-rule:evenodd;clip-rule:evenodd;stroke-linecap:round;stroke-miterlimit:10;">
    <g transform="matrix(1,0,0,1,0,-2379)">
        <g id="package-front-door" transform="matrix(1,0,0,1,0.636218,2634.09)">
            <rect x="-0.636" y="-255.093" width="1162.63" height="1010.58" style="fill:none;"/>
            <g transform="matrix(-0.828688,0,0,1,1012.75,-2681.13)">
                <path d="M178,2469.93L178,3369.63L945.337,3369.63L945.337,2469.93L178,2469.93ZM254.67,2533.46L868.666,2533.46L868.666,3306.09L254.67,3306.09L254.67,2533.46Z" style="fill:url(#_Linear1);"/>
            </g>
            <g transform="matrix(1.23219,0,0,1.19651,-154.813,-3255.8)">
                <rect x="664" y="3077" width="251.046" height="238.802" style="fill:white;"/>
            </g>
            <g transform="matrix(0.644878,0,0,0.644878,130.196,-1624.57)">
                <circle cx="364.499" cy="2903.72" r="71.499" style="fill:url(#_Linear2);"/>
            </g>
            <g transform="matrix(0.407022,0,0,0.407022,590.198,421.428)">
                <g transform="matrix(1,0,0,1,-2495.24,-1935.09)">
                    <path d="M3435,2648L2675,2648L2675,1946L3435,1946L3435,2648ZM3017,2549L3017,2369L2768,2369L2768,2549L3017,2549ZM2910,2406L2910,2442L2805,2442L2805,2406L2910,2406ZM3171,1960L2937,1960L2937,2191.29C2945.57,2184.03 2953.8,2176.38 2961.95,2168.66C2968.49,2162.46 2974.95,2156.2 2981.59,2150.11C2985.17,2146.83 2988.79,2143.59 2992.6,2140.57C2993.5,2139.86 2994.41,2139.16 2995.34,2138.47C2995.45,2138.39 2995.56,2138.31 2995.67,2138.24C2995.78,2138.16 2995.89,2137.92 2996,2138C2996.81,2138.59 2997.45,2139.38 2998.18,2140.06C2998.89,2140.73 2999.6,2141.4 3000.31,2142.07C3003.64,2145.22 3006.98,2148.35 3010.33,2151.47C3019.66,2160.14 3029.1,2168.68 3038.66,2177.09C3042.83,2180.75 3047.01,2184.39 3051.2,2188.01C3051.23,2188.03 3054.99,2191.29 3055,2191.29C3055.01,2191.29 3057.15,2189.38 3057.16,2189.37C3059.88,2186.95 3062.57,2184.49 3065.22,2181.99C3070.43,2177.07 3075.51,2172.02 3080.46,2166.84C3085.11,2161.98 3089.66,2157.02 3094.2,2152.06C3096.68,2149.36 3099.16,2146.67 3101.67,2144.01C3102.29,2143.37 3102.9,2142.72 3103.52,2142.08C3103.72,2141.87 3103.84,2141.39 3104.13,2141.45C3104.77,2141.56 3105.22,2142.15 3105.76,2142.5C3106.86,2143.22 3107.96,2143.93 3109.06,2144.64C3113.41,2147.48 3117.73,2150.36 3122.01,2153.3C3129.93,2158.75 3137.69,2164.43 3145.29,2170.32C3154.03,2177.09 3162.57,2184.13 3171,2191.29L3171,1960Z" style="fill:url(#_Linear3);"/>
                </g>
                <g transform="matrix(0.485436,0,0,0.485436,542.816,318.727)">
                    <g>
                        <path d="M456.672,166.916C460.965,161.513 495.859,117.039 522.521,89.818C563.292,48.193 607.344,11.072 657.583,11.072C723.411,11.072 769.589,68.946 769.589,125.56C769.589,175.858 728.545,238.076 660.172,237.878C620.976,237.765 491.743,237.878 491.743,237.878L471.386,264.872L520.788,264.872C569.313,264.872 603.155,307.225 603.155,350.556C603.155,393.887 565.852,434.431 522.521,434.431L345.986,434.431C344,440.389 284.071,511.485 255.063,536.665C219.512,567.525 183.459,590.237 145.282,590.237C72.871,590.237 32.844,529.605 32.844,474.998C32.844,420.391 79.213,364.354 145.282,363.518L310.93,363.518L331.706,336.331L281.02,336.331C235.636,336.331 199.863,296.952 199.863,251.569C199.863,214.057 225.366,166.916 281.02,166.916L456.672,166.916ZM657.383,202.472C701.129,202.472 733.796,168.329 733.796,124.724C733.796,81.119 699.026,46.976 657.383,46.976C603.761,46.976 540.03,115.646 473.627,202.472L283.668,202.472C249.382,202.473 235.353,230.281 235.353,251.63C235.353,272.98 251.97,300.788 283.668,300.789L401.333,300.789C377.12,334.343 352.907,367.897 329.038,399.105L145.282,399.105C105.7,399.106 68.869,433.249 68.869,476.853C68.869,520.458 103.356,554.602 145.282,554.602C198.905,554.602 262.635,485.932 329.038,399.105L518.998,399.105C550.574,399.105 567.312,371.708 567.312,349.947C567.312,328.186 550.817,300.789 518.998,300.789L401.333,300.789C425.546,267.235 449.759,233.681 473.627,202.472L657.383,202.472Z" style="fill:url(#_Linear4);"/>
                        <g transform="matrix(5.06116,-0,-0,5.06116,-4108.51,-4080.56)">
                            <path d="M902.007,839.195C902.001,839.203 902.002,839.214 902.01,839.22C902.018,839.227 902.03,839.225 902.036,839.217C902.042,839.21 902.041,839.198 902.033,839.192C902.025,839.186 902.014,839.187 902.007,839.195Z" style="fill:none;stroke:black;stroke-width:0.02px;"/>
                            <path d="M941.69,846.237C941.68,846.237 941.672,846.245 941.672,846.255C941.672,846.265 941.68,846.273 941.69,846.273C941.7,846.273 941.709,846.265 941.709,846.255C941.709,846.245 941.7,846.237 941.69,846.237Z" style="fill:none;stroke:black;stroke-width:0.02px;"/>
                            <circle cx="901.972" cy="839.23" r="0.018" style="fill:none;stroke:black;stroke-width:0.02px;"/>
                            <circle cx="941.63" cy="846.255" r="0.018" style="fill:none;stroke:black;stroke-width:0.02px;"/>
                            <path d="M902.033,839.192C903.003,837.969 909.804,829.316 915.013,823.997C923.069,815.772 931.773,808.438 941.699,808.438C954.706,808.438 963.83,819.873 963.83,831.059C963.83,840.997 955.72,853.29 942.211,853.251C934.467,853.228 908.932,853.251 908.932,853.251L904.91,858.584L914.671,858.584C924.259,858.584 930.945,866.953 930.945,875.514C930.945,884.076 923.575,892.086 915.013,892.086L880.133,892.086C879.741,893.264 867.9,907.311 862.168,912.286C855.144,918.384 848.02,922.871 840.477,922.871C826.17,922.871 818.261,910.891 818.261,900.102C818.261,889.312 827.423,878.24 840.477,878.075L873.207,878.075L877.312,872.704L867.297,872.704C858.33,872.704 851.262,864.923 851.262,855.956C851.262,848.544 856.301,839.23 867.297,839.23L901.954,839.23M941.709,846.255C950.328,846.23 956.758,839.493 956.758,830.894C956.758,822.278 949.888,815.532 941.66,815.532C931.065,815.532 918.473,829.1 905.353,846.255L867.82,846.255C861.046,846.255 858.274,851.75 858.274,855.968C858.274,860.186 861.557,865.681 867.82,865.681L891.069,865.681C886.285,872.311 881.501,878.94 876.785,885.107L840.477,885.107C832.657,885.107 825.379,891.853 825.379,900.468C825.379,909.084 832.193,915.83 840.477,915.83C851.072,915.83 863.664,902.262 876.785,885.107L914.317,885.107C920.556,885.107 923.863,879.693 923.863,875.394C923.863,871.094 920.604,865.681 914.317,865.681L891.069,865.681C895.853,859.051 900.637,852.422 905.353,846.255L941.611,846.255" style="fill:none;stroke:black;stroke-width:0.02px;stroke-linejoin:round;stroke-miterlimit:1.5;"/>
                        </g>
                    </g>
                </g>
                <g transform="matrix(1,0,0,1,-2495.24,-1941.09)">
                    <path d="M2675,2049.04L2713.82,2049.04C2715.9,2046.41 2732.84,2024.82 2745.78,2011.61C2765.58,1991.4 2786.96,1973.38 2811.35,1973.38C2843.3,1973.38 2865.72,2001.48 2865.72,2028.96C2865.72,2053.38 2845.8,2083.58 2812.61,2083.48C2793.58,2083.43 2730.84,2083.48 2730.84,2083.48L2720.96,2096.59L2744.94,2096.59C2768.5,2096.59 2784.93,2117.15 2784.93,2138.18C2784.93,2159.22 2766.82,2178.9 2745.78,2178.9L2675,2178.9L2675,2161.75L2744.07,2161.75C2759.4,2161.75 2767.53,2148.45 2767.53,2137.89C2767.53,2127.32 2759.52,2114.02 2744.07,2114.02L2686.95,2114.02C2698.71,2097.74 2710.46,2081.45 2722.05,2066.3L2811.25,2066.3C2832.49,2066.3 2848.35,2049.72 2848.35,2028.56C2848.35,2007.39 2831.47,1990.81 2811.25,1990.81C2785.22,1990.81 2754.28,2024.15 2722.05,2066.3L2675,2066.3L2675,2049.04ZM2675,2130.55L2675,2114.02L2686.95,2114.02C2682.97,2119.55 2678.98,2125.07 2675,2130.55Z" style="fill:url(#_Linear5);"/>
                </g>
            </g>
        </g>
    </g>
    <defs>
        <linearGradient id="_Linear1" x1="0" y1="0" x2="1" y2="0" gradientUnits="userSpaceOnUse" gradientTransform="matrix(767.337,0,0,899.702,178,2919.78)"><stop offset="0" style="stop-color:rgb(249,207,0);stop-opacity:1"/><stop offset="1" style="stop-color:rgb(241,159,77);stop-opacity:1"/></linearGradient>
        <linearGradient id="_Linear2" x1="0" y1="0" x2="1" y2="0" gradientUnits="userSpaceOnUse" gradientTransform="matrix(142.998,0,0,142.998,293,2903.72)"><stop offset="0" style="stop-color:rgb(249,207,0);stop-opacity:1"/><stop offset="1" style="stop-color:rgb(241,159,77);stop-opacity:1"/></linearGradient>
        <linearGradient id="_Linear3" x1="0" y1="0" x2="1" y2="0" gradientUnits="userSpaceOnUse" gradientTransform="matrix(667,917,-1106.43,804.788,2768,1731)"><stop offset="0" style="stop-color:rgb(243,170,59);stop-opacity:1"/><stop offset="0.43" style="stop-color:rgb(237,164,53);stop-opacity:1"/><stop offset="1" style="stop-color:rgb(191,115,0);stop-opacity:1"/></linearGradient>
        <linearGradient id="_Linear4" x1="0" y1="0" x2="1" y2="0" gradientUnits="userSpaceOnUse" gradientTransform="matrix(-748.814,585.739,-585.739,-748.814,763.957,15.5995)"><stop offset="0" style="stop-color:rgb(249,207,0);stop-opacity:1"/><stop offset="1" style="stop-color:rgb(241,159,77);stop-opacity:1"/></linearGradient>
        <linearGradient id="_Linear5" x1="0" y1="0" x2="1" y2="0" gradientUnits="userSpaceOnUse" gradientTransform="matrix(-289.5,206.289,-248.904,-349.305,2857.5,1991)"><stop offset="0" style="stop-color:rgb(249,207,0);stop-opacity:1"/><stop offset="1" style="stop-color:rgb(241,159,77);stop-opacity:1"/></linearGradient>
    </defs>
</svg>
