<?xml version="1.0" encoding="UTF-8" standalone="no"?>
<!DOCTYPE svg PUBLIC "-//W3C//DTD SVG 1.1//EN" "http://www.w3.org/Graphics/SVG/1.1/DTD/svg11.dtd">
<svg width="100%" height="100%" viewBox="0 0 1163 1011" version="1.1" xmlns="http://www.w3.org/2000/svg" xmlns:xlink="http://www.w3.org/1999/xlink" xml:space="preserve" xmlns:serif="http://www.serif.com/" style="fill-rule:evenodd;clip-rule:evenodd;stroke-linejoin:round;stroke-miterlimit:2;">
    <g transform="matrix(1,0,0,1,-8529,-643)">
        <g id="Present" transform="matrix(1,0,0,1,8529.99,898.093)">
            <rect x="-0.636" y="-255.093" width="1162.62" height="1010.58" style="fill:none;"/>
            <g transform="matrix(1.60747,0,0,1.60747,-135.762,39.7418)">
                <g transform="matrix(0.330236,0,0,0.935753,-352.339,-687.933)">
                    <path d="M2315.46,790.431L1529.94,790.431C1486.43,790.431 1451.16,802.879 1451.16,818.235L1451.16,905.569C1451.16,909.298 1459.72,912.32 1470.29,912.32C1597.43,912.32 2315.46,912.32 2315.46,912.32L2315.46,790.431Z" style="fill:rgb(243,170,59);"/>
                </g>
                <g transform="matrix(0.301653,0,0,2.17169,-286.157,-1550.8)">
                    <path d="M2315.46,790.431L1451.16,790.431C1451.16,790.431 1451.16,875.324 1451.16,903.414C1451.16,908.333 1479.86,912.32 1515.27,912.32L2315.46,912.32L2315.46,790.431Z" style="fill:url(#_Linear1);"/>
                </g>
                <g transform="matrix(-0.330236,0,0,0.935753,1234.43,-687.933)">
                    <path d="M2315.46,790.431L1529.94,790.431C1486.43,790.431 1451.16,802.879 1451.16,818.235C1451.16,846.767 1451.16,889.224 1451.16,905.569C1451.16,909.298 1459.72,912.32 1470.29,912.32C1597.43,912.32 2315.46,912.32 2315.46,912.32L2315.46,790.431Z" style="fill:rgb(243,170,59);"/>
                </g>
                <g transform="matrix(-0.301653,0,0,2.17169,1168.24,-1550.8)">
                    <path d="M2315.46,790.431L1451.16,790.431C1451.16,790.431 1451.16,875.324 1451.16,903.414C1451.16,908.333 1479.86,912.32 1515.27,912.32L2315.46,912.32L2315.46,790.431Z" style="fill:url(#_Linear2);"/>
                </g>
                <g transform="matrix(0.753167,0,0,0.753167,-978.563,-525.489)">
                    <path d="M1853.08,754.559L1833.62,728.763C1833.62,728.763 1697.96,728.643 1656.81,728.763C1585.03,728.971 1541.95,663.655 1541.95,610.854C1541.95,551.422 1590.42,490.667 1659.53,490.667C1712.27,490.667 1758.51,529.637 1801.31,573.333C1828.98,601.583 1865.1,647.533 1870.27,654.058L1899.26,654.058C1903.77,648.386 1940.4,601.699 1968.39,573.123C2011.19,529.426 2057.43,490.457 2110.17,490.457C2179.28,490.457 2227.75,551.212 2227.75,610.643C2227.75,663.445 2184.66,728.76 2112.89,728.552C2071.74,728.433 1936.08,728.552 1936.08,728.552L1916.46,754.559L1853.08,754.559ZM1852.64,691.594C1863.3,705.526 1874.02,719.902 1884.77,734.535C1895.53,719.903 1906.25,705.527 1916.9,691.594L1852.64,691.594C1782.93,600.446 1716.03,528.359 1659.74,528.359C1616.02,528.359 1579.52,564.201 1579.52,609.977C1579.52,655.751 1613.81,691.594 1659.74,691.594L1852.64,691.594ZM1917.02,691.384L1917.03,691.424L1917.06,691.384L2109.96,691.384C2155.88,691.384 2190.18,655.541 2190.18,609.766C2190.18,563.991 2153.68,528.148 2109.96,528.148C2053.67,528.148 1986.77,600.235 1917.06,691.384L1917.02,691.384Z" style="fill:url(#_Linear3);"/>
                </g>
            </g>
        </g>
    </g>
    <defs>
        <linearGradient id="_Linear1" x1="0" y1="0" x2="1" y2="0" gradientUnits="userSpaceOnUse" gradientTransform="matrix(5.37322e-14,-121.889,877.514,7.46354e-15,1883.31,912.32)"><stop offset="0" style="stop-color:rgb(243,170,59);stop-opacity:1"/><stop offset="0.91" style="stop-color:rgb(237,164,53);stop-opacity:1"/><stop offset="1" style="stop-color:rgb(191,115,0);stop-opacity:1"/></linearGradient>
        <linearGradient id="_Linear2" x1="0" y1="0" x2="1" y2="0" gradientUnits="userSpaceOnUse" gradientTransform="matrix(-5.37322e-14,-121.889,-877.514,7.46354e-15,2938.12,912.32)"><stop offset="0" style="stop-color:rgb(243,170,59);stop-opacity:1"/><stop offset="0.91" style="stop-color:rgb(237,164,53);stop-opacity:1"/><stop offset="1" style="stop-color:rgb(191,115,0);stop-opacity:1"/></linearGradient>
        <linearGradient id="_Linear3" x1="0" y1="0" x2="1" y2="0" gradientUnits="userSpaceOnUse" gradientTransform="matrix(-986.192,742.414,-742.414,-986.192,2347.23,668.836)"><stop offset="0" style="stop-color:rgb(249,207,0);stop-opacity:1"/><stop offset="1" style="stop-color:rgb(241,159,77);stop-opacity:1"/></linearGradient>
    </defs>
</svg>
