<?xml version="1.0" encoding="UTF-8" standalone="no"?>
<!DOCTYPE svg PUBLIC "-//W3C//DTD SVG 1.1//EN" "http://www.w3.org/Graphics/SVG/1.1/DTD/svg11.dtd">
<svg viewBox="0 0 2491 196" xmlns="http://www.w3.org/2000/svg" fill-rule="evenodd" clip-rule="evenodd" stroke-linejoin="round" stroke-miterlimit="2">
  <path class="site-head__logoSVG" d="M1745.032.05c.81-.035 1.619-.052 2.439-.052h285.137c12.256 0 24.005 4.13 32.668 11.482 8.33 7.067 13.146 16.565 13.5 26.526.03.576.051 1.16.051 1.744v116.334c0 .584-.02 1.168-.05 1.743-.355 9.953-5.162 19.434-13.49 26.493-8.228 6.99-19.25 11.06-30.837 11.438-.81.034-1.62.052-2.439.052h-285.147c-12.246 0-23.996-4.131-32.658-11.482-8.33-7.067-13.157-16.557-13.51-26.527-.021-.575-.041-1.159-.041-1.743V39.724c0-.584.02-1.16.04-1.744.354-9.952 5.172-19.433 13.49-26.492 8.238-6.981 19.26-11.052 30.847-11.438zm285.42 39.141H1749.83c-3.016 0-5.91 1.022-8.036 2.826-2.135 1.812-3.33 4.268-3.33 6.827l-.04 95.372h.04v2.774c0 2.559 1.195 5.015 3.33 6.827 1.943 1.649 4.514 2.636 7.236 2.8h280.624c3.016 0 5.9-1.014 8.035-2.826 2.136-1.812 3.33-4.268 3.33-6.818V48.818c0-2.56-1.194-5.015-3.33-6.819-1.943-1.648-4.513-2.645-7.236-2.808zM37.81 195.81c-20.798 0-37.815-14.293-37.815-32.11V39.765C-.005 17.837 20.983.02 46.885.02H332.01c12.1 0 24.012 4.112 32.52 11.552 8.698 7.244 13.614 17.23 13.614 27.606H49.155c-3.026 0-5.862.979-7.941 2.937-2.27 1.762-3.404 4.111-3.404 6.657v29.564h294.01v39.158H37.81v78.316zM480.979 195.81c-12.479 0-24.39-4.112-33.088-11.552-8.886-7.44-13.802-17.621-13.802-28.194V32.13c0-17.817 17.016-32.11 37.814-32.11v147.038c0 5.286 5.105 9.594 11.345 9.594h274.346c0 21.537-20.798 39.158-46.134 39.158H480.979zM859.495 195.81c-25.903 0-46.89-17.817-46.89-39.746V39.765c0-21.928 20.987-39.745 46.89-39.745h285.123c12.101 0 24.013 4.112 32.521 11.552 8.697 7.244 13.613 17.23 13.613 27.606H861.764c-3.025 0-5.861.979-7.941 2.937-2.269 1.762-3.403 4.111-3.403 6.657v29.564h293.442v39.158H850.42v29.564c0 2.545 1.134 4.895 3.403 6.853 2.08 1.762 4.916 2.74 7.941 2.74h328.988c0 10.378-4.916 20.363-13.424 27.607-8.697 7.44-20.42 11.552-32.71 11.552H859.495zM1447.873 97.915l131.028 97.895h-46.323c-14.937 0-29.495-4.7-40.65-13.118-27.794-20.754-78.844-58.737-78.844-58.737s-51.05 38.179-78.844 58.737c-11.155 8.419-25.714 13.118-40.65 13.118h-46.324l131.028-97.895L1247.266.02h46.323c14.937 0 29.496 4.7 40.651 13.118 27.794 20.558 78.844 58.737 78.844 58.737s51.05-37.983 78.843-58.737C1503.083 4.719 1517.641.02 1532.578.02h46.323l-131.028 97.895zM1644.752 195.81c-20.798 0-37.815-14.293-37.815-32.11V32.13c0-17.817 17.017-32.11 37.815-32.11v195.79zM2172.599 195.81c-20.799 0-37.815-14.293-37.815-32.11V39.765c0-21.928 20.987-39.745 46.89-39.745h10.21c10.4 0 20.61 3.133 28.74 8.615 42.73 29.368 179.997 123.739 209.682 144.101 3.592 2.545 8.13 3.916 12.857 3.916 2.458 0 4.916-.783 6.618-2.35 1.701-1.37 2.647-3.524 2.647-5.482V.02c20.987 0 38.003 14.293 38.003 32.11v123.934c0 21.929-20.987 39.746-46.89 39.746h-10.399c-10.399 0-20.609-3.133-28.74-8.615-42.54-29.369-179.997-123.74-209.682-144.101-3.592-2.545-8.13-3.916-12.857-3.916-2.458 0-4.727.783-6.617 2.35-1.702 1.566-2.647 3.524-2.647 5.677V195.81z"/>
</svg>