<!DOCTYPE svg PUBLIC "-//W3C//DTD SVG 1.1//EN" "http://www.w3.org/Graphics/SVG/1.1/DTD/svg11.dtd">
<svg viewBox="0 0 945 876" xmlns="http://www.w3.org/2000/svg" fill-rule="evenodd" clip-rule="evenodd" stroke-linejoin="round" stroke-miterlimit="2">
  <path d="M2315.46 790.431h-793.4c-39.16 0-70.9 11.203-70.9 25.022v52.456c0 11.778 13.26 23.074 36.86 31.403 23.6 8.329 55.6 13.008 88.98 13.008h738.46V790.431z" fill="url(#_Linear1)" transform="matrix(.43846 0 0 1.24242 -597.095 -694.791)"/>
  <path d="M2365.03 929.814h-788.11l-1.01-.002-1.09-.003-1.09-.006-1.08-.008-1.09-.011-1.08-.013-1.09-.016-1.08-.017-1.09-.021-1.08-.022-1.08-.025-1.09-.027-1.08-.03-1.07-.031-1.08-.035-1.08-.036-1.07-.039-1.07-.041-1.08-.044-1.07-.046-1.07-.048-1.06-.05-1.07-.053-1.07-.055-1.07-.057-1.06-.06-1.06-.062-1.06-.064-1.06-.066-1.06-.069-1.06-.071-1.05-.073-1.06-.075-1.05-.078-1.05-.08-1.04-.082-1.05-.085-1.05-.087-1.04-.089-1.04-.091-1.04-.093-1.03-.095-1.04-.098-1.03-.1-1.03-.102-1.04-.105-1.02-.107-1.03-.108-1.02-.111-1.02-.113-1.02-.116-1.02-.118-1.02-.119-1.01-.122-1-.124-1.01-.126-1.01-.129-1-.13-1-.133-1.01-.135-.99-.137-1-.139-.99-.142-.99-.143-.98-.145-.99-.148-.98-.149-.98-.152-.98-.155-.97-.155-.97-.158-.97-.161-.97-.162-.96-.165-.96-.166-.96-.169-.95-.171-.95-.172-.95-.175-.95-.177-.94-.179-.94-.181-.94-.183-.93-.185-.94-.188-.92-.189-.93-.19-.92-.194-.92-.196-.91-.197-.91-.199-.91-.201-.91-.205-.9-.204-.9-.207-.9-.211-.89-.21-.89-.213-.89-.217-.88-.216-.88-.22-.87-.221-.87-.224-.87-.225-.86-.227-.87-.229-.85-.231-.86-.233-.84-.235-.85-.237-.84-.238-.84-.242-.84-.243-.83-.245-.82-.245-.82-.249-.83-.252-.81-.252-.8-.253-.81-.256-.81-.26-.79-.258-.8-.262-.79-.264-.78-.265-.79-.268-.78-.27-.77-.27-.76-.271-.77-.276-.76-.276-.74-.276-.75-.28-.75-.28-.73-.28-.73-.285-.73-.285-.72-.286-.71-.286-.71-.289-.71-.293-.7-.289-.69-.293-.69-.296-.68-.295-.68-.297-.67-.298-.66-.299-.67-.303-.65-.303-.65-.302-.64-.307-.64-.304-.63-.308-.63-.309-.62-.308-.62-.315-.61-.312-.6-.313-.6-.315-.6-.316-.58-.317-.58-.318-.58-.321-.57-.319-.56-.321-.57-.325-.55-.325-.55-.326-.54-.325-.53-.326-.54-.331-.52-.33-.52-.329-.51-.332-.51-.335-.5-.333-.49-.332-.49-.338-.49-.339-.47-.334-.48-.341-.47-.341-.46-.34-.45-.342-.45-.341-.44-.345-.44-.345-.42-.343-.43-.347-.42-.351-.41-.347-.4-.347-.41-.35-.39-.353-.39-.353-.38-.352-.37-.35-.38-.356-.36-.356-.36-.354-.35-.358-.35-.359-.33-.356-.34-.359-.32-.36-.33-.361-.31-.361-.31-.362-.3-.362-.3-.363-.28-.364-.29-.364-.28-.367-.27-.368-.26-.365-.26-.366-.25-.369-.25-.367-.24-.37-.23-.371-.23-.371-.22-.371-.21-.369-.21-.372-.2-.376-.2-.373-.18-.373-.18-.374-.18-.374-.17-.377-.16-.374-.16-.378-.15-.379-.14-.372-.14-.379-.12-.379-.13-.379-.11-.38-.11-.376-.11-.384-.09-.38-.1-.377-.08-.384-.08-.38-.07-.381-.06-.384-.06-.382-.05-.381-.04-.384-.04-.385-.03-.382-.02-.381-.02-.385-.01-.385V815.179l.01-.268.01-.279.02-.268.02-.269.02-.273.04-.274.03-.268.04-.269.05-.274.05-.268.06-.269.06-.268.06-.268.07-.269.08-.268.08-.268.08-.268.09-.263.09-.268.1-.268.1-.262.11-.268.11-.262.12-.262.12-.267.13-.262.13-.261.13-.262.14-.261.14-.261.15-.261.16-.26.16-.261.16-.26.16-.254.17-.255.18-.259.18-.259.18-.254.19-.259.2-.253.19-.253.2-.252.21-.252.21-.252.21-.252.22-.251.22-.251.23-.251.23-.245.24-.249.24-.25.24-.249.25-.244.25-.243.25-.243.26-.242.27-.247.27-.246.27-.237.28-.241.29-.245.28-.236.28-.238.3-.238.29-.235.3-.239.31-.236.3-.233.32-.237.31-.23.32-.231.33-.235.32-.23.33-.229.34-.232.34-.229.34-.224.34-.226.36-.226.35-.226.35-.221.37-.226.36-.222.37-.22.37-.223.38-.217.38-.222.38-.216.39-.216.39-.219.39-.212.39-.213.4-.213.41-.213.41-.212.41-.212.42-.212.41-.206.42-.207.43-.209.43-.205.42-.202.44-.203.44-.205.44-.201.44-.202.46-.202.44-.195.45-.197.47-.202.46-.194.45-.191.48-.198.48-.196.46-.188.48-.19.47-.189.49-.189.49-.19.49-.186.49-.187.51-.187.49-.181.5-.18.5-.182.51-.18.51-.18.52-.179.52-.178.52-.178.52-.173.52-.172.54-.175.52-.169.53-.17.55-.173.54-.168.55-.167.54-.166.55-.163.55-.165.56-.163.55-.161.57-.161.57-.161.56-.158.57-.155.56-.154.58-.155.57-.153.6-.156.58-.15.57-.148.6-.15.59-.146.59-.146.6-.147.6-.144.6-.14.6-.142.61-.141.61-.138.61-.138.61-.135.62-.135.63-.137.62-.132.62-.129.62-.13.64-.13.63-.128.64-.125.63-.124.64-.124.65-.123.63-.12.65-.12.65-.118.66-.117.65-.116.65-.114.66-.112.66-.112.66-.11.67-.109.67-.108.67-.106.67-.103.67-.104.69-.103.67-.099.68-.099.68-.098.69-.096.68-.095.7-.094.68-.091.69-.089.7-.09.7-.088.7-.086.7-.085.7-.083.7-.08.71-.081.72-.079.71-.078.7-.074.71-.074.73-.073.71-.071.73-.071.72-.067.72-.067.72-.065.72-.063.74-.062.73-.06.73-.059.73-.057.74-.056.73-.053.74-.053.74-.051.74-.049.74-.048.75-.046.74-.044.75-.043.74-.041.75-.039.76-.039.75-.036.75-.035.75-.032.76-.032.76-.03.75-.027.76-.027.76-.024.76-.023.76-.022.76-.019.77-.018.77-.017.76-.014.77-.013.77-.011.76-.01.77-.007.78-.006.76-.005.78-.002.69-.001h843.05v156.877zm-842.9-121.889h-.35l-.16.001-.13.001-.14.002-.15.002-.14.002-.14.002-.15.003-.13.003-.13.003-.15.003-.13.004-.13.004-.14.005-.14.005-.14.005-.13.005-.14.005-.13.006-.14.006-.13.007-.12.006-.13.007-.14.008-.14.007-.13.008-.12.008-.13.008-.14.009-.12.009-.13.009-.13.009-.13.01-.12.01-.14.011-.12.01-.12.01-.13.011-.13.012-.13.012-.12.012-.12.011-.13.012-.11.012-.13.013-.13.015-.13.013-.11.013-.12.013-.13.015-.13.015-.11.014-.13.015-.11.015-.12.015-.12.016-.13.017-.11.015-.12.017-.12.016-.12.017-.12.018-.12.018-.11.016-.12.018-.12.02-.12.019-.12.018-.11.018-.12.019-.11.02-.12.02-.11.02-.12.02-.11.021-.11.02-.12.021-.11.022-.11.021-.11.021-.12.023-.11.023-.11.021-.11.022-.11.024-.12.025-.11.023-.1.021-.11.024-.11.026-.11.024-.11.025-.11.024-.1.025-.12.028-.1.025-.1.023-.11.027-.11.027-.1.026-.11.028-.11.028-.09.024-.1.028-.11.027-.1.03-.11.03-.1.028-.1.026-.1.028-.1.03-.1.029-.09.028-.11.032-.1.03-.09.03-.1.031-.09.027-.1.031-.1.033-.09.029-.1.034-.1.033-.09.03-.09.031-.09.032-.09.031-.09.033-.09.032-.1.036-.09.035-.09.031-.09.032-.08.035-.09.031-.08.033-.09.035-.09.036-.09.038-.08.032-.08.031-.09.039-.08.037-.08.031-.08.036-.09.04-.07.033-.08.035-.08.037-.08.034-.08.038-.08.039-.08.038-.07.034-.07.037-.08.04-.07.035-.08.037-.07.037-.07.037-.07.038-.07.039-.08.042-.06.035-.07.039-.07.04-.06.036-.07.041-.06.037-.07.04-.07.039-.06.037-.06.043-.06.039-.06.038-.07.041-.06.043-.06.04-.05.037-.06.041-.06.041-.05.037-.06.043-.06.043-.05.038-.06.043-.05.04-.05.039-.05.044-.06.041-.05.042-.05.046-.04.036-.05.042-.05.047-.05.038-.04.039-.04.043-.05.044-.05.046-.04.044-.04.04-.04.041-.04.042-.04.046-.04.043-.04.042-.04.043-.03.043-.04.044-.04.044-.03.045-.04.045-.03.046-.03.041-.04.046-.03.042-.02.043-.04.047-.03.049-.03.043-.02.044-.03.045-.02.044-.03.046-.02.046-.03.046-.02.047-.02.047-.02.043-.02.048-.02.049-.02.044-.02.05-.02.045-.01.045-.02.051-.01.047-.02.047-.01.047-.01.048-.02.049-.01.049-.01.049-.01.05V815l-.01.051-.01.051-.01.047v.101l-.01.054V868.242l.01.167.01.169.02.168.01.166.02.165.02.168.03.167.02.164.03.167.04.166.04.163.04.169.04.165.04.162.05.167.05.165.05.164.06.163.06.163.06.169.07.162.06.162.07.165.08.161.07.164.08.163.08.163.09.163.09.159.09.162.09.164.1.161.09.16.11.16.1.16.11.162.1.159.12.161.11.161.12.157.12.157.12.159.13.159.13.159.13.158.14.157.13.157.14.157.14.155.15.156.15.159.15.153.15.154.15.157.16.153.16.153.17.157.17.154.16.151.17.151.18.152.18.154.17.152.18.149.19.15.19.153.19.149.19.149.2.15.19.148.2.15.2.146.21.146.21.15.21.145.21.144.22.149.22.145.21.143.23.144.23.146.22.144.23.14.24.144.23.143.24.141.24.14.24.139.25.14.25.141.25.138.25.139.26.138.25.138.26.137.27.137.26.136.27.132.27.137.27.133.27.133.29.136.27.131.29.133.28.131.29.129.29.131.29.13.29.13.3.129.3.126.3.128.31.129.3.124.31.125.31.127.31.124.32.123.31.122.33.124.32.122.32.12.33.122.33.12.33.118.34.12.34.119.34.117.33.116.34.115.35.114.34.114.35.115.35.111.35.11.36.112.35.11.35.107.36.109.36.108.36.106.36.105.36.104.37.105.37.103.37.102.37.102.37.1.38.1.37.098.38.098.38.097.38.096.38.095.39.096.38.092.38.093.4.093.38.09.4.091.39.089.39.088.39.087.4.087.4.086.4.085.4.084.4.083.41.084.4.08.4.08.41.08.41.079.42.078.4.076.42.077.41.075.42.074.41.073.42.073.42.071.42.071.42.069.42.069.43.069.42.066.43.066.42.065.43.064.44.064.43.063.42.06.44.061.43.06.43.058.44.058.44.057.43.055.44.055.44.055.45.053.43.052.45.051.44.05.44.049.45.048.45.048.45.046.44.045.45.045.45.044.45.042.45.041.45.041.46.04.45.039.45.037.45.037.46.036.46.035.45.033.46.033.46.032.46.031.46.029.46.029.46.028.46.027.47.026.46.025.46.024.46.022.47.023.47.021.46.019.47.019.46.018.47.017.47.016.46.015.48.014.47.013.46.011.48.011.47.01.47.009.47.007.47.007.47.006.47.004.48.004.47.003.48.001.55.001h688.81v-86.901h-743.76z" fill="url(#_Linear2)" transform="matrix(.43846 0 0 1.24242 -597.095 -694.791)"/>
  <path d="M2315.46 790.431h-798.72c-36.22 0-65.58 4.829-65.58 10.786v98.336c0 7.051 34.75 12.767 77.62 12.767h786.68V790.431z" fill="url(#_Linear3)" transform="matrix(.40051 0 0 2.43515 -509.222 -1384.994)"/>
  <path d="M2369.73 921.245h-841.78l-.85-.002-.87-.002-.83-.003-.83-.004-.87-.005-.83-.005-.83-.007-.84-.007-.83-.008-.85-.01-.83-.01-.83-.011-.84-.011-.83-.013-.83-.013-.83-.015-.84-.015-.83-.016-.81-.017-.81-.017-.84-.019-.83-.019-.81-.02-.81-.021-.83-.022-.81-.023-.81-.023-.83-.025-.79-.025-.81-.025-.81-.027-.81-.028-.81-.028-.79-.029-.81-.03-.8-.031-.79-.032-.79-.032-.81-.034-.79-.034-.77-.034-.8-.035-.78-.037-.79-.037-.8-.038-.76-.038-.78-.04-.78-.04-.76-.04-.79-.042-.78-.043-.74-.042-.77-.044-.77-.045-.75-.045-.78-.047-.75-.047-.75-.047-.75-.048-.75-.049-.74-.05-.75-.051-.75-.051-.73-.052-.74-.053-.75-.054-.72-.053-.72-.054-.75-.057-.72-.056-.72-.056-.73-.059-.71-.057-.72-.059-.71-.06-.7-.06-.71-.061-.71-.062-.7-.062-.71-.063-.7-.064-.69-.064-.68-.065-.7-.066-.7-.068-.66-.064-.68-.068-.7-.07-.67-.069-.67-.068-.66-.07-.68-.072-.65-.07-.67-.073-.66-.073-.66-.073-.65-.074-.65-.074-.65-.076-.63-.075-.66-.078-.64-.077-.62-.077-.63-.077-.63-.079-.64-.082-.62-.078-.61-.08-.63-.083-.6-.081-.62-.083-.61-.083-.6-.083-.6-.084-.6-.085-.6-.086-.58-.085-.6-.086-.59-.089-.57-.085-.58-.089-.59-.09-.56-.089-.58-.09-.55-.089-.57-.091-.57-.094-.54-.089-.55-.092-.57-.096-.54-.094-.54-.093-.53-.094-.54-.095-.55-.098-.51-.094-.53-.097-.54-.101-.5-.095-.51-.097-.52-.1-.51-.1-.51-.101-.49-.099-.5-.102-.49-.101-.5-.102-.48-.103-.48-.101-.48-.104-.48-.104-.48-.107-.47-.104-.45-.104-.47-.107-.45-.105-.45-.107-.46-.109-.45-.109-.44-.107-.43-.107-.44-.11-.43-.11-.43-.111-.42-.111-.42-.112-.41-.11-.41-.111-.41-.114-.41-.113-.39-.113-.4-.114-.39-.114-.39-.115-.38-.115-.37-.114-.38-.116-.38-.119-.36-.117-.36-.116-.36-.117-.36-.12-.35-.119-.34-.116-.35-.121-.33-.119-.33-.121-.34-.122-.32-.119-.32-.121-.31-.122-.31-.122-.31-.121-.3-.125-.3-.123-.3-.125-.29-.125-.28-.124-.28-.121-.28-.126-.27-.128-.27-.125-.26-.127-.26-.126-.25-.125-.25-.129-.24-.128-.24-.128-.24-.128-.22-.126-.23-.131-.22-.129-.22-.13-.21-.131-.2-.129-.2-.13-.2-.132-.2-.132-.18-.131-.18-.129-.18-.132-.17-.134-.17-.133-.16-.133-.16-.133-.15-.133-.15-.133-.14-.134-.14-.134-.14-.136-.12-.133-.12-.134-.12-.137-.11-.133-.11-.137-.11-.137-.09-.134-.1-.137-.08-.136-.08-.138-.08-.136-.07-.137-.07-.137-.06-.137-.05-.137-.05-.14-.05-.137-.04-.137-.03-.139-.03-.137-.03-.14-.02-.14-.01-.136-.01-.14v-98.604l.01-.124.01-.128.02-.124.02-.125.03-.127.03-.125.03-.125.05-.127.04-.125.05-.125.06-.124.06-.125.06-.125.07-.122.08-.124.07-.125.09-.124.09-.125.09-.122.1-.124.1-.125.11-.121.11-.121.11-.121.12-.122.13-.124.13-.124.13-.118.14-.121.15-.124.14-.117.16-.122.16-.124.15-.116.17-.118.17-.123.18-.121.17-.114.18-.119.2-.12.19-.118.19-.119.2-.116.21-.117.21-.119.21-.115.22-.117.22-.115.22-.115.24-.117.22-.112.24-.115.25-.118.25-.116.25-.111.25-.11.26-.115.27-.115.27-.113.26-.111.28-.111.27-.11.29-.111.29-.112.29-.112.3-.111.29-.106.3-.109.31-.11.31-.107.31-.109.32-.108.33-.108.33-.109.32-.105.34-.106.34-.108.33-.101.34-.106.36-.107.35-.103.35-.104.36-.102.37-.106.37-.102.35-.099.38-.102.38-.103.38-.101.39-.103.39-.098.38-.099.4-.1.39-.097.41-.101.41-.098.4-.096.42-.098.41-.097.42-.095.42-.097.43-.095.43-.095.43-.095.43-.093.44-.094.45-.093.44-.092.46-.094.45-.093.44-.088.46-.091.47-.093.46-.088.47-.09.48-.089.45-.086.49-.09.5-.09.47-.085.48-.085.49-.087.5-.086.5-.085.49-.084.51-.084.51-.086.49-.08.52-.083.53-.084.5-.081.53-.081.51-.08.53-.08.54-.082.53-.077.52-.078.56-.08.53-.076.53-.076.56-.078.54-.075.56-.076.57-.077.55-.073.55-.073.57-.073.57-.073.57-.073.56-.07.58-.072.59-.072.57-.069.58-.069.58-.069.59-.068.6-.068.58-.066.61-.069.6-.066.58-.064.61-.065.61-.064.61-.064.62-.064.61-.063.61-.061.62-.062.62-.061.62-.059.64-.061.63-.059.62-.058.64-.059.63-.056.64-.057.66-.057.62-.054.65-.055.66-.055.64-.053.66-.053.65-.052.66-.052.65-.051.66-.05.68-.051.67-.049.66-.048.67-.048.67-.046.67-.047.69-.047.68-.045.68-.045.68-.043.67-.042.69-.043.7-.043.7-.042.7-.04.68-.04.69-.039.71-.038.7-.038.7-.037.71-.037.72-.036.71-.035.68-.033.72-.035.74-.034.69-.031.72-.032.73-.031.71-.029.74-.03.73-.029.7-.027.72-.027.75-.028.74-.026.71-.024.75-.025.74-.023.71-.023.76-.022.74-.021.74-.021.75-.02.74-.019.73-.018.76-.018.74-.017.74-.015.78-.016.73-.014.76-.014.76-.013.74-.012.76-.012.75-.011.76-.009.76-.01.78-.008.76-.008.74-.006.75-.006.78-.005.78-.005.75-.003.76-.003.78-.002.77-.001.68-.001h853.07v139.74zm-852.91-121.889H1516.58l-.07.001h-.18l-.06.001h-.07l-.08.001-.1.001h-.08l-.05.001-.08.001-.07.001-.07.001-.07.001-.09.002-.07.001-.07.001-.08.002h-.05l-.08.002-.08.002-.06.001-.07.002-.08.002-.06.002-.07.002-.07.002-.05.001-.09.003-.07.002-.05.002-.08.003-.07.002-.04.002-.08.003-.08.003-.06.002-.06.002-.07.004-.06.002-.06.003-.09.004-.04.002-.06.002-.09.005-.06.003-.05.002-.07.004-.06.003-.06.003-.06.004-.07.003-.08.005-.06.003-.05.004-.05.003-.06.003-.08.005-.07.005-.06.004-.06.004-.05.003-.06.004-.07.005-.06.005-.07.005-.06.004-.04.003-.07.005-.07.005-.05.005-.07.005-.05.005-.08.006-.04.004-.06.004-.08.007-.04.004-.06.005-.07.007-.05.004-.07.007-.06.005-.04.004-.07.007-.06.005-.05.006-.07.007-.06.005-.05.006-.05.005-.06.007-.06.005-.07.009-.06.006-.04.004-.06.008-.06.006-.05.006-.06.007-.06.007-.07.008-.04.005-.05.006-.06.009-.05.006-.06.007-.05.007-.06.008-.06.008-.04.006-.05.007-.07.008-.04.005-.06.009-.06.009-.04.006-.06.008-.06.009-.03.006-.05.008-.06.009-.05.007-.06.009-.04.006-.04.008-.07.011-.04.006-.04.008-.06.009-.05.008-.04.008-.05.008-.05.01-.06.01-.03.006-.04.006-.06.012-.04.008-.05.009-.05.01-.03.006-.04.009-.06.012-.05.008-.03.007-.05.01-.04.009-.04.008-.05.011-.04.008-.04.009-.04.009-.03.008-.05.011-.04.009-.04.009-.04.011-.04.008-.03.007-.04.012-.04.008-.04.011-.04.011-.03.008-.03.009-.03.008-.04.009-.05.014-.03.009-.02.007-.04.011-.04.01-.03.011-.03.007-.03.009-.04.014-.03.008-.03.01-.04.012-.02.008-.03.009-.02.009-.03.01-.03.011-.03.009-.03.01-.04.014-.02.009-.02.008-.02.009-.03.01-.03.012-.03.01-.02.012-.03.009-.01.008-.02.009-.03.014-.03.012-.02.009-.02.007-.02.011-.02.013-.02.009-.03.011-.02.011-.02.01-.02.012-.01.008-.02.011-.02.012-.02.01-.01.011-.02.009-.01.01-.03.016-.01.009-.01.007-.02.013-.02.014-.01.008-.01.01-.02.014-.01.008-.01.012-.02.015-.01.009-.01.008-.01.012-.01.013-.01.013-.01.013-.01.01-.01.01-.01.014-.01.01-.01.011v.012l-.01.011-.01.015v.012l-.01.012-.01.012v.013l-.01.013v.023l-.01.013v.066l-.01.028v98.307l.01.039V899.657l.01.024v.027l.01.024.01.027v.026l.01.023.01.025.02.026.01.025.01.024.01.025.02.024.01.024.02.024.02.026.02.023.01.023.02.026.02.022.03.024.02.025.02.022.03.024.02.024.03.024.03.023.02.023.03.023.03.023.03.022.03.022.03.026.04.023.03.022.03.022.04.023.03.024.04.021.04.022.04.023.03.02.04.025.04.022.05.023.04.021.04.021.05.024.04.022.04.021.05.022.05.02.04.02.06.026.05.023.05.02.05.02.05.022.05.019.05.022.06.023.05.02.06.022.06.023.05.019.06.02.06.023.06.019.06.023.07.021.05.018.07.022.06.021.07.021.05.018.07.02.07.022.07.021.07.02.07.02.07.02.07.02.07.02.06.018.08.021.08.021.07.019.08.02.07.019.07.019.08.019.08.021.09.02.07.019.08.017.08.019.08.02.08.018.09.02.09.021.07.016.09.018.08.018.1.02.08.018.09.018.09.019.09.018.09.019.09.016.08.018.1.017.09.019.11.02.08.015.09.016.11.02.08.016.1.017.1.018.11.018.09.016.08.014.11.018.11.019.09.014.1.016.11.018.1.016.11.017.09.014.11.015.12.019.09.014.1.015.12.016.1.015.11.015.1.015.12.016.11.015.1.014.12.016.1.013.12.015.12.016.1.012.11.014.12.015.12.015.11.013.1.012.13.015.11.013.11.013.12.014.12.013.12.013.11.012.12.013.11.012.13.013.12.013.12.012.11.011.12.011.15.015.11.011.11.01.13.012.12.012.12.011.12.01.13.012.12.01.12.011.13.011.13.01.12.011.13.011.12.009.13.01.14.011.1.008.14.01.14.01.12.009.12.009.13.009.13.009.13.008.13.009.13.009.13.008.14.009.13.008.12.007.14.009.13.007.12.007.16.009.13.007.11.006.15.008.13.007.14.007.15.007.11.006.14.006.14.007.13.005.15.007.14.006.12.005.14.006.15.006.13.005.14.005.15.005.14.005.13.005.14.005.14.004.16.005.13.004.14.004.15.004.13.004.15.004.16.003.13.003.14.003.15.004.16.003.15.003.14.002.14.003.15.002.15.003.15.002.15.002.16.002.13.001.16.002.16.001.16.001.16.001.13.001.17.001.17.001h732.87V799.356h-744.37z" fill="url(#_Linear4)" transform="matrix(.40051 0 0 2.43515 -509.222 -1384.994)"/>
  <g>
    <path d="M2315.46 790.431h-793.4c-39.16 0-70.9 11.203-70.9 25.022v44.657c0 28.835 66.23 52.21 147.94 52.21h716.36V790.431z" fill="url(#_Linear5)" transform="matrix(-.43846 0 0 1.24242 1541.85 -694.791)"/>
    <path d="M1521.28 772.938l-.77.002-.76.005-.78.006-.77.007-.76.01-.77.011-.77.013-.76.014-.77.017-.77.018-.76.019-.76.022-.76.023-.77.024-.75.027-.75.027-.76.03-.76.032-.75.033-.75.034-.75.036-.76.039-.75.039-.74.041-.75.043-.74.044-.75.046-.75.048-.73.049-.73.051-.75.053-.74.054-.73.055-.73.057-.73.059-.73.06-.74.062-.72.063-.72.065-.73.067-.71.068-.72.069-.72.071-.72.074-.72.074-.7.075-.72.077-.71.079-.7.08-.71.082-.7.083-.7.084-.7.086-.7.088-.7.089-.68.09-.7.092-.69.093-.68.094-.69.097-.68.098-.68.099-.68.1-.67.102-.69.104-.67.105-.66.105-.66.106-.68.11-.66.111-.65.109-.67.114-.66.116-.64.113-.65.117-.65.118-.66.121-.64.121-.64.122-.64.124-.64.125-.63.126-.62.124-.65.132-.62.13-.62.129-.63.135-.61.131-.61.135-.63.138-.62.139-.61.139-.6.139-.6.14-.6.143-.61.146-.58.141-.6.147-.6.15-.58.146-.58.15-.59.152-.59.156-.57.151-.56.15-.59.161-.57.157-.55.154-.57.161-.57.161-.55.161-.54.159-.56.164-.57.171-.54.165-.54.165-.54.168-.54.17-.55.175-.52.17-.51.167-.54.177-.53.178-.52.176-.51.175-.51.176-.52.183-.5.177-.5.179-.53.192-.48.178-.49.181-.5.19-.5.189-.49.19-.47.183-.47.186-.48.193-.49.198-.47.195-.46.188-.46.195-.47.198-.44.191-.47.204-.45.198-.43.192-.46.209-.44.201-.44.201-.44.211-.43.202-.43.205-.42.205-.41.204-.43.213-.41.208-.4.208-.42.216-.41.217-.4.209-.38.209-.41.22-.38.211-.39.22-.39.221-.37.213-.38.221-.37.223-.37.224-.35.214-.37.226-.37.234-.34.217-.34.218-.36.234-.34.228-.34.229-.34.228-.33.229-.32.23-.32.23-.33.24-.32.231-.31.232-.3.233-.3.232-.3.234-.31.244-.29.242-.28.234-.28.236-.29.245-.28.246-.27.236-.26.237-.27.247-.27.247-.24.238-.26.248-.25.249-.25.249-.24.25-.23.239-.23.25-.23.251-.22.251-.22.251-.21.252-.21.252-.21.252-.2.252-.19.253-.2.253-.18.254-.19.264-.18.254-.17.253-.17.255-.18.265-.16.266-.15.244-.16.266-.15.267-.13.244-.15.267-.13.267-.14.266-.12.268-.12.245-.12.268-.11.278-.11.257-.1.257-.1.268-.09.278-.09.268-.08.258-.08.268-.08.268-.07.269-.06.268-.06.268-.06.269-.05.268-.04.269-.05.268-.03.279-.04.269-.02.268-.02.279-.02.268-.01.269-.01.268V860.56l.01.445.02.449.03.449.04.444.04.443.05.449.06.443.07.443.08.447.08.442.09.442.1.442.11.436.11.441.12.44.14.44.13.44.15.434.15.434.16.438.17.438.18.433.18.432.19.431.2.431.21.431.21.43.22.429.23.429.24.429.24.427.25.423.26.426.27.426.27.421.27.42.29.419.3.423.3.418.31.417.31.422.32.411.33.415.35.419.34.408.34.409.36.412.37.411.37.411.38.404.38.405.4.408.4.402.4.402.42.406.42.4.42.395.44.403.44.397.44.392.45.396.46.394.47.389.47.393.48.392.49.386.49.386.49.384.51.388.51.383.52.381.53.385.52.375.54.378.55.382.54.372.55.371.57.374.57.373.57.367.58.371.58.366.59.364.6.367.61.362.61.361.61.36.63.363.63.357.62.352.65.355.63.35.66.352.65.351.66.347.68.348.67.347.68.343.68.341.69.34.7.338.71.341.7.335.71.332.72.333.73.335.73.327.72.326.75.331.75.322.74.321.76.324.77.323.77.316.76.312.78.319.79.315.78.309.79.309.8.309.81.307.81.305.81.301.82.302.83.301.83.299.83.294.83.293.85.293.85.293.85.288.86.286.87.288.86.282.87.281.88.28.89.279.89.277.88.272.89.271.91.272.91.271.92.267.91.265.92.263.92.26.93.259.94.26.94.255.93.251.95.252.96.252.96.247.95.244.97.246.97.241.97.239.98.238.98.236.99.234.99.231 1 .23 1 .228 1 .225 1.01.223 1.01.222 1.01.22 1.02.217 1.03.216 1.03.212 1.03.211 1.03.208 1.04.207 1.05.206 1.05.202 1.05.199 1.06.199 1.05.195 1.07.194 1.07.193 1.07.188 1.07.187 1.08.185 1.08.182 1.09.181 1.09.179 1.09.175 1.1.174 1.1.171 1.11.169 1.1.167 1.11.164 1.12.163 1.12.159 1.11.157 1.13.156 1.13.153 1.13.15 1.14.148 1.14.146 1.13.143 1.15.141 1.15.138 1.15.137 1.16.133 1.15.131 1.16.129 1.17.127 1.17.124 1.16.121 1.17.118 1.18.117 1.18.114 1.18.111 1.18.109 1.19.106 1.19.105 1.19.101 1.2.098 1.2.097 1.2.093 1.2.091 1.2.089 1.21.086 1.22.083 1.21.081 1.22.078 1.21.075 1.22.073 1.23.07 1.22.067 1.23.065 1.23.062 1.23.06 1.24.057 1.23.053 1.24.052 1.24.049 1.25.046 1.24.043 1.24.04 1.25.038 1.26.035 1.25.032 1.25.03 1.26.026 1.25.024 1.27.021 1.26.019 1.26.015 1.26.013 1.27.01 1.27.007 1.27.004 1.19.002h766.01V772.937h-843.05l-.7.001zm744.61 34.987v86.901h-666.71l-.73-.001-.64-.002-.64-.004-.64-.005-.63-.006-.64-.008-.63-.009-.63-.011-.64-.012-.63-.013-.63-.015-.63-.016-.62-.018-.62-.018-.63-.021-.62-.021-.62-.023-.62-.024-.61-.026-.62-.027-.62-.028-.61-.03-.61-.031-.62-.032-.61-.034-.6-.034-.61-.037-.61-.037-.6-.039-.6-.04-.6-.041-.6-.043-.6-.044-.59-.045-.6-.046-.59-.048-.59-.049-.6-.05-.58-.051-.59-.053-.59-.054-.58-.055-.59-.057-.58-.057-.58-.059-.58-.061-.58-.061-.57-.062-.57-.064-.58-.065-.57-.066-.57-.067-.57-.069-.56-.069-.57-.072-.56-.072-.57-.073-.56-.075-.56-.075-.55-.077-.56-.078-.56-.08-.55-.08-.55-.081-.55-.083-.54-.083-.55-.086-.55-.086-.54-.087-.54-.088-.53-.089-.54-.092-.54-.091-.53-.093-.54-.095-.52-.094-.53-.096-.53-.098-.52-.098-.53-.1-.52-.101-.51-.1-.52-.104-.52-.104-.51-.105-.52-.107-.51-.106-.5-.108-.51-.109-.5-.11-.51-.112-.5-.113-.5-.113-.49-.114-.5-.117-.49-.115-.49-.118-.48-.119-.49-.12-.49-.121-.47-.12-.49-.124-.48-.125-.46-.122-.48-.125-.48-.13-.47-.127-.46-.126-.46-.131-.47-.131-.46-.132-.46-.133-.45-.133-.45-.133-.45-.134-.45-.137-.45-.14-.44-.138-.44-.138-.44-.14-.44-.141-.44-.144-.42-.14-.44-.145-.43-.145-.41-.143-.43-.147-.42-.148-.42-.151-.41-.147-.41-.149-.41-.149-.41-.154-.41-.153-.4-.152-.39-.154-.4-.155-.4-.159-.39-.154-.38-.154-.4-.163-.39-.161-.37-.157-.37-.159-.38-.163-.38-.165-.36-.158-.37-.166-.37-.168-.36-.161-.35-.166-.37-.17-.35-.169-.34-.165-.35-.17-.35-.171-.34-.171-.35-.173-.33-.171-.33-.17-.33-.176-.33-.173-.32-.174-.33-.179-.31-.175-.32-.181-.32-.178-.3-.174-.31-.18-.3-.18-.3-.182-.3-.178-.29-.184-.3-.184-.28-.181-.29-.186-.28-.183-.28-.184-.28-.189-.27-.19-.27-.182-.26-.187-.27-.193-.26-.185-.25-.19-.26-.19-.24-.188-.25-.193-.25-.194-.24-.194-.24-.191-.23-.192-.23-.198-.23-.193-.22-.195-.23-.199-.22-.197-.2-.192-.22-.203-.21-.199-.2-.194-.2-.201-.2-.201-.19-.198-.2-.203-.18-.204-.19-.2-.18-.201-.17-.202-.18-.207-.17-.209-.17-.199-.16-.205-.16-.211-.15-.202-.16-.207-.15-.209-.14-.204-.14-.21-.14-.211-.14-.212-.13-.208-.13-.208-.12-.215-.12-.21-.12-.211-.11-.212-.11-.212-.11-.214-.1-.214-.1-.215-.1-.216-.09-.217-.09-.218-.08-.213-.08-.214-.08-.22-.07-.221-.07-.217-.06-.217-.06-.219-.06-.219-.05-.225-.05-.221-.05-.221-.04-.223-.04-.218-.03-.224-.03-.225-.03-.22-.02-.227-.02-.227-.01-.223-.01-.224-.01-.23v-45.038l.01-.053v-.043l.01-.053v-.052l.01-.041v-.051l.01-.051.01-.05.01-.049.01-.049.02-.049.01-.048.01-.047.02-.047.01-.057.02-.046.01-.035.02-.045.02-.055.02-.054.01-.033.02-.043.03-.065.02-.041.02-.042.03-.041.02-.04.03-.062.02-.039.03-.04.03-.059.03-.039.02-.038.03-.047.04-.048.03-.047.02-.036.04-.046.03-.046.04-.045.03-.045.04-.044.04-.044.03-.043.04-.043.04-.042.04-.043.04-.041.04-.052.04-.041.04-.04.04-.039.04-.041.06-.049.04-.038.04-.039.05-.048.06-.047.04-.037.04-.036.05-.046.06-.046.05-.037.04-.034.05-.044.06-.045.06-.043.06-.043.05-.043.05-.033.06-.042.06-.041.06-.041.06-.041.05-.04.06-.039.05-.032.08-.047.07-.048.05-.029.06-.037.08-.048.06-.036.06-.037.06-.037.08-.044.06-.036.06-.035.08-.043.06-.034.08-.043.08-.042.06-.033.07-.033.08-.041.07-.039.07-.032.08-.041.08-.038.08-.038.08-.039.07-.03.08-.038.08-.037.06-.028.1-.044.08-.036.07-.029.09-.042.08-.033.09-.035.09-.041.08-.032.07-.029.08-.032.1-.038.1-.04.08-.031.08-.032.08-.029.1-.037.11-.038.06-.024.1-.035.1-.036.08-.029.1-.034.1-.034.1-.032.08-.028.09-.028.11-.037.1-.033.08-.026.1-.03.1-.031.1-.032.1-.031.08-.024.1-.029.11-.033.11-.03.09-.028.1-.026.11-.033.1-.027.09-.024.12-.031.11-.03.09-.024.1-.026.1-.026.12-.03.09-.023.1-.025.13-.031.1-.023.1-.024.11-.027.12-.026.11-.025.1-.022.1-.023.11-.024.12-.027.1-.02.12-.025.11-.024.09-.019.13-.026.12-.022.11-.022.11-.021.11-.022.11-.021.11-.02.11-.02.12-.021.12-.022.11-.019.11-.019.13-.022.11-.018.11-.017.12-.02.13-.02.11-.018.11-.017.12-.018.12-.017.12-.018.12-.017.11-.015.13-.018.11-.016.12-.015.13-.017.12-.015.11-.015.13-.015.12-.015.12-.014.12-.014.13-.014.12-.014.12-.013.13-.014.12-.012.12-.012.12-.013.13-.012.13-.012.12-.011.13-.012.13-.011.12-.01.13-.011.12-.01.13-.01.14-.01.12-.01.12-.008.13-.009.14-.009.12-.008.13-.008.14-.008.13-.007.13-.008.14-.007.12-.006.13-.007.14-.006.14-.006.12-.005.13-.005.15-.006.14-.004.14-.005.13-.004.13-.004.15-.003.13-.003.14-.003.14-.003.14-.002.14-.002.15-.002.14-.002.13-.001.16-.001h744.11z" fill="url(#_Linear6)" transform="matrix(-.43846 0 0 1.24242 1541.85 -694.791)"/>
    <g>
      <path d="M2315.46 790.431h-798.72c-36.22 0-65.58 4.829-65.58 10.786v98.336c0 7.051 34.75 12.767 77.62 12.767h786.68V790.431z" fill="url(#_Linear7)" transform="matrix(-.40051 0 0 2.43515 1453.97 -1384.988)"/>
      <path d="M1515.98 781.506l-.77.001-.78.002-.76.003-.75.003-.78.005-.78.005-.76.006-.73.006-.76.008-.78.008-.76.01-.75.009-.76.011-.76.012-.74.012-.76.013-.76.014-.73.014-.78.016-.74.015-.74.017-.75.018-.74.018-.75.019-.75.02-.73.02-.74.022-.75.022-.72.023-.74.023-.75.025-.72.025-.72.025-.76.028-.72.027-.71.027-.73.029-.72.029-.72.03-.72.031-.73.032-.7.032-.71.033-.74.035-.68.033-.71.034-.73.037-.7.037-.71.037-.69.038-.7.038-.71.04-.67.039-.69.04-.71.042-.7.043-.69.042-.68.043-.68.044-.66.043-.7.047-.69.047-.66.045-.67.047-.67.048-.65.047-.69.051-.68.051-.65.049-.65.05-.65.052-.66.053-.66.053-.64.053-.65.054-.65.056-.65.056-.65.056-.61.054-.65.058-.64.059-.62.058-.64.059-.63.061-.62.059-.63.062-.61.061-.6.06-.62.064-.62.064-.62.065-.59.062-.6.064-.62.068-.59.065-.59.066-.59.068-.61.069-.59.069-.56.066-.59.07-.58.07-.57.07-.59.073-.56.07-.57.073-.57.073-.57.073-.56.075-.53.07-.56.075-.58.079-.55.076-.55.077-.53.076-.53.076-.57.082-.52.077-.51.075-.55.083-.52.079-.51.079-.54.083-.51.081-.53.086-.51.081-.49.08-.51.086-.52.086-.48.082-.49.083-.51.088-.48.085-.49.087-.48.087-.48.086-.49.091-.47.089-.48.089-.47.09-.45.086-.45.089-.48.095-.45.091-.43.088-.48.098-.44.092-.43.089-.44.094-.45.097-.43.095-.41.091-.45.1-.41.094-.42.095-.4.095-.42.097-.42.101-.4.096-.4.099-.41.102-.39.097-.38.096-.4.104-.38.1-.39.104-.36.097-.37.1-.39.109-.36.1-.35.101-.37.104-.34.102-.36.105-.36.107-.34.106-.35.107-.32.102-.34.106-.33.107-.31.104-.33.108-.33.114-.32.109-.29.102-.31.109-.3.109-.3.109-.31.117-.29.109-.27.104-.3.116-.27.11-.28.111-.28.117-.25.104-.27.118-.26.112-.24.11-.26.117-.25.113-.25.118-.23.112-.23.112-.24.12-.23.118-.21.112-.23.12-.21.119-.19.106-.21.12-.22.125-.18.113-.19.114-.19.121-.19.119-.18.12-.17.121-.17.12-.17.121-.15.113-.16.121-.16.128-.14.114-.14.121-.15.127-.13.115-.13.12-.13.128-.12.122-.11.121-.11.121-.11.121-.11.128-.09.121-.09.122-.09.128-.08.121-.08.122-.08.121-.07.128-.06.128-.06.122-.06.121-.05.128-.04.128-.04.121-.04.128-.03.128-.03.121-.02.128-.02.128-.01.121-.01.127v98.607l.01.137.01.136.02.137.03.143.03.137.03.136.04.143.05.137.04.131.06.137.06.143.07.142.07.137.08.131.08.138.09.136.08.131.1.137.11.143.11.136.11.131.11.131.13.143.13.136.12.125.14.136.15.137.15.136.15.136.15.125.17.135.17.136.16.125.18.136.19.134.19.131.19.129.19.129.21.136.2.129.2.123.23.135.23.134.21.123.23.129.24.128.24.128.24.128.25.129.26.127.25.122.26.127.27.127.27.128.28.126.28.121.28.126.3.126.29.122.29.121.31.124.31.124.31.122.31.119.32.124.34.124.31.115.33.118.36.128.34.119.32.112.37.123.35.118.36.117.36.116.36.117.37.117.38.116.38.116.38.115.39.115.4.116.39.114.39.109.41.115.41.114.42.113.4.108.42.112.43.113.42.109.42.106.44.112.45.111.43.105.46.111.45.107.44.105.47.109.46.105.45.104.47.104.46.103.5.108.48.104.48.101.48.103.5.102.5.104.48.097.5.101.51.101.51.1.52.1.49.094.54.101.54.101.51.094.51.092.54.098.55.097.54.095.53.092.54.092.56.097.56.093.56.092.54.089.57.093.57.091.56.087.58.091.57.088.58.088.59.088.58.088.6.086.58.085.6.086.59.084.6.084.63.086.61.084.6.08.6.081.61.081.63.08.63.082.62.078.64.081.63.078.62.076.64.077.66.078.63.075.66.077.65.074.63.072.67.074.66.073.67.073.65.07.66.07.68.072.69.07.66.068.67.067.7.07.67.065.69.067.69.066.68.064.72.066.68.063.7.063.71.062.71.062.71.061.71.061.71.059.7.058.72.058.74.059.7.056.73.056.75.057.72.054.71.053.75.054.75.053.73.052.75.052.75.05.74.049.75.05.75.048.75.047.76.047.77.047.74.044.78.046.78.044.73.042.78.042.79.043.76.04.79.041.77.039.76.038.8.038.78.037.79.037.8.036.77.033.78.034.82.034.79.032.79.032.81.031.79.03.8.028.81.029.81.028.81.027.81.025.79.025.83.025.81.023.81.023.83.022.81.021.82.02.82.019.83.019.82.017.81.017.84.016.83.015.83.015.83.013.83.013.84.011.83.011.83.01.85.01.83.008.84.007.83.007.83.005.87.005.83.004.83.003.87.002.84.002h841.79v-139.74h-853.07l-.68.001zm745.21 17.85v104.038h-732.87l-.17-.001-.17-.001-.13-.001-.16-.001-.16-.001-.16-.001-.16-.002-.13-.001-.16-.002-.15-.002-.15-.002-.15-.003-.14-.002-.15-.003-.15-.002-.14-.003-.15-.003-.16-.003-.14-.004-.14-.003-.15-.004-.15-.003-.13-.004-.15-.004-.14-.004-.13-.004-.16-.005-.14-.004-.14-.005-.14-.005-.13-.004-.15-.006-.14-.005-.13-.005-.15-.006-.14-.006-.11-.004-.15-.007-.16-.007-.12-.005-.13-.006-.15-.007-.11-.006-.15-.007-.15-.007-.12-.007-.14-.008-.12-.006-.13-.007-.17-.009-.11-.007-.12-.007-.15-.009-.12-.007-.13-.008-.14-.009-.13-.008-.13-.009-.13-.009-.13-.009-.13-.008-.13-.009-.12-.009-.11-.008-.15-.011-.14-.011-.1-.007-.13-.01-.14-.011-.12-.009-.12-.011-.14-.011-.13-.011-.12-.01-.12-.011-.12-.01-.13-.011-.12-.011-.13-.012-.1-.01-.14-.012-.11-.011-.12-.012-.14-.014-.1-.01-.13-.013-.13-.013-.11-.011-.11-.012-.13-.013-.12-.013-.11-.012-.12-.013-.11-.012-.13-.016-.12-.013-.1-.012-.13-.015-.1-.012-.11-.013-.13-.016-.11-.014-.1-.013-.12-.015-.1-.013-.11-.014-.12-.015-.12-.016-.12-.017-.11-.014-.09-.013-.1-.014-.12-.017-.1-.015-.12-.016-.1-.015-.1-.016-.1-.015-.11-.016-.11-.017-.09-.014-.12-.019-.1-.016-.09-.014-.11-.019-.1-.016-.1-.017-.08-.013-.1-.018-.12-.02-.09-.016-.09-.016-.08-.015-.12-.022-.11-.02-.08-.014-.07-.014-.11-.022-.1-.017-.08-.018-.09-.016-.08-.017-.12-.023-.07-.016-.09-.018-.08-.018-.1-.02-.08-.018-.07-.015-.09-.019-.09-.021-.09-.02-.09-.02-.07-.016-.08-.021-.08-.019-.07-.017-.09-.022-.07-.017-.07-.017-.09-.023-.08-.021-.07-.018-.07-.019-.08-.023-.08-.019-.06-.018-.06-.018-.09-.024-.07-.02-.06-.018-.07-.02-.07-.021-.06-.02-.07-.02-.06-.02-.07-.021-.06-.021-.07-.022-.06-.021-.05-.016-.08-.028-.06-.021-.04-.013-.06-.022-.07-.027-.05-.018-.05-.019-.06-.023-.06-.023-.05-.019-.05-.02-.05-.024-.06-.023-.05-.02-.04-.02-.06-.026-.04-.02-.05-.02-.04-.02-.04-.021-.06-.027-.04-.021-.04-.021-.04-.021-.04-.023-.05-.022-.03-.022-.05-.028-.03-.018-.03-.017-.05-.029-.04-.024-.02-.018-.04-.024-.04-.024-.03-.024-.03-.02-.02-.02-.04-.03-.03-.02-.02-.02-.04-.031-.02-.021-.03-.021-.02-.021-.02-.021-.04-.033-.02-.022-.01-.017-.02-.027-.03-.029-.02-.023-.01-.017-.02-.024-.02-.029-.01-.024-.02-.024-.01-.03-.02-.025v-.019l-.01-.02-.01-.026-.02-.031v-.026l-.01-.021-.01-.027v-.027l-.01-.021v-.084l-.01-.039V801.205l.01-.012V801.136l.01-.01v-.01l.01-.017v-.019l.01-.015.01-.016v-.008l.01-.009.01-.014.01-.015v-.014l.01-.007.01-.014.01-.013.01-.007.01-.013.01-.013.01-.013.01-.012.01-.005.01-.012.02-.019.01-.004.01-.012.02-.017.01-.004.01-.011.02-.017.02-.01.01-.01.02-.009.01-.01.02-.01.01-.009.02-.014.03-.016v-.002l.02-.008.03-.021.02-.009.01-.007.03-.014.02-.008.01-.006.03-.013.02-.014.02-.007.02-.012.02-.006.03-.014.03-.012.01-.005.04-.018.01-.006.03-.01.03-.012.01-.005.05-.017.03-.011v-.003l.03-.011.03-.01.03-.01.05-.016.02-.009.02-.004.02-.01.04-.013.03-.009.03-.01.04-.013.03-.009.03-.009.03-.007.03-.009.04-.012.03-.008.04-.013.04-.011.01-.004.05-.011.05-.014.02-.006.04-.01.02-.007.05-.013.05-.011.03-.006.03-.01.05-.011.02-.006.04-.009.05-.011.05-.011.04-.01.02-.005.06-.013.04-.009.03-.006.04-.008.06-.013.05-.01.01-.003.07-.012.05-.01.02-.005.05-.01.06-.012.05-.009.04-.008.04-.008.04-.006.05-.01.05-.008.04-.008.06-.01.03-.006.06-.01.07-.011.03-.006.04-.006.07-.011.05-.009.03-.005.06-.009.04-.006.06-.009.06-.009.02-.004.08-.012.06-.009.03-.004.06-.009.06-.009.05-.006.06-.007.03-.004.05-.007.08-.012.05-.006.05-.007.06-.007.05-.006.06-.009.04-.005.06-.007.06-.007.05-.006.08-.009.05-.006.05-.005.05-.007.06-.007.07-.006.04-.005.06-.006.08-.009.04-.004.05-.006.05-.004.08-.008.06-.007.05-.004.07-.007.05-.005.05-.004.07-.007.05-.004.05-.005.08-.008.06-.004.05-.005.06-.005.05-.004.08-.006.05-.005.06-.004.06-.005.07-.006.08-.005.04-.004.04-.003.08-.005.06-.005.06-.004.08-.005.04-.004.05-.003.08-.005.07-.004.06-.004.07-.004.05-.003.05-.003.06-.004.09-.005.05-.003.07-.004.07-.003.05-.003.07-.004.04-.002.07-.003.09-.005.04-.002.07-.003.08-.003.06-.003.06-.002.06-.003.07-.003.06-.002.08-.003.08-.003.04-.002.07-.002.08-.003.05-.002.07-.002.09-.003.05-.001.07-.002.08-.002.05-.002.07-.002.08-.002.06-.001.08-.002.09-.002h.04l.08-.002.07-.001.07-.002.09-.001.06-.001.08-.001.07-.001.08-.001.06-.001h.07l.1-.001.08-.001h.07l.06-.001h.18l.07-.001h744.61z" fill="url(#_Linear8)" transform="matrix(-.40051 0 0 2.43515 1453.97 -1384.988)"/>
    </g>
  </g>
  <g>
    <path d="M1853.08 754.559l-19.46-25.796s-135.66-.12-176.81 0c-71.78.208-114.86-65.108-114.86-117.909 0-59.432 48.47-120.187 117.58-120.187 52.74 0 98.98 38.97 141.78 82.666 27.67 28.25 63.79 74.2 68.96 80.725h28.99c4.51-5.672 41.14-52.359 69.13-80.935 42.8-43.697 89.04-82.666 141.78-82.666 69.11 0 117.58 60.755 117.58 120.186 0 52.802-43.09 118.117-114.86 117.909-41.15-.119-176.81 0-176.81 0l-19.62 26.007h-63.38zm-.44-62.965c10.66 13.932 21.38 28.308 32.13 42.941 10.76-14.632 21.48-29.008 32.13-42.941h-64.26c-69.71-91.148-136.61-163.235-192.9-163.235-43.72 0-80.22 35.842-80.22 81.618 0 45.774 34.29 81.617 80.22 81.617h192.9zm64.38-.21l.01.04.03-.04h192.9c45.92 0 80.22-35.843 80.22-81.618 0-45.775-36.5-81.618-80.22-81.618-56.29 0-123.19 72.087-192.9 163.236h-.04z" fill="url(#_Linear9)" transform="translate(-1412.73 -490.457)"/>
  </g>
  <defs>
    <linearGradient id="_Linear1" x1="0" y1="0" x2="1" y2="0" gradientUnits="userSpaceOnUse" gradientTransform="matrix(864.303 0 0 121.889 1451.16 851.375)">
      <stop offset="0" stop-color="#f9cf00"/>
      <stop offset="1" stop-color="#f19f4d"/>
    </linearGradient>
    <linearGradient id="_Linear2" x1="0" y1="0" x2="1" y2="0" gradientUnits="userSpaceOnUse" gradientTransform="matrix(864.303 0 0 121.889 1451.16 851.375)">
      <stop offset="0" stop-color="#f9cf00"/>
      <stop offset="1" stop-color="#f19f4d"/>
    </linearGradient>
    <linearGradient id="_Linear3" x1="0" y1="0" x2="1" y2="0" gradientUnits="userSpaceOnUse" gradientTransform="matrix(864.303 0 0 121.889 1451.16 851.375)">
      <stop offset="0" stop-color="#f9cf00"/>
      <stop offset="1" stop-color="#f19f4d"/>
    </linearGradient>
    <linearGradient id="_Linear4" x1="0" y1="0" x2="1" y2="0" gradientUnits="userSpaceOnUse" gradientTransform="matrix(864.303 0 0 121.889 1451.16 851.375)">
      <stop offset="0" stop-color="#f9cf00"/>
      <stop offset="1" stop-color="#f19f4d"/>
    </linearGradient>
    <linearGradient id="_Linear5" x1="0" y1="0" x2="1" y2="0" gradientUnits="userSpaceOnUse" gradientTransform="matrix(864.303 0 0 121.889 1451.16 851.375)">
      <stop offset="0" stop-color="#f9cf00"/>
      <stop offset="1" stop-color="#f19f4d"/>
    </linearGradient>
    <linearGradient id="_Linear6" x1="0" y1="0" x2="1" y2="0" gradientUnits="userSpaceOnUse" gradientTransform="matrix(864.303 0 0 121.889 1451.16 851.375)">
      <stop offset="0" stop-color="#f9cf00"/>
      <stop offset="1" stop-color="#f19f4d"/>
    </linearGradient>
    <linearGradient id="_Linear7" x1="0" y1="0" x2="1" y2="0" gradientUnits="userSpaceOnUse" gradientTransform="matrix(864.303 0 0 121.889 1451.16 851.375)">
      <stop offset="0" stop-color="#f9cf00"/>
      <stop offset="1" stop-color="#f19f4d"/>
    </linearGradient>
    <linearGradient id="_Linear8" x1="0" y1="0" x2="1" y2="0" gradientUnits="userSpaceOnUse" gradientTransform="matrix(864.303 0 0 121.889 1451.16 851.375)">
      <stop offset="0" stop-color="#f9cf00"/>
      <stop offset="1" stop-color="#f19f4d"/>
    </linearGradient>
    <linearGradient id="_Linear9" x1="0" y1="0" x2="1" y2="0" gradientUnits="userSpaceOnUse" gradientTransform="matrix(685.805 0 0 264.102 1541.95 622.508)">
      <stop offset="0" stop-color="#f9cf00"/>
      <stop offset="1" stop-color="#f19f4d"/>
    </linearGradient>
  </defs>
</svg>
