<?xml version="1.0" encoding="UTF-8" standalone="no"?><!DOCTYPE svg PUBLIC "-//W3C//DTD SVG 1.1//EN" "http://www.w3.org/Graphics/SVG/1.1/DTD/svg11.dtd"><svg width="100%" height="100%" viewBox="0 0 1010 943" version="1.1" xmlns="http://www.w3.org/2000/svg" xmlns:xlink="http://www.w3.org/1999/xlink" xml:space="preserve" xmlns:serif="http://www.serif.com/" style="fill-rule:evenodd;clip-rule:evenodd;stroke-linejoin:round;stroke-miterlimit:2;"><g><path d="M458.81,334.046l-416.987,0c-23.098,0 -41.823,18.724 -41.823,41.822c0,54.112 0,141.522 0,141.522l458.81,0l0,-183.344Z" style="fill:#f3aa3b;"/><path d="M459.649,517.39l-419.099,0l0,394.417c0,17.17 13.918,31.088 31.088,31.088l388.011,0l0,-425.505Z" style="fill:url(#_Linear1);"/><path d="M551.19,334.046l416.987,0c23.098,0 41.823,18.724 41.823,41.822c0,54.112 0,141.522 0,141.522l-458.81,0l0,-183.344Z" style="fill:#f3aa3b;"/><g><path d="M552.028,517.39l419.099,0l0,394.417c0,17.17 -13.919,31.088 -31.088,31.088l-388.011,0l0,-425.505Z" style="fill:url(#_Linear2);"/></g><path d="M467.371,319.746l-23.553,-31.231c0,0 -164.249,-0.145 -214.065,0c-86.899,0.252 -139.064,-78.825 -139.064,-142.752c0,-71.953 58.69,-145.508 142.355,-145.508c63.851,0 119.839,47.179 171.657,100.083c33.499,34.201 77.223,89.833 83.489,97.732l35.095,0c5.457,-6.867 49.805,-63.391 83.691,-97.987c51.818,-52.903 107.806,-100.083 171.657,-100.083c83.665,0 142.355,73.555 142.355,145.508c0,63.927 -52.165,143.004 -139.064,142.752c-49.816,-0.144 -214.065,0 -214.065,0l-23.746,31.486l-76.742,0Zm-0.528,-76.231c12.9,16.867 25.878,34.272 38.902,51.988c13.021,-17.714 25.997,-35.12 38.894,-51.988l-77.796,0c-84.396,-110.352 -165.394,-197.628 -233.545,-197.628c-52.927,0 -97.118,43.395 -97.118,98.814c0,55.419 41.518,98.813 97.118,98.814l233.545,0Zm77.949,-0.254l0.005,0.048l0.037,-0.048l233.545,0c55.599,-0.001 97.118,-43.395 97.118,-98.814c0,-55.42 -44.191,-98.815 -97.118,-98.815c-68.151,0 -149.149,87.275 -233.545,197.629l-0.042,0Z" style="fill:url(#_Linear3);"/></g><defs><linearGradient id="_Linear1" x1="0" y1="0" x2="1" y2="0" gradientUnits="userSpaceOnUse" gradientTransform="matrix(2.60547e-14,-425.505,425.505,2.60547e-14,250.099,942.895)"><stop offset="0" style="stop-color:#f3aa3b;stop-opacity:1"/><stop offset="0.91" style="stop-color:#eda435;stop-opacity:1"/><stop offset="1" style="stop-color:#bf7300;stop-opacity:1"/></linearGradient><linearGradient id="_Linear2" x1="0" y1="0" x2="1" y2="0" gradientUnits="userSpaceOnUse" gradientTransform="matrix(2.60547e-14,-425.505,425.505,2.60547e-14,250.099,942.895)"><stop offset="0" style="stop-color:#f3aa3b;stop-opacity:1"/><stop offset="0.91" style="stop-color:#eda435;stop-opacity:1"/><stop offset="1" style="stop-color:#bf7300;stop-opacity:1"/></linearGradient><linearGradient id="_Linear3" x1="0" y1="0" x2="1" y2="0" gradientUnits="userSpaceOnUse" gradientTransform="matrix(-1193.98,898.835,-898.835,-1193.98,1065.64,215.962)"><stop offset="0" style="stop-color:#f9cf00;stop-opacity:1"/><stop offset="1" style="stop-color:#f19f4d;stop-opacity:1"/></linearGradient></defs></svg>