<?xml version="1.0" encoding="UTF-8" standalone="no"?>
<!DOCTYPE svg PUBLIC "-//W3C//DTD SVG 1.1//EN" "http://www.w3.org/Graphics/SVG/1.1/DTD/svg11.dtd">
<svg width="100%" height="100%" viewBox="0 0 679 139" version="1.1" xmlns="http://www.w3.org/2000/svg" xmlns:xlink="http://www.w3.org/1999/xlink" xml:space="preserve" xmlns:serif="http://www.serif.com/" style="fill-rule:evenodd;clip-rule:evenodd;stroke-linejoin:round;stroke-miterlimit:2;">
    <g transform="matrix(1,0,0,1,-3590.3,-1763.4)">
        <g id="Timer-and-targets" serif:id="Timer and targets" transform="matrix(0.583451,0,0,0.136797,3590.67,1798.3)">
            <rect x="-0.636" y="-255.093" width="1162.63" height="1010.58" style="fill:none;"/>
            <clipPath id="_clip1">
                <rect x="-0.636" y="-255.093" width="1162.63" height="1010.58"/>
            </clipPath>
            <g clip-path="url(#_clip1)">
                <g transform="matrix(2.50393,0,0,10.6795,-0.636218,-255.093)">
                    <path d="M464.321,93.738L0,93.738L0,0L464.321,0L464.321,93.738Z" style="fill:none;fill-rule:nonzero;"/>
                    <clipPath id="_clip2">
                        <path d="M464.321,93.738L0,93.738L0,0L464.321,0L464.321,93.738Z" clip-rule="nonzero"/>
                    </clipPath>
                    <g clip-path="url(#_clip2)">
                        <g transform="matrix(0.0617866,0,0,0.0616663,0,0)">
                            <path d="M792,520C792,538 778,552 760,552C743,552 728,538 728,520C728,503 743,488 760,488C778,488 792,503 792,520" style="fill:rgb(249,207,0);fill-rule:nonzero;"/>
                        </g>
                        <g transform="matrix(0.0617866,0,0,0.0616663,0,0)">
                            <path d="M792,1160C792,1178 778,1192 760,1192C743,1192 728,1178 728,1160C728,1143 743,1128 760,1128C778,1128 792,1143 792,1160" style="fill:rgb(249,207,0);fill-rule:nonzero;"/>
                        </g>
                        <g transform="matrix(0.0617866,0,0,0.0616663,0,0)">
                            <path d="M1112,824C1112,842 1098,856 1080,856C1063,856 1048,842 1048,824C1048,807 1063,792 1080,792C1098,792 1112,807 1112,824" style="fill:rgb(249,207,0);fill-rule:nonzero;"/>
                        </g>
                        <g transform="matrix(0.0617866,0,0,0.0616663,0,0)">
                            <path d="M472,824C472,842 458,856 440,856C423,856 408,842 408,824C408,807 423,792 440,792C458,792 472,807 472,824" style="fill:rgb(249,207,0);fill-rule:nonzero;"/>
                        </g>
                        <g transform="matrix(0.0617866,0,0,0.0616663,0,0)">
                            <path d="M792,600L728,600L728,824C728,832 732,840 738,847L896,1005L941,960L792,812L792,600Z" style="fill:rgb(241,77,77);fill-rule:nonzero;"/>
                        </g>
                        <g transform="matrix(0.0617866,0,0,0.0616663,0,0)">
                            <path d="M760,1288C512,1288 312,1088 312,840C312,592 512,392 760,392C1008,392 1208,592 1208,840C1208,1088 1008,1288 760,1288ZM1140,450L1188,402C1205,383 1205,354 1186,335C1168,317 1138,316 1119,333L1064,389C988,338 900,306 808,300L808,232L952,232L952,136L568,136L568,232L712,232L712,298C458,320 253,517 221,772C189,1026 338,1268 580,1352C821,1437 1088,1344 1224,1127C1360,909 1322,628 1140,450Z" style="fill:rgb(241,158,77);fill-rule:nonzero;"/>
                        </g>
                        <g transform="matrix(0.0617866,0,0,0.0616663,185.203,0)">
                            <path d="M1248,272L1232,128L1056,304L1066,388L810,644C788,632 762,624 735,624C647,624 575,696 575,784C575,872 647,944 735,944C823,944 895,872 895,784C895,757 888,733 877,711L1133,455L1216,464L1392,288L1248,272Z" style="fill:rgb(241,77,77);fill-rule:nonzero;"/>
                        </g>
                        <g transform="matrix(0.0617866,0,0,0.0616663,185.203,0)">
                            <path d="M1261,509L1240,532L1210,528L1176,524C1221,600 1248,688 1248,784C1248,1066 1018,1296 736,1296C455,1296 224,1066 224,784C224,503 455,272 736,272C831,272 920,298 997,344L994,312L989,280L1012,258L1023,247C936,202 840,176 736,176C400,176 128,448 128,784C128,1120 400,1392 736,1392C1072,1392 1344,1120 1344,784C1344,680 1319,584 1272,500L1261,509Z" style="fill:rgb(249,207,0);fill-rule:nonzero;"/>
                        </g>
                        <g transform="matrix(0.0617866,0,0,0.0616663,185.203,0)">
                            <path d="M1004,676C1018,709 1024,746 1024,784C1024,943 895,1072 736,1072C578,1072 448,943 448,784C448,626 578,496 736,496C775,496 812,504 845,517L917,445C863,416 802,400 736,400C525,400 352,573 352,784C352,996 525,1168 736,1168C948,1168 1120,996 1120,784C1120,719 1104,658 1076,604L1004,676Z" style="fill:rgb(241,158,77);fill-rule:nonzero;"/>
                        </g>
                        <g transform="matrix(0.0617866,0,0,0.0616663,370.406,0)">
                            <path d="M360,216L1160,216L1160,1304L360,1304L360,216ZM264,1400L1256,1400L1256,120L264,120L264,1400Z" style="fill:rgb(241,158,77);fill-rule:nonzero;"/>
                        </g>
                        <g transform="matrix(0.0617866,0,0,0.0616663,370.406,0)">
                            <rect x="472" y="312" width="128" height="128" style="fill:rgb(241,77,77);"/>
                        </g>
                        <g transform="matrix(0.0617866,0,0,0.0616663,370.406,0)">
                            <rect x="728" y="344" width="320" height="64" style="fill:rgb(249,207,0);"/>
                        </g>
                        <g transform="matrix(0.0617866,0,0,0.0616663,370.406,0)">
                            <rect x="472" y="568" width="128" height="128" style="fill:rgb(241,77,77);"/>
                        </g>
                        <g transform="matrix(0.0617866,0,0,0.0616663,370.406,0)">
                            <rect x="728" y="600" width="320" height="64" style="fill:rgb(249,207,0);"/>
                        </g>
                        <g transform="matrix(0.0617866,0,0,0.0616663,370.406,0)">
                            <rect x="472" y="824" width="128" height="128" style="fill:rgb(241,77,77);"/>
                        </g>
                        <g transform="matrix(0.0617866,0,0,0.0616663,370.406,0)">
                            <rect x="728" y="856" width="320" height="64" style="fill:rgb(249,207,0);"/>
                        </g>
                        <g transform="matrix(0.0617866,0,0,0.0616663,370.406,0)">
                            <rect x="472" y="1080" width="128" height="128" style="fill:rgb(241,77,77);"/>
                        </g>
                        <g transform="matrix(0.0617866,0,0,0.0616663,370.406,0)">
                            <rect x="728" y="1112" width="320" height="64" style="fill:rgb(249,207,0);"/>
                        </g>
                    </g>
                </g>
            </g>
        </g>
    </g>
</svg>
