<?xml version="1.0" encoding="UTF-8" standalone="no"?>
<!DOCTYPE svg PUBLIC "-//W3C//DTD SVG 1.1//EN" "http://www.w3.org/Graphics/SVG/1.1/DTD/svg11.dtd">
<svg width="100%" height="100%" viewBox="0 0 973 966" version="1.1" xmlns="http://www.w3.org/2000/svg" xmlns:xlink="http://www.w3.org/1999/xlink" xml:space="preserve" xmlns:serif="http://www.serif.com/" style="fill-rule:evenodd;clip-rule:evenodd;stroke-linecap:round;stroke-linejoin:round;">
    <g transform="matrix(1,0,0,1,-5091.23,-834.641)">
        <g transform="matrix(0.873885,0,0,1.00503,5077.56,1058.17)">
            <g transform="matrix(1.14432,0,0,0.994991,-110.477,-1.27787)">
                <g>
                    <g transform="matrix(1,0,0,1,-5112.01,-1194.43)">
                        <path d="M6010,1003L6165,1003" style="fill:none;stroke:rgb(249,207,0);stroke-width:58.67px;"/>
                    </g>
                    <g transform="matrix(1.12385,0,0,1.12385,-5846.31,-1434.95)">
                        <path d="M5731,1724C5791.16,1724 5840,1771.94 5840,1831C5840,1890.06 5791.16,1938 5731,1938C5670.84,1938 5622,1890.06 5622,1831C5622,1771.94 5670.84,1724 5731,1724ZM5731,1752.33C5753.19,1752.33 5773.32,1761.09 5787.95,1775.32C5802.56,1789.53 5811.67,1809.23 5811.67,1831C5811.67,1852.77 5802.56,1872.47 5787.95,1886.68C5773.32,1900.91 5753.19,1909.67 5731,1909.67C5708.81,1909.67 5688.68,1900.91 5674.05,1886.68C5659.44,1872.47 5650.33,1852.77 5650.33,1831C5650.33,1809.23 5659.44,1789.53 5674.05,1775.32C5688.68,1761.09 5708.81,1752.33 5731,1752.33Z" style="fill:rgb(249,207,0);"/>
                    </g>
                    <g transform="matrix(1,0,0,1,-5112.01,-1194.43)">
                        <path d="M5619.14,1555.43C5659.82,1468.91 5709.29,1363.13 5756.82,1262.8C5790.15,1192.43 5822.52,1124.74 5850.23,1068.25C5863.69,1040.81 5887.81,1021.17 5914.05,1008.35C5944.07,993.671 5976.69,988.007 5997.49,988.673C6005.95,988.944 6012.6,996.031 6012.33,1004.49C6012.06,1012.95 6004.97,1019.6 5996.51,1019.33C5979.29,1018.78 5952.37,1023.75 5927.52,1035.9C5907.23,1045.82 5888.17,1060.55 5877.77,1081.75C5850.11,1138.14 5817.8,1205.69 5784.53,1275.92C5738.12,1373.91 5689.85,1477.1 5649.74,1562.43C5655.72,1577.36 5663.09,1597.27 5670.41,1617.66C5686.59,1662.73 5702.53,1710.11 5702.53,1710.11C5704.03,1714.55 5703.41,1719.43 5700.86,1723.36C5698.31,1727.29 5694.1,1729.83 5689.43,1730.27C5676.11,1731.52 5662.88,1737.75 5651.32,1746.28C5639.23,1755.19 5628.94,1766.69 5622.4,1778.45C5618.49,1785.49 5609.8,1788.3 5602.5,1784.89L5540.5,1755.89L5247.51,1618.89C5239.84,1615.31 5236.52,1606.17 5240.11,1598.51C5243.69,1590.84 5252.83,1587.52 5260.49,1591.11L5539.72,1721.67L5619.14,1555.43ZM5631.54,1600.63L5567.5,1734.66L5603.37,1751.44C5611.35,1740.47 5621.57,1730.1 5633.12,1721.59C5643.85,1713.68 5655.71,1707.4 5667.92,1703.58C5661.91,1685.94 5651.77,1656.51 5641.55,1628.02C5638.18,1618.63 5634.8,1609.35 5631.54,1600.63Z" style="fill:rgb(249,207,0);"/>
                    </g>
                    <g transform="matrix(0.797619,0,0,0.797619,-3951.94,-823.258)">
                        <path d="M5700,1771C5723.18,1771 5742,1789.82 5742,1813C5742,1836.18 5723.18,1855 5700,1855C5676.82,1855 5658,1836.18 5658,1813C5658,1789.82 5676.82,1771 5700,1771ZM5700,1815.34L5697.66,1813L5700,1810.66L5702.34,1813L5700,1815.34Z" style="fill:rgb(249,207,0);"/>
                    </g>
                </g>
            </g>
        </g>
        <g transform="matrix(0.873885,0,0,1.00503,5077.56,1058.17)">
            <g transform="matrix(0.370649,0.151112,-0.173791,0.322282,150.784,140.747)">
                <g>
                    <g transform="matrix(1,0,0,1,-2495.24,-1935.09)">
                        <path d="M3435,2648L2675,2648L2675,1946L3435,1946L3435,2648ZM3017,2549L3017,2369L2768,2369L2768,2549L3017,2549ZM2910,2406L2910,2442L2805,2442L2805,2406L2910,2406ZM3171,1960L2937,1960L2937,2191.29C2945.57,2184.03 2953.8,2176.38 2961.95,2168.66C2968.49,2162.46 2974.95,2156.2 2981.59,2150.11C2985.17,2146.83 2988.79,2143.59 2992.6,2140.57C2993.5,2139.86 2994.41,2139.16 2995.34,2138.47C2995.45,2138.39 2995.56,2138.31 2995.67,2138.24C2995.78,2138.16 2995.89,2137.92 2996,2138C2996.81,2138.59 2997.45,2139.38 2998.18,2140.06C2998.89,2140.73 2999.6,2141.4 3000.31,2142.07C3003.64,2145.22 3006.98,2148.35 3010.33,2151.47C3019.66,2160.14 3029.1,2168.68 3038.66,2177.09C3042.83,2180.75 3047.01,2184.39 3051.2,2188.01C3051.23,2188.03 3054.99,2191.29 3055,2191.29C3055.01,2191.29 3057.15,2189.38 3057.16,2189.37C3059.88,2186.95 3062.57,2184.49 3065.22,2181.99C3070.43,2177.07 3075.51,2172.02 3080.46,2166.84C3085.11,2161.98 3089.66,2157.02 3094.2,2152.06C3096.68,2149.36 3099.16,2146.67 3101.67,2144.01C3102.29,2143.37 3102.9,2142.72 3103.52,2142.08C3103.72,2141.87 3103.84,2141.39 3104.13,2141.45C3104.77,2141.56 3105.22,2142.15 3105.76,2142.5C3106.86,2143.22 3107.96,2143.93 3109.06,2144.64C3113.41,2147.48 3117.73,2150.36 3122.01,2153.3C3129.93,2158.75 3137.69,2164.43 3145.29,2170.32C3154.03,2177.09 3162.57,2184.13 3171,2191.29L3171,1960Z" style="fill:url(#_Linear1);"/>
                    </g>
                    <g transform="matrix(0.485436,0,0,0.485436,542.816,318.727)">
                        <g>
                            <path d="M456.672,166.916C460.965,161.513 495.859,117.039 522.521,89.818C563.292,48.193 607.344,11.072 657.583,11.072C723.411,11.072 769.589,68.946 769.589,125.56C769.589,175.858 728.545,238.076 660.172,237.878C620.976,237.765 491.743,237.878 491.743,237.878L471.386,264.872L520.788,264.872C569.313,264.872 603.155,307.225 603.155,350.556C603.155,393.887 565.852,434.431 522.521,434.431L345.986,434.431C344,440.389 284.071,511.485 255.063,536.665C219.512,567.525 183.459,590.237 145.282,590.237C72.871,590.237 32.844,529.605 32.844,474.998C32.844,420.391 79.213,364.354 145.282,363.518L310.93,363.518L331.706,336.331L281.02,336.331C235.636,336.331 199.863,296.952 199.863,251.569C199.863,214.057 225.366,166.916 281.02,166.916L456.672,166.916ZM657.383,202.472C701.129,202.472 733.796,168.329 733.796,124.724C733.796,81.119 699.026,46.976 657.383,46.976C603.761,46.976 540.03,115.646 473.627,202.472L283.668,202.472C249.382,202.473 235.353,230.281 235.353,251.63C235.353,272.98 251.97,300.788 283.668,300.789L401.333,300.789C377.12,334.343 352.907,367.897 329.038,399.105L145.282,399.105C105.7,399.106 68.869,433.249 68.869,476.853C68.869,520.458 103.356,554.602 145.282,554.602C198.905,554.602 262.635,485.932 329.038,399.105L518.998,399.105C550.574,399.105 567.312,371.708 567.312,349.947C567.312,328.186 550.817,300.789 518.998,300.789L401.333,300.789C425.546,267.235 449.759,233.681 473.627,202.472L657.383,202.472Z" style="fill:url(#_Linear2);"/>
                            <g transform="matrix(5.21368,-2.44461,2.44461,5.21368,-2626.13,-2270.79)">
                                <path d="M305.024,610.54C305.015,610.545 305.012,610.556 305.016,610.565C305.021,610.574 305.031,610.577 305.04,610.573C305.049,610.568 305.053,610.557 305.049,610.548C305.044,610.539 305.033,610.536 305.024,610.54Z" style="fill:none;stroke:black;stroke-width:0.02px;stroke-linejoin:miter;stroke-miterlimit:10;"/>
                                <path d="M333.978,630.954C333.969,630.95 333.958,630.954 333.954,630.963C333.949,630.972 333.953,630.983 333.962,630.988C333.971,630.992 333.982,630.988 333.987,630.979C333.991,630.97 333.987,630.959 333.978,630.954Z" style="fill:none;stroke:black;stroke-width:0.02px;stroke-linejoin:miter;stroke-miterlimit:10;"/>
                                <path d="M304.985,610.541C304.995,610.545 304.998,610.556 304.994,610.565C304.99,610.574 304.979,610.578 304.97,610.574C304.961,610.569 304.957,610.559 304.961,610.549C304.965,610.54 304.976,610.536 304.985,610.541Z" style="fill:none;stroke:black;stroke-width:0.02px;stroke-linejoin:miter;stroke-miterlimit:10;"/>
                                <path d="M333.923,630.929C333.932,630.933 333.936,630.944 333.932,630.953C333.927,630.962 333.916,630.966 333.907,630.962C333.898,630.957 333.894,630.947 333.899,630.938C333.903,630.928 333.914,630.924 333.923,630.929Z" style="fill:none;stroke:black;stroke-width:0.02px;stroke-linejoin:miter;stroke-miterlimit:10;"/>
                                <path d="M305.049,610.548C306.296,609.928 314.921,605.588 321.043,603.302C330.522,599.763 340.186,597.174 348.085,600.878C358.435,605.731 361.429,618.236 357.256,627.137C353.547,635.046 342.507,641.803 331.771,636.731C325.616,633.823 305.288,624.313 305.288,624.313L300.097,627.057C300.097,627.057 300.235,627.122 307.865,630.699C315.495,634.277 317.693,643.431 314.499,650.244C311.304,657.057 302.45,660.682 295.636,657.487L267.879,644.472C267.128,645.263 252.463,652.023 246.046,653.844C238.181,656.075 230.837,656.988 224.835,654.174C213.449,648.835 211.626,636.351 215.651,627.765C219.677,619.179 231.099,613.786 241.55,618.526L267.595,630.738L272.866,627.995L264.897,624.258C257.761,620.912 255.039,612.083 258.385,604.947C261.151,599.049 268.636,593.517 277.387,597.62C277.387,597.62 303.737,609.975 304.961,610.549M333.987,630.979C340.854,634.171 348.481,631.209 351.689,624.367C354.904,617.511 351.954,609.579 345.406,606.509C336.975,602.555 321.892,608.654 305.05,617.411L275.182,603.406C269.791,600.879 265.535,604.217 263.961,607.574C262.387,610.93 262.949,616.528 267.933,618.865L286.434,627.54C280.153,631.03 273.872,634.521 267.819,637.669L238.926,624.121C232.702,621.203 224.394,623.856 221.179,630.712C217.964,637.569 220.87,645.48 227.462,648.571C235.893,652.524 250.977,646.425 267.819,637.669L297.687,651.673C302.652,654.001 307.303,650.927 308.908,647.506C310.512,644.084 309.938,638.56 304.935,636.215L286.434,627.54C292.715,624.049 298.996,620.558 305.05,617.411C305.05,617.411 332.645,630.35 333.899,630.938" style="fill:none;stroke:black;stroke-width:0.02px;stroke-miterlimit:1.5;"/>
                            </g>
                        </g>
                    </g>
                    <g transform="matrix(1,0,0,1,-2495.24,-1941.09)">
                        <path d="M2675,2049.04L2713.82,2049.04C2715.9,2046.41 2732.84,2024.82 2745.78,2011.61C2765.58,1991.4 2786.96,1973.38 2811.35,1973.38C2843.3,1973.38 2865.72,2001.48 2865.72,2028.96C2865.72,2053.38 2845.8,2083.58 2812.61,2083.48C2793.58,2083.43 2730.84,2083.48 2730.84,2083.48L2720.96,2096.59L2744.94,2096.59C2768.5,2096.59 2784.93,2117.15 2784.93,2138.18C2784.93,2159.22 2766.82,2178.9 2745.78,2178.9L2675,2178.9L2675,2161.75L2744.07,2161.75C2759.4,2161.75 2767.53,2148.45 2767.53,2137.89C2767.53,2127.32 2759.52,2114.02 2744.07,2114.02L2686.95,2114.02C2698.71,2097.74 2710.46,2081.45 2722.05,2066.3L2811.25,2066.3C2832.49,2066.3 2848.35,2049.72 2848.35,2028.56C2848.35,2007.39 2831.47,1990.81 2811.25,1990.81C2785.22,1990.81 2754.28,2024.15 2722.05,2066.3L2675,2066.3L2675,2049.04ZM2675,2130.55L2675,2114.02L2686.95,2114.02C2682.97,2119.55 2678.98,2125.07 2675,2130.55Z" style="fill:url(#_Linear3);"/>
                    </g>
                </g>
            </g>
        </g>
        <g transform="matrix(0.873885,0,0,1.00503,5077.56,1058.17)">
            <g transform="matrix(0.370649,0.151112,-0.173791,0.322282,275.699,-91.1029)">
                <g>
                    <g transform="matrix(1,0,0,1,-2495.24,-1935.09)">
                        <path d="M3435,2648L2675,2648L2675,1946L3435,1946L3435,2648ZM3017,2549L3017,2369L2768,2369L2768,2549L3017,2549ZM2910,2406L2910,2442L2805,2442L2805,2406L2910,2406ZM3171,1960L2937,1960L2937,2191.29C2945.57,2184.03 2953.8,2176.38 2961.95,2168.66C2968.49,2162.46 2974.95,2156.2 2981.59,2150.11C2985.17,2146.83 2988.79,2143.59 2992.6,2140.57C2993.5,2139.86 2994.41,2139.16 2995.34,2138.47C2995.45,2138.39 2995.56,2138.31 2995.67,2138.24C2995.78,2138.16 2995.89,2137.92 2996,2138C2996.81,2138.59 2997.45,2139.38 2998.18,2140.06C2998.89,2140.73 2999.6,2141.4 3000.31,2142.07C3003.64,2145.22 3006.98,2148.35 3010.33,2151.47C3019.66,2160.14 3029.1,2168.68 3038.66,2177.09C3042.83,2180.75 3047.01,2184.39 3051.2,2188.01C3051.23,2188.03 3054.99,2191.29 3055,2191.29C3055.01,2191.29 3057.15,2189.38 3057.16,2189.37C3059.88,2186.95 3062.57,2184.49 3065.22,2181.99C3070.43,2177.07 3075.51,2172.02 3080.46,2166.84C3085.11,2161.98 3089.66,2157.02 3094.2,2152.06C3096.68,2149.36 3099.16,2146.67 3101.67,2144.01C3102.29,2143.37 3102.9,2142.72 3103.52,2142.08C3103.72,2141.87 3103.84,2141.39 3104.13,2141.45C3104.77,2141.56 3105.22,2142.15 3105.76,2142.5C3106.86,2143.22 3107.96,2143.93 3109.06,2144.64C3113.41,2147.48 3117.73,2150.36 3122.01,2153.3C3129.93,2158.75 3137.69,2164.43 3145.29,2170.32C3154.03,2177.09 3162.57,2184.13 3171,2191.29L3171,1960Z" style="fill:url(#_Linear4);"/>
                    </g>
                    <g transform="matrix(0.485436,0,0,0.485436,542.816,318.727)">
                        <g>
                            <path d="M456.672,166.916C460.965,161.513 495.859,117.039 522.521,89.818C563.292,48.193 607.344,11.072 657.583,11.072C723.411,11.072 769.589,68.946 769.589,125.56C769.589,175.858 728.545,238.076 660.172,237.878C620.976,237.765 491.743,237.878 491.743,237.878L471.386,264.872L520.788,264.872C569.313,264.872 603.155,307.225 603.155,350.556C603.155,393.887 565.852,434.431 522.521,434.431L345.986,434.431C344,440.389 284.071,511.485 255.063,536.665C219.512,567.525 183.459,590.237 145.282,590.237C72.871,590.237 32.844,529.605 32.844,474.998C32.844,420.391 79.213,364.354 145.282,363.518L310.93,363.518L331.706,336.331L281.02,336.331C235.636,336.331 199.863,296.952 199.863,251.569C199.863,214.057 225.366,166.916 281.02,166.916L456.672,166.916ZM657.383,202.472C701.129,202.472 733.796,168.329 733.796,124.724C733.796,81.119 699.026,46.976 657.383,46.976C603.761,46.976 540.03,115.646 473.627,202.472L283.668,202.472C249.382,202.473 235.353,230.281 235.353,251.63C235.353,272.98 251.97,300.788 283.668,300.789L401.333,300.789C377.12,334.343 352.907,367.897 329.038,399.105L145.282,399.105C105.7,399.106 68.869,433.249 68.869,476.853C68.869,520.458 103.356,554.602 145.282,554.602C198.905,554.602 262.635,485.932 329.038,399.105L518.998,399.105C550.574,399.105 567.312,371.708 567.312,349.947C567.312,328.186 550.817,300.789 518.998,300.789L401.333,300.789C425.546,267.235 449.759,233.681 473.627,202.472L657.383,202.472Z" style="fill:url(#_Linear5);"/>
                            <g transform="matrix(5.21368,-2.44461,2.44461,5.21368,-2625.63,-789.053)">
                                <path d="M414.185,377.523C414.176,377.528 414.173,377.539 414.177,377.548C414.182,377.557 414.192,377.56 414.202,377.556C414.211,377.552 414.214,377.541 414.21,377.532C414.205,377.523 414.194,377.519 414.185,377.523Z" style="fill:none;stroke:black;stroke-width:0.02px;stroke-linejoin:miter;stroke-miterlimit:10;"/>
                                <path d="M443.139,397.938C443.13,397.933 443.119,397.937 443.115,397.946C443.11,397.956 443.114,397.966 443.123,397.971C443.132,397.975 443.143,397.971 443.148,397.962C443.152,397.953 443.148,397.942 443.139,397.938Z" style="fill:none;stroke:black;stroke-width:0.02px;stroke-linejoin:miter;stroke-miterlimit:10;"/>
                                <path d="M414.146,377.524C414.156,377.528 414.159,377.539 414.155,377.548C414.151,377.557 414.14,377.561 414.131,377.557C414.122,377.553 414.118,377.542 414.122,377.533C414.126,377.523 414.137,377.52 414.146,377.524Z" style="fill:none;stroke:black;stroke-width:0.02px;stroke-linejoin:miter;stroke-miterlimit:10;"/>
                                <path d="M443.084,397.912C443.093,397.916 443.097,397.927 443.093,397.936C443.088,397.945 443.077,397.949 443.068,397.945C443.059,397.941 443.055,397.93 443.06,397.921C443.064,397.912 443.075,397.908 443.084,397.912Z" style="fill:none;stroke:black;stroke-width:0.02px;stroke-linejoin:miter;stroke-miterlimit:10;"/>
                                <path d="M414.21,377.532C415.457,376.911 424.082,372.571 430.204,370.286C439.683,366.746 449.347,364.157 457.246,367.861C467.596,372.714 470.591,385.219 466.417,394.12C462.708,402.029 451.668,408.786 440.932,403.714C434.777,400.806 414.449,391.297 414.449,391.297L409.258,394.04C409.258,394.04 409.396,394.105 417.026,397.682C424.656,401.26 426.854,410.414 423.66,417.227C420.465,424.04 411.611,427.665 404.798,424.471L377.04,411.456C376.289,412.246 361.624,419.006 355.207,420.827C347.342,423.058 339.998,423.971 333.996,421.157C322.61,415.818 320.787,403.334 324.812,394.748C328.838,386.162 340.26,380.769 350.711,385.509L376.756,397.721L382.027,394.978L374.058,391.241C366.922,387.895 364.2,379.066 367.546,371.93C370.312,366.032 377.797,360.5 386.548,364.603C386.548,364.603 412.898,376.959 414.122,377.533M443.148,397.962C450.015,401.154 457.642,398.192 460.85,391.35C464.065,384.494 461.115,376.562 454.567,373.492C446.136,369.539 431.053,375.637 414.211,384.394L384.343,370.389C378.952,367.862 374.696,371.2 373.122,374.557C371.548,377.914 372.11,383.511 377.094,385.848L395.595,394.523C389.314,398.014 383.033,401.504 376.98,404.652L348.087,391.104C341.863,388.186 333.555,390.839 330.34,397.696C327.125,404.552 330.031,412.463 336.623,415.554C345.054,419.507 360.138,413.408 376.98,404.652L406.848,418.656C411.813,420.984 416.464,417.911 418.069,414.489C419.673,411.067 419.099,405.544 414.096,403.198L395.595,394.523C401.876,391.032 408.157,387.541 414.211,384.394C414.211,384.394 441.806,397.333 443.06,397.921" style="fill:none;stroke:black;stroke-width:0.02px;stroke-miterlimit:1.5;"/>
                            </g>
                        </g>
                    </g>
                    <g transform="matrix(1,0,0,1,-2495.24,-1941.09)">
                        <path d="M2675,2049.04L2713.82,2049.04C2715.9,2046.41 2732.84,2024.82 2745.78,2011.61C2765.58,1991.4 2786.96,1973.38 2811.35,1973.38C2843.3,1973.38 2865.72,2001.48 2865.72,2028.96C2865.72,2053.38 2845.8,2083.58 2812.61,2083.48C2793.58,2083.43 2730.84,2083.48 2730.84,2083.48L2720.96,2096.59L2744.94,2096.59C2768.5,2096.59 2784.93,2117.15 2784.93,2138.18C2784.93,2159.22 2766.82,2178.9 2745.78,2178.9L2675,2178.9L2675,2161.75L2744.07,2161.75C2759.4,2161.75 2767.53,2148.45 2767.53,2137.89C2767.53,2127.32 2759.52,2114.02 2744.07,2114.02L2686.95,2114.02C2698.71,2097.74 2710.46,2081.45 2722.05,2066.3L2811.25,2066.3C2832.49,2066.3 2848.35,2049.72 2848.35,2028.56C2848.35,2007.39 2831.47,1990.81 2811.25,1990.81C2785.22,1990.81 2754.28,2024.15 2722.05,2066.3L2675,2066.3L2675,2049.04ZM2675,2130.55L2675,2114.02L2686.95,2114.02C2682.97,2119.55 2678.98,2125.07 2675,2130.55Z" style="fill:url(#_Linear6);"/>
                    </g>
                </g>
            </g>
        </g>
    </g>
    <defs>
        <linearGradient id="_Linear1" x1="0" y1="0" x2="1" y2="0" gradientUnits="userSpaceOnUse" gradientTransform="matrix(667,917,-1106.43,804.788,2768,1731)"><stop offset="0" style="stop-color:rgb(243,170,59);stop-opacity:1"/><stop offset="0.43" style="stop-color:rgb(237,164,53);stop-opacity:1"/><stop offset="1" style="stop-color:rgb(191,115,0);stop-opacity:1"/></linearGradient>
        <linearGradient id="_Linear2" x1="0" y1="0" x2="1" y2="0" gradientUnits="userSpaceOnUse" gradientTransform="matrix(-748.814,585.739,-585.739,-748.814,763.957,15.5995)"><stop offset="0" style="stop-color:rgb(249,207,0);stop-opacity:1"/><stop offset="1" style="stop-color:rgb(241,159,77);stop-opacity:1"/></linearGradient>
        <linearGradient id="_Linear3" x1="0" y1="0" x2="1" y2="0" gradientUnits="userSpaceOnUse" gradientTransform="matrix(-289.5,206.289,-248.904,-349.305,2857.5,1991)"><stop offset="0" style="stop-color:rgb(249,207,0);stop-opacity:1"/><stop offset="1" style="stop-color:rgb(241,159,77);stop-opacity:1"/></linearGradient>
        <linearGradient id="_Linear4" x1="0" y1="0" x2="1" y2="0" gradientUnits="userSpaceOnUse" gradientTransform="matrix(667,917,-1106.43,804.788,2768,1731)"><stop offset="0" style="stop-color:rgb(243,170,59);stop-opacity:1"/><stop offset="0.43" style="stop-color:rgb(237,164,53);stop-opacity:1"/><stop offset="1" style="stop-color:rgb(191,115,0);stop-opacity:1"/></linearGradient>
        <linearGradient id="_Linear5" x1="0" y1="0" x2="1" y2="0" gradientUnits="userSpaceOnUse" gradientTransform="matrix(-748.814,585.739,-585.739,-748.814,763.957,15.5995)"><stop offset="0" style="stop-color:rgb(249,207,0);stop-opacity:1"/><stop offset="1" style="stop-color:rgb(241,159,77);stop-opacity:1"/></linearGradient>
        <linearGradient id="_Linear6" x1="0" y1="0" x2="1" y2="0" gradientUnits="userSpaceOnUse" gradientTransform="matrix(-289.5,206.289,-248.904,-349.305,2857.5,1991)"><stop offset="0" style="stop-color:rgb(249,207,0);stop-opacity:1"/><stop offset="1" style="stop-color:rgb(241,159,77);stop-opacity:1"/></linearGradient>
    </defs>
</svg>
